<svg width="60" height="67" viewBox="0 0 60 67" fill="none" xmlns="http://www.w3.org/2000/svg">
<path d="M12.6685 37.4054C16.3487 34.2811 20.1146 31.2202 23.553 27.824C25.1354 26.2611 26.4439 24.5439 27.875 22.8551C30.5193 19.7347 33.6028 17.0267 36.8751 14.5863C41.5942 11.067 46.0459 7.19121 51.6504 5.17358" stroke="#7DFF68" stroke-width="8" stroke-linecap="round"/>
<path d="M59.6398 1.14221C59.5492 0.829247 59.3604 0.553695 59.1012 0.35621C58.8421 0.158724 58.5263 0.0497693 58.2005 0.0454116C52.9626 -0.291655 47.5535 1.28131 42.4654 3.64613L42.3852 3.61403C35.8097 1.67188 29.2449 4.37377 23.4399 7.43413C17.7945 10.4423 12.8581 14.6234 8.96205 19.6969C8.36817 20.462 8.36817 22.0083 9.61478 22.1902C11.9742 22.5272 14.3284 22.7573 16.6985 22.8589C13.5752 26.3087 10.6459 29.9293 7.9241 33.7039C7.73063 33.9376 7.63298 34.236 7.65085 34.5388C7.66872 34.8417 7.80079 35.1264 8.0204 35.3357C8.07598 35.4371 8.14236 35.5322 8.21837 35.6193C8.40563 35.844 8.60358 36.058 8.79619 36.2774C6.46883 37.4812 4.09331 38.8295 2.51499 40.9803C0.374879 43.8801 0.674481 47.4434 0.0270988 50.8141C-0.133409 51.6594 0.42837 52.8097 1.46632 52.6974L3.25866 52.5048C2.32777 56.2236 2.22911 60.102 2.96974 63.8634C3.03117 64.1191 3.16055 64.3536 3.34419 64.5419C3.52782 64.7303 3.75891 64.8655 4.01305 64.9334C5.23826 65.2223 6.97174 64.7569 8.57147 64.0346C8.57936 64.6262 8.75567 65.2034 9.07975 65.6985C10.2889 67.3999 13.2583 66.0409 14.7082 65.4417C20.3742 63.0876 25.4569 59.6527 29.0362 54.6288C29.3103 54.7208 29.6041 54.737 29.8866 54.6758C30.1691 54.6145 30.4299 54.4782 30.6413 54.281C33.5037 51.7771 36.3875 49.1287 39.1429 46.3252C39.7136 48.4653 40.2843 50.6179 40.855 52.783C40.9278 53.0313 41.0634 53.2567 41.2488 53.4373C41.4342 53.6179 41.6631 53.7475 41.9133 53.8137C42.1635 53.8799 42.4266 53.8804 42.677 53.8151C42.9275 53.7498 43.1568 53.621 43.3429 53.441C48.0084 48.2517 51.8369 42.3672 54.6908 35.9992C57.2161 30.3012 59.6826 23.8541 57.4622 17.7013C59.4578 12.2761 60.6349 6.59413 59.6398 1.14221ZM23.258 10.9385C27.6184 8.38647 32.8349 5.81835 38.0033 5.93606C35.066 7.58929 32.2946 9.40838 29.796 11.1526C26.0909 13.7692 22.6295 16.7149 19.4539 19.9537H19.3576C17.1937 19.9551 15.0312 19.8462 12.8784 19.6274C15.8497 16.1908 19.3564 13.2568 23.2633 10.9385H23.258ZM18.2234 60.3589C16.9072 61.0973 15.5482 61.7875 14.1572 62.4135C13.288 62.8394 12.3796 63.1798 11.4446 63.43C11.8298 63.2588 12.0866 61.8249 12.2846 61.5146C13.2369 60.0593 11.1503 58.5827 9.9465 59.7116C8.92459 60.6693 7.60844 61.017 6.30832 61.4451C6.16386 61.4986 5.891 61.5681 5.61813 61.6484C5.17457 58.1189 5.56489 54.5345 6.75774 51.1833C6.8176 50.9625 6.82591 50.7309 6.78204 50.5063C6.73816 50.2818 6.64327 50.0704 6.50469 49.8884C6.36612 49.7064 6.18757 49.5587 5.98283 49.4566C5.77809 49.3546 5.55263 49.301 5.32387 49.2999L3.18377 49.53C3.39243 47.3257 3.48872 45.009 4.62833 43.1632C5.98195 40.9696 8.50727 39.7711 10.7169 38.6369C10.753 38.615 10.787 38.59 10.8186 38.562C11.0701 38.8348 11.3536 39.097 11.5783 39.3699C11.5061 39.4233 11.4397 39.4843 11.3804 39.5518C8.40561 43.222 15.0877 40.0389 16.2541 44.3191C16.3608 44.6999 16.6113 45.0244 16.9527 45.2241C17.2941 45.4237 17.6997 45.4829 18.0839 45.3892C18.4477 45.3303 18.8008 45.25 19.154 45.1805C19.0412 45.8793 18.984 46.586 18.9827 47.2939C18.9851 47.5223 19.0395 47.7473 19.1418 47.9516C19.2441 48.156 19.3916 48.3343 19.5732 48.473C19.7548 48.6118 19.9656 48.7073 20.1896 48.7523C20.4136 48.7974 20.6449 48.7908 20.866 48.7331C24.7351 47.6551 22.2088 54.6374 24.7614 51.5364C24.781 51.5109 24.7989 51.484 24.8149 51.4561C25.4248 51.9323 26.0347 52.4084 26.65 52.8686C24.4483 55.9726 21.5683 58.5342 18.2287 60.3589H18.2234ZM29.4589 51.2956C22.7272 46.3521 16.5589 40.6844 11.0647 34.3941C16.6825 26.7646 23.4987 19.1352 31.2727 13.726C38.4046 8.75565 47.8264 2.96666 56.8844 2.98806C57.4194 7.56253 56.0016 12.3029 54.466 16.551C52.7942 21.166 50.7211 25.6255 48.2704 29.8785C43.6157 38.0269 36.4999 45.0839 29.491 51.2956H29.4589ZM51.2238 36.3148C48.9943 40.9348 46.2191 45.2709 42.9576 49.2304C42.4761 47.4113 41.9928 45.5886 41.5077 43.7624C45.4002 39.6492 48.7664 35.0682 51.5288 30.1246C52.7754 27.8079 54.0808 25.3094 55.2739 22.7466C55.3702 27.4227 53.2408 32.1737 51.2559 36.3148H51.2238Z" fill="black"/>
<path d="M43.3749 15.2668C42.293 14.7204 41.0671 14.5267 39.8695 14.7129C38.6719 14.899 37.5627 15.4558 36.6977 16.3048C36.1773 16.8622 35.7772 17.5207 35.5222 18.2394C35.2671 18.9581 35.1627 19.7216 35.2154 20.4824C35.2681 21.2431 35.4768 21.9849 35.8284 22.6616C36.1801 23.3383 36.6672 23.9354 37.2595 24.4157C40.1433 26.6308 44.279 25.0524 45.8467 22.0616C46.0487 21.7381 46.1715 21.3715 46.2051 20.9916C46.4324 19.8587 46.278 18.6825 45.7659 17.6467C45.2538 16.6109 44.413 15.7741 43.3749 15.2668ZM38.4151 21.2217C38.24 20.8527 38.1556 20.4472 38.169 20.039C38.1823 19.6309 38.293 19.2318 38.4919 18.8751C38.6907 18.5183 38.9719 18.2143 39.3121 17.9883C39.6522 17.7623 40.0415 17.6208 40.4474 17.5757C40.8533 17.5306 41.2641 17.5832 41.6456 17.729C42.027 17.8748 42.3681 18.1097 42.6404 18.4141C42.9127 18.7185 43.1083 19.0835 43.211 19.4788C43.3136 19.8741 43.3202 20.2882 43.2304 20.6866C42.4813 22.6074 39.3621 23.212 38.4151 21.2217Z" fill="black"/>
<path d="M27.747 27.8615C27.0267 27.9808 26.3398 28.2513 25.7316 28.6553C25.1234 29.0593 24.6078 29.5875 24.2185 30.2052C23.8293 30.8229 23.5754 31.5161 23.4735 32.239C23.3715 32.962 23.424 33.6983 23.6272 34.3996C23.6624 34.5171 23.7108 34.6302 23.7717 34.7366C24.2887 35.965 25.249 36.9539 26.4616 37.5068C27.6742 38.0597 29.0505 38.1361 30.3169 37.721C31.5833 37.3058 32.6471 36.4294 33.2971 35.2659C33.947 34.1024 34.1354 32.7369 33.8248 31.4409C33.1454 28.8032 30.3418 27.3586 27.747 27.8615ZM29.8871 34.6778C28.5655 35.5071 27.1263 34.7527 26.4629 33.5168C25.7085 30.6276 30.5986 29.6004 30.9785 32.4039C31.0251 32.8451 30.9494 33.2906 30.7597 33.6917C30.57 34.0927 30.2737 34.4339 29.9031 34.6778H29.8871Z" fill="black"/>
</svg>
