<svg width="61" height="60" viewBox="0 0 61 60" fill="none" xmlns="http://www.w3.org/2000/svg">
<path d="M33.9512 11.5692C37.0137 9.48004 40.0875 7.07006 43.5729 5.64254C45.0142 5.05225 46.6206 5.00617 48.1589 4.88415C49.3653 4.78845 50.4605 4.78158 51.4532 5.5021" stroke="#7DFF68" stroke-width="7" stroke-linecap="round"/>
<path d="M24.0245 51.6377C21.7282 53.2606 19.6383 54.3551 16.8626 55.0786C14.7706 55.6238 12.4174 56.0895 10.2376 55.7808C8.80521 55.5779 7.42995 55.1218 6 54.9241" stroke="#7DFF68" stroke-width="7" stroke-linecap="round"/>
<g clip-path="url(#clip0_21_1143)">
<path d="M58.8265 5.49573C53.5454 -1.41084 44.19 -1.31328 37.3218 3.06348C33.662 5.49924 30.3809 8.43638 27.5797 11.7845C25.1258 14.6134 22.2452 17.9302 20.9116 21.4485C20.8405 21.6522 20.7738 21.8538 20.7115 22.0533C16.8572 23.6966 13.403 26.1169 10.576 29.155C7.38197 32.4977 3.90788 36.2696 1.75407 40.3472C-1.46663 46.3759 -0.246366 53.6791 5.4082 58.0169C11.8629 62.9659 20.8716 57.6527 26.0794 53.4255C29.8217 50.2673 33.1158 46.6368 35.8749 42.6299C37.1639 40.8978 38.2951 39.059 39.2556 37.1346C46.8573 35.951 52.2184 30.241 56.2393 24.1734C59.8668 18.665 63.4142 11.5048 58.8265 5.49573ZM31.6739 20.1023C32.3408 19.1528 33.0076 18.3074 33.4877 17.67C36.6017 13.768 40.0091 9.18314 45.1769 7.84345C48.8044 6.90696 52.3185 8.93601 52.0384 12.812C51.885 14.9581 50.7448 17.0197 49.4645 18.7171C46.9773 22.0143 44.13 25.37 40.5092 27.4641C39.4823 23.2499 36.3416 19.7056 31.6739 20.1023ZM28.7533 36.8289C27.4997 38.4678 26.2728 39.8725 25.806 40.4773C23.4455 43.5469 21.025 47.1237 17.4375 48.9317C15.5571 49.8877 11.7763 50.9217 10.2092 49.0357C8.04878 46.4344 10.456 42.2787 12.043 40.1066C14.8436 36.2566 18.231 33.2521 21.9918 30.3516C23.5379 33.1163 25.8913 35.3708 28.7533 36.8289ZM16.6507 57.4056C11.8229 59.2135 7.24861 58.7062 4.08125 54.414C1.62071 51.1168 0.647163 47.3644 1.98079 43.4624C3.48778 39.0856 6.95521 35.4437 9.98254 31.9969C13.0099 28.5501 16.2439 25.7147 20.3648 23.8222C20.3648 23.9263 20.3648 24.0368 20.3648 24.1409C19.938 24.31 19.5113 24.4856 19.1045 24.6872C19.0196 24.7354 18.9452 24.7995 18.8857 24.8758C18.8261 24.9521 18.7826 25.039 18.7575 25.1317C18.7324 25.2244 18.7263 25.321 18.7395 25.416C18.7527 25.511 18.785 25.6026 18.8345 25.6854C18.8839 25.7683 18.9497 25.8408 19.0279 25.8989C19.1061 25.9569 19.1953 25.9994 19.2903 26.0238C19.3854 26.0483 19.4844 26.0543 19.5818 26.0414C19.6792 26.0285 19.7731 25.9971 19.858 25.9488C20.0381 25.8643 20.2248 25.7927 20.4115 25.7147C20.4082 25.7471 20.4082 25.7798 20.4115 25.8122C20.0981 25.9943 19.7847 26.1764 19.4713 26.3715C18.6578 26.8723 19.4113 28.1404 20.2314 27.6332L20.7115 27.347L20.7516 27.5031L20.1914 27.8998C20.025 28.001 19.9042 28.16 19.8535 28.3447C19.8027 28.5294 19.8258 28.7261 19.918 28.8948C20.0184 29.0626 20.1827 29.1848 20.3751 29.2348C20.5675 29.2847 20.7724 29.2584 20.9449 29.1615L21.2583 28.9404C21.2733 28.9827 21.2911 29.0239 21.3117 29.0639H21.265C16.2106 32.9204 8.59557 38.7669 7.9821 45.5825C7.78205 47.8066 8.48221 50.59 10.8361 51.2339C13.3267 51.7825 15.9372 51.4191 18.171 50.2128C23.4455 47.4879 26.6328 41.5504 30.387 37.2581C32.7342 34.5658 36.1616 27.1844 29.6135 26.8528C29.595 26.8127 29.5794 26.7714 29.5668 26.7292H29.6468C29.8336 26.712 30.007 26.6275 30.1333 26.4922C30.2596 26.3569 30.3295 26.1805 30.3295 25.9976C30.3295 25.8146 30.2596 25.6383 30.1333 25.503C30.007 25.3676 29.8336 25.2831 29.6468 25.2659H29.3801C29.3801 25.2269 29.3801 25.1879 29.3801 25.1424C29.7135 25.1424 30.0469 25.1879 30.387 25.2269C30.4851 25.2269 30.5822 25.2081 30.6728 25.1715C30.7634 25.1349 30.8457 25.0812 30.9151 25.0136C30.9844 24.946 31.0394 24.8657 31.077 24.7773C31.1145 24.6889 31.1338 24.5942 31.1338 24.4986C31.1288 24.3063 31.0488 24.1232 30.9099 23.9866C30.7711 23.85 30.5841 23.7702 30.387 23.7637L29.7202 23.6986C29.7602 23.6011 29.7935 23.497 29.8335 23.393L30.427 23.4645C30.6135 23.4551 30.7897 23.3779 30.9207 23.2481C31.0517 23.1183 31.1281 22.9453 31.1348 22.7632C31.1415 22.5812 31.078 22.4033 30.9569 22.2647C30.8357 22.126 30.6657 22.0367 30.4804 22.0143L30.6204 21.7541C34.9813 20.7071 37.9086 23.6401 39.0022 27.5356C40.0958 31.4311 38.7422 35.3006 36.7417 38.5913C32.1874 46.1678 25.3192 54.1734 16.6507 57.4056ZM39.9291 35.5478C39.9624 35.4632 39.9891 35.3787 40.0158 35.3006C40.1413 35.2974 40.2645 35.2662 40.3758 35.2096L41.5894 34.5593C42.4496 34.1235 41.6895 32.8554 40.8359 33.2976L40.5559 33.4407L40.6559 33.057C41.1427 32.8684 41.6228 32.6733 42.0962 32.4587C42.2671 32.3598 42.391 32.199 42.441 32.0115C42.4909 31.8239 42.4629 31.6247 42.3629 31.4572C42.2602 31.292 42.096 31.1719 41.9045 31.1222C41.7131 31.0725 41.5094 31.097 41.3361 31.1905C41.1894 31.2621 41.036 31.3206 40.8893 31.3856C40.8893 31.2685 40.8893 31.145 40.8893 31.0279L41.7895 30.7028C41.9777 30.6468 42.1366 30.5224 42.2334 30.3554C42.3302 30.1883 42.3575 29.9914 42.3096 29.8053C42.2566 29.6187 42.1301 29.4601 41.9578 29.3638C41.7855 29.2676 41.5812 29.2416 41.3894 29.2915L40.8626 29.4866C40.8626 29.3241 40.8293 29.168 40.8159 29.0054C44.0433 27.3015 46.1504 24.9278 48.4643 22.1899C50.2913 20.0438 52.0917 18.0407 53.0186 15.3483C54.7456 10.3017 51.5249 5.19658 45.717 6.24363C38.8488 7.47276 33.8677 14.3338 30.1603 19.543C27.493 23.2629 26.2661 28.9078 32.1607 30.176V30.4556C31.8348 30.3473 31.4912 30.2988 31.1472 30.3126C30.9489 30.3175 30.7602 30.3965 30.62 30.5333C30.4797 30.67 30.3987 30.8541 30.3937 31.0474C30.3954 31.2412 30.4756 31.4265 30.6167 31.5629C30.7578 31.6993 30.9485 31.7758 31.1472 31.7758C31.3742 31.7693 31.6004 31.8046 31.814 31.8799C31.7673 32.0034 31.7139 32.1335 31.6606 32.2636C31.3739 32.192 31.0805 32.1205 30.8004 32.0359C30.6151 32.0026 30.4236 32.0382 30.2638 32.1357C30.1041 32.2332 29.9876 32.3856 29.9373 32.5628C29.8871 32.74 29.9068 32.9291 29.9925 33.0928C30.0782 33.2565 30.2237 33.383 30.4003 33.4472C30.5937 33.5057 30.7871 33.5512 30.9805 33.6033C30.9004 33.7463 30.8204 33.8894 30.7271 34.0325C30.427 33.9284 30.1203 33.8244 29.8069 33.7398C29.6215 33.7064 29.4301 33.742 29.2703 33.8396C29.1105 33.9371 28.994 34.0895 28.9438 34.2667C28.8936 34.4438 28.9132 34.6329 28.9989 34.7967C29.0847 34.9604 29.2302 35.0868 29.4068 35.1511L29.9069 35.3071L29.6735 35.6388C27.9045 34.8329 26.3368 33.6609 25.0793 32.2042C23.8218 30.7476 22.9048 29.0413 22.3919 27.204C21.3384 23.6141 22.5453 21.1298 24.5324 18.1383C29.1201 11.2642 36.6084 2.64726 45.4503 1.45064C50.5847 0.754783 56.226 3.25858 58.6065 7.88898C60.6069 11.791 59.0933 16.3433 57.0862 19.9072C53.3787 26.5536 47.8975 33.9219 39.9157 35.5478H39.9291Z" fill="#1B1B1B"/>
<path d="M42.6958 2.75746C40.1602 3.773 37.799 5.1613 35.6943 6.87408C34.9608 7.4854 36.0277 8.51293 36.7612 7.90812C38.7683 6.28543 41.0167 4.96973 43.4293 4.0061C44.3362 3.65492 43.576 2.39327 42.6958 2.75746Z" fill="#1B1B1B"/>
<path d="M45.7569 2.12671C45.5702 2.1439 45.3967 2.22841 45.2704 2.36372C45.1442 2.49902 45.0742 2.67539 45.0742 2.85834C45.0742 3.04128 45.1442 3.21765 45.2704 3.35296C45.3967 3.48826 45.5702 3.57277 45.7569 3.58997C45.9437 3.57277 46.1171 3.48826 46.2434 3.35296C46.3696 3.21765 46.4396 3.04128 46.4396 2.85834C46.4396 2.67539 46.3696 2.49902 46.2434 2.36372C46.1171 2.22841 45.9437 2.1439 45.7569 2.12671Z" fill="#1B1B1B"/>
<path d="M17.0502 54.6931C14.6525 55.8371 11.9569 56.2496 9.31518 55.8768C8.37498 55.7402 7.98156 57.1774 8.92177 57.288C11.9622 57.7514 15.0752 57.2976 17.8437 55.9873C18.6506 55.5516 17.9171 54.2899 17.0502 54.6931Z" fill="#1B1B1B"/>
<path d="M19.8712 53.3535C19.6844 53.3707 19.511 53.4552 19.3847 53.5905C19.2584 53.7258 19.1885 53.9022 19.1885 54.0851C19.1885 54.2681 19.2584 54.4445 19.3847 54.5798C19.511 54.7151 19.6844 54.7996 19.8712 54.8168C20.0579 54.7996 20.2314 54.7151 20.3576 54.5798C20.4839 54.4445 20.5539 54.2681 20.5539 54.0851C20.5539 53.9022 20.4839 53.7258 20.3576 53.5905C20.2314 53.4552 20.0579 53.3707 19.8712 53.3535Z" fill="#1B1B1B"/>
</g>
<defs>
<clipPath id="clip0_21_1143">
<rect width="61" height="60" fill="white"/>
</clipPath>
</defs>
</svg>
