<svg width="78" height="60" viewBox="0 0 78 60" fill="none" xmlns="http://www.w3.org/2000/svg">
<path d="M9.8075 3.89412C6.57674 4.35565 5.76904 7.16335 5.76904 8.5095V13.7018C9.03827 13.7018 16.6152 13.5864 20.769 13.1249C24.9229 12.6633 54.0383 12.9326 68.0767 13.1249C71.1537 13.8941 77.3075 14.8557 77.3075 12.548C77.3075 9.66335 76.1537 4.47103 74.4229 3.89412C72.6921 3.3172 49.6152 3.31719 46.1537 3.89412C42.6921 4.47104 13.846 3.31719 9.8075 3.89412Z" fill="#7DFF68"/>
<g clip-path="url(#clip0_21_1142)">
<path d="M75.7224 28.0439C75.6069 24.1164 75.6762 20.1889 75.7224 16.2613C75.7763 13.7578 75.784 11.2696 75.6531 8.76611C75.5453 6.76789 75.8995 4.21845 75.3528 2.2968C74.8061 0.375144 73.3046 0.267956 71.5028 0.176085C66.8288 -0.0459392 62.1164 0.176091 57.4424 0.122499C47.0011 0.0765627 36.5675 0.015312 26.1339 0C20.636 0 15.169 0.130151 9.6865 0.489983C7.70758 0.620135 4.41194 0.244992 2.80262 1.61541C1.72461 2.52648 1.5937 3.98112 1.3704 5.25201C0.943301 8.14773 0.711784 11.0687 0.677392 13.9951C0.41559 20.3267 0.531105 26.6582 0.138401 32.982C-0.177303 38.1039 0.0228993 43.2104 0.138401 48.3323C0.223102 51.2033 -0.700912 55.8351 1.74772 57.9941C4.19634 60.1531 9.61721 59.2574 12.6048 59.3492C18.1181 59.5177 23.6236 59.6708 29.1369 59.755C39.4704 59.9158 49.7808 59.5483 60.1066 59.9464C64.1794 60.1346 68.2608 59.9114 72.2882 59.2803C74.5982 58.8822 75.3297 57.5041 75.5607 55.3222C76.6002 46.3111 75.9996 37.0703 75.7224 28.0439ZM6.79126 2.97818C7.76147 2.88631 8.7394 2.85568 9.71731 2.79443C13.7368 2.52647 17.7485 2.34274 21.7756 2.31211C30.4305 2.24321 39.0777 2.31211 47.7249 2.38867L58.8823 2.4346C62.8017 2.4346 67.0598 1.96759 70.9407 2.47288C72.7656 2.71022 72.8426 2.86334 73.1737 4.70843C73.3756 6.50801 73.4656 8.31827 73.4432 10.1289C73.4432 10.3815 73.4432 10.6342 73.4432 10.8945C50.0195 10.0523 26.5907 9.97575 3.15682 10.6648C3.24922 9.34796 3.36472 8.03878 3.51873 6.72961C3.82673 4.23376 4.29643 3.2002 6.79126 2.97818ZM73.6588 45.0861C73.5587 48.2251 73.6588 51.41 73.3816 54.5489C73.1968 56.8457 72.2574 56.7232 70.1476 57.0677C67.9788 57.4413 65.7869 57.6665 63.5871 57.7415C55.4943 57.9176 47.3091 57.5501 39.2009 57.5654C29.6143 57.5654 20.0277 57.3051 10.4411 57.0141C7.44576 56.9299 2.79492 57.3357 2.61012 53.4924C2.50232 51.3258 2.53313 49.1438 2.47153 46.9772C2.32522 42.3147 2.19432 37.6675 2.47153 33.0126C2.90273 26.1682 2.67941 19.2318 3.05672 12.4027C26.5266 11.7137 50.0016 11.7902 73.4817 12.6324C73.4817 15.8785 73.3585 19.1247 73.3431 22.3632C73.3123 29.9196 73.8975 37.4301 73.6588 45.0861Z" fill="#1B1B1B"/>
<path d="M8.83957 9.2562C10.2487 9.09543 11.7271 8.28389 11.4884 6.64551C11.4257 5.96905 11.1132 5.33967 10.6112 4.87877C10.1093 4.41788 9.45346 4.15814 8.77027 4.14966C7.33036 4.14966 6.27545 5.52774 6.05215 6.82925C5.75954 8.45232 7.29956 9.43229 8.83957 9.2562ZM7.80776 6.95941C7.92327 6.53833 8.25437 5.88757 8.77027 5.90289C8.97565 5.89216 9.17853 5.95161 9.34522 6.07139C9.51191 6.19116 9.63238 6.36404 9.68659 6.56129C9.91759 7.2733 9.50177 7.43408 8.85496 7.55657C8.56924 7.62378 8.26931 7.59692 8.00027 7.48002C7.67686 7.31159 7.69226 7.25799 7.78466 6.92879L7.80776 6.95941Z" fill="#1B1B1B"/>
<path d="M16.0776 9.17957C16.4397 9.20658 16.8035 9.1612 17.1476 9.04611C17.4917 8.93103 17.8091 8.74856 18.0811 8.50949C18.3532 8.27043 18.5743 7.97962 18.7314 7.6542C18.8885 7.32878 18.9785 6.97536 18.996 6.61481C19.0344 6.26 18.9948 5.90113 18.8801 5.563C18.7653 5.22487 18.5781 4.91553 18.3314 4.65637C18.0846 4.39721 17.7843 4.19442 17.451 4.06197C17.1177 3.92953 16.7595 3.87061 16.4011 3.88928C15.6904 3.8341 14.9854 4.05174 14.4311 4.49745C13.8769 4.94316 13.5155 5.58307 13.4211 6.28561C13.3997 7.01642 13.6649 7.72688 14.1606 8.26689C14.6563 8.80691 15.3437 9.13418 16.0776 9.17957ZM15.1536 6.30857C15.2691 5.78797 15.9236 5.58125 16.4011 5.61187C16.8785 5.6425 17.3559 5.91046 17.2789 6.48466C17.2782 6.63022 17.2452 6.77385 17.1823 6.90526C17.1193 7.03667 17.0279 7.15261 16.9145 7.24479C16.8012 7.33697 16.6688 7.4031 16.5268 7.43846C16.3848 7.47381 16.2367 7.47752 16.0931 7.44931C15.956 7.4359 15.8229 7.39574 15.7014 7.33112C15.58 7.2665 15.4726 7.17869 15.3853 7.07272C15.298 6.96676 15.2327 6.84472 15.1929 6.71359C15.1532 6.58246 15.1398 6.44484 15.1536 6.30857Z" fill="#1B1B1B"/>
<path d="M23.8778 9.04934C24.5833 9.00241 25.2463 8.69696 25.7384 8.19208C26.2306 7.68721 26.5169 7.0188 26.542 6.31616C26.5063 5.59581 26.1927 4.91688 25.6663 4.42063C25.14 3.92438 24.4414 3.64903 23.7161 3.65188C22.9709 3.70235 22.2708 4.02506 21.7505 4.55791C21.2302 5.09075 20.9265 5.79608 20.8978 6.53818C20.79 8.1689 22.3608 9.14887 23.8778 9.04934ZM23.7161 5.37448C23.9642 5.36944 24.205 5.45764 24.3906 5.62147C24.5762 5.7853 24.6927 6.0127 24.717 6.25825C24.7413 6.5038 24.6716 6.74942 24.5217 6.94607C24.3719 7.14272 24.1529 7.27593 23.9086 7.31909C23.4158 7.41096 22.6611 7.20425 22.6226 6.66068C22.6139 6.35012 22.7206 6.04726 22.9223 5.80998C23.1241 5.57271 23.4066 5.41766 23.7161 5.37448Z" fill="#1B1B1B"/>
<path d="M28.4441 20.1505C26.034 18.2058 22.6691 19.8519 20.5207 21.3295C16.4782 24.1163 13.1671 27.6151 9.3479 30.6698C3.54204 35.7151 10.5645 41.2197 14.5917 44.2132C17.3175 46.2421 20.5823 49.0289 23.9088 50.0088C26.111 50.6596 29.5067 49.8021 29.6607 47.0536C29.8147 44.3051 25.5951 41.6179 23.7625 40.0101C22.6341 39.0299 21.4544 38.1099 20.2281 37.2539C19.6968 36.8865 19.1424 36.5343 18.6034 36.1744C17.4176 35.4088 16.9479 35.5467 17.6717 34.4059C19.5043 31.5196 33.9805 24.6292 28.4441 20.1505ZM15.7698 36.3276C17.048 37.9124 19.8585 39.0378 21.4755 40.3546C22.7383 41.3882 23.9088 42.5136 25.0869 43.639C25.5566 44.0984 27.0119 45.0171 27.2121 45.6755C28.1823 48.8987 25.572 48.669 23.9704 48.1484L24.4324 47.8116C24.6238 47.6899 24.7619 47.5008 24.819 47.2821C24.8761 47.0635 24.848 46.8315 24.7404 46.6325C24.6233 46.4363 24.433 46.2941 24.2109 46.2367C23.9888 46.1794 23.7529 46.2116 23.5545 46.3263L22.5382 47.0919C22.4209 47.1826 22.3216 47.2942 22.2455 47.4211C21.8836 47.245 21.5294 47.046 21.1675 46.8393C21.2936 46.7455 21.4247 46.6586 21.5602 46.579C21.7513 46.4593 21.8882 46.2705 21.9419 46.0524C21.9955 45.8343 21.9618 45.604 21.8478 45.4102C21.7339 45.2163 21.5486 45.0742 21.3311 45.0137C21.1136 44.9532 20.881 44.9791 20.6824 45.086C20.3103 45.3121 19.9575 45.5682 19.6275 45.8516C19.204 45.5607 18.7728 45.2621 18.357 44.9559L19.0808 44.5731C20.0664 44.0525 19.1886 42.5672 18.203 43.0878L16.8324 43.8075L16.0085 43.1797L16.4397 42.9117C16.6378 42.797 16.7819 42.6087 16.8404 42.3883C16.8989 42.168 16.8669 41.9335 16.7515 41.7365C16.6361 41.5396 16.4468 41.3962 16.2251 41.3381C16.0035 41.28 15.7677 41.3117 15.5696 41.4265C15.2236 41.6209 14.8963 41.8464 14.5917 42.1002C14.199 41.8016 13.7677 41.4801 13.3288 41.1355C13.5485 40.957 13.7889 40.8053 14.045 40.6838C14.2423 40.5674 14.3853 40.3782 14.443 40.1574C14.5007 39.9366 14.4683 39.702 14.353 39.5048C14.2331 39.3116 14.0429 39.1719 13.8219 39.1149C13.601 39.0578 13.3664 39.0878 13.1671 39.1986C12.7289 39.4115 12.3263 39.6904 11.9736 40.0254C11.6502 39.7422 11.3422 39.4512 11.0419 39.1526L11.8735 38.6014C12.7975 37.9889 11.9351 36.496 10.9957 37.1161L9.91001 37.8281C9.51811 37.3045 9.21627 36.7198 9.0168 36.0979H9.84069C10.0563 36.0777 10.2567 35.9782 10.4025 35.8189C10.5482 35.6596 10.6291 35.452 10.6291 35.2366C10.6291 35.0212 10.5482 34.8136 10.4025 34.6543C10.2567 34.495 10.0563 34.3955 9.84069 34.3753H8.92438C9.05751 33.7914 9.32063 33.2446 9.69439 32.7752C10.0041 33.1242 10.35 33.4399 10.7262 33.7169C10.9246 33.8316 11.1604 33.8638 11.3825 33.8065C11.6046 33.7491 11.7949 33.6068 11.912 33.4106C12.0227 33.2116 12.0517 32.9777 11.9929 32.7579C11.934 32.5382 11.7919 32.3495 11.5963 32.2316C11.7349 32.3311 11.4577 32.1015 11.4346 32.0785C11.4115 32.0555 11.219 31.8641 11.1112 31.7569L10.9341 31.5732L11.7965 30.8459C12.1359 31.1654 12.4524 31.5082 12.7436 31.8718C12.906 32.0332 13.1262 32.1239 13.3558 32.1239C13.5854 32.1239 13.8056 32.0332 13.968 31.8718C14.1303 31.7104 14.2215 31.4914 14.2215 31.2631C14.2215 31.0349 14.1303 30.8159 13.968 30.6545C13.6983 30.3201 13.4077 30.0031 13.0978 29.7051L14.3299 28.595C14.661 28.8859 14.9921 29.1692 15.3078 29.4755C15.4722 29.6379 15.6947 29.7288 15.9265 29.728C16.1583 29.7273 16.3803 29.6351 16.5436 29.4716C16.707 29.3082 16.7984 29.0869 16.7977 28.8564C16.7969 28.626 16.7042 28.4053 16.5398 28.2428C16.2472 27.9596 15.9392 27.6916 15.6312 27.4237C16.1009 27.0026 16.586 26.5892 17.0711 26.191C17.3791 26.5432 17.7102 26.8801 18.0336 27.2323C18.8036 28.0591 19.9971 26.8341 19.2579 26.015C18.9884 25.7164 18.665 25.4484 18.4032 25.1345C18.6265 24.9661 18.8421 24.7976 19.0654 24.6445C19.2887 24.4914 19.6891 24.1775 19.9971 23.9325L20.4745 24.5833C20.5957 24.775 20.7859 24.9135 21.0063 24.9704C21.2267 25.0273 21.4607 24.9984 21.6603 24.8895C21.859 24.7743 22.0037 24.5857 22.0628 24.3648C22.122 24.1438 22.0908 23.9086 21.976 23.7105L21.36 22.8837C21.7499 22.5929 22.1561 22.3245 22.5766 22.0798L22.6536 22.1717L23.4237 22.9373C24.1937 23.7028 25.4488 22.4932 24.648 21.72L24.2091 21.2912C25.2794 20.8778 26.2034 20.8854 26.9195 22.2023C27.8127 23.8713 26.8733 24.2617 25.726 25.4254C22.8615 28.3194 19.204 30.3253 16.3088 33.135C15.2462 34.1763 14.7996 35.1332 15.7698 36.3276Z" fill="#1B1B1B"/>
<path d="M61.4468 25.2954C58.721 23.2665 55.4561 20.4797 52.1297 19.4998C49.9275 18.8567 46.5317 19.7065 46.3777 22.455C46.2237 25.2035 50.4434 27.8984 52.276 29.4985C53.4008 30.4828 54.5808 31.403 55.8103 32.2547C56.3416 32.6298 56.896 32.9743 57.435 33.3418C58.6208 34.1074 59.0906 33.962 58.3668 35.1104C56.5341 37.9967 42.058 44.8871 47.5866 49.3658C49.9968 51.3104 53.3617 49.6644 55.51 48.1791C59.5526 45.3924 62.8636 41.8936 66.6828 38.8465C72.4964 33.8012 65.4739 28.2889 61.4468 25.2954ZM65.4662 37.6292C62.5325 39.9719 60.0146 42.6821 56.9499 44.8641C55.6943 45.9153 54.3581 46.8675 52.9536 47.7121C51.4136 48.4777 50.0507 49.0902 49.1036 47.3293C48.9394 47.0974 48.8317 46.8308 48.7889 46.5505C48.7462 46.2701 48.7695 45.9837 48.8571 45.7139C49.2729 46.0431 49.6887 46.3876 50.1199 46.6939C50.3183 46.8086 50.5542 46.8408 50.7763 46.7834C50.9984 46.7261 51.1887 46.5838 51.3058 46.3876C51.4153 46.1891 51.4444 45.9565 51.3871 45.7373C51.3299 45.5182 51.1906 45.3291 50.9978 45.2086C50.6436 44.956 50.3125 44.688 49.9737 44.443L50.2971 44.1291C50.5512 43.8688 50.813 43.6315 51.0671 43.3635C51.4121 43.7423 51.7771 44.1026 52.1605 44.443C52.3228 44.6044 52.543 44.6951 52.7726 44.6951C53.0022 44.6951 53.2224 44.6044 53.3848 44.443C53.5472 44.2816 53.6383 44.0626 53.6383 43.8344C53.6383 43.6061 53.5472 43.3871 53.3848 43.2257C53.029 42.9115 52.6898 42.5793 52.3684 42.2304C52.7842 41.8859 53.2077 41.549 53.6389 41.2275C53.9855 41.6897 54.3582 42.1319 54.7554 42.552C55.5254 43.3176 56.7574 42.1309 55.9797 41.3347C55.6355 40.9724 55.3116 40.5916 55.0095 40.1939L56.0644 39.4283C56.3847 39.7417 56.6855 40.0741 56.9653 40.4236C57.0437 40.5124 57.1395 40.5842 57.2469 40.6348C57.3543 40.6853 57.4709 40.7135 57.5896 40.7175C57.7083 40.7215 57.8266 40.7013 57.9372 40.6582C58.0478 40.615 58.1483 40.5498 58.2326 40.4665C58.3168 40.3833 58.383 40.2838 58.4271 40.1741C58.4712 40.0644 58.4923 39.9469 58.489 39.8289C58.4857 39.7108 58.4581 39.5946 58.408 39.4876C58.3578 39.3805 58.2861 39.2848 58.1974 39.2063C57.9509 38.9154 57.7122 38.6321 57.4273 38.3642C57.8816 38.0043 58.3282 37.5986 58.7594 37.2464C58.9823 37.4069 59.1887 37.589 59.3755 37.79C60.1455 38.5938 61.3698 37.3765 60.5998 36.565C60.421 36.3798 60.2307 36.2059 60.03 36.0444C60.3175 35.7426 60.5402 35.3857 60.6845 34.9955L61.7625 35.0568C61.9906 35.0548 62.2088 34.9638 62.3701 34.8034C62.5314 34.643 62.6229 34.4261 62.6249 34.1993C62.621 33.9724 62.5291 33.7557 62.3684 33.5945C62.2077 33.4333 61.9907 33.3401 61.7625 33.3342L60.2225 33.2423C59.9906 32.9636 59.7328 32.7072 59.4525 32.4767L60.2841 32.0862C60.4814 31.9698 60.6245 31.7806 60.6822 31.5598C60.7398 31.339 60.7075 31.1044 60.5921 30.9072C60.4722 30.7141 60.282 30.5743 60.061 30.5173C59.8401 30.4602 59.6055 30.4902 59.4063 30.601L57.8663 31.3666L57.0346 30.8613L57.743 30.5244C57.9404 30.408 58.0834 30.2188 58.1411 29.9979C58.1988 29.7771 58.1664 29.5426 58.051 29.3454C57.9324 29.1509 57.7427 29.0096 57.5217 28.9511C57.3006 28.8926 57.0654 28.9214 56.8652 29.0315L55.4407 29.7205C55.4038 29.7471 55.3702 29.7779 55.3406 29.8124C55.0634 29.6287 54.8016 29.4373 54.5706 29.2459C54.4628 29.1617 54.3704 29.0698 54.2626 28.9779C54.5937 28.8018 54.9248 28.6334 55.2636 28.4726C55.4609 28.3562 55.604 28.167 55.6617 27.9461C55.7194 27.7253 55.687 27.4908 55.5716 27.2936C55.4518 27.1004 55.2615 26.9607 55.0406 26.9037C54.8196 26.8466 54.585 26.8766 54.3858 26.9873C53.8776 27.2247 53.3848 27.5003 52.8997 27.7529C52.5686 27.4544 52.2375 27.1405 51.9064 26.8266C52.0966 26.711 52.2948 26.6087 52.4993 26.5203C52.7166 26.4545 52.9001 26.308 53.0119 26.1114C53.1237 25.9147 53.1552 25.6829 53.0999 25.4638C53.0696 25.3552 53.0181 25.2535 52.9483 25.1647C52.8785 25.0759 52.7918 25.0016 52.6931 24.9462C52.5944 24.8907 52.4857 24.8551 52.3732 24.8415C52.2606 24.8278 52.1465 24.8364 52.0373 24.8666C51.5393 25.0667 51.0664 25.3236 50.6282 25.6322C50.3818 25.4408 50.0892 25.2188 49.7966 24.9738C50.0097 24.7891 50.242 24.6274 50.4896 24.4915C51.4752 23.9709 50.6051 22.478 49.6194 23.0062C49.3137 23.1681 49.027 23.3632 48.7647 23.5881C47.9947 20.5257 50.8438 20.9468 52.353 21.5057C55.433 22.6694 58.4514 25.1958 61.0541 27.1634C64.034 29.3913 70.1171 33.6021 65.4662 37.6292Z" fill="#1B1B1B"/>
<path d="M40.2406 19.1783C37.7073 19.1094 36.9603 21.3526 36.2596 23.458C34.7091 28.1546 33.482 32.9507 32.5867 37.813C32.1093 40.3471 28.9215 51.2416 34.7427 50.5602C37.0528 50.2922 38.4696 47.8959 39.178 45.9666C40.718 41.9242 41.488 37.4378 42.412 33.2194C42.8509 31.1599 43.2436 29.0928 43.6363 27.0257C43.9058 25.6247 44.6527 23.8102 44.4679 22.3555C44.1676 20.0587 42.4043 19.2396 40.2406 19.1783ZM40.2406 35.21C39.8171 37.0857 39.3551 38.9614 38.8546 40.8218C38.2309 43.1875 37.7381 47.9342 34.7658 47.85C33.1334 47.804 33.0487 47.6509 33.1103 46.6097C33.3202 46.6443 33.5264 46.6982 33.7263 46.7705C33.8355 46.8008 33.9497 46.8093 34.0622 46.7956C34.1747 46.782 34.2835 46.7464 34.3821 46.691C34.4808 46.6355 34.5676 46.5612 34.6374 46.4724C34.7072 46.3836 34.7587 46.282 34.7889 46.1733C34.8465 45.9532 34.8161 45.7194 34.7041 45.521C34.5922 45.3226 34.4073 45.175 34.1883 45.1091C33.875 45.0079 33.5527 44.9361 33.2258 44.8948C33.2258 44.5885 33.2951 44.2746 33.3413 43.9684C33.7248 44.0424 34.1136 44.0859 34.504 44.0985C34.7197 44.0783 34.92 43.9788 35.0658 43.8195C35.2116 43.6602 35.2924 43.4526 35.2924 43.2372C35.2924 43.0219 35.2116 42.8142 35.0658 42.655C34.92 42.4957 34.7197 42.3962 34.504 42.3759C34.2036 42.3676 33.9046 42.3318 33.6108 42.2688L33.7032 41.7482C33.7032 41.6563 33.7032 41.5644 33.7494 41.4802C34.1278 41.5242 34.5032 41.5907 34.8736 41.6793C35.0864 41.7147 35.3049 41.6702 35.4866 41.5544C35.6683 41.4387 35.8002 41.26 35.8568 41.053C35.9135 40.8459 35.8907 40.6254 35.7929 40.4341C35.6952 40.2429 35.5295 40.0945 35.3279 40.0179C34.9021 39.9141 34.47 39.8374 34.0343 39.7882C34.119 39.2829 34.196 38.7776 34.2961 38.257C34.7912 38.3198 35.2772 38.4406 35.7437 38.6169C35.9578 38.6562 36.1789 38.6143 36.3634 38.4995C36.5479 38.3847 36.6824 38.2053 36.7404 37.9967C36.7984 37.7881 36.7757 37.5655 36.6767 37.3727C36.5777 37.18 36.4097 37.0311 36.2057 36.9555C35.7071 36.7769 35.1909 36.6512 34.6657 36.5804C34.7427 36.2129 34.812 35.8148 34.8967 35.4626L36.0748 35.7306C37.1606 35.9832 37.6149 34.3218 36.5368 34.0692L35.2355 33.7783C35.3048 33.4108 35.3895 33.0127 35.4819 32.5304L36.2981 32.7447C36.5122 32.784 36.7333 32.7421 36.9178 32.6273C37.1023 32.5125 37.2368 32.3331 37.2948 32.1245C37.3528 31.9159 37.3301 31.6933 37.2311 31.5006C37.1321 31.3078 36.9641 31.159 36.7602 31.0834L35.8284 30.8384L35.967 30.1876L37.4378 30.5015C37.6591 30.5562 37.8932 30.5238 38.0911 30.4111C38.2891 30.2985 38.4357 30.1142 38.5004 29.8967C38.5597 29.6775 38.53 29.4438 38.4176 29.2462C38.3053 29.0485 38.1193 28.9027 37.8998 28.8402L36.3597 28.511L36.5599 27.4774C36.8988 27.5463 37.2376 27.5999 37.5687 27.6841C37.7827 27.7234 38.0038 27.6815 38.1883 27.5667C38.3728 27.4519 38.5073 27.2725 38.5653 27.0639C38.6233 26.8553 38.6006 26.6327 38.5016 26.44C38.4026 26.2472 38.2346 26.0984 38.0307 26.0228C37.6996 25.9385 37.3685 25.8849 37.0373 25.816L37.2453 25.1729C37.5614 25.2167 37.8714 25.2964 38.1693 25.4103C38.2823 25.4522 38.4029 25.4703 38.5233 25.4634C38.6438 25.4565 38.7615 25.4247 38.8689 25.3702C38.9764 25.3156 39.0713 25.2395 39.1475 25.1465C39.2238 25.0536 39.2798 24.9458 39.3119 24.8302C39.3441 24.7146 39.3517 24.5936 39.3343 24.4749C39.3169 24.3562 39.2748 24.2424 39.2108 24.1407C39.1468 24.039 39.0623 23.9517 38.9625 23.8842C38.8627 23.8168 38.7499 23.7707 38.6313 23.7489C38.3816 23.6564 38.1238 23.5872 37.8613 23.5422C37.9691 23.2896 38.0846 23.0522 38.2001 22.8226C38.4651 22.9491 38.7482 23.0343 39.0394 23.0752C39.2596 23.1283 39.492 23.0961 39.6893 22.9852C39.8866 22.8743 40.0341 22.693 40.102 22.478C40.1616 22.2578 40.1321 22.0231 40.0198 21.8242C39.9076 21.6253 39.7215 21.478 39.5014 21.4138C39.4052 21.3963 39.3101 21.3733 39.2165 21.3449C39.3462 21.2013 39.5037 21.0851 39.6797 21.0036C39.8557 20.922 40.0465 20.8766 40.2406 20.8703C44.3678 21.0157 40.6564 33.2347 40.2021 35.21H40.2406Z" fill="#1B1B1B"/>
</g>
<defs>
<clipPath id="clip0_21_1142">
<rect width="76.1538" height="60" fill="white"/>
</clipPath>
</defs>
</svg>
