<svg width="38" height="60" viewBox="0 0 38 60" fill="none" xmlns="http://www.w3.org/2000/svg">
<path fill-rule="evenodd" clip-rule="evenodd" d="M35.933 10.6186L35.9737 10.6874C36.0204 10.7539 36.0558 10.8275 36.0783 10.9053C36.3988 17.7833 36.539 24.6738 36.6792 31.5652C36.8237 38.6706 36.9682 45.7769 37.3105 52.8714C37.3191 52.993 37.2883 53.114 37.2225 53.2171C37.1566 53.3202 37.0592 53.3999 36.9443 53.4447C36.8539 53.4895 36.7548 53.5149 36.6537 53.5192C34.4034 53.5791 32.1465 53.5477 29.894 53.5163C26.9745 53.4757 24.0626 53.4351 21.1821 53.5937C18.135 53.7614 15.0941 53.7595 12.0521 53.7576C9.99956 53.7563 7.94651 53.755 5.89063 53.8058C5.77077 53.8165 5.65049 53.7904 5.54638 53.7308C5.44227 53.6712 5.35948 53.5813 5.30942 53.4733C5.24992 53.3782 5.21592 53.2697 5.21062 53.1581C5.04706 48.0927 5.21145 43.033 5.37592 37.971C5.44522 35.838 5.51454 33.7046 5.55934 31.5702C5.62143 28.677 5.53067 25.7828 5.43994 22.8893C5.31835 19.0122 5.19681 15.1365 5.4431 11.2664C5.44941 11.1972 5.46707 11.1294 5.49541 11.0657V11.0027C5.5408 10.8894 5.62162 10.7933 5.72613 10.7284C5.83063 10.6635 5.95339 10.633 6.07661 10.6416C12.1759 10.731 18.2753 10.6015 24.3732 10.4721C28.043 10.3942 31.7124 10.3163 35.3809 10.2862C35.496 10.2814 35.6099 10.3104 35.7082 10.3696C35.8065 10.4288 35.8848 10.5155 35.933 10.6186Z" fill="#7DFF68"/>
<g clip-path="url(#clip0_21_1140)">
<path d="M37.6157 44.4254C37.6157 40.4587 37.5343 36.4862 37.4181 32.5137C37.1914 24.9528 36.8776 17.3862 36.4184 9.83673C36.0988 4.5974 34.0587 1.42744 28.5373 0.596259C22.3533 -0.338106 15.838 0.0230198 9.62495 0.389887C6.83517 0.556124 3.99309 0.82554 2.30179 3.30763C0.610491 5.78971 0.558181 9.22336 0.302452 12.0436C-0.464737 19.96 0.412878 28.031 0.226893 35.9817C0.226893 41.2096 0.035093 46.4891 0.505868 51.6997C0.802281 54.9614 1.49392 57.4607 4.66729 59.1173C6.87005 60.2638 10.2352 59.96 12.5949 59.9771C16.8144 60.0115 21.0282 59.7307 25.2419 59.639C30.0484 59.5358 36.4707 59.7594 37.4181 53.706C37.9005 50.7081 37.6157 47.4464 37.6157 44.4254ZM35.6861 53.3506C34.8375 57.7416 30.6703 57.8562 26.9681 57.8906C21.034 57.9479 15.0825 58.504 9.14837 58.1658C6.75381 58.0224 3.91754 57.4206 2.80163 55.0187C2.12162 53.5685 2.22042 51.5793 2.12743 50.003C1.86008 45.3369 1.95307 40.6536 1.9705 35.9817C2.09062 30.7692 2.04606 25.5623 1.83683 20.3612C1.71475 17.5872 1.78466 14.8083 2.04606 12.0436C2.35991 8.84503 2.39478 3.98404 6.00986 2.57963C8.3928 1.65673 11.7696 2.00641 14.3211 1.89176C16.8726 1.77712 19.5519 1.77137 22.1906 1.85735C24.6607 1.93761 27.3458 1.92042 29.7462 2.56817C33.5589 3.59425 34.454 6.23111 34.6806 9.83673C35.4071 21.5306 35.8779 33.2761 35.8779 44.9929C35.8721 47.6814 36.215 50.708 35.7035 53.3506H35.6861Z" fill="#1B1B1B"/>
<path d="M15.3613 6.17378C17.6861 6.06678 20.011 6.01519 22.3358 6.01902C22.4985 6.00386 22.6497 5.92937 22.7598 5.81011C22.8698 5.69084 22.9308 5.53539 22.9308 5.37413C22.9308 5.21288 22.8698 5.05742 22.7598 4.93816C22.6497 4.81889 22.4985 4.7444 22.3358 4.72925C20.011 4.72925 17.6861 4.78083 15.3613 4.88401C14.5244 4.92414 14.5186 6.21391 15.3613 6.17378Z" fill="#1B1B1B"/>
<path d="M25.2012 5.88715L25.2418 5.84703C25.3644 5.72617 25.4332 5.56224 25.4332 5.39131C25.4332 5.22038 25.3644 5.05646 25.2418 4.9356C25.1193 4.81474 24.9531 4.74683 24.7798 4.74683C24.6065 4.74683 24.4403 4.81474 24.3177 4.9356L24.277 4.97571C23.6668 5.53748 24.6083 6.47184 25.2012 5.88715Z" fill="#1B1B1B"/>
<path d="M27.8455 5.92146L27.8862 5.88705C28.0087 5.76619 28.0776 5.60227 28.0776 5.43135C28.0776 5.26042 28.0087 5.09649 27.8862 4.97562C27.7636 4.85476 27.5974 4.78687 27.4241 4.78687C27.2508 4.78687 27.0846 4.85476 26.9621 4.97562L26.9214 5.01001C26.7988 5.13088 26.73 5.29481 26.73 5.46574C26.73 5.63667 26.7988 5.8006 26.9214 5.92146C27.0439 6.04233 27.2101 6.11022 27.3834 6.11022C27.5567 6.11022 27.7229 6.04233 27.8455 5.92146Z" fill="#1B1B1B"/>
<path d="M19.3425 52.955C17.5175 52.955 13.978 52.5308 13.7513 55.0989C13.5363 57.4663 17.4013 57.2083 18.895 57.1567C20.3886 57.1052 23.8468 57.2886 23.9456 55.2078C24.0735 52.5423 21.1616 52.932 19.3425 52.955ZM22.3938 55.3568C21.8126 56.0103 19.4529 55.867 18.5985 55.8785C18.0173 55.8785 15.4775 55.9988 15.2857 55.5689C14.5359 53.918 18.7148 54.239 19.3541 54.2447C19.9934 54.2505 23.5911 53.9925 22.3938 55.3568Z" fill="#1B1B1B"/>
<path d="M33.7735 8.97673L33.7328 8.90794C33.6846 8.8048 33.6063 8.71813 33.508 8.65894C33.4097 8.59974 33.2958 8.57068 33.1807 8.57546C23.4165 8.65571 13.6464 9.07417 3.87641 8.93086C3.7532 8.92233 3.63044 8.95276 3.52593 9.0177C3.42143 9.08263 3.34061 9.1787 3.29521 9.292V9.35504C3.26688 9.41869 3.24921 9.48647 3.2429 9.55569C2.81281 16.3141 3.50444 23.0896 3.35914 29.8595C3.20803 37.0593 2.77794 44.2476 3.01043 51.4474C3.01573 51.559 3.04973 51.6675 3.10923 51.7626C3.15928 51.8706 3.24208 51.9605 3.34619 52.0201C3.45029 52.0797 3.57058 52.1058 3.69043 52.0951C8.7934 51.969 13.8789 52.1639 18.9819 51.883C24.0849 51.6021 29.2866 51.946 34.4535 51.8085C34.5546 51.8042 34.6537 51.7788 34.7441 51.734C34.859 51.6892 34.9564 51.6095 35.0223 51.5064C35.0881 51.4034 35.1189 51.2823 35.1103 51.1607C34.4361 37.1854 34.5291 23.1642 33.8781 9.19456C33.8556 9.11679 33.8202 9.0432 33.7735 8.97673ZM18.9412 50.6104C14.0533 50.8684 9.17699 50.7136 4.28907 50.8111C4.1089 43.8291 4.50411 36.8587 4.64941 29.8767C4.7889 23.3247 4.15539 16.7669 4.50411 10.2206C13.8557 10.3353 23.2072 9.95694 32.553 9.86523C33.1807 23.4107 33.1051 37.0019 33.7154 50.5646C28.7984 50.662 23.8814 50.3697 18.9412 50.6276V50.6104Z" fill="#1B1B1B"/>
<path d="M10.6998 13.5913C9.44431 14.6132 8.38857 15.8526 7.58459 17.2485C7.50343 17.3964 7.48373 17.5695 7.52965 17.7314C7.57557 17.8933 7.68352 18.0313 7.83067 18.1162C7.97782 18.201 8.15265 18.2261 8.31822 18.1861C8.48379 18.1462 8.62712 18.0443 8.71793 17.902C9.46552 16.6017 10.4508 15.4492 11.6239 14.5028C12.2749 13.9754 11.345 13.0697 10.6998 13.5913Z" fill="#1B1B1B"/>
<path d="M13.5421 14.0441L11.165 16.7955C10.6245 17.4261 11.5428 18.3375 12.0891 17.707L14.4663 14.9555C15.0068 14.3306 14.0885 13.4135 13.5421 14.0441Z" fill="#1B1B1B"/>
</g>
<defs>
<clipPath id="clip0_21_1140">
<rect width="37.7143" height="60" fill="white"/>
</clipPath>
</defs>
</svg>
