<svg width="60" height="60" viewBox="0 0 60 60" fill="none" xmlns="http://www.w3.org/2000/svg">
<path d="M35.4097 9.83618C37.7863 12.9373 40.09 15.9607 41.9537 19.417C42.587 20.5914 43.0792 21.8299 43.5931 23.0635C44.0258 24.1023 44.2819 25.9559 45.2457 26.5575" stroke="#7DFF68" stroke-width="10" stroke-linecap="round"/>
<g clip-path="url(#clip0_21_1144)">
<path d="M55.4077 3.16178C52.0575 0.0265636 48.8857 -0.874891 44.5839 0.908141C40.7777 2.48569 37.8042 5.93908 34.8042 8.68323C30.2844 12.8127 25.9298 17.1278 21.6544 21.5025C17.5267 25.7314 13.4716 30.0332 9.4892 34.4079C7.71828 36.3633 5.71607 38.2922 4.20286 40.4596C4.13961 40.5268 4.08621 40.6027 4.04427 40.685C3.9857 40.7677 3.94107 40.8595 3.91213 40.9568C2.85486 43.0911 2.41872 45.696 1.8967 47.9696C1.01707 51.6067 0.392207 55.3011 0.026661 59.0257C-0.0394183 59.7349 0.687443 60.073 1.27555 59.9868C7.07731 59.0787 12.7998 57.7928 18.5751 56.7654C20.9275 56.3544 21.9452 54.7239 23.5905 53.0204C26.3527 50.1569 29.1015 47.2846 31.8372 44.4035C36.9385 39.0677 42.0399 33.7252 47.2271 28.4954C51.4958 24.1605 57.5421 19.4609 59.5773 13.4954C61.0641 9.04777 58.4804 6.03187 55.4077 3.16178ZM49.2756 23.776C46.9099 21.7875 45.0994 19.5206 42.9716 17.2537C40.7249 14.8675 38.346 12.6138 35.9143 10.4331L37.2359 9.20685C41.7029 13.6258 46.1081 18.0955 50.4517 22.6161L49.2756 23.776ZM43.9562 28.9329C39.7601 24.1803 34.8637 20.0973 30.0795 15.9214L31.2557 14.7813C36.3108 18.4998 40.5993 23.3982 45.0068 27.8392L44.498 28.3496L43.9562 28.9329ZM18.3636 47.9828C16.4738 48.0955 14.5905 48.1021 12.7007 48.1552C12.6346 46.7102 12.6412 44.4101 12.1192 43.0712C15.5222 39.757 18.4496 36.0716 21.7007 32.5851C25.3615 28.6545 29.2403 24.9161 33.0266 21.0981C35.009 22.8282 36.9385 24.578 38.8086 26.4008C32.1676 33.7849 25.4209 41.0495 18.3636 48.0027V47.9828ZM34.8174 11.4274L35.8681 12.3951C35.1678 13.208 34.4221 13.9803 33.6346 14.7084C33.2183 14.3704 32.7888 14.0456 32.3658 13.7407C33.1808 12.9806 33.998 12.2161 34.8174 11.4472V11.4274ZM39.661 20.2099C40.4316 19.5945 41.1621 18.9303 41.8483 18.2214L41.9209 18.2944C42.3372 18.7385 42.7337 19.1759 43.1302 19.62C42.5045 20.3559 41.8194 21.0387 41.0817 21.6616C40.6125 21.1843 40.1368 20.7071 39.661 20.2298V20.2099ZM38.6037 19.1693C38.194 18.765 37.7844 18.3673 37.3681 17.9762C38.0289 17.2338 38.7491 16.5113 39.4628 15.7955C39.9187 16.2396 40.3614 16.6903 40.7843 17.1211C40.1002 17.8544 39.372 18.5451 38.6037 19.1892V19.1693ZM36.2712 17.0018C35.7822 16.5643 35.2866 16.1269 34.7844 15.6761C35.5489 14.9623 36.2746 14.2078 36.9584 13.4159C37.4407 13.86 37.9165 14.3107 38.3989 14.7415C37.672 15.4928 36.9628 16.2462 36.2712 17.0018ZM42.1192 22.7486C42.8311 22.1391 43.4939 21.4742 44.1015 20.7601C44.5377 21.2506 44.9804 21.7345 45.4231 22.2051C44.7623 22.8679 44.1015 23.5308 43.52 24.2334L42.1192 22.7486ZM17.4716 28.7142C21.1324 24.8344 24.8659 21.0319 28.672 17.3067L31.8967 20.1238C28.1368 23.9086 24.2778 27.6271 20.6632 31.5378C17.4253 35.0244 14.4848 38.6832 11.0883 42.0239C10.5141 41.9047 9.93402 41.8162 9.35044 41.7588C8.26013 41.5599 7.16982 41.3942 6.04647 41.2484C9.25132 36.7411 13.6919 32.7243 17.4716 28.7274V28.7142ZM9.91212 56.5533C7.99083 54.1684 5.81981 51.9973 3.43636 50.0774C3.5553 49.5471 3.66763 49.0235 3.78657 48.4932C4.1392 46.5059 4.64511 44.5491 5.29978 42.6404C6.87907 42.7795 9.35044 42.8127 10.7315 43.5219C10.1963 43.343 10.7315 44.5096 10.824 45.2784C10.976 46.4981 11.1148 47.7177 11.2601 48.9373C11.2635 49.1331 11.3426 49.32 11.4807 49.4585C11.6187 49.597 11.805 49.6763 12.0002 49.6797C13.4011 49.6266 14.8416 49.7195 16.2359 49.5869C17.7557 49.4477 17.7029 49.1428 17.868 50.6408C18.0266 51.9996 18.1258 53.3717 18.2249 54.7438C18.0531 54.8034 17.8813 54.8564 17.7029 54.9028C15.1456 55.5524 12.5355 56.1092 9.91212 56.5599V56.5533ZM31.2623 42.1167C28.9055 44.5825 26.5487 47.046 24.1918 49.5074C22.7513 51.0054 21.3901 52.8613 19.6654 54.008C19.5531 52.4304 19.4143 50.8529 19.1831 49.2886C26.3262 42.2559 33.1456 34.9117 39.8593 27.468C40.7888 28.4093 41.694 29.377 42.5751 30.3713C38.7822 34.2732 35.0112 38.1905 31.2623 42.1233V42.1167ZM46.0905 26.8118C45.5883 26.308 45.0927 25.7977 44.5905 25.2873C45.1984 24.5847 45.8328 23.902 46.4936 23.2524C47.0288 23.7826 47.5971 24.3063 48.1985 24.8034C47.4848 25.4861 46.7778 26.1556 46.0905 26.8184V26.8118ZM57.1258 14.1516C55.7233 16.7493 53.9415 19.1219 51.8394 21.191C47.5046 16.6925 43.1126 12.2471 38.6632 7.85468L38.954 7.58291C41.954 4.87191 45.6941 0.815344 50.1875 2.06811C52.2756 2.6514 53.987 4.4742 55.3945 6.04513C57.7403 8.58379 58.824 10.7446 57.1258 14.1582V14.1516Z" fill="#1B1B1B"/>
<path d="M44.9209 6.03843C44.7425 5.0972 43.3086 5.49491 43.487 6.43614C43.7396 7.78324 44.0818 9.11188 44.5112 10.4132C44.8152 11.3212 46.2491 10.9302 45.9452 10.0155C45.5141 8.71464 45.1719 7.38589 44.9209 6.03843Z" fill="#1B1B1B"/>
<path d="M47.4382 5.52139C47.1408 4.61331 45.7003 5.00438 46.0043 5.9191C46.3809 7.03929 46.751 8.16611 47.1276 9.2863C47.425 10.1944 48.8655 9.80332 48.5615 8.89523L47.4382 5.52139Z" fill="#1B1B1B"/>
<path d="M33.3564 7.44592V6.94653" stroke="black" stroke-width="3" stroke-linecap="round"/>
</g>
<defs>
<clipPath id="clip0_21_1144">
<rect width="60" height="60" fill="white"/>
</clipPath>
</defs>
</svg>
