<svg width="67" height="60" viewBox="0 0 67 60" fill="none" xmlns="http://www.w3.org/2000/svg">
<path d="M42 11.1111C40 11.1111 24.5 9.62966 17 8.88892C17.6667 13.3334 19.1 22.6667 19.5 24.4445C20 26.6667 24 38.8889 25 39.4445C26 40 37 39.4445 39.5 39.4445C42 39.4445 57.5 39.4445 58.5 38.8889C59.5 38.3334 63 25.5556 65.5 19.4445C68 13.3334 62 12.2222 59.5 12.2222C57 12.2222 44.5 11.1111 42 11.1111Z" fill="#7DFF68"/>
<g clip-path="url(#clip0_21_1138)">
<path d="M24.8126 51.0396C22.3313 50.7001 20.0968 52.346 19.9501 55.2984C19.8033 58.2508 21.9178 59.9041 24.2923 59.9853C26.5668 60.0665 28.9614 58.4427 28.8413 55.6675C28.818 54.4771 28.3906 53.34 27.6441 52.4824C26.8976 51.6249 25.8867 51.1098 24.8126 51.0396ZM24.6925 57.7784C23.5186 57.8522 22.3513 57.4906 22.0245 56.1029C21.9348 55.7118 21.9371 55.3017 22.0314 54.9118C22.1256 54.5219 22.3085 54.1653 22.5627 53.8758C22.8169 53.5864 23.1338 53.3739 23.4833 53.2586C23.8328 53.1432 24.2032 53.1289 24.5591 53.217H24.5925C24.6679 53.2246 24.7438 53.2246 24.8192 53.217C25.3184 53.2593 25.7894 53.4897 26.1536 53.8698C26.5177 54.25 26.7531 54.7568 26.8203 55.3058C27.0537 56.8115 25.9065 57.7046 24.6792 57.7784H24.6925Z" fill="#1B1B1B"/>
<path d="M53.7944 50.877C53.2358 50.8122 52.6711 50.8832 52.1399 51.0852C51.6088 51.2871 51.1238 51.615 50.7191 52.046C50.3144 52.4769 49.9997 53.0005 49.797 53.5801C49.5943 54.1598 49.5084 54.7814 49.5455 55.4016C49.5616 56.1326 49.7258 56.8504 50.0259 57.5019C50.3261 58.1534 50.7545 58.722 51.2797 59.1659C52.1735 59.904 53.2808 59.8449 54.3546 59.904C56.6692 60.0959 58.0499 57.1877 57.643 54.9144C57.1894 52.427 56.249 50.9508 53.7944 50.877ZM54.3546 57.7192C52.9806 57.6528 51.8267 57.4609 51.5799 55.6599C51.5031 55.3163 51.5059 54.9567 51.588 54.6146C51.6702 54.2725 51.829 53.9589 52.0498 53.7028C52.2706 53.4467 52.5463 53.2564 52.8512 53.1495C53.1562 53.0426 53.4806 53.0226 53.7944 53.0913C55.0016 53.0913 55.2751 53.5489 55.5486 54.7668C55.7954 55.8518 55.742 57.7856 54.3546 57.7192Z" fill="#1B1B1B"/>
<path d="M61.8587 14.3412C55.8556 12.9758 49.2922 13.3522 43.1824 12.865C33.9243 12.0605 24.6996 11.4405 15.4215 11.0641C15.1766 9.79709 14.8168 8.56067 14.3476 7.37358C13.4272 5.15929 11.4595 4.70168 9.53851 4.02263C9.59759 3.62696 9.53253 3.22083 9.35416 2.87172C9.1758 2.52262 8.89485 2.25155 8.55801 2.10357C7.42222 1.48101 6.23931 0.969757 5.02286 0.575706C3.49541 0.0295136 -0.0530702 -0.775005 -0.00637961 2.19953C0.0336409 4.48764 2.74169 5.35859 4.31583 5.95645C5.64985 6.45097 7.51748 6.96765 8.65139 6.03026C9.87202 6.48788 10.9859 6.73144 11.8931 7.79431C12.9869 9.0786 13.0403 10.8869 13.4005 12.5993C14.1542 16.2086 15.0147 19.7884 15.8951 23.3608C17.3759 29.3468 18.9767 35.3032 20.204 41.363C19.3754 41.651 18.654 42.2295 18.1487 43.0111C17.6433 43.7926 17.3814 44.7349 17.4025 45.6956C17.4759 48.9728 20.304 49.6962 22.7386 49.7626C34.0778 50.0652 45.4169 49.8585 56.7227 49.888C56.9881 49.888 57.2425 49.7714 57.4302 49.5638C57.6178 49.3561 57.7232 49.0745 57.7232 48.7809C57.7232 48.4873 57.6178 48.2056 57.4302 47.998C57.2425 47.7904 56.9881 47.6737 56.7227 47.6737C50.0526 47.6737 43.3225 47.6737 36.6257 47.6737C33.0684 47.6737 29.511 47.6467 25.9536 47.5926C24.5596 47.5926 20.8777 48.2052 19.8305 46.788C18.7833 45.3709 19.9839 43.4297 21.4246 43.2894C31.0829 43.3854 40.7679 43.2525 50.4061 43.3706C52.7674 43.3706 56.8161 43.8799 58.497 41.5475C59.2107 40.5511 59.4241 39.0528 59.7576 37.857C60.478 35.3401 61.2317 32.8306 61.9587 30.3137C63.0726 26.4903 64.6268 22.357 64.9936 18.327C65.2004 15.7879 64.0331 14.8358 61.8587 14.3412ZM4.56262 4.23667C3.96899 4.00786 2.00799 3.42477 1.70116 2.67929C1.46771 2.11095 2.03467 1.67547 2.36817 1.5869C2.59268 1.56982 2.81817 1.59478 3.03518 1.66071C3.68277 1.80113 4.31862 2.0011 4.93615 2.25857C5.60316 2.52428 6.33687 2.81953 7.01722 3.13691C7.69757 3.45429 8.08443 3.52073 7.891 4.41383C7.57751 5.51359 5.20295 4.48762 4.56262 4.23667ZM62.9526 17.2567C63.4995 18.4672 62.2522 21.5746 61.9387 22.7851C61.852 23.1098 61.7586 23.4346 61.6719 23.7668C58.8705 23.6044 56.0757 23.4174 53.2876 23.2058C53.7879 20.7184 54.3348 18.2458 54.9485 15.8248C57.7499 15.8248 62.3189 15.8617 62.9526 17.2567ZM59.7043 30.7418L59.2373 32.3213C56.7027 32.2032 54.1681 32.1048 51.6334 32.0261C52.0603 29.6272 52.4939 27.2284 52.9675 24.8444C55.7222 25.051 58.4769 25.2429 61.2384 25.3979C60.7314 27.1841 60.2178 28.963 59.7043 30.7418ZM43.3158 41.208C43.4426 38.6173 43.5893 36.0413 43.7494 33.4432L49.8259 33.6203C49.3812 36.1446 48.9365 38.6567 48.4918 41.1563C46.7665 41.1859 45.0412 41.2031 43.3158 41.208ZM43.8561 31.7899C44.0162 29.2361 44.1918 26.6847 44.3831 24.1358C46.7376 24.3425 49.0521 24.5418 51.4467 24.7337C50.9798 27.1399 50.5462 29.5534 50.1127 31.967L43.8561 31.7899ZM22.1983 41.0309C21.6447 38.2335 21.0111 35.4582 20.3374 32.6977C22.2584 32.7863 24.1727 32.8601 26.0937 32.9339C26.6139 35.6649 27.1809 38.3958 27.8412 41.0973L22.1983 41.0309ZM17.5893 21.7148C19.7904 21.892 21.9849 22.0839 24.1794 22.2758C24.7063 25.2725 25.2199 28.2692 25.7735 31.2584C23.8258 31.1846 21.8782 31.1108 19.9238 31.0223C19.1568 27.9149 18.3564 24.8149 17.5893 21.7148ZM29.3954 41.1047C28.7284 38.418 28.1614 35.7018 27.6345 32.9856C29.7489 33.0594 31.87 33.1258 33.9844 33.1849C34.1511 35.8494 34.3179 38.514 34.4713 41.1785L29.3954 41.1194V41.1047ZM27.3476 31.3101C26.794 28.3577 26.2804 25.4053 25.7602 22.416C28.3015 22.6522 30.8361 22.881 33.3707 23.1541C33.5575 25.9491 33.7398 28.7464 33.9177 31.5463C31.6965 31.4577 29.5021 31.3913 27.3476 31.3101ZM25.4667 20.7332C25.0465 18.3713 24.6062 16.0167 24.1327 13.6696C27.0141 13.8319 29.8934 14.014 32.7704 14.2158C32.9439 16.6293 33.0973 19.0355 33.264 21.4491L25.4667 20.7332ZM34.8848 23.2648L42.9223 24.0029C42.7289 26.5789 42.5554 29.1696 42.3887 31.7456L35.4185 31.5611C35.2228 28.7957 35.0338 26.0302 34.8515 23.2648H34.8848ZM53.4277 15.7805C52.8363 18.1917 52.296 20.6298 51.8069 23.0951C49.379 22.9032 46.9555 22.699 44.5365 22.4825C44.7232 20.0517 44.9233 17.6184 45.1368 15.1827C47.8315 15.3943 50.5306 15.5911 53.2343 15.7731L53.4277 15.7805ZM43.6493 15.0424C43.4359 17.4732 43.2358 19.9016 43.049 22.3275C40.2876 22.0814 37.5262 21.8354 34.7648 21.5894C34.6047 19.1684 34.4446 16.7474 34.2712 14.3265C37.0015 14.5233 39.734 14.7398 42.4687 14.976L43.6493 15.0424ZM15.8818 13.2415C18.1051 13.33 20.3285 13.4334 22.5519 13.5515C23.0388 15.8839 23.479 18.2236 23.8859 20.5708L17.1824 19.9951C17.0624 19.4858 16.9356 18.9839 16.8156 18.4746C16.422 16.8803 16.1552 15.072 15.8484 13.2636L15.8818 13.2415ZM36.0054 41.1711C35.852 38.514 35.6853 35.8568 35.5252 33.1997L42.282 33.3842C42.1219 35.9823 41.9751 38.5508 41.8484 41.1859C39.8785 41.2105 37.9197 41.2129 35.9721 41.1932L36.0054 41.1711ZM57.7032 37.6873C56.7427 41.0604 55.0352 40.9792 51.9469 41.0604C51.3133 41.0604 50.6729 41.0604 50.0393 41.1047C50.4995 38.632 50.9397 36.1447 51.3733 33.6499C53.8412 33.7311 56.3158 33.827 58.7838 33.9378C58.3902 35.2073 58.03 36.4547 57.6699 37.7094L57.7032 37.6873Z" fill="#1B1B1B"/>
<path d="M18.0091 53.7335C18.3893 52.7666 17.0953 51.9178 16.7151 52.8995C16.2948 53.9145 16.1431 55.0405 16.2777 56.1471C16.4123 57.2536 16.8276 58.2952 17.4755 59.1511C18.0825 59.9778 19.1363 58.7968 18.536 57.9775C18.1095 57.389 17.8353 56.6835 17.7425 55.9361C17.6497 55.1887 17.7418 54.4275 18.0091 53.7335Z" fill="#1B1B1B"/>
<path d="M15.1945 54.9587C15.1928 54.7388 15.1126 54.5286 14.9714 54.3738C14.8303 54.2189 14.6395 54.1321 14.4408 54.1321C14.2443 54.1377 14.0572 54.2266 13.9182 54.3804C13.7791 54.5343 13.6988 54.7413 13.6937 54.9587C13.6136 55.7987 13.7598 56.6462 14.114 57.3945C14.2238 57.563 14.3864 57.6801 14.5701 57.7229C14.7538 57.7657 14.9454 57.731 15.1072 57.6258C15.2691 57.5205 15.3896 57.3523 15.4452 57.1538C15.5009 56.9554 15.4876 56.7412 15.408 56.553C15.1939 56.0573 15.1195 55.5018 15.1945 54.9587Z" fill="#1B1B1B"/>
</g>
<defs>
<clipPath id="clip0_21_1138">
<rect width="65" height="60" fill="white"/>
</clipPath>
</defs>
</svg>
