<svg width="65" height="60" viewBox="0 0 65 60" fill="none" xmlns="http://www.w3.org/2000/svg">
<path d="M31.7857 0.491989C29.6061 -0.938443 24.5204 1.088 22.25 2.28003L25.4286 4.06805L38.1428 16.5843L54.9437 32.6767L55.8519 34.9118C48.738 42.2129 34.8734 57.1729 36.3265 58.6033C37.7795 60.0337 39.3537 60.0933 39.9591 59.9443C44.6513 55.3252 55.2162 45.1036 59.9386 41.1699C64.6611 37.2362 65.2362 33.8687 64.9335 32.6767L48.5866 15.6903C43.8945 11.2202 33.9653 1.92242 31.7857 0.491989Z" fill="#7DFF68"/>
<g clip-path="url(#clip0_21_1146)">
<path d="M58.0365 28.9229C53.9715 25.1369 50.0524 21.2326 46.1395 17.2869C42.2266 13.3412 38.4232 9.50197 34.4373 5.73373C33.1593 4.55061 31.5163 2.22577 29.7454 1.66971C28.4918 1.27336 26.8061 1.77619 25.5343 1.96549L25.4248 1.99506C25.0245 1.76115 24.5861 1.59513 24.1286 1.50407C22.4307 1.16097 20.2339 1.65197 18.5056 1.77028C15.0978 1.99507 11.696 2.29086 8.30647 2.75227C5.73842 3.10129 2.31233 2.80551 1.61251 5.71008C0.986419 8.8522 0.561653 12.029 0.340657 15.2224C0.0607276 18.1151 -0.267887 21.6408 0.225033 24.5217C1.03439 29.3725 6.97985 33.5016 10.4181 36.5777C15.1161 40.7837 19.6193 45.1909 24.1955 49.5211C26.0211 51.2662 27.8833 53.0231 29.8123 54.6854C30.5852 55.3539 31.7171 56.5961 32.8064 56.7973C32.8934 56.8061 32.9811 56.8061 33.0681 56.7973C33.1428 56.8061 33.2184 56.8061 33.2932 56.7973C34.0436 56.5693 34.7235 56.1626 35.271 55.6141C38.4354 58.986 42.5126 53.4372 44.7095 51.3904C47.5879 48.7106 50.3993 45.9717 53.1865 43.2091C55.7849 40.6299 58.7911 38.0862 61.0123 35.1935C63.1787 32.3835 60.0508 30.7982 58.0365 28.9229ZM33.0863 55.0167C32.3804 54.7386 31.6441 53.875 31.139 53.4372C29.7637 52.2541 28.437 51.0118 27.1165 49.7695C23.6722 46.5455 20.2826 43.2623 16.8504 40.0324C13.26 36.6546 9.41401 33.4898 5.98184 29.9759C4.24141 28.2012 2.36709 26.2845 2.05673 23.7645C1.83139 21.2701 1.84974 18.7605 2.11152 16.2694C2.33059 13.4358 2.4888 10.2355 3.2434 7.47884C3.99799 4.72217 5.22725 5.00611 7.69793 4.64526C9.81565 4.33173 11.9577 4.10102 14.0815 3.90581C16.8261 3.66327 20.3252 2.86466 23.0393 3.31425C26.5019 3.85257 30.0436 8.63828 32.4108 10.9335C37.127 15.5536 41.7215 20.298 46.4073 24.924C48.7137 27.1837 51.0505 29.4257 53.436 31.6086C54.7321 32.7917 55.5111 33.3241 54.081 34.8977C53.3021 35.7614 52.4684 36.5777 51.6468 37.4118C47.9672 41.1978 44.2165 44.9207 40.3949 48.5805C38.8248 50.0771 37.2426 51.5679 35.5996 52.9995C34.9971 53.5082 33.9869 54.7268 33.0741 55.0167H33.0863ZM59.9291 33.6731C59.8743 34.0458 58.712 35.0574 58.4077 35.3709C54.2331 39.7091 49.9592 43.9545 45.5858 48.1072C43.8392 49.7695 42.0806 51.4259 40.261 53.0172C39.0987 54.0347 37.9911 55.6201 36.695 54.4251C37.9668 53.3307 39.19 52.1831 40.4071 51.0414C44.6121 47.0898 48.6954 43.0139 52.7179 38.8848C53.9349 37.6188 56.6186 35.6431 57.0446 33.8447C57.5314 31.7861 54.3001 29.8931 53.0526 28.7277C47.101 23.1611 41.4477 17.3047 35.6665 11.5724C33.0133 8.93407 30.3053 6.34896 27.5729 3.78158L27.226 3.45031C27.6473 3.35966 28.0802 3.33172 28.5101 3.36748C29.7819 3.53904 31.0294 4.99429 31.9118 5.82248C33.421 7.2225 34.9099 8.6442 36.3785 10.0876C39.3725 12.9981 42.3057 15.9677 45.245 18.9255C48.1842 21.8833 51.2087 24.9003 54.2636 27.7989C55.7545 29.2246 57.5923 30.5556 58.9067 32.1292C59.3023 32.6438 60.0325 32.8686 59.9169 33.6731H59.9291Z" fill="#1B1B1B"/>
<path d="M13.2845 9.84522C12.6455 7.58546 10.4487 7.29558 8.45873 7.98771C8.37394 8.01217 8.29228 8.0459 8.21532 8.08827C7.35956 8.54102 6.6992 9.27712 6.35416 10.1628C6.00913 11.0486 6.00231 12.0252 6.33492 12.9154C7.0956 14.8321 8.87863 15.6129 10.7651 14.6309C12.469 13.7436 13.8565 11.7678 13.2845 9.84522ZM10.1383 12.9332C9.13422 13.5661 8.34919 13.2585 7.98407 12.1464C7.84872 11.6699 7.88471 11.1627 8.0861 10.7088C8.28749 10.2549 8.64222 9.88136 9.09162 9.64999C10.0957 9.31872 11.325 9.11168 11.5684 10.4664C11.7448 11.4602 10.9355 12.4185 10.1383 12.9332Z" fill="#1B1B1B"/>
<path d="M22.1024 22.9661C21.7677 21.783 20.9523 20.736 20.6298 19.5292C20.0699 17.4291 23.0639 16.2815 24.281 17.9852C24.662 18.5247 24.8482 19.1717 24.8105 19.825C24.7496 20.9667 26.5752 20.9667 26.6361 19.825C26.8004 16.5359 22.3215 13.1462 19.5587 16.0331C18.153 17.5061 18.6033 19.5824 19.3092 21.221C19.7005 21.9448 20.0401 22.694 20.3255 23.4631C20.8489 25.5631 19.0111 27.0893 16.8507 26.4209C14.4166 25.6518 12.4084 22.6171 13.9784 20.3633C14.6356 19.4108 13.0534 18.5235 12.4023 19.4641C9.58472 23.5222 15.1711 30.3843 19.8813 28.3375C21.9746 27.4088 22.6562 24.9538 22.1024 22.9661Z" fill="#1B1B1B"/>
<path d="M29.0215 29.71L26.7699 27.6158C27.2628 27.1308 27.7618 26.6516 28.2791 26.1961C29.2162 25.3857 29.4049 25.1431 30.7436 25.2496C32.192 25.362 32.7336 25.9358 33.7133 26.9356C34.5227 27.7638 35.8128 26.5096 35.0034 25.6815C33.6464 24.2913 32.0155 22.8538 29.8856 23.2087C27.7557 23.5636 25.7901 26.0009 24.354 27.4916C23.1673 28.728 20.9522 30.4908 21.1652 32.4075C21.3782 34.3242 23.6724 36.3473 25.2546 37.3766C26.2344 38.0096 27.1472 36.4774 26.1735 35.8445C25.5499 35.4546 24.9882 34.9783 24.5061 34.4306C23.9584 33.7799 23.0334 32.3543 23.1855 31.5202C23.3073 30.8399 24.6765 29.6212 25.4858 28.8759L27.7314 30.9641C28.5772 31.7509 29.8734 30.5027 29.0215 29.71Z" fill="#1B1B1B"/>
<path d="M42.3727 32.8394C42.3414 32.7921 42.3047 32.7484 42.2632 32.7093L42.2266 32.6619C37.1027 27.0717 24.6824 35.7321 29.8611 42.3872C35.3014 49.4031 46.596 39.2756 42.3727 32.8394ZM40.8513 33.8332C43.8393 38.6544 34.6625 46.8476 31.0538 40.9319C28.1085 36.1462 37.2123 30.1419 40.8513 33.851V33.8332Z" fill="#1B1B1B"/>
<path d="M18.4082 9.7683L24.7614 9.71505C24.9318 9.69941 25.0901 9.62257 25.2053 9.49949C25.3206 9.37642 25.3844 9.21595 25.3844 9.04954C25.3844 8.88313 25.3206 8.7227 25.2053 8.59962C25.0901 8.47655 24.9318 8.39967 24.7614 8.38403L18.4082 8.43729C18.2378 8.45293 18.0795 8.5298 17.9642 8.65288C17.849 8.77596 17.7852 8.93638 17.7852 9.1028C17.7852 9.26921 17.849 9.42964 17.9642 9.55271C18.0795 9.67579 18.2378 9.75266 18.4082 9.7683Z" fill="#1B1B1B"/>
<path d="M21.999 10.7385C21.1227 10.6971 21.1227 12.0281 21.999 12.0695C23.2221 12.1201 24.4471 12.0347 25.6503 11.8151C26.5144 11.6613 26.1432 10.3835 25.2851 10.5314C24.2013 10.7206 23.0989 10.7901 21.999 10.7385Z" fill="#1B1B1B"/>
<path d="M34.8087 47.0367C33.3603 47.1786 31.9079 47.2733 30.4515 47.3206C29.5752 47.3206 29.5691 48.6812 30.4515 48.6516C31.9079 48.6043 33.3603 48.5097 34.8087 48.3677C35.6789 48.2671 35.685 46.9361 34.8087 47.0367Z" fill="#1B1B1B"/>
<path d="M33.567 49.3438C33.0988 49.5044 32.6158 49.6212 32.1248 49.6928C31.9513 49.7411 31.8043 49.8537 31.7155 50.0065C31.6267 50.1592 31.6032 50.3397 31.6501 50.5091C31.7012 50.6772 31.8171 50.8196 31.9735 50.9066C32.13 50.9937 32.3149 51.0187 32.4899 50.9764C32.9804 50.9021 33.463 50.7853 33.9321 50.6274C34.1042 50.5765 34.2497 50.4637 34.339 50.3119C34.4284 50.1602 34.4548 49.9811 34.4129 49.8111C34.3631 49.6409 34.2466 49.4965 34.0883 49.4091C33.9301 49.3217 33.7429 49.2982 33.567 49.3438Z" fill="#1B1B1B"/>
</g>
<defs>
<clipPath id="clip0_21_1146">
<rect width="61.7549" height="55.4293" fill="white" transform="translate(0 1.38599)"/>
</clipPath>
</defs>
</svg>
