<svg width="69" height="61" viewBox="0 0 69 61" fill="none" xmlns="http://www.w3.org/2000/svg">
<path d="M42.1738 3.83618C43.3609 6.67432 44.8132 9.30406 45.8603 12.2472C46.5412 14.1613 47.0706 16.1501 47.7576 18.0654C48.5699 20.3299 49.3936 22.5557 50.3265 24.7412C51.8161 28.2312 53.0794 31.9787 54.1599 35.7168C54.6904 37.5519 55.05 39.3717 55.191 41.3069C55.3006 42.8121 55.2375 44.3154 55.3604 45.8163" stroke="#7DFF68" stroke-width="7" stroke-linecap="round"/>
<g clip-path="url(#clip0_21_1145)">
<path d="M56.486 16.9664C55.1965 16.8946 53.9038 17.0259 52.6542 17.3557C51.3589 14.1324 49.9377 10.9705 48.3906 7.87012C47.4191 5.92385 46.279 2.83712 44.3968 1.54643C41.7995 -0.235955 38.8649 2.71419 37.2391 4.52389C30.2905 12.2339 23.9559 20.3604 14.6461 25.3456C14.5676 25.3907 14.495 25.4458 14.4303 25.5095C11.806 26.3222 9.19521 27.1554 6.59119 28.0295C4.91139 28.5895 2.63116 28.9719 1.2482 30.2148C-1.12646 32.3591 0.458893 37.0438 1.39661 39.4545C2.28036 41.7627 4.33795 46.3996 6.98246 47.1918C7.79346 47.3632 8.63437 47.3209 9.42457 47.0688C11.0032 50.3741 12.4334 53.775 14.2481 56.9573C15.4219 59.006 16.6025 61.7376 19.3347 60.8089C22.1884 59.8597 25.7773 56.9095 24.9071 53.5086C24.4686 51.7809 22.917 50.497 21.9522 49.1039C20.9131 47.5452 20.0101 45.8977 19.2538 44.1802L20.5221 43.7772C25.8197 42.6165 31.2616 42.2826 36.6589 42.787C41.4892 43.3265 46.2048 44.6172 50.9474 45.6416C53.2816 46.1469 57.734 48.0113 59.3396 45.1431C60.9452 42.2749 58.8202 36.7502 58.0713 33.841C57.5654 31.8674 56.9987 29.9006 56.3983 27.9407C57.707 27.0529 59.3329 26.2061 59.9738 24.7174C60.6147 23.2286 59.9738 21.4053 59.2992 19.937C58.7662 18.7078 57.9634 17.1713 56.486 16.9664ZM5.45108 42.8075C4.6731 41.7055 4.02342 40.5162 3.51493 39.2632C2.98313 38.0229 2.58941 36.7265 2.34108 35.398C1.82837 32.5298 3.42047 31.2664 5.86259 30.4333C8.82416 29.4226 11.7925 28.4665 14.7743 27.5446C16.2765 32.3705 17.873 37.1667 19.5641 41.9334C16.9196 42.7939 14.2549 43.5929 11.5631 44.2894C9.05354 44.9314 7.15786 45.2113 5.45108 42.8075ZM21.3451 50.8385C21.6149 51.1936 22.0197 51.658 22.2626 52.0063C23.5781 54.1028 23.6118 55.4208 21.8645 57.3397C21.2835 57.9008 20.6158 58.3622 19.8879 58.7055C19.4516 58.9534 18.9692 59.1068 18.4712 59.1563C18.7446 58.665 18.9705 58.1481 19.1458 57.6129C19.4629 56.6773 17.9922 56.2471 17.6819 57.21C17.5273 57.6561 17.326 58.0842 17.0815 58.487L16.8791 58.2958C16.7375 58.1524 16.6093 57.9885 16.4743 57.8246C16.4743 57.8246 16.5081 57.7631 16.5216 57.7222C16.6574 57.4018 16.8152 57.0915 16.9938 56.7934C17.1782 56.4127 17.3382 56.0204 17.4728 55.6188C17.7899 54.6832 16.3259 54.253 16.0089 55.2091C15.8669 55.5975 15.6955 55.9742 15.4961 56.3359C15.2938 55.9808 15.1049 55.6051 14.9227 55.2295C15.2668 54.4579 15.5973 53.6862 15.9616 52.9213C16.0592 52.7446 16.0857 52.5366 16.0354 52.3406C15.9851 52.1447 15.862 51.976 15.6918 51.8697C15.518 51.7673 15.3114 51.7386 15.1168 51.7898C14.9222 51.8409 14.7555 51.9678 14.6529 52.1428L14.066 53.4335C13.931 53.133 13.7961 52.8394 13.6612 52.5662L13.4588 52.136C13.5173 52.0783 13.5694 52.0141 13.614 51.9448L14.6259 50.1761C14.7064 50.002 14.7199 49.8038 14.6636 49.6202C14.6073 49.4366 14.4854 49.2809 14.3217 49.1835C14.158 49.0861 13.9643 49.0541 13.7785 49.0937C13.5927 49.1333 13.4282 49.2416 13.3171 49.3975L12.683 50.497L12.1096 49.2815C12.1647 49.2302 12.2165 49.1755 12.2647 49.1176C12.5683 48.7146 12.8584 48.3049 13.1417 47.8883C13.2222 47.7143 13.2357 47.516 13.1794 47.3325C13.1232 47.1489 13.0013 46.9932 12.8376 46.8958C12.6739 46.7984 12.4801 46.7664 12.2943 46.806C12.1085 46.8456 11.944 46.9539 11.833 47.1098C11.6913 47.3215 11.5361 47.5264 11.3877 47.7381L10.9087 46.6659C11.3405 46.5225 11.7453 46.3928 12.1163 46.2972C14.0322 45.8055 15.9279 45.2592 17.8168 44.6719C18.7724 46.8488 19.9552 48.9161 21.3451 50.8385ZM49.362 43.2036C44.9972 42.227 40.6459 41.1549 36.1935 40.6905C31.1213 40.2712 26.016 40.577 21.028 41.5988C19.2965 36.7183 17.6617 31.8014 16.1236 26.848C24.4821 22.2248 30.9652 15.0065 37.1177 7.76086C38.0512 6.50528 39.0846 5.32904 40.2074 4.2439C43.8234 9.70713 46.1845 16.5362 48.5525 22.6072C51.3529 29.6757 53.4567 37.007 54.8332 44.4943C52.9982 44.3577 50.7112 43.4904 49.362 43.2036ZM57.7543 42.5617C57.7633 42.9826 57.6286 43.3938 57.373 43.7259C57.1174 44.0581 56.7564 44.2909 56.3511 44.385C54.9475 36.6218 52.7615 29.0246 49.8275 21.7126C47.4259 15.6484 45.1052 8.88765 41.4825 3.41076C41.7869 3.24751 42.1262 3.16217 42.4708 3.16217C42.8153 3.16217 43.1546 3.24751 43.4591 3.41076C44.3226 3.90928 45.0579 5.89653 45.483 6.72967C47.55 10.64 49.3794 14.6743 50.9609 18.8103C52.918 23.7121 54.5806 28.7292 55.9395 33.8342C56.6681 36.4224 57.9567 39.8847 57.7813 42.5685L57.7543 42.5617ZM58.2265 24.6149C57.5772 25.3694 56.7889 25.9887 55.9058 26.4383C55.0828 23.8797 54.1833 21.3416 53.2073 18.8239C53.8078 18.7283 54.4149 18.6259 55.0221 18.5644C56.4995 18.4073 57.0459 18.8376 57.761 20.2239C58.4761 21.6102 59.2114 23.2355 58.2535 24.6149H58.2265Z" fill="#1B1B1B"/>
<path d="M56.8905 12.3703C56.8905 10.9089 56.8905 9.44745 56.8905 7.98604C56.8726 7.79478 56.7849 7.61713 56.6446 7.48783C56.5042 7.35852 56.3213 7.28687 56.1315 7.28687C55.9417 7.28687 55.7588 7.35852 55.6184 7.48783C55.4781 7.61713 55.3904 7.79478 55.3726 7.98604C55.3726 9.44745 55.3726 10.9089 55.3726 12.3703C55.3904 12.5615 55.4781 12.7392 55.6184 12.8685C55.7588 12.9978 55.9417 13.0695 56.1315 13.0695C56.3213 13.0695 56.5042 12.9978 56.6446 12.8685C56.7849 12.7392 56.8726 12.5615 56.8905 12.3703Z" fill="#1B1B1B"/>
<path d="M63.0701 15.3273L65.4448 12.6912C66.1194 11.9605 65.0265 10.8747 64.3654 11.6054L61.9975 14.2414C61.3364 14.9653 62.409 16.058 63.0701 15.3273Z" fill="#1B1B1B"/>
<path d="M68.2513 20.3534C67.1247 20.2851 65.998 20.292 64.8782 20.2578C63.9 20.2578 63.9 21.7602 64.8782 21.7943C66.0048 21.7943 67.1314 21.7943 68.2513 21.89C69.2497 21.9514 69.243 20.4149 68.2513 20.3534Z" fill="#1B1B1B"/>
<path d="M62.5573 27.3534C61.768 26.7729 61.0057 28.1046 61.795 28.6782C62.7519 29.3857 63.6685 30.1472 64.5407 30.9591C65.2626 31.642 66.3352 30.5425 65.6134 29.8733C64.6437 28.9742 63.6233 28.1328 62.5573 27.3534Z" fill="#1B1B1B"/>
<path d="M8.21004 34.5921C9.11403 34.237 8.72274 32.7483 7.80526 33.1102L4.75599 34.3121C3.852 34.6673 4.24329 36.156 5.16077 35.794L8.21004 34.5921Z" fill="#1B1B1B"/>
<path d="M8.62152 35.6232C7.5803 36.1238 6.50215 36.5417 5.39684 36.8729C5.21817 36.9403 5.07096 37.0731 4.98424 37.245C4.89753 37.417 4.87763 37.6155 4.92845 37.8016C4.97927 37.9876 5.09712 38.1477 5.25876 38.2501C5.42041 38.3525 5.6141 38.3898 5.80162 38.3548C7.03216 37.9835 8.23215 37.5155 9.3906 36.9548C10.2676 36.5246 9.49852 35.1998 8.62152 35.6232Z" fill="#1B1B1B"/>
</g>
<defs>
<clipPath id="clip0_21_1145">
<rect width="69" height="60" fill="white" transform="translate(0 1)"/>
</clipPath>
</defs>
</svg>
