<svg width="60" height="68" viewBox="0 0 60 68" fill="none" xmlns="http://www.w3.org/2000/svg">
<path d="M12.6685 38.4054C16.3487 35.2811 20.1146 32.2202 23.553 28.824C25.1354 27.2611 26.4439 25.5439 27.875 23.8551C30.5193 20.7347 33.6028 18.0267 36.8751 15.5863C41.5942 12.067 46.0459 8.19121 51.6504 6.17358" stroke="white" stroke-width="12" stroke-linecap="round"/>
<path d="M59.6398 2.14221C59.5492 1.82925 59.3604 1.5537 59.1012 1.35621C58.8421 1.15872 58.5263 1.04977 58.2005 1.04541C52.9626 0.708345 47.5535 2.28131 42.4654 4.64613L42.3852 4.61403C35.8097 2.67188 29.2449 5.37377 23.4399 8.43413C17.7945 11.4423 12.8581 15.6234 8.96205 20.6969C8.36817 21.462 8.36817 23.0083 9.61478 23.1902C11.9742 23.5272 14.3284 23.7573 16.6985 23.8589C13.5752 27.3087 10.6459 30.9293 7.9241 34.7039C7.73063 34.9376 7.63298 35.236 7.65085 35.5388C7.66872 35.8417 7.80079 36.1264 8.0204 36.3357C8.07598 36.4371 8.14236 36.5322 8.21837 36.6193C8.40563 36.844 8.60358 37.058 8.79619 37.2774C6.46883 38.4812 4.09331 39.8295 2.51499 41.9803C0.374879 44.8801 0.674481 48.4434 0.0270988 51.8141C-0.133409 52.6594 0.42837 53.8097 1.46632 53.6974L3.25866 53.5048C2.32777 57.2236 2.22911 61.102 2.96974 64.8634C3.03117 65.1191 3.16055 65.3536 3.34419 65.5419C3.52782 65.7303 3.75891 65.8655 4.01305 65.9334C5.23826 66.2223 6.97174 65.7569 8.57147 65.0346C8.57936 65.6262 8.75567 66.2034 9.07975 66.6985C10.2889 68.3999 13.2583 67.0409 14.7082 66.4417C20.3742 64.0876 25.4569 60.6527 29.0362 55.6288C29.3103 55.7208 29.6041 55.737 29.8866 55.6758C30.1691 55.6145 30.4299 55.4782 30.6413 55.281C33.5037 52.7771 36.3875 50.1287 39.1429 47.3252C39.7136 49.4653 40.2843 51.6179 40.855 53.783C40.9278 54.0313 41.0634 54.2567 41.2488 54.4373C41.4342 54.6179 41.6631 54.7475 41.9133 54.8137C42.1635 54.8799 42.4266 54.8804 42.677 54.8151C42.9275 54.7498 43.1568 54.621 43.3429 54.441C48.0084 49.2517 51.8369 43.3672 54.6908 36.9992C57.2161 31.3012 59.6826 24.8541 57.4622 18.7013C59.4578 13.2761 60.6349 7.59413 59.6398 2.14221ZM23.258 11.9385C27.6184 9.38647 32.8349 6.81835 38.0033 6.93606C35.066 8.58929 32.2946 10.4084 29.796 12.1526C26.0909 14.7692 22.6295 17.7149 19.4539 20.9537H19.3576C17.1937 20.9551 15.0312 20.8462 12.8784 20.6274C15.8497 17.1908 19.3564 14.2568 23.2633 11.9385H23.258ZM18.2234 61.3589C16.9072 62.0973 15.5482 62.7875 14.1572 63.4135C13.288 63.8394 12.3796 64.1798 11.4446 64.43C11.8298 64.2588 12.0866 62.8249 12.2846 62.5146C13.2369 61.0593 11.1503 59.5827 9.9465 60.7116C8.92459 61.6693 7.60844 62.017 6.30832 62.4451C6.16386 62.4986 5.891 62.5681 5.61813 62.6484C5.17457 59.1189 5.56489 55.5345 6.75774 52.1833C6.8176 51.9625 6.82591 51.7309 6.78204 51.5063C6.73816 51.2818 6.64327 51.0704 6.50469 50.8884C6.36612 50.7064 6.18757 50.5587 5.98283 50.4566C5.77809 50.3546 5.55263 50.301 5.32387 50.2999L3.18377 50.53C3.39243 48.3257 3.48872 46.009 4.62833 44.1632C5.98195 41.9696 8.50727 40.7711 10.7169 39.6369C10.753 39.615 10.787 39.59 10.8186 39.562C11.0701 39.8348 11.3536 40.097 11.5783 40.3699C11.5061 40.4233 11.4397 40.4843 11.3804 40.5518C8.40561 44.222 15.0877 41.0389 16.2541 45.3191C16.3608 45.6999 16.6113 46.0244 16.9527 46.2241C17.2941 46.4237 17.6997 46.4829 18.0839 46.3892C18.4477 46.3303 18.8008 46.25 19.154 46.1805C19.0412 46.8793 18.984 47.586 18.9827 48.2939C18.9851 48.5223 19.0395 48.7473 19.1418 48.9516C19.2441 49.156 19.3916 49.3343 19.5732 49.473C19.7548 49.6118 19.9656 49.7073 20.1896 49.7523C20.4136 49.7974 20.6449 49.7908 20.866 49.7331C24.7351 48.6551 22.2088 55.6374 24.7614 52.5364C24.781 52.5109 24.7989 52.484 24.8149 52.4561C25.4248 52.9323 26.0347 53.4084 26.65 53.8686C24.4483 56.9726 21.5683 59.5342 18.2287 61.3589H18.2234ZM29.4589 52.2956C22.7272 47.3521 16.5589 41.6844 11.0647 35.3941C16.6825 27.7646 23.4987 20.1352 31.2727 14.726C38.4046 9.75565 47.8264 3.96666 56.8844 3.98806C57.4194 8.56253 56.0016 13.3029 54.466 17.551C52.7942 22.166 50.7211 26.6255 48.2704 30.8785C43.6157 39.0269 36.4999 46.0839 29.491 52.2956H29.4589ZM51.2238 37.3148C48.9943 41.9348 46.2191 46.2709 42.9576 50.2304C42.4761 48.4113 41.9928 46.5886 41.5077 44.7624C45.4002 40.6492 48.7664 36.0682 51.5288 31.1246C52.7754 28.8079 54.0808 26.3094 55.2739 23.7466C55.3702 28.4227 53.2408 33.1737 51.2559 37.3148H51.2238Z" fill="black"/>
<path d="M43.3749 16.2668C42.293 15.7204 41.0671 15.5267 39.8695 15.7129C38.6719 15.899 37.5627 16.4558 36.6977 17.3048C36.1773 17.8622 35.7772 18.5207 35.5222 19.2394C35.2671 19.9581 35.1627 20.7216 35.2154 21.4824C35.2681 22.2431 35.4768 22.9849 35.8284 23.6616C36.1801 24.3383 36.6672 24.9354 37.2595 25.4157C40.1433 27.6308 44.279 26.0524 45.8467 23.0616C46.0487 22.7381 46.1715 22.3715 46.2051 21.9916C46.4324 20.8587 46.278 19.6825 45.7659 18.6467C45.2538 17.6109 44.413 16.7741 43.3749 16.2668ZM38.4151 22.2217C38.24 21.8527 38.1556 21.4472 38.169 21.039C38.1823 20.6309 38.293 20.2318 38.4919 19.8751C38.6907 19.5183 38.9719 19.2143 39.3121 18.9883C39.6522 18.7623 40.0415 18.6208 40.4474 18.5757C40.8533 18.5306 41.2641 18.5832 41.6456 18.729C42.027 18.8748 42.3681 19.1097 42.6404 19.4141C42.9127 19.7185 43.1083 20.0835 43.211 20.4788C43.3136 20.8741 43.3202 21.2882 43.2304 21.6866C42.4813 23.6074 39.3621 24.212 38.4151 22.2217Z" fill="black"/>
<path d="M27.747 28.8615C27.0267 28.9808 26.3398 29.2513 25.7316 29.6553C25.1234 30.0593 24.6078 30.5875 24.2185 31.2052C23.8293 31.8229 23.5754 32.5161 23.4735 33.239C23.3715 33.962 23.424 34.6983 23.6272 35.3996C23.6624 35.5171 23.7108 35.6302 23.7717 35.7366C24.2887 36.965 25.249 37.9539 26.4616 38.5068C27.6742 39.0597 29.0505 39.1361 30.3169 38.721C31.5833 38.3058 32.6471 37.4294 33.2971 36.2659C33.947 35.1024 34.1354 33.7369 33.8248 32.4409C33.1454 29.8032 30.3418 28.3586 27.747 28.8615ZM29.8871 35.6778C28.5655 36.5071 27.1263 35.7527 26.4629 34.5168C25.7085 31.6276 30.5986 30.6004 30.9785 33.4039C31.0251 33.8451 30.9494 34.2906 30.7597 34.6917C30.57 35.0927 30.2737 35.4339 29.9031 35.6778H29.8871Z" fill="black"/>
</svg>
