<svg width="41" height="42" viewBox="0 0 41 42" fill="none" xmlns="http://www.w3.org/2000/svg">
<path d="M22.9678 8.71291C25.0095 7.32011 27.0587 5.71346 29.3823 4.76178C30.3431 4.36825 31.4141 4.33753 32.4396 4.25618C33.2439 4.19238 33.974 4.1878 34.6358 4.66815" stroke="#7DFF68" stroke-width="7" stroke-linecap="round"/>
<path d="M16.3498 35.4251C14.819 36.5071 13.4257 37.2367 11.5752 37.719C10.1806 38.0825 8.61178 38.393 7.15859 38.1872C6.20364 38.0519 5.28679 37.7478 4.3335 37.616" stroke="#7DFF68" stroke-width="7" stroke-linecap="round"/>
<g clip-path="url(#clip0_427_7849)">
<path d="M39.5509 4.66374C36.0301 0.0593618 29.7932 0.1244 25.2144 3.04224C22.7745 4.66608 20.5871 6.62417 18.7196 8.85624C17.0837 10.7422 15.1633 12.9534 14.2742 15.2989C14.2268 15.4347 14.1824 15.5691 14.1409 15.7021C11.5713 16.7977 9.26848 18.4112 7.38384 20.4366C5.25448 22.665 2.93842 25.1797 1.50255 27.8981C-0.644583 31.9172 0.168927 36.786 3.93864 39.6778C8.2418 42.9772 14.2476 39.435 17.7194 36.6169C20.2143 34.5114 22.4104 32.0911 24.2497 29.4199C25.1091 28.2651 25.8632 27.0392 26.5036 25.7563C31.5713 24.9672 35.1455 21.1606 37.826 17.1155C40.2444 13.4433 42.6093 8.66981 39.5509 4.66374ZM21.4491 14.4014C21.8937 13.7684 22.3382 13.2048 22.6583 12.7799C24.7343 10.1786 27.0059 7.12201 30.4511 6.22888C32.8694 5.60456 35.2121 6.95726 35.0254 9.54126C34.9232 10.972 34.163 12.3464 33.3095 13.478C31.6514 15.6761 29.7532 17.9133 27.3393 19.3093C26.6547 16.4999 24.5609 14.137 21.4491 14.4014ZM19.502 25.5525C18.6663 26.6451 17.8483 27.5816 17.5372 27.9848C15.9635 30.0312 14.3498 32.4157 11.9582 33.621C10.7046 34.2584 8.18401 34.9477 7.13934 33.6904C5.69902 31.9562 7.30382 29.1857 8.36183 27.7377C10.2289 25.171 12.4872 23.168 14.9944 21.2343C16.0251 23.0775 17.594 24.5804 19.502 25.5525ZM11.4336 39.2703C8.21513 40.4756 5.16557 40.1374 3.054 37.2759C1.41364 35.0778 0.764612 32.5762 1.6537 29.9748C2.65836 27.057 4.96998 24.6291 6.98819 22.3312C9.00641 20.0333 11.1624 18.143 13.9097 16.8814C13.9097 16.9508 13.9097 17.0245 13.9097 17.0938C13.6252 17.2066 13.3407 17.3236 13.0695 17.458C13.0129 17.4902 12.9633 17.5329 12.9236 17.5838C12.8839 17.6346 12.8549 17.6926 12.8382 17.7544C12.8215 17.8162 12.8174 17.8806 12.8262 17.9439C12.835 18.0073 12.8565 18.0683 12.8895 18.1235C12.9225 18.1788 12.9663 18.2271 13.0184 18.2658C13.0706 18.3045 13.13 18.3328 13.1934 18.3492C13.2567 18.3655 13.3228 18.3694 13.3877 18.3608C13.4527 18.3523 13.5152 18.3313 13.5719 18.2991C13.6919 18.2428 13.8164 18.1951 13.9408 18.143C13.9387 18.1647 13.9387 18.1864 13.9408 18.2081C13.7319 18.3295 13.523 18.4509 13.314 18.5809C12.7717 18.9148 13.274 19.7602 13.8208 19.422L14.1409 19.2313L14.1675 19.3353L13.7941 19.5998C13.6832 19.6672 13.6027 19.7733 13.5688 19.8964C13.535 20.0195 13.5504 20.1506 13.6119 20.2631C13.6787 20.375 13.7883 20.4565 13.9166 20.4898C14.0448 20.5231 14.1814 20.5055 14.2965 20.4409L14.5054 20.2935C14.5153 20.3217 14.5272 20.3492 14.541 20.3759H14.5098C11.1402 22.9468 6.06355 26.8445 5.65457 31.3882C5.52121 32.871 5.98798 34.7266 7.55721 35.1558C9.21762 35.5216 10.958 35.2793 12.4472 34.4751C15.9635 32.6585 18.0884 28.7002 20.5912 25.8387C22.156 24.0438 24.4409 19.1229 20.0755 18.9018C20.0632 18.875 20.0528 18.8475 20.0444 18.8194H20.0977C20.2222 18.8079 20.3379 18.7516 20.422 18.6614C20.5062 18.5712 20.5529 18.4536 20.5529 18.3316C20.5529 18.2097 20.5062 18.0921 20.422 18.0019C20.3379 17.9117 20.2222 17.8553 20.0977 17.8439H19.9199C19.9199 17.8179 19.9199 17.7919 19.9199 17.7615C20.1422 17.7615 20.3645 17.7919 20.5912 17.8179C20.6566 17.8179 20.7213 17.8053 20.7817 17.7809C20.8421 17.7565 20.897 17.7207 20.9432 17.6756C20.9895 17.6306 21.0261 17.577 21.0512 17.5181C21.0762 17.4592 21.0891 17.3961 21.0891 17.3323C21.0857 17.2041 21.0323 17.082 20.9398 16.991C20.8473 16.8999 20.7226 16.8467 20.5912 16.8424L20.1466 16.799C20.1733 16.734 20.1955 16.6646 20.2222 16.5952L20.6178 16.6429C20.7422 16.6367 20.8596 16.5852 20.947 16.4986C21.0343 16.4121 21.0853 16.2968 21.0897 16.1754C21.0942 16.054 21.0519 15.9354 20.9711 15.843C20.8903 15.7506 20.777 15.691 20.6534 15.6761L20.7468 15.5027C23.6541 14.8046 25.6056 16.76 26.3346 19.357C27.0637 21.954 26.1613 24.5337 24.8277 26.7275C21.7914 31.7784 17.2127 37.1155 11.4336 39.2703ZM26.9526 24.6984C26.9748 24.6421 26.9926 24.5857 27.0103 24.5337C27.094 24.5315 27.1761 24.5107 27.2504 24.473L28.0595 24.0394C28.6329 23.7489 28.1261 22.9035 27.5571 23.1983L27.3704 23.2937L27.4371 23.0379C27.7616 22.9122 28.0817 22.7821 28.3973 22.639C28.5112 22.5731 28.5938 22.4659 28.6271 22.3409C28.6604 22.2158 28.6417 22.083 28.5751 21.9714C28.5067 21.8612 28.3971 21.7812 28.2695 21.7481C28.1419 21.7149 28.0061 21.7312 27.8905 21.7936C27.7927 21.8413 27.6905 21.8803 27.5927 21.9237C27.5927 21.8456 27.5927 21.7632 27.5927 21.6852L28.1928 21.4684C28.3183 21.4311 28.4242 21.3482 28.4888 21.2368C28.5533 21.1255 28.5715 20.9942 28.5396 20.8701C28.5042 20.7457 28.4199 20.64 28.3051 20.5758C28.1902 20.5117 28.054 20.4944 27.9261 20.5276L27.5749 20.6577C27.5749 20.5493 27.5527 20.4452 27.5438 20.3368C29.6954 19.2009 31.1001 17.6184 32.6427 15.7932C33.8607 14.3624 35.061 13.0271 35.6789 11.2321C36.8303 7.86773 34.6831 4.46431 30.8112 5.16234C26.2324 5.98176 22.9117 10.5558 20.44 14.0286C18.6619 16.5085 17.8439 20.2718 21.7736 21.1172V21.3037C21.5564 21.2314 21.3273 21.1991 21.0979 21.2083C20.9658 21.2116 20.84 21.2643 20.7465 21.3554C20.653 21.4466 20.599 21.5693 20.5956 21.6982C20.5968 21.8274 20.6502 21.9509 20.7443 22.0418C20.8384 22.1328 20.9655 22.1838 21.0979 22.1838C21.2493 22.1795 21.4001 22.203 21.5425 22.2532C21.5114 22.3355 21.4758 22.4223 21.4402 22.509C21.2491 22.4613 21.0535 22.4136 20.8668 22.3572C20.7432 22.335 20.6156 22.3587 20.5091 22.4237C20.4025 22.4887 20.3249 22.5903 20.2914 22.7084C20.2579 22.8266 20.271 22.9526 20.3282 23.0618C20.3853 23.1709 20.4823 23.2552 20.6001 23.298C20.729 23.3371 20.8579 23.3674 20.9868 23.4021C20.9335 23.4975 20.8801 23.5929 20.8179 23.6882C20.6178 23.6189 20.4133 23.5495 20.2044 23.4931C20.0808 23.4709 19.9532 23.4946 19.8467 23.5596C19.7402 23.6246 19.6625 23.7262 19.629 23.8444C19.5955 23.9625 19.6087 24.0885 19.6658 24.1977C19.7229 24.3068 19.82 24.3911 19.9377 24.434L20.2711 24.538L20.1155 24.7591C18.9362 24.2219 17.891 23.4405 17.0527 22.4694C16.2144 21.4983 15.603 20.3608 15.2611 19.1359C14.5587 16.7427 15.3634 15.0865 16.6881 13.0921C19.7465 8.5094 24.7387 2.76476 30.6334 1.96701C34.0563 1.50311 37.8172 3.17231 39.4042 6.25923C40.7378 8.86058 39.7287 11.8955 38.3906 14.2714C35.919 18.7023 32.2648 23.6145 26.9437 24.6984H26.9526Z" fill="#1B1B1B"/>
<path d="M28.7974 2.83828C27.1069 3.51531 25.5328 4.44085 24.1297 5.5827C23.6407 5.99025 24.352 6.67527 24.841 6.27206C26.1791 5.19026 27.678 4.31313 29.2864 3.67071C29.891 3.43659 29.3842 2.59549 28.7974 2.83828Z" fill="#1B1B1B"/>
<path d="M30.8379 2.41772C30.7134 2.42919 30.5978 2.48553 30.5136 2.57573C30.4295 2.66593 30.3828 2.78351 30.3828 2.90548C30.3828 3.02744 30.4295 3.14502 30.5136 3.23522C30.5978 3.32543 30.7134 3.38177 30.8379 3.39323C30.9624 3.38177 31.0781 3.32543 31.1623 3.23522C31.2464 3.14502 31.2931 3.02744 31.2931 2.90548C31.2931 2.78351 31.2464 2.66593 31.1623 2.57573C31.0781 2.48553 30.9624 2.42919 30.8379 2.41772Z" fill="#1B1B1B"/>
<path d="M11.7003 37.4622C10.1018 38.2248 8.30476 38.4998 6.54362 38.2513C5.91681 38.1602 5.65454 39.1184 6.28134 39.1921C8.30827 39.501 10.3836 39.1985 12.2293 38.325C12.7672 38.0345 12.2782 37.1934 11.7003 37.4622Z" fill="#1B1B1B"/>
<path d="M13.5806 36.569C13.4561 36.5805 13.3405 36.6368 13.2563 36.727C13.1721 36.8172 13.1255 36.9348 13.1255 37.0568C13.1255 37.1787 13.1721 37.2963 13.2563 37.3865C13.3405 37.4767 13.4561 37.5331 13.5806 37.5445C13.7051 37.5331 13.8208 37.4767 13.9049 37.3865C13.9891 37.2963 14.0357 37.1787 14.0357 37.0568C14.0357 36.9348 13.9891 36.8172 13.9049 36.727C13.8208 36.6368 13.7051 36.5805 13.5806 36.569Z" fill="#1B1B1B"/>
</g>
<defs>
<clipPath id="clip0_427_7849">
<rect width="40.6667" height="40" fill="white" transform="translate(0.333496 1)"/>
</clipPath>
</defs>
</svg>
