<svg width="26" height="40" viewBox="0 0 26 40" fill="none" xmlns="http://www.w3.org/2000/svg">
<path fill-rule="evenodd" clip-rule="evenodd" d="M24.8123 7.07911L24.8394 7.12497C24.8706 7.16929 24.8941 7.21834 24.9092 7.27019C25.1228 11.8555 25.2163 16.4492 25.3097 21.0435C25.4061 25.7805 25.5024 30.518 25.7306 35.2476C25.7364 35.3287 25.7158 35.4094 25.6719 35.4781C25.628 35.5468 25.5631 35.6 25.4865 35.6298C25.4262 35.6597 25.3602 35.6766 25.2927 35.6795C23.7925 35.7194 22.2879 35.6985 20.7862 35.6776C18.84 35.6505 16.8986 35.6234 14.9783 35.7291C12.9469 35.841 10.9197 35.8397 8.89165 35.8384C7.52332 35.8375 6.15461 35.8367 4.78402 35.8705C4.70411 35.8777 4.62393 35.8603 4.55452 35.8206C4.48512 35.7808 4.42992 35.7209 4.39655 35.6489C4.35688 35.5855 4.33422 35.5132 4.33068 35.4387C4.22164 32.0618 4.33124 28.6887 4.44088 25.314C4.48708 23.892 4.53329 22.4698 4.56316 21.0468C4.60456 19.118 4.54405 17.1885 4.48356 15.2595C4.4025 12.6748 4.32148 10.091 4.48567 7.51095C4.48987 7.46479 4.50165 7.41961 4.52054 7.37718V7.33515C4.5508 7.25962 4.60468 7.19557 4.67435 7.15228C4.74402 7.10899 4.82586 7.0887 4.90801 7.09439C8.97423 7.15403 13.0405 7.06772 17.1057 6.98142C19.5523 6.92948 21.9985 6.87756 24.4442 6.85745C24.5209 6.85427 24.5969 6.87364 24.6624 6.91311C24.7279 6.95257 24.7801 7.01035 24.8123 7.07911Z" fill="#7DFF68"/>
<g clip-path="url(#clip0_427_11348)">
<path d="M25.9341 29.6169C25.9341 26.9724 25.8798 24.3241 25.8023 21.6758C25.6512 16.6352 25.442 11.5908 25.1359 6.5578C24.9228 3.06491 23.5628 0.951608 19.8818 0.397486C15.7591 -0.225424 11.4156 0.0153262 7.27357 0.259904C5.41372 0.370729 3.519 0.55034 2.39146 2.20506C1.26393 3.85979 1.22905 6.14888 1.05857 8.02908C0.547109 13.3066 1.13219 18.6873 1.0082 23.9878C1.0082 27.473 0.880329 30.9927 1.19418 34.4665C1.39179 36.6409 1.85288 38.3071 3.96846 39.4115C5.43696 40.1758 7.68041 39.9733 9.25353 39.9847C12.0666 40.0077 14.8757 39.8204 17.6849 39.7593C20.8892 39.6905 25.1708 39.8396 25.8023 35.804C26.1239 33.8053 25.9341 31.6309 25.9341 29.6169ZM24.6477 35.5671C24.082 38.4943 21.3038 38.5708 18.8356 38.5937C14.8796 38.6319 10.9119 39.0026 6.95585 38.7771C5.35947 38.6816 3.46863 38.2804 2.72469 36.6791C2.27135 35.7123 2.33722 34.3862 2.27522 33.3353C2.09698 30.2246 2.15898 27.1024 2.1706 23.9878C2.25068 20.5128 2.22097 17.0415 2.08149 13.5741C2.0001 11.7248 2.0467 9.87215 2.22097 8.02908C2.43021 5.89666 2.45345 2.65601 4.86351 1.71973C6.45213 1.10447 8.70333 1.33759 10.4043 1.26116C12.1053 1.18473 13.8915 1.18089 15.6506 1.23822C17.2974 1.29172 19.0875 1.28026 20.6877 1.71209C23.2295 2.39615 23.8262 4.15405 23.9774 6.5578C24.4617 14.3537 24.7755 22.1841 24.7755 29.9953C24.7717 31.7876 25.0003 33.8053 24.6593 35.5671H24.6477Z" fill="#1B1B1B"/>
<path d="M11.0977 4.11579C12.6475 4.04446 14.1974 4.01007 15.7473 4.01262C15.8558 4.00251 15.9566 3.95285 16.03 3.87334C16.1033 3.79384 16.144 3.6902 16.144 3.58269C16.144 3.47519 16.1033 3.37155 16.03 3.29204C15.9566 3.21253 15.8558 3.16287 15.7473 3.15277C14.1974 3.15277 12.6475 3.18716 11.0977 3.25595C10.5397 3.2827 10.5358 4.14254 11.0977 4.11579Z" fill="#1B1B1B"/>
<path d="M17.6577 3.9247L17.6848 3.89796C17.7665 3.81739 17.8124 3.7081 17.8124 3.59414C17.8124 3.48019 17.7665 3.37091 17.6848 3.29034C17.6031 3.20976 17.4923 3.16449 17.3768 3.16449C17.2613 3.16449 17.1504 3.20976 17.0688 3.29034L17.0416 3.31708C16.6348 3.69159 17.2625 4.3145 17.6577 3.9247Z" fill="#1B1B1B"/>
<path d="M19.4204 3.94762L19.4476 3.92468C19.5293 3.84411 19.5751 3.73483 19.5751 3.62088C19.5751 3.50693 19.5293 3.39764 19.4476 3.31706C19.3659 3.23648 19.2551 3.19122 19.1395 3.19122C19.024 3.19122 18.9132 3.23648 18.8315 3.31706L18.8044 3.33999C18.7227 3.42056 18.6768 3.52985 18.6768 3.64381C18.6768 3.75776 18.7227 3.86705 18.8044 3.94762C18.8861 4.0282 18.9969 4.07346 19.1124 4.07346C19.2279 4.07346 19.3387 4.0282 19.4204 3.94762Z" fill="#1B1B1B"/>
<path d="M13.7518 35.3033C12.5351 35.3033 10.1754 35.0206 10.0243 36.7326C9.88094 38.3109 12.4576 38.1389 13.4534 38.1045C14.4492 38.0701 16.7546 38.1924 16.8205 36.8052C16.9058 35.0282 14.9645 35.2881 13.7518 35.3033ZM15.786 36.9046C15.3985 37.3402 13.8254 37.2447 13.2558 37.2523C12.8683 37.2523 11.1751 37.3326 11.0472 37.046C10.5474 35.9454 13.3333 36.1594 13.7595 36.1632C14.1857 36.167 16.5841 35.995 15.786 36.9046Z" fill="#1B1B1B"/>
<path d="M23.3726 5.98453L23.3455 5.93867C23.3133 5.86991 23.2611 5.81213 23.1956 5.77267C23.1301 5.7332 23.0541 5.71383 22.9774 5.71701C16.4679 5.77051 9.95456 6.04948 3.44121 5.95395C3.35907 5.94826 3.27723 5.96855 3.20755 6.01184C3.13788 6.05513 3.08401 6.11917 3.05374 6.1947V6.23674C3.03485 6.27917 3.02308 6.32435 3.01887 6.3705C2.73214 10.8761 3.19323 15.3931 3.09636 19.9064C2.99562 24.7062 2.7089 29.4984 2.86388 34.2983C2.86742 34.3727 2.89008 34.445 2.92975 34.5085C2.96312 34.5804 3.01832 34.6404 3.08772 34.6801C3.15713 34.7198 3.23732 34.7373 3.31722 34.7301C6.7192 34.646 10.1096 34.776 13.5115 34.5887C16.9135 34.4014 20.3814 34.6307 23.826 34.539C23.8934 34.5362 23.9594 34.5193 24.0197 34.4894C24.0963 34.4595 24.1612 34.4064 24.2051 34.3377C24.249 34.2689 24.2696 34.1882 24.2638 34.1072C23.8143 24.7903 23.8763 15.4428 23.4424 6.12975C23.4273 6.0779 23.4038 6.02884 23.3726 5.98453ZM13.4844 33.7403C10.2258 33.9123 6.97493 33.8091 3.71631 33.8741C3.5962 29.2194 3.85968 24.5725 3.95654 19.9178C4.04954 15.5498 3.62719 11.178 3.85968 6.81379C10.0941 6.89022 16.3284 6.638 22.5589 6.57686C22.9774 15.6071 22.927 24.668 23.3339 33.7098C20.0559 33.7747 16.7779 33.5798 13.4844 33.7518V33.7403Z" fill="#1B1B1B"/>
<path d="M7.98999 9.06083C7.15298 9.74205 6.44915 10.5683 5.91316 11.499C5.85906 11.5975 5.84593 11.713 5.87654 11.8209C5.90715 11.9288 5.97912 12.0208 6.07722 12.0774C6.17532 12.1339 6.29187 12.1507 6.40225 12.124C6.51263 12.0974 6.60818 12.0295 6.66872 11.9346C7.16712 11.0678 7.82398 10.2994 8.60607 9.66846C9.04003 9.31688 8.42008 8.71307 7.98999 9.06083Z" fill="#1B1B1B"/>
<path d="M9.88486 9.36278L8.30012 11.1971C7.93977 11.6175 8.55197 12.2251 8.91619 11.8047L10.5009 9.97039C10.8613 9.55385 10.2491 8.94241 9.88486 9.36278Z" fill="#1B1B1B"/>
</g>
<defs>
<clipPath id="clip0_427_11348">
<rect width="25.1429" height="40" fill="white" transform="translate(0.856934)"/>
</clipPath>
</defs>
</svg>
