<svg width="44" height="40" viewBox="0 0 44 40" fill="none" xmlns="http://www.w3.org/2000/svg">
<path d="M21.857 0.327993C20.4039 -0.625629 17.0135 0.725335 15.4999 1.52002L17.6189 2.71204L26.0951 11.0562L37.2957 21.7845L37.9011 23.2745C33.1585 28.1419 23.9155 38.1152 24.8842 39.0689C25.8529 40.0225 26.9023 40.0622 27.306 39.9629C30.4341 36.8835 37.4773 30.0691 40.6256 27.4466C43.7739 24.8241 44.1574 22.5792 43.9555 21.7845L33.0576 10.4602C29.9295 7.48015 23.3101 1.28161 21.857 0.327993Z" fill="white"/>
<g clip-path="url(#clip0_1958_2964)">
<path d="M39.3577 19.2819C36.6476 16.758 34.035 14.1551 31.4263 11.5246C28.8177 8.89415 26.2821 6.33465 23.6248 3.82248C22.7729 3.03374 21.6775 1.48385 20.4969 1.11314C19.6612 0.848907 18.5374 1.18413 17.6895 1.31032L17.6165 1.33004C17.3496 1.1741 17.0574 1.06342 16.7524 1.00271C15.6205 0.773977 14.1559 1.10131 13.0038 1.18019C10.7319 1.33005 8.46403 1.52724 6.20431 1.83485C4.49228 2.06753 2.20822 1.87034 1.74167 3.80672C1.32428 5.90146 1.0411 8.01937 0.893771 10.1482C0.707152 12.0767 0.488076 14.4272 0.816688 16.3478C1.35626 19.5817 5.3199 22.3344 7.61207 24.3851C10.744 27.1891 13.7462 30.1272 16.797 33.0141C18.0141 34.1775 19.2555 35.3487 20.5416 36.4569C21.0568 36.9026 21.8114 37.7308 22.5376 37.8648C22.5956 37.8707 22.654 37.8707 22.712 37.8648C22.7619 37.8707 22.8123 37.8707 22.8621 37.8648C23.3624 37.7129 23.8156 37.4417 24.1806 37.0761C26.2903 39.324 29.0084 35.6248 30.473 34.2603C32.3919 32.4738 34.2662 30.6478 36.1243 28.8061C37.8566 27.0866 39.8607 25.3908 41.3415 23.4623C42.7858 21.589 40.7005 20.5321 39.3577 19.2819ZM22.7242 36.6778C22.2536 36.4924 21.7627 35.9166 21.426 35.6248C20.5091 34.8361 19.6247 34.0079 18.7443 33.1797C16.4481 31.0303 14.1884 28.8416 11.9003 26.6883C9.50667 24.4364 6.94267 22.3265 4.65456 19.9839C3.49427 18.8008 2.24473 17.523 2.03782 15.843C1.88759 14.18 1.89983 12.507 2.07434 10.8463C2.22039 8.95723 2.32587 6.82368 2.82893 4.98589C3.33199 3.14811 4.1515 3.33741 5.79862 3.09684C7.21044 2.88782 8.63848 2.73401 10.0544 2.60387C11.884 2.44218 14.2168 1.90977 16.0262 2.2095C18.3346 2.56838 20.6957 5.75885 22.2739 7.28902C25.418 10.3691 28.481 13.532 31.6049 16.616C33.1424 18.1225 34.7003 19.6172 36.2906 21.0724C37.1548 21.8611 37.674 22.2161 36.7207 23.2651C36.2014 23.8409 35.6456 24.3851 35.0979 24.9412C32.6448 27.4652 30.1444 29.9471 27.5966 32.387C26.5499 33.3848 25.4951 34.3786 24.3997 35.333C23.9981 35.6721 23.3246 36.4845 22.7161 36.6778H22.7242ZM40.6194 22.4488C40.5829 22.6972 39.808 23.3716 39.6052 23.5806C36.8221 26.4727 33.9728 29.303 31.0572 32.0715C29.8928 33.1797 28.7204 34.2839 27.5073 35.3448C26.7325 36.0231 25.9941 37.08 25.13 36.2834C25.9779 35.5538 26.7933 34.7887 27.6047 34.0276C30.4081 31.3932 33.1303 28.6759 35.8119 25.9232C36.6233 25.0792 38.4124 23.762 38.6964 22.5631C39.021 21.1907 36.8667 19.9287 36.035 19.1518C32.0674 15.4407 28.2984 11.5364 24.4443 7.71495C22.6755 5.95605 20.8702 4.23264 19.0486 2.52106L18.8174 2.30021C19.0982 2.23977 19.3868 2.22115 19.6734 2.24499C20.5213 2.35936 21.353 3.32953 21.9412 3.88165C22.9473 4.815 23.9399 5.7628 24.919 6.72507C26.915 8.66539 28.8705 10.6451 30.83 12.617C32.7895 14.5889 34.8058 16.6002 36.8424 18.5326C37.8363 19.4831 39.0615 20.3704 39.9378 21.4194C40.2015 21.7626 40.6884 21.9124 40.6113 22.4488H40.6194Z" fill="#1B1B1B"/>
<path d="M9.52289 6.56364C9.09692 5.05713 7.63236 4.86389 6.30574 5.3253C6.24921 5.34161 6.19477 5.36409 6.14346 5.39234C5.57296 5.69417 5.13272 6.18491 4.90269 6.77539C4.67267 7.36588 4.66812 8.01697 4.88987 8.61044C5.39699 9.88822 6.58567 10.4088 7.84333 9.75411C8.97927 9.16255 9.90425 7.84536 9.52289 6.56364ZM7.42546 8.62226C6.75606 9.04424 6.23271 8.83919 5.9893 8.09776C5.89907 7.78009 5.92306 7.44198 6.05732 7.13936C6.19158 6.83675 6.42807 6.58773 6.72766 6.43349C7.39706 6.21264 8.21656 6.07461 8.37883 6.97773C8.49648 7.64028 7.95692 8.27916 7.42546 8.62226Z" fill="#1B1B1B"/>
<path d="M15.4015 15.3108C15.1783 14.5221 14.6347 13.8241 14.4197 13.0195C14.0464 11.6195 16.0425 10.8544 16.8539 11.9902C17.1078 12.3498 17.232 12.7812 17.2068 13.2167C17.1662 13.9779 18.3833 13.9779 18.4239 13.2167C18.5334 11.024 15.5475 8.76425 13.7057 10.6888C12.7685 11.6708 13.0687 13.055 13.5393 14.1474C13.8002 14.63 14.0265 15.1294 14.2168 15.6421C14.5657 17.0422 13.3405 18.0596 11.9003 17.614C10.2775 17.1013 8.93875 15.0782 9.98545 13.5756C10.4236 12.9406 9.36878 12.3491 8.93469 12.9762C7.05632 15.6816 10.7806 20.2563 13.9207 18.8918C15.3163 18.2726 15.7706 16.6359 15.4015 15.3108Z" fill="#1B1B1B"/>
<path d="M20.0142 19.8067L18.5131 18.4106C18.8417 18.0872 19.1744 17.7677 19.5192 17.4641C20.144 16.9238 20.2697 16.7621 21.1623 16.8331C22.1278 16.908 22.4889 17.2906 23.1421 17.957C23.6816 18.5092 24.5417 17.6731 24.0021 17.121C23.0974 16.1942 22.0102 15.2358 20.5902 15.4725C19.1703 15.7091 17.8599 17.3339 16.9025 18.3278C16.1114 19.152 14.6346 20.3272 14.7766 21.605C14.9186 22.8828 16.4481 24.2315 17.5029 24.9177C18.1561 25.3397 18.7646 24.3183 18.1155 23.8963C17.6998 23.6364 17.3253 23.3188 17.0039 22.9538C16.6388 22.5199 16.0221 21.5695 16.1235 21.0134C16.2047 20.5599 17.1175 19.7475 17.6571 19.2506L19.1541 20.6427C19.718 21.1672 20.5821 20.3351 20.0142 19.8067Z" fill="#1B1B1B"/>
<path d="M28.9152 21.8929C28.8944 21.8613 28.8699 21.8322 28.8422 21.8061L28.8178 21.7745C25.4019 18.0477 17.1217 23.8213 20.5741 28.2581C24.201 32.9353 31.7307 26.1836 28.9152 21.8929ZM27.901 22.5554C29.8929 25.7695 23.7751 31.2316 21.3693 27.2879C19.4057 24.0974 25.4749 20.0945 27.901 22.5672V22.5554Z" fill="#1B1B1B"/>
<path d="M12.9389 6.51245L17.1744 6.47694C17.288 6.46652 17.3935 6.41529 17.4703 6.33324C17.5472 6.25119 17.5897 6.14421 17.5897 6.03327C17.5897 5.92233 17.5472 5.81538 17.4703 5.73333C17.3935 5.65127 17.288 5.60002 17.1744 5.5896L12.9389 5.6251C12.8253 5.63553 12.7198 5.68678 12.6429 5.76883C12.5661 5.85088 12.5236 5.95783 12.5236 6.06877C12.5236 6.17972 12.5661 6.28667 12.6429 6.36872C12.7198 6.45077 12.8253 6.50202 12.9389 6.51245Z" fill="#1B1B1B"/>
<path d="M15.3324 7.15915C14.7482 7.13155 14.7482 8.01889 15.3324 8.0465C16.1478 8.0802 16.9645 8.02331 17.7666 7.87692C18.3427 7.77438 18.0952 6.92252 17.5232 7.02111C16.8006 7.14726 16.0657 7.19358 15.3324 7.15915Z" fill="#1B1B1B"/>
<path d="M23.8724 31.3579C22.9068 31.4525 21.9386 31.5156 20.9676 31.5472C20.3834 31.5472 20.3794 32.4542 20.9676 32.4345C21.9386 32.4029 22.9068 32.3399 23.8724 32.2452C24.4525 32.1782 24.4566 31.2908 23.8724 31.3579Z" fill="#1B1B1B"/>
<path d="M23.0448 32.896C22.7326 33.0031 22.4107 33.081 22.0833 33.1287C21.9676 33.1609 21.8696 33.236 21.8104 33.3378C21.7512 33.4396 21.7356 33.56 21.7669 33.6729C21.8009 33.7849 21.8782 33.8799 21.9825 33.9379C22.0868 33.9959 22.2101 34.0126 22.3267 33.9845C22.6537 33.9349 22.9755 33.857 23.2882 33.7518C23.4029 33.7178 23.4999 33.6426 23.5595 33.5415C23.619 33.4403 23.6366 33.3209 23.6087 33.2076C23.5755 33.0941 23.4978 32.9979 23.3924 32.9396C23.2869 32.8813 23.162 32.8657 23.0448 32.896Z" fill="#1B1B1B"/>
</g>
<defs>
<clipPath id="clip0_1958_2964">
<rect width="41.1699" height="36.9528" fill="white" transform="translate(0.666626 0.924072)"/>
</clipPath>
</defs>
</svg>
