<svg width="46" height="42" viewBox="0 0 46 42" fill="none" xmlns="http://www.w3.org/2000/svg">
<path d="M28.116 3.89087C28.9073 5.78296 29.8755 7.53612 30.5736 9.49824C31.0276 10.7743 31.3805 12.1002 31.8385 13.377C32.38 14.8867 32.9292 16.3706 33.5511 17.8276C34.5442 20.1542 35.3864 22.6526 36.1067 25.1446C36.4603 26.368 36.7001 27.5812 36.794 28.8714C36.8671 29.8748 36.8251 30.877 36.907 31.8777" stroke="white" stroke-width="7" stroke-linecap="round"/>
<g clip-path="url(#clip0_1958_1002)">
<path d="M37.6572 12.6444C36.7976 12.5966 35.9358 12.6841 35.1027 12.9039C34.2392 10.7551 33.2917 8.64717 32.2603 6.58025C31.6127 5.28273 30.8526 3.22491 29.5978 2.36445C27.8663 1.17619 25.9099 3.14296 24.826 4.34942C20.1936 9.48942 15.9705 14.9071 9.76401 18.2306C9.71163 18.2607 9.66326 18.2974 9.62009 18.3399C7.87057 18.8816 6.13006 19.4371 4.39404 20.0198C3.27418 20.3931 1.75403 20.6481 0.83205 21.4767C-0.751056 22.9062 0.305848 26.0294 0.930994 27.6365C1.52016 29.1753 2.89189 32.2666 4.65489 32.7947C5.19556 32.909 5.75616 32.8807 6.28297 32.7127C7.33537 34.9162 8.28884 37.1835 9.49866 39.305C10.2812 40.6708 11.0683 42.4919 12.8897 41.8728C14.7922 41.2399 17.1848 39.2732 16.6046 37.0059C16.3123 35.8541 15.2779 34.9982 14.6347 34.0694C13.942 33.0303 13.34 31.932 12.8358 30.7869L13.6813 30.5183C17.2131 29.7445 20.841 29.5219 24.4392 29.8582C27.6594 30.2179 30.8031 31.0783 33.9648 31.7612C35.521 32.0981 38.4893 33.341 39.5597 31.4289C40.6301 29.5167 39.2134 25.8336 38.7141 23.8942C38.3768 22.5784 37.999 21.2672 37.5988 19.9606C38.4713 19.3688 39.5552 18.8042 39.9824 17.8117C40.4097 16.8193 39.9824 15.6037 39.5327 14.6249C39.1774 13.8054 38.6422 12.781 37.6572 12.6444ZM3.63397 29.8718C3.11532 29.1371 2.6822 28.3443 2.3432 27.509C1.98867 26.6821 1.72619 25.8179 1.56064 24.9322C1.21883 23.02 2.28023 22.1778 3.90831 21.6224C5.88269 20.9486 7.86158 20.3112 9.84946 19.6966C10.8509 22.9138 11.9153 26.1113 13.0426 29.2891C11.2796 29.8627 9.50315 30.3954 7.70867 30.8598C6.03561 31.2877 4.77183 31.4744 3.63397 29.8718ZM14.23 35.2258C14.4099 35.4626 14.6797 35.7721 14.8416 36.0043C15.7186 37.402 15.7411 38.2807 14.5763 39.56C14.1889 39.9341 13.7438 40.2416 13.2585 40.4705C12.9676 40.6358 12.646 40.7381 12.3141 40.771C12.4963 40.4435 12.6469 40.0989 12.7638 39.7421C12.9752 39.1184 11.9947 38.8316 11.7879 39.4735C11.6848 39.7709 11.5506 40.0563 11.3876 40.3248L11.2527 40.1974C11.1582 40.1018 11.0728 39.9925 10.9828 39.8832C10.9828 39.8832 11.0053 39.8423 11.0143 39.8149C11.1048 39.6014 11.21 39.3945 11.3291 39.1958C11.4521 38.942 11.5587 38.6804 11.6484 38.4127C11.8598 37.789 10.8839 37.5022 10.6725 38.1395C10.5778 38.3985 10.4636 38.6496 10.3307 38.8907C10.1958 38.654 10.0698 38.4036 9.94841 38.1532C10.1778 37.6387 10.3981 37.1243 10.641 36.6144C10.7061 36.4966 10.7237 36.3579 10.6902 36.2273C10.6566 36.0966 10.5746 35.9841 10.4611 35.9133C10.3453 35.845 10.2075 35.8259 10.0778 35.86C9.94806 35.8941 9.8369 35.9787 9.7685 36.0954L9.37722 36.9558C9.28727 36.7555 9.19732 36.5598 9.10737 36.3776L8.97245 36.0908C9.01148 36.0523 9.04617 36.0096 9.0759 35.9634L9.75052 34.7842C9.80419 34.6682 9.81315 34.536 9.77565 34.4136C9.73814 34.2912 9.65686 34.1874 9.54773 34.1225C9.43859 34.0576 9.30946 34.0362 9.18559 34.0626C9.06172 34.089 8.95203 34.1613 8.87801 34.2652L8.45525 34.9982L8.07296 34.1878C8.1097 34.1536 8.14425 34.1171 8.17641 34.0785C8.37879 33.8099 8.57218 33.5368 8.76107 33.259C8.81475 33.143 8.82371 33.0109 8.7862 32.8885C8.74869 32.7661 8.66743 32.6623 8.55829 32.5974C8.44916 32.5324 8.32001 32.5111 8.19614 32.5375C8.07227 32.5639 7.96259 32.6361 7.88856 32.74C7.79412 32.8812 7.69067 33.0178 7.59173 33.1589L7.27241 32.4441C7.56025 32.3485 7.8301 32.262 8.07746 32.1983C9.35474 31.8705 10.6185 31.5063 11.8778 31.1147C12.5149 32.5661 13.3034 33.9443 14.23 35.2258ZM32.9079 30.1359C29.9981 29.4849 27.0972 28.7701 24.1289 28.4605C20.7474 28.181 17.3439 28.3848 14.0186 29.066C12.8643 25.8124 11.7744 22.5344 10.749 19.2322C16.3213 16.15 20.6434 11.3378 24.745 6.5074C25.3674 5.67035 26.0563 4.88619 26.8049 4.16276C29.2155 7.80492 30.7896 12.3576 32.3682 16.405C34.2352 21.1173 35.6377 26.0049 36.5554 30.9964C35.332 30.9053 33.8074 30.3271 32.9079 30.1359ZM38.5028 29.708C38.5088 29.9886 38.419 30.2627 38.2486 30.4841C38.0782 30.7056 37.8375 30.8607 37.5673 30.9235C36.6316 25.748 35.1743 20.6832 33.2183 15.8086C31.6172 11.7658 30.07 7.2586 27.6549 3.60733C27.8579 3.49851 28.0841 3.44161 28.3138 3.44161C28.5435 3.44161 28.7697 3.49851 28.9726 3.60733C29.5483 3.93968 30.0385 5.26451 30.3219 5.81994C31.6999 8.4268 32.9195 11.1164 33.9738 13.8737C35.2786 17.1416 36.387 20.4863 37.2929 23.8896C37.7787 25.6151 38.6377 27.9233 38.5208 29.7125L38.5028 29.708ZM38.8176 17.7435C38.3847 18.2464 37.8592 18.6593 37.2705 18.959C36.7218 17.2533 36.1221 15.5612 35.4715 13.8828C35.8718 13.819 36.2765 13.7507 36.6813 13.7098C37.6662 13.6051 38.0305 13.8919 38.5073 14.8161C38.984 15.7403 39.4742 16.8238 38.8356 17.7435H38.8176Z" fill="#1B1B1B"/>
<path d="M37.927 9.58035C37.927 8.60607 37.927 7.6318 37.927 6.65752C37.9151 6.53001 37.8566 6.41158 37.7631 6.32538C37.6695 6.23918 37.5475 6.19141 37.421 6.19141C37.2945 6.19141 37.1725 6.23918 37.0789 6.32538C36.9854 6.41158 36.9269 6.53001 36.915 6.65752C36.915 7.6318 36.915 8.60607 36.915 9.58035C36.9269 9.70786 36.9854 9.82629 37.0789 9.91249C37.1725 9.99869 37.2945 10.0465 37.421 10.0465C37.5475 10.0465 37.6695 9.99869 37.7631 9.91249C37.8566 9.82629 37.9151 9.70786 37.927 9.58035Z" fill="#1B1B1B"/>
<path d="M42.0468 11.5515L43.6299 9.79416C44.0796 9.30702 43.351 8.58314 42.9103 9.07028L41.3317 10.8276C40.8909 11.3102 41.606 12.0386 42.0468 11.5515Z" fill="#1B1B1B"/>
<path d="M45.5008 14.9024C44.7497 14.8568 43.9986 14.8614 43.252 14.8386C42.5999 14.8386 42.5999 15.8402 43.252 15.863C44.0031 15.863 44.7542 15.863 45.5008 15.9267C46.1664 15.9677 46.1619 14.9433 45.5008 14.9024Z" fill="#1B1B1B"/>
<path d="M41.7048 19.5687C41.1786 19.1818 40.6704 20.0695 41.1966 20.452C41.8345 20.9236 42.4456 21.4313 43.0271 21.9726C43.5083 22.4278 44.2234 21.6949 43.7422 21.2487C43.0957 20.6493 42.4154 20.0884 41.7048 19.5687Z" fill="#1B1B1B"/>
<path d="M5.47336 24.3948C6.07602 24.1581 5.81516 23.1656 5.20351 23.4069L3.17066 24.2082C2.568 24.4449 2.82886 25.4374 3.44051 25.1961L5.47336 24.3948Z" fill="#1B1B1B"/>
<path d="M5.74776 25.0823C5.05361 25.416 4.33485 25.6946 3.59798 25.9154C3.47886 25.9604 3.38072 26.0489 3.32291 26.1635C3.2651 26.2781 3.25184 26.4105 3.28572 26.5346C3.3196 26.6586 3.39816 26.7653 3.50592 26.8335C3.61369 26.9018 3.74281 26.9267 3.86783 26.9034C4.68819 26.6559 5.48818 26.3438 6.26048 25.97C6.84515 25.6832 6.33243 24.8 5.74776 25.0823Z" fill="#1B1B1B"/>
</g>
<defs>
<clipPath id="clip0_1958_1002">
<rect width="46" height="40" fill="white" transform="translate(0 2)"/>
</clipPath>
</defs>
</svg>
