<svg width="318" height="242" viewBox="0 0 318 242" fill="none" xmlns="http://www.w3.org/2000/svg">
<g clip-path="url(#clip0_84_34166)">
<path d="M214.802 111.058C214.691 110.872 214.627 110.66 214.617 110.443C214.597 110.198 214.597 109.952 214.617 109.707C214.712 108.917 215.056 108.179 215.598 107.6C216.224 107.025 216.921 106.533 217.671 106.137C218.195 105.883 218.689 105.57 219.143 105.204C219.305 105.059 219.436 104.881 219.526 104.682C219.617 104.483 219.666 104.267 219.671 104.049C219.718 103.325 219.515 102.607 219.097 102.016C218.671 101.352 218.097 100.797 217.421 100.394C215.885 99.4995 214.938 99.8103 214.58 101.327C214.516 101.513 214.384 101.666 214.21 101.755C214.1 101.777 213.987 101.775 213.879 101.749C213.77 101.723 213.668 101.675 213.58 101.606L209.526 99.2479C209.302 99.1131 209.122 98.9155 209.007 98.6792C208.876 98.4259 208.806 98.1447 208.804 97.8589C208.796 96.7073 209.189 95.5893 209.915 94.6989C210.303 94.2827 210.782 93.9621 211.313 93.7616C211.844 93.5612 212.414 93.4864 212.978 93.543C214.704 93.6947 216.367 94.2709 217.819 95.2209C219.556 96.1983 221.12 97.4582 222.448 98.9496C223.518 100.135 224.387 101.489 225.021 102.958C225.499 104.046 225.766 105.217 225.808 106.407C225.872 107.393 225.619 108.374 225.086 109.203C224.5 109.931 223.803 110.56 223.021 111.068C222.579 111.374 222.153 111.704 221.744 112.056C221.445 112.335 221.202 112.671 221.031 113.044C220.921 113.29 220.846 113.55 220.809 113.818C220.703 114.019 220.547 114.189 220.356 114.312C220.263 114.342 220.165 114.348 220.07 114.33C219.974 114.312 219.885 114.271 219.81 114.209L215.181 111.525C215.02 111.402 214.889 111.242 214.802 111.058ZM214.802 120.184C214.657 119.945 214.577 119.672 214.57 119.392V115.104C214.548 115.001 214.559 114.894 214.602 114.797C214.644 114.701 214.716 114.621 214.807 114.569C214.898 114.517 215.004 114.496 215.107 114.508C215.211 114.52 215.309 114.566 215.385 114.638L219.569 117.071C219.805 117.225 220.001 117.433 220.142 117.677C220.284 117.922 220.366 118.196 220.383 118.478V122.776C220.397 122.875 220.381 122.977 220.338 123.068C220.296 123.159 220.228 123.235 220.143 123.288C220.048 123.323 219.945 123.334 219.845 123.319C219.745 123.305 219.65 123.265 219.569 123.205L215.339 120.8C215.095 120.648 214.895 120.436 214.756 120.184H214.802Z" fill="#7DFF68"/>
<path d="M219.911 124.025C219.653 124.018 219.401 123.944 219.18 123.81L214.987 121.377C214.649 121.173 214.366 120.888 214.163 120.548C213.95 120.203 213.835 119.807 213.83 119.401V115.104C213.81 114.879 213.854 114.652 213.958 114.451C214.061 114.251 214.22 114.084 214.415 113.971C214.61 113.858 214.832 113.804 215.057 113.815C215.281 113.826 215.498 113.901 215.681 114.032L219.865 116.465C220.215 116.669 220.503 116.966 220.698 117.323C220.91 117.671 221.025 118.07 221.031 118.478V122.776C221.049 123.005 221 123.235 220.89 123.438C220.78 123.64 220.613 123.805 220.411 123.913C220.255 123.987 220.084 124.026 219.911 124.025ZM215.228 115.384V119.401C215.234 119.551 215.282 119.697 215.366 119.821C215.443 119.962 215.555 120.081 215.69 120.166L219.643 122.459V118.478C219.637 118.315 219.585 118.157 219.495 118.022C219.421 117.882 219.312 117.763 219.18 117.677L215.228 115.384ZM220.263 115.048C220.001 115.041 219.745 114.964 219.523 114.824L214.894 112.13C214.606 111.958 214.369 111.71 214.209 111.413C214.036 111.132 213.937 110.811 213.922 110.48C213.918 110.2 213.933 109.92 213.969 109.641C214.079 108.697 214.496 107.816 215.154 107.134C215.824 106.511 216.574 105.981 217.384 105.559C217.861 105.319 218.308 105.025 218.717 104.682C218.813 104.601 218.889 104.5 218.94 104.385C218.991 104.271 219.016 104.146 219.013 104.021C219.053 103.445 218.889 102.873 218.551 102.408C218.189 101.834 217.697 101.355 217.116 101.01C216.779 100.781 216.391 100.64 215.987 100.599C215.839 100.599 215.505 100.599 215.292 101.476C215.287 101.522 215.271 101.567 215.246 101.606C215.18 101.78 215.081 101.938 214.954 102.073C214.827 102.207 214.674 102.315 214.506 102.389C214.301 102.461 214.082 102.481 213.867 102.448C213.653 102.416 213.45 102.332 213.275 102.203L209.22 99.8444C208.88 99.6464 208.606 99.3512 208.433 98.9961C208.247 98.6431 208.148 98.2496 208.147 97.8496C208.141 96.5482 208.586 95.2857 209.405 94.2794C209.838 93.8006 210.373 93.4256 210.968 93.182C211.564 92.9385 212.207 92.8324 212.849 92.8718H213.006C214.851 93.0139 216.631 93.6231 218.18 94.6429C219.997 95.6638 221.635 96.9768 223.031 98.53C224.149 99.7754 225.058 101.195 225.724 102.734C226.235 103.912 226.518 105.178 226.557 106.463C226.621 107.6 226.319 108.728 225.696 109.679C225.062 110.466 224.31 111.149 223.466 111.702C223.049 111.991 222.647 112.302 222.262 112.634C222.026 112.847 221.837 113.107 221.707 113.398C221.628 113.592 221.576 113.796 221.55 114.004C221.528 114.092 221.494 114.177 221.448 114.256C221.278 114.566 221.025 114.822 220.717 114.992C220.572 115.046 220.416 115.065 220.263 115.048ZM215.987 99.2012C216.645 99.2305 217.285 99.4364 217.838 99.7978C218.612 100.257 219.266 100.896 219.745 101.662C220.245 102.387 220.487 103.261 220.43 104.142C220.418 104.447 220.345 104.746 220.214 105.022C220.084 105.298 219.899 105.544 219.671 105.745C219.178 106.161 218.641 106.521 218.069 106.817C217.371 107.176 216.723 107.627 216.144 108.159C215.706 108.63 215.433 109.233 215.366 109.875C215.352 110.082 215.352 110.291 215.366 110.499C215.379 110.596 215.413 110.689 215.468 110.769C215.51 110.851 215.57 110.921 215.644 110.974L220.272 113.64C220.324 113.357 220.411 113.081 220.531 112.82C220.741 112.369 221.037 111.964 221.402 111.627C221.831 111.257 222.279 110.908 222.744 110.583C223.468 110.12 224.112 109.541 224.651 108.868C225.093 108.162 225.297 107.332 225.234 106.5C225.191 105.401 224.943 104.319 224.502 103.312C223.896 101.918 223.067 100.634 222.049 99.5088C220.758 98.0669 219.238 96.8509 217.551 95.9106C216.198 95.0222 214.651 94.4783 213.043 94.326H212.914C212.472 94.2922 212.028 94.3583 211.615 94.5196C211.201 94.6809 210.829 94.9332 210.525 95.2581C209.915 96.0169 209.588 96.9666 209.6 97.9428C209.604 98.1095 209.648 98.2728 209.729 98.4182C209.782 98.5375 209.869 98.6382 209.979 98.7072L214.034 101.066C214.413 99.4063 215.413 99.1639 215.987 99.1639V99.2012Z" fill="#1B1B1B"/>
<path d="M121.192 34.1079L117.166 36.4477C117.086 36.5092 116.991 36.547 116.891 36.5569C116.792 36.5668 116.691 36.5483 116.601 36.5036C116.527 36.439 116.472 36.3556 116.441 36.2622C116.41 36.1687 116.405 36.0686 116.425 35.9723V31.3114C116.433 31.0244 116.516 30.7446 116.666 30.5004C116.796 30.2611 116.984 30.059 117.212 29.9132L121.192 27.5828C121.275 27.5336 121.369 27.5076 121.465 27.5076C121.561 27.5076 121.656 27.5336 121.738 27.5828C121.822 27.6415 121.887 27.7222 121.928 27.8158C121.969 27.9095 121.983 28.0127 121.97 28.1141V32.7749C121.963 33.049 121.883 33.3161 121.738 33.5486C121.605 33.7777 121.418 33.9699 121.192 34.1079ZM121.054 24.5998L117.277 26.7904C117.201 26.8611 117.105 26.9057 117.002 26.9181C116.9 26.9304 116.796 26.9098 116.705 26.8592C116.615 26.8085 116.543 26.7305 116.499 26.6361C116.456 26.5417 116.443 26.4359 116.462 26.3337V11.0648C116.469 10.7863 116.552 10.5152 116.703 10.2817C116.842 10.0405 117.04 9.83851 117.277 9.69447L121.054 7.49455C121.137 7.43373 121.233 7.39428 121.335 7.37966C121.436 7.36504 121.54 7.37568 121.637 7.41066C121.794 7.49455 121.868 7.66234 121.868 7.93267V23.1923C121.864 23.4756 121.784 23.7525 121.637 23.9939C121.5 24.245 121.298 24.4543 121.054 24.5998Z" fill="#7DFF68"/>
<path d="M116.805 37.2308C116.599 37.2324 116.397 37.1742 116.222 37.063C116.047 36.943 115.906 36.7797 115.812 36.5886C115.718 36.3975 115.674 36.1853 115.685 35.9724V31.3115C115.689 30.9028 115.805 30.503 116.019 30.1556C116.201 29.8067 116.477 29.5162 116.815 29.3167L120.841 26.9676C121.026 26.8351 121.244 26.7592 121.471 26.7489C121.697 26.7386 121.921 26.7945 122.117 26.9097C122.313 27.0249 122.471 27.1947 122.573 27.3984C122.675 27.6022 122.717 27.8313 122.692 28.0583V32.7191C122.685 33.1186 122.57 33.5087 122.359 33.847C122.171 34.192 121.897 34.4813 121.563 34.686L117.537 37.0257C117.316 37.1598 117.063 37.2307 116.805 37.2308ZM121.276 28.3286L117.509 30.5285C117.388 30.6183 117.287 30.7326 117.213 30.8641C117.128 31.0016 117.08 31.159 117.074 31.3208V35.6554L120.841 33.4741C120.965 33.3883 121.067 33.2731 121.137 33.1386C121.219 33.0134 121.267 32.8687 121.276 32.7191V28.3286ZM116.916 27.5828C116.725 27.5843 116.537 27.5361 116.37 27.443C116.177 27.3268 116.02 27.1591 115.915 26.9584C115.811 26.7577 115.763 26.5319 115.778 26.3058V11.0742C115.784 10.6644 115.902 10.2643 116.12 9.91827C116.32 9.57882 116.6 9.29397 116.935 9.08864L120.721 6.88873C120.9 6.77139 121.106 6.70062 121.319 6.68273C121.532 6.66484 121.746 6.70038 121.943 6.78619C122.149 6.89272 122.319 7.05868 122.431 7.26288C122.543 7.46709 122.592 7.70029 122.572 7.93275V23.1923C122.566 23.5995 122.454 23.9979 122.248 24.3482C122.047 24.7009 121.761 24.9961 121.415 25.2058L117.629 27.3964C117.413 27.5238 117.167 27.5883 116.916 27.5828ZM121.184 8.20308L117.629 10.2725C117.493 10.3574 117.382 10.4762 117.305 10.6174C117.219 10.744 117.171 10.8928 117.166 11.0462V26.0541L120.721 23.994C120.858 23.9065 120.969 23.7844 121.045 23.6398C121.128 23.505 121.176 23.351 121.184 23.1923V8.20308Z" fill="#1B1B1B"/>
<path d="M271.478 103.704V121.303L262.925 125.451L252.854 92.6389L271.478 103.704Z" fill="#7DFF68"/>
<path d="M262.925 126.15C262.777 126.151 262.633 126.105 262.513 126.018C262.393 125.931 262.304 125.807 262.259 125.666L252.188 92.8346C252.148 92.6998 252.148 92.556 252.189 92.4215C252.231 92.287 252.311 92.168 252.419 92.0795C252.531 91.9932 252.664 91.9419 252.804 91.932C252.944 91.922 253.084 91.9539 253.206 92.0236L271.83 103.088C271.934 103.149 272.02 103.236 272.08 103.341C272.14 103.445 272.172 103.564 272.172 103.685V121.284C272.173 121.416 272.138 121.546 272.069 121.658C272 121.77 271.901 121.86 271.784 121.918L263.222 126.066C263.131 126.118 263.029 126.146 262.925 126.15ZM254.049 94.1582L263.351 124.472L270.756 120.865V104.086L254.049 94.1582Z" fill="#1B1B1B"/>
<path d="M252.928 46.2261C252.808 46.2238 252.69 46.1918 252.585 46.1329L222.123 28.5149C221.963 28.4222 221.847 28.2694 221.799 28.0903C221.751 27.9111 221.776 27.7201 221.868 27.5594C221.96 27.3987 222.112 27.2814 222.29 27.2334C222.468 27.1853 222.658 27.2104 222.817 27.3031L253.27 44.9397C253.426 45.0297 253.541 45.1779 253.59 45.3523C253.638 45.5267 253.616 45.7133 253.529 45.8719C253.468 45.9784 253.381 46.0672 253.275 46.1293C253.17 46.1914 253.05 46.2248 252.928 46.2261Z" fill="#1B1B1B"/>
<path d="M218.764 26.4177C218.643 26.4198 218.524 26.3875 218.421 26.3245C215.015 24.3483 211.442 24.1805 208.591 25.8118C208.433 25.8993 208.248 25.9211 208.075 25.8722C207.902 25.8234 207.755 25.7079 207.665 25.5508C207.581 25.3917 207.56 25.2059 207.609 25.0322C207.657 24.8585 207.77 24.7103 207.924 24.6186C211.201 22.7543 215.329 22.9034 219.134 25.1313C219.267 25.2083 219.371 25.3275 219.429 25.4703C219.488 25.613 219.498 25.7713 219.457 25.9204C219.417 26.0694 219.329 26.2009 219.207 26.2942C219.085 26.3876 218.935 26.4375 218.782 26.4363L218.764 26.4177Z" fill="#1B1B1B"/>
<path d="M277.254 112.466L214.311 76.009C209.303 73.0913 205.24 65.2798 205.24 58.5495V38.0418C205.24 34.6301 201.926 34.5649 203.62 33.381C203.749 33.2785 210.423 29.4193 210.571 29.3354C212.163 28.4032 214.228 28.5151 216.486 29.8295L279.429 66.2865C284.436 69.2042 288.5 77.0158 288.5 83.746V104.254C288.5 107.926 287.287 110.518 285.371 111.636L278.494 115.682C276.93 116.446 279.438 113.734 277.254 112.466Z" fill="#7DFF68"/>
<path d="M278.077 116.484C277.953 116.485 277.831 116.458 277.719 116.404C277.606 116.351 277.508 116.273 277.43 116.176C277.323 115.996 277.261 115.792 277.25 115.583C277.239 115.373 277.278 115.164 277.365 114.973C277.568 114.135 277.652 113.501 276.911 113.109L213.968 76.6521C208.776 73.6319 204.546 65.522 204.546 58.5867V38.079C204.557 37.543 204.446 37.0115 204.219 36.5262C203.993 36.041 203.658 35.6153 203.24 35.2825C203.013 35.1252 202.824 34.9189 202.686 34.6786C202.549 34.4383 202.466 34.1701 202.444 33.8935C202.48 33.6582 202.567 33.434 202.7 33.2372C202.833 33.0404 203.008 32.8761 203.213 32.7563C203.398 32.6165 210.164 28.7107 210.229 28.6734C212.08 27.6014 214.44 27.7412 216.838 29.1675L279.781 65.6245C284.973 68.6448 289.194 76.7546 289.194 83.6899V104.198C289.194 107.982 287.926 110.9 285.714 112.186L278.818 116.241C278.596 116.384 278.341 116.467 278.077 116.484ZM203.861 33.9588L204.157 34.2571C204.704 34.7091 205.144 35.2784 205.445 35.9234C205.746 36.5685 205.901 37.273 205.897 37.9858V58.4935C205.897 65.0186 209.812 72.5412 214.626 75.347L277.568 111.804C278.052 112.068 278.435 112.485 278.66 112.99C278.884 113.496 278.936 114.062 278.809 114.601L284.983 110.974C286.76 109.94 287.76 107.46 287.76 104.188V83.6806C287.76 77.1554 283.844 69.6235 279.04 66.827L216.107 30.3793C214.154 29.242 212.302 29.0649 210.877 29.8852C210.599 30.0437 204.268 33.7071 203.962 33.9029L203.861 33.9588Z" fill="#1B1B1B"/>
<path d="M281.799 109.744C281.675 109.746 281.554 109.715 281.447 109.655C281.339 109.594 281.25 109.506 281.188 109.399C281.105 109.24 281.086 109.055 281.134 108.882C281.183 108.708 281.294 108.56 281.447 108.467L287.926 104.738C288.084 104.653 288.269 104.633 288.441 104.681C288.614 104.73 288.761 104.844 288.852 104.999C288.939 105.158 288.96 105.344 288.912 105.519C288.863 105.693 288.749 105.842 288.593 105.932L282.113 109.66C282.017 109.713 281.909 109.742 281.799 109.744Z" fill="#1B1B1B"/>
<path d="M281.188 82.8324C281.066 82.8311 280.946 82.7977 280.841 82.7356C280.735 82.6735 280.647 82.5848 280.586 82.4782C280.499 82.3197 280.478 82.133 280.526 81.9586C280.575 81.7842 280.69 81.636 280.846 81.546L287.325 77.8174C287.486 77.7246 287.677 77.7001 287.855 77.749C288.034 77.798 288.186 77.9164 288.278 78.0784C288.37 78.2403 288.395 78.4324 288.346 78.6125C288.298 78.7925 288.18 78.9458 288.019 79.0385L281.54 82.7672C281.431 82.8212 281.309 82.8438 281.188 82.8324Z" fill="#1B1B1B"/>
<path d="M274.856 72.2245C274.733 72.2267 274.612 72.1959 274.504 72.1353C274.397 72.0747 274.308 71.9864 274.245 71.8795C274.163 71.72 274.144 71.535 274.192 71.3619C274.24 71.1889 274.352 71.0407 274.504 70.9474L281.113 67.1441C281.273 67.0514 281.463 67.0264 281.64 67.0744C281.818 67.1225 281.97 67.2398 282.062 67.4005C282.154 67.5612 282.179 67.7521 282.131 67.9313C282.084 68.1105 281.967 68.2632 281.808 68.356L275.199 72.1592C275.092 72.2103 274.974 72.2328 274.856 72.2245Z" fill="#1B1B1B"/>
<path d="M212.83 36.1495C212.676 36.1507 212.527 36.1007 212.405 36.0074C212.282 35.914 212.194 35.7825 212.154 35.6335C212.114 35.4844 212.124 35.3262 212.182 35.1834C212.241 35.0407 212.345 34.9215 212.478 34.8444L219.096 31.0412C219.254 30.9655 219.435 30.9529 219.602 31.0059C219.769 31.0589 219.91 31.1736 219.997 31.3269C220.084 31.4802 220.11 31.6609 220.07 31.8327C220.029 32.0044 219.926 32.1546 219.781 32.253L213.172 36.0656C213.066 36.1196 212.949 36.1483 212.83 36.1495Z" fill="#1B1B1B"/>
<path d="M272.718 70.1643L209.775 33.7072C204.768 30.7895 200.704 33.8843 200.704 40.6146V61.1223C200.704 67.8525 204.768 75.6734 209.775 78.5818L246.208 99.6208L262.962 125.46V109.39L272.718 115.057C277.726 117.975 281.789 114.88 281.789 108.15V87.6424C281.789 80.8935 277.726 73.082 272.718 70.1643Z" fill="white"/>
<path d="M262.953 126.16C262.839 126.158 262.727 126.128 262.627 126.072C262.527 126.017 262.442 125.938 262.379 125.843L245.718 100.161L209.424 79.2063C204.222 76.1861 200.001 68.0855 200.001 61.1409V40.6332C200.001 35.3478 202.417 31.9268 206.166 31.9268C207.565 31.9669 208.928 32.3785 210.118 33.1199L273.061 69.577C278.263 72.5972 282.484 80.6978 282.484 87.6424V108.15C282.58 110.368 282.002 112.564 280.827 114.442C280.331 115.187 279.66 115.797 278.873 116.218C278.087 116.639 277.21 116.858 276.319 116.857C274.923 116.817 273.562 116.406 272.376 115.663L263.647 110.602V125.46C263.648 125.611 263.6 125.757 263.512 125.878C263.424 125.999 263.299 126.088 263.157 126.132C263.09 126.151 263.022 126.16 262.953 126.16ZM206.138 33.3064C203.231 33.3064 201.362 36.1774 201.362 40.6146V61.1222C201.362 67.6474 205.277 75.1793 210.09 77.9758L246.523 99.0055C246.615 99.0626 246.694 99.1389 246.754 99.2292L262.259 123.093V109.39C262.259 109.267 262.292 109.146 262.354 109.039C262.415 108.933 262.504 108.845 262.61 108.784C262.717 108.724 262.836 108.693 262.958 108.693C263.079 108.693 263.199 108.724 263.305 108.784L273.07 114.452C274.045 115.072 275.166 115.42 276.319 115.458C276.992 115.456 277.653 115.284 278.243 114.958C278.834 114.633 279.333 114.164 279.698 113.594C280.705 111.952 281.192 110.04 281.095 108.113V87.6051C281.095 81.0799 277.18 73.548 272.376 70.7515L209.433 34.2945C208.442 33.6752 207.304 33.3341 206.138 33.3064Z" fill="#1B1B1B"/>
<path d="M235.406 74.7413L212.016 61.374V63.5833L235.406 76.9505V74.7413Z" fill="#1B1B1B"/>
<path d="M248.31 73.0634L212.016 52.1921V54.4014L248.31 75.2726V73.0634Z" fill="#1B1B1B"/>
<path d="M226.789 65.1399L212.016 56.7783V58.9876L226.789 67.3491V65.1399Z" fill="#1B1B1B"/>
<path d="M228.945 66.3982V68.6074L258.047 85.5449V83.3357L228.945 66.3982Z" fill="#1B1B1B"/>
<path d="M237.572 75.9995V78.2088L254.326 87.9499V85.7407L237.572 75.9995Z" fill="#1B1B1B"/>
<path d="M250.466 76.531L269.747 87.7543V85.5451L250.466 74.3218V76.531Z" fill="#1B1B1B"/>
<path d="M260.213 86.8035L269.747 92.3405V90.1313L260.213 84.5942V86.8035Z" fill="#1B1B1B"/>
<path d="M212.016 49.815L269.747 83.1679V80.9494L212.016 47.5964V49.815Z" fill="#1B1B1B"/>
<path d="M256.482 89.2085L269.747 96.9362V94.7269L256.482 86.9993V89.2085Z" fill="#1B1B1B"/>
<path d="M212.016 68.1787L269.747 101.532V99.3224L212.016 65.9695V68.1787Z" fill="#1B1B1B"/>
<path d="M18.2168 75.7387V93.338L26.7789 97.4861L36.8404 64.6738L18.2168 75.7387Z" fill="#7DFF68"/>
<path d="M26.7788 98.1851C26.6733 98.188 26.5686 98.1657 26.4733 98.1199L17.9113 93.9717C17.7937 93.9137 17.6948 93.8234 17.626 93.7113C17.5573 93.5991 17.5214 93.4697 17.5225 93.3378V75.7385C17.5226 75.6176 17.5544 75.4988 17.6145 75.3941C17.6746 75.2894 17.761 75.2024 17.865 75.1419L36.4886 64.0678C36.6107 63.9981 36.7504 63.9662 36.8904 63.9761C37.0304 63.9861 37.1643 64.0374 37.2754 64.1237C37.3841 64.2122 37.4641 64.3313 37.5054 64.4657C37.5466 64.6002 37.5471 64.744 37.5068 64.8788L27.436 97.7004C27.4065 97.7948 27.3574 97.8819 27.292 97.9558C27.2265 98.0298 27.1463 98.0888 27.0565 98.1292C26.9683 98.1656 26.874 98.1846 26.7788 98.1851ZM18.9109 92.8997L26.316 96.5072L35.5722 66.1931L18.8369 76.1393L18.9109 92.8997Z" fill="#1B1B1B"/>
<path d="M36.7666 22.9221C36.614 22.9213 36.466 22.8698 36.3453 22.7757C36.2247 22.6817 36.1382 22.5502 36.0992 22.4016C36.0602 22.2531 36.0709 22.0957 36.1297 21.9539C36.1884 21.8121 36.2918 21.6937 36.4241 21.6171L66.8865 3.98046C66.9658 3.92681 67.0552 3.8902 67.1491 3.87293C67.2431 3.85566 67.3396 3.85811 67.4326 3.8801C67.5255 3.9021 67.613 3.94319 67.6895 4.00078C67.766 4.05838 67.8299 4.13125 67.8771 4.21484C67.9244 4.29843 67.954 4.39094 67.9641 4.48658C67.9742 4.58222 67.9646 4.67894 67.9359 4.77068C67.9073 4.86242 67.8601 4.94722 67.7974 5.01976C67.7347 5.0923 67.6578 5.15104 67.5715 5.19228L37.1183 22.8289C37.0098 22.8869 36.8894 22.9188 36.7666 22.9221Z" fill="#1B1B1B"/>
<path d="M70.931 3.11343C70.8088 3.1121 70.689 3.07873 70.5835 3.01662C70.478 2.95451 70.3904 2.86579 70.3293 2.7592C70.2447 2.60016 70.2245 2.41436 70.2728 2.24064C70.3211 2.06691 70.4342 1.91872 70.5885 1.82703C74.4206 -0.400847 78.5211 -0.568636 81.7886 1.31434C81.8749 1.35559 81.9518 1.41432 82.0145 1.48686C82.0772 1.5594 82.1244 1.6442 82.1531 1.73594C82.1817 1.82768 82.1913 1.9244 82.1812 2.02004C82.1711 2.11568 82.1415 2.20819 82.0942 2.29178C82.047 2.37537 81.9831 2.44824 81.9066 2.50584C81.8301 2.56344 81.7427 2.60452 81.6497 2.62652C81.5567 2.64852 81.4602 2.65096 81.3662 2.63369C81.2723 2.61642 81.1829 2.57981 81.1036 2.52616C78.2527 0.894866 74.6798 1.06266 71.2827 3.03885C71.174 3.09437 71.0527 3.1201 70.931 3.11343Z" fill="#1B1B1B"/>
<path d="M12.4408 84.5011L75.4206 48.0906C80.4282 45.1729 84.4917 37.3614 84.4917 30.6311V14.7843C84.4917 11.3725 87.8055 11.3073 86.1208 10.1234C85.982 10.0209 79.3082 6.16173 79.1601 6.07783C77.568 5.14567 75.5039 5.25752 73.2453 6.57188L10.3026 43.029C5.29496 45.9466 1.23145 53.7582 1.23145 60.4885V76.3353C1.23145 80.008 2.44402 82.5995 4.36933 83.7181L11.2375 87.7637C12.7555 88.4814 10.2563 85.7688 12.4408 84.5011Z" fill="#7DFF68"/>
<path d="M11.6168 88.5185C11.3571 88.506 11.1051 88.4257 10.8856 88.2855C10.8856 88.2855 10.8115 88.2855 4.78566 84.706L3.98037 84.2306C1.76812 82.9442 0.5 80.0265 0.5 76.2419V60.395C0.5 53.4597 4.72087 45.3499 9.92291 42.3296L72.8656 5.87256C75.2538 4.48364 77.6141 4.30652 79.4654 5.37852C79.5302 5.37852 86.2965 9.32159 86.4909 9.46141C86.6926 9.58322 86.8651 9.74826 86.9963 9.94481C87.1275 10.1414 87.2141 10.3646 87.2499 10.5987C87.2293 10.8744 87.148 11.1422 87.0119 11.3824C86.8758 11.6226 86.6884 11.8293 86.4631 11.9876C86.0503 12.3146 85.7172 12.7325 85.4894 13.2091C85.2616 13.6857 85.145 14.2085 85.1487 14.7375V30.5843C85.1487 37.5197 80.9186 45.6295 75.7258 48.6404L12.7831 85.1068C12.0426 85.5356 12.1259 86.1695 12.3388 86.9712C12.4218 87.1632 12.4584 87.3723 12.4455 87.5814C12.4326 87.7904 12.3707 87.9934 12.2647 88.1736C12.1905 88.2776 12.0934 88.3628 11.981 88.4227C11.8685 88.4825 11.7439 88.5153 11.6168 88.5185ZM76.8458 6.04968C75.6925 6.09985 74.5724 6.45338 73.5969 7.07506L10.6079 43.5135C5.80385 46.31 1.88844 53.8699 1.88844 60.3671V76.2139C1.88844 79.4858 2.90663 81.9654 4.66533 82.9908L5.47989 83.4662L10.8393 86.6262C10.7118 86.0876 10.7642 85.5217 10.9884 85.0161C11.2127 84.5106 11.5962 84.0936 12.0796 83.8297L75.0223 47.3633C79.8356 44.5668 83.751 37.0163 83.751 30.5191V14.6722C83.7494 13.9598 83.9046 13.2559 84.2055 12.6112C84.5064 11.9664 84.9455 11.3969 85.4912 10.9436C85.5838 10.8503 85.7041 10.7385 85.7874 10.6453C85.7446 10.6179 85.7043 10.5867 85.6671 10.552C85.3986 10.3843 79.1414 6.76745 78.7712 6.55305C78.1823 6.2231 77.5197 6.04985 76.8458 6.04968Z" fill="#1B1B1B"/>
<path d="M7.90474 81.779C7.78413 81.7812 7.66539 81.7488 7.56227 81.6858L1.08287 77.9571C0.9268 77.8671 0.812142 77.7189 0.763651 77.5445C0.715159 77.3701 0.736726 77.1835 0.823692 77.025C0.914733 76.8696 1.06188 76.7557 1.23439 76.707C1.40689 76.6584 1.5914 76.6788 1.74932 76.764L8.22872 80.4926C8.38128 80.5859 8.49293 80.7341 8.54106 80.9072C8.58918 81.0803 8.57017 81.2653 8.48789 81.4248C8.4291 81.5293 8.34456 81.6168 8.24242 81.6789C8.14028 81.7409 8.02397 81.7754 7.90474 81.779Z" fill="#1B1B1B"/>
<path d="M8.47906 59.5281C8.35876 59.5279 8.24062 59.4957 8.13657 59.4349L1.65717 55.7062C1.49638 55.6135 1.37874 55.4603 1.33013 55.2802C1.28153 55.1001 1.30594 54.908 1.398 54.7461C1.49006 54.5841 1.64223 54.4657 1.82102 54.4167C1.99982 54.3678 2.1906 54.3924 2.35139 54.4851L8.83079 58.2137C8.96302 58.2904 9.0665 58.4088 9.12522 58.5506C9.18394 58.6924 9.19464 58.8498 9.15566 58.9983C9.11668 59.1468 9.03018 59.2783 8.90955 59.3724C8.78892 59.4665 8.64088 59.5179 8.48832 59.5188L8.47906 59.5281Z" fill="#1B1B1B"/>
<path d="M14.847 48.9201C14.7264 48.9223 14.6077 48.8899 14.5046 48.8269L7.88633 45.0237C7.73205 44.932 7.61894 44.7838 7.57063 44.6101C7.52233 44.4363 7.54259 44.2505 7.62716 44.0915C7.71978 43.9379 7.86693 43.8254 8.0388 43.777C8.21067 43.7285 8.39441 43.7476 8.55279 43.8305L15.1618 47.6337C15.3143 47.727 15.426 47.8752 15.4741 48.0483C15.5222 48.2214 15.5032 48.4064 15.4209 48.5659C15.363 48.6691 15.2799 48.7558 15.1795 48.8178C15.0791 48.8797 14.9647 48.915 14.847 48.9201Z" fill="#1B1B1B"/>
<path d="M76.8734 12.8452C76.7513 12.8451 76.6309 12.8164 76.5217 12.7613L69.9127 8.93945C69.7584 8.84777 69.6453 8.69957 69.597 8.52585C69.5487 8.35212 69.569 8.16632 69.6535 8.00728C69.7462 7.85364 69.8933 7.74121 70.0652 7.69274C70.237 7.64428 70.4208 7.66342 70.5792 7.74628L77.1881 11.5495C77.3407 11.6428 77.4523 11.791 77.5005 11.9641C77.5486 12.1372 77.5296 12.3222 77.4473 12.4817C77.3905 12.5866 77.3079 12.6752 77.2074 12.7388C77.107 12.8025 76.992 12.8391 76.8734 12.8452Z" fill="#1B1B1B"/>
<path d="M16.9764 46.8601L79.9192 10.403C84.9268 7.48532 88.9903 10.5801 88.9903 17.3104V33.1759C88.9903 39.9061 84.9268 47.727 79.9192 50.6354L43.5235 71.6744L26.7418 97.4954V81.4249L16.9764 87.0924C11.9688 90.0101 7.90527 86.9153 7.90527 80.1851V64.3382C7.90527 57.5893 11.9688 49.7778 16.9764 46.8601Z" fill="white"/>
<path d="M26.7417 98.1945C26.6741 98.2036 26.6056 98.2036 26.5381 98.1945C26.3956 98.1505 26.271 98.0615 26.1826 97.9406C26.0943 97.8197 26.0469 97.6734 26.0475 97.5234V82.6367L17.3281 87.6983C16.138 88.4398 14.7745 88.8514 13.3756 88.8915C9.67311 88.8915 7.21094 85.4798 7.21094 80.1851V64.3382C7.21094 57.3936 11.4411 49.293 16.6338 46.2728L79.5766 9.81573C80.7629 9.07339 82.1237 8.66164 83.5198 8.62256C87.2686 8.62256 89.6844 12.0436 89.6844 17.329V33.1758C89.6844 40.1205 85.4636 48.221 80.2708 51.2413L43.9769 72.1964L27.3156 97.8776C27.2526 97.9733 27.1674 98.0522 27.0675 98.1074C26.9675 98.1626 26.8557 98.1925 26.7417 98.1945ZM26.7417 80.7257C26.8623 80.7236 26.9811 80.7559 27.0842 80.8189C27.1906 80.8797 27.2793 80.9678 27.341 81.0742C27.4028 81.1806 27.4355 81.3016 27.4359 81.4248V95.1463L42.9402 71.2829C43.0006 71.1925 43.0795 71.1163 43.1716 71.0591L79.6136 50.0294C84.4176 47.2329 88.333 39.6731 88.333 33.1758V17.329C88.333 12.8919 86.4818 10.0208 83.5568 10.0208C82.4122 10.0569 81.2975 10.3978 80.3263 11.0089L17.3836 47.466C12.5703 50.2625 8.65493 57.8224 8.65493 64.3196V80.1664C8.65493 84.6035 10.5062 87.4746 13.4312 87.4746C14.5865 87.4347 15.7107 87.0873 16.6894 86.4679L26.4455 80.8003C26.5368 80.7504 26.638 80.7217 26.7417 80.7164V80.7257Z" fill="#1B1B1B"/>
<path d="M54.2881 46.7762L77.6787 33.4089V35.6182L54.2881 48.9855V46.7762Z" fill="#1B1B1B"/>
<path d="M41.3848 45.0983L77.6787 24.2271V26.4363L41.3848 47.3075V45.0983Z" fill="#1B1B1B"/>
<path d="M62.9062 37.1748L77.6793 28.8132V31.0225L62.9062 39.384V37.1748Z" fill="#1B1B1B"/>
<path d="M60.7492 38.4333V40.6426L31.6475 57.5801V55.3708L60.7492 38.4333Z" fill="#1B1B1B"/>
<path d="M52.1313 48.0347V50.2439L35.3682 59.9851V57.7758L52.1313 48.0347Z" fill="#1B1B1B"/>
<path d="M39.2286 48.5659L19.957 59.7892V57.58L39.2286 46.3567V48.5659Z" fill="#1B1B1B"/>
<path d="M29.491 58.8384L19.957 64.3755V62.1662L29.491 56.6292V58.8384Z" fill="#1B1B1B"/>
<path d="M33.212 61.2434L19.957 68.9711V66.7618L33.212 59.0342V61.2434Z" fill="#1B1B1B"/>
<path d="M77.6792 40.2043L19.957 73.5666V71.3573L77.6792 38.0044V40.2043Z" fill="#1B1B1B"/>
<path d="M271.866 185.623C271.682 185.623 271.505 185.549 271.375 185.418C271.245 185.287 271.172 185.109 271.172 184.923V180.785C271.172 180.599 271.245 180.421 271.375 180.29C271.505 180.159 271.682 180.085 271.866 180.085C272.05 180.085 272.227 180.159 272.357 180.29C272.487 180.421 272.56 180.599 272.56 180.785V184.923C272.562 185.016 272.544 185.107 272.51 185.192C272.476 185.278 272.424 185.355 272.36 185.421C272.295 185.486 272.218 185.537 272.133 185.572C272.048 185.607 271.958 185.624 271.866 185.623Z" fill="#1B1B1B"/>
<path d="M270.95 176.264C270.798 176.262 270.65 176.211 270.529 176.119C270.407 176.027 270.318 175.898 270.274 175.751C268.562 169.468 264.721 163.931 260.139 161.293L225.65 141.251C225.497 141.158 225.386 141.009 225.339 140.836C225.293 140.662 225.315 140.477 225.4 140.319C225.491 140.164 225.639 140.05 225.812 140.003C225.985 139.956 226.169 139.979 226.326 140.068L260.824 160.081C265.665 162.878 269.802 168.76 271.607 175.378C271.633 175.466 271.64 175.558 271.629 175.65C271.619 175.741 271.59 175.829 271.545 175.909C271.501 175.988 271.44 176.059 271.368 176.115C271.296 176.171 271.214 176.212 271.126 176.236L270.95 176.264Z" fill="#1B1B1B"/>
<path d="M256.002 210.968L164.364 158.235C159.347 155.318 155.293 147.506 155.293 140.776V120.268C155.293 116.856 151.979 116.791 153.664 115.561C153.803 115.458 160.477 111.599 160.616 111.515C162.208 110.583 164.318 110.695 166.54 112.009L258.13 164.751C263.147 167.66 267.202 175.48 267.202 182.211V202.718C267.202 206.4 265.989 208.992 264.073 210.11C264.008 210.11 257.26 214.119 257.196 214.147C255.668 214.948 258.177 212.245 256.002 210.968Z" fill="#7DFF68"/>
<path d="M256.815 214.948C256.691 214.95 256.569 214.923 256.457 214.869C256.344 214.816 256.246 214.738 256.167 214.641C256.061 214.461 255.999 214.257 255.988 214.048C255.977 213.838 256.016 213.629 256.103 213.438C256.306 212.599 256.39 211.975 255.649 211.574L164.012 158.841C158.81 155.821 154.589 147.711 154.589 140.776V120.268C154.6 119.731 154.487 119.199 154.259 118.714C154.031 118.229 153.694 117.804 153.275 117.472C152.867 117.08 152.442 116.679 152.488 116.083C152.52 115.847 152.605 115.623 152.736 115.426C152.868 115.228 153.043 115.064 153.247 114.946C153.432 114.806 160.198 110.9 160.272 110.863C162.124 109.8 164.484 109.93 166.872 111.357L258.509 164.099C263.702 167.119 267.923 175.22 267.923 182.155V202.663C267.923 206.456 266.655 209.374 264.443 210.661L263.637 211.127L257.547 214.715C257.325 214.852 257.074 214.932 256.815 214.948ZM153.987 116.139L154.284 116.437C154.829 116.89 155.268 117.46 155.569 118.105C155.87 118.749 156.025 119.453 156.024 120.166V140.673C156.024 147.199 159.93 154.721 164.743 157.527L256.38 210.26C256.863 210.525 257.245 210.942 257.469 211.447C257.693 211.952 257.747 212.518 257.621 213.056C258.898 212.32 261.629 210.707 262.989 209.905L263.795 209.43C265.572 208.395 266.572 205.925 266.572 202.644V182.136C266.572 175.611 262.665 168.088 257.852 165.292L166.215 112.55C164.262 111.413 162.42 111.236 160.994 112.056C160.578 112.289 154.358 115.896 154.071 116.073L153.987 116.139Z" fill="#1B1B1B"/>
<path d="M260.537 208.255C260.383 208.257 260.234 208.207 260.112 208.113C259.989 208.02 259.901 207.889 259.861 207.74C259.821 207.59 259.831 207.432 259.889 207.289C259.948 207.147 260.052 207.028 260.185 206.95L266.664 203.222C266.743 203.176 266.83 203.146 266.921 203.134C267.011 203.122 267.103 203.128 267.191 203.152C267.279 203.176 267.362 203.217 267.434 203.273C267.507 203.329 267.567 203.399 267.613 203.478C267.659 203.558 267.688 203.646 267.7 203.737C267.712 203.828 267.706 203.92 267.682 204.009C267.659 204.098 267.618 204.181 267.562 204.254C267.507 204.327 267.437 204.388 267.358 204.434L260.879 208.162C260.775 208.223 260.657 208.255 260.537 208.255Z" fill="#1B1B1B"/>
<path d="M259.953 181.335C259.832 181.335 259.712 181.304 259.607 181.243C259.501 181.183 259.413 181.095 259.352 180.99C259.269 180.83 259.25 180.645 259.299 180.472C259.347 180.299 259.458 180.151 259.611 180.058L266.09 176.329C266.169 176.283 266.256 176.253 266.347 176.241C266.437 176.229 266.529 176.235 266.617 176.259C266.705 176.283 266.788 176.324 266.86 176.38C266.933 176.436 266.993 176.506 267.039 176.585C267.085 176.665 267.114 176.753 267.126 176.844C267.138 176.935 267.132 177.027 267.108 177.116C267.085 177.205 267.044 177.288 266.988 177.361C266.933 177.434 266.863 177.495 266.784 177.541L260.305 181.269C260.196 181.324 260.074 181.347 259.953 181.335Z" fill="#1B1B1B"/>
<path d="M253.594 170.736C253.441 170.737 253.291 170.687 253.169 170.594C253.047 170.5 252.959 170.369 252.919 170.22C252.879 170.071 252.889 169.913 252.947 169.77C253.006 169.627 253.11 169.508 253.242 169.431L259.861 165.628C260.019 165.552 260.2 165.539 260.367 165.592C260.534 165.645 260.675 165.76 260.762 165.913C260.848 166.067 260.874 166.247 260.834 166.419C260.794 166.591 260.691 166.741 260.546 166.839L253.937 170.643C253.833 170.703 253.714 170.736 253.594 170.736Z" fill="#1B1B1B"/>
<path d="M162.948 118.376C162.826 118.377 162.707 118.345 162.601 118.284C162.495 118.224 162.407 118.137 162.346 118.031C162.261 117.872 162.241 117.686 162.289 117.513C162.338 117.339 162.451 117.191 162.605 117.099L169.214 113.296C169.372 113.211 169.556 113.19 169.729 113.239C169.902 113.287 170.049 113.401 170.14 113.557C170.227 113.715 170.248 113.902 170.2 114.076C170.151 114.251 170.037 114.399 169.881 114.489L163.272 118.301C163.17 118.35 163.06 118.376 162.948 118.376Z" fill="#1B1B1B"/>
<path d="M251.456 168.676L159.819 115.934C154.812 113.016 150.748 116.111 150.748 122.841V143.349C150.748 150.079 154.812 157.9 159.819 160.808L251.456 213.55C256.473 216.459 260.528 213.373 260.528 206.643V186.135C260.528 179.405 256.473 171.584 251.456 168.676Z" fill="white"/>
<path d="M255.057 215.368C253.661 215.329 252.3 214.917 251.114 214.175L159.477 161.433C154.284 158.413 150.054 150.312 150.054 143.367V122.86C150.054 117.574 152.479 114.153 156.218 114.153C157.617 114.192 158.981 114.604 160.171 115.346L251.762 168.089C256.964 171.109 261.185 179.209 261.185 186.145V206.652C261.287 208.868 260.709 211.062 259.528 212.935C259.037 213.677 258.372 214.287 257.593 214.711C256.813 215.136 255.943 215.361 255.057 215.368ZM156.228 115.533C153.33 115.533 151.451 118.404 151.451 122.841V143.349C151.451 149.874 155.367 157.406 160.18 160.202L251.771 212.944C252.752 213.559 253.875 213.906 255.029 213.951C255.702 213.949 256.364 213.777 256.954 213.451C257.544 213.126 258.044 212.657 258.408 212.087C259.413 210.444 259.9 208.533 259.805 206.606V186.098C259.805 179.573 255.899 172.05 251.086 169.254L159.449 116.512C158.478 115.908 157.368 115.571 156.228 115.533Z" fill="#1B1B1B"/>
<path d="M162.124 129.506V137.774L248.948 187.338V179.06L162.124 129.506Z" fill="#7DFF68"/>
<path d="M248.948 188.037C248.828 188.035 248.71 188.002 248.605 187.944L161.781 138.39C161.675 138.326 161.588 138.236 161.526 138.128C161.464 138.02 161.431 137.899 161.43 137.774V129.506C161.43 129.384 161.462 129.264 161.523 129.158C161.584 129.053 161.671 128.965 161.775 128.904C161.88 128.842 161.999 128.81 162.12 128.809C162.242 128.808 162.361 128.84 162.466 128.9L249.29 178.454C249.396 178.518 249.484 178.608 249.546 178.716C249.607 178.823 249.641 178.945 249.642 179.069V187.338C249.639 187.46 249.605 187.58 249.544 187.686C249.482 187.792 249.395 187.881 249.29 187.944C249.186 188.002 249.068 188.035 248.948 188.037ZM162.818 137.373L248.254 186.135V179.47L162.818 130.708V137.373Z" fill="#1B1B1B"/>
<path d="M162.124 151.692L248.948 201.246V192.977L162.124 143.423V151.692Z" fill="#7DFF68"/>
<path d="M248.948 201.945C248.827 201.947 248.709 201.915 248.605 201.852L161.781 152.298C161.675 152.237 161.586 152.149 161.525 152.042C161.463 151.936 161.43 151.815 161.43 151.692V143.423C161.428 143.301 161.459 143.18 161.519 143.074C161.58 142.967 161.667 142.879 161.772 142.817C161.878 142.758 161.998 142.727 162.119 142.727C162.241 142.727 162.36 142.758 162.466 142.817L249.29 192.371C249.397 192.432 249.485 192.52 249.547 192.627C249.609 192.733 249.642 192.854 249.642 192.977V201.246C249.642 201.369 249.609 201.49 249.547 201.596C249.485 201.703 249.397 201.791 249.29 201.852C249.187 201.915 249.069 201.947 248.948 201.945ZM162.818 151.282L248.254 200.034V193.378L162.818 144.617V151.282Z" fill="#1B1B1B"/>
<path d="M109.076 175.369L110.409 200.621L102.31 196.193L91.082 185.706L109.076 175.369Z" fill="#7DFF68"/>
<path d="M110.41 201.32C110.293 201.32 110.179 201.291 110.076 201.236L101.977 196.809C101.925 196.783 101.878 196.748 101.838 196.706L90.6104 186.219C90.5315 186.145 90.4711 186.053 90.4341 185.951C90.3971 185.849 90.3846 185.74 90.3975 185.632C90.409 185.522 90.4461 185.417 90.5056 185.325C90.5651 185.233 90.6454 185.156 90.74 185.101L108.734 174.763C108.837 174.703 108.953 174.672 109.072 174.672C109.191 174.672 109.307 174.703 109.41 174.763C109.515 174.817 109.603 174.898 109.667 174.998C109.73 175.098 109.766 175.213 109.771 175.331L111.104 200.584C111.109 200.709 111.082 200.833 111.026 200.944C110.969 201.055 110.884 201.15 110.78 201.218C110.668 201.284 110.54 201.319 110.41 201.32ZM102.718 195.625L109.651 199.409L108.447 176.543L92.2488 185.865L102.718 195.625Z" fill="#1B1B1B"/>
<path d="M48.1883 214.65L112.723 177.261C117.731 174.353 121.794 166.532 121.794 159.801V139.294C121.794 135.882 125.108 135.807 123.423 134.577C123.285 134.474 116.611 130.625 116.463 130.541C114.88 129.609 112.806 129.72 110.548 131.035L46.0409 168.415C41.0332 171.332 36.9697 179.144 36.9697 185.874V206.382C36.9697 210.064 38.1823 212.655 40.1076 213.774L46.9758 217.82C48.5123 218.677 46.0039 215.881 48.1883 214.65Z" fill="#7DFF68"/>
<path d="M47.3648 218.677C47.1062 218.659 46.8556 218.579 46.6336 218.444L39.9043 214.492L39.7284 214.389C37.5162 213.103 36.248 210.185 36.248 206.391V185.884C36.248 178.939 40.4782 170.838 45.6709 167.818L110.178 130.438C112.566 129.04 114.926 128.872 116.778 129.935C116.852 129.935 123.609 133.887 123.803 134.018C124.003 134.142 124.175 134.307 124.306 134.503C124.436 134.7 124.524 134.922 124.562 135.155C124.543 135.432 124.462 135.702 124.326 135.944C124.19 136.186 124.002 136.394 123.775 136.553C123.362 136.88 123.029 137.298 122.801 137.774C122.573 138.251 122.457 138.774 122.461 139.303V159.811C122.461 166.756 118.24 174.856 113.047 177.876L48.5311 215.266C47.7906 215.694 47.8832 216.319 48.0868 217.13C48.1698 217.32 48.2063 217.528 48.1935 217.735C48.1806 217.943 48.1186 218.144 48.0128 218.323C47.9417 218.431 47.8455 218.52 47.7326 218.581C47.6196 218.643 47.4934 218.676 47.3648 218.677ZM114.121 130.625C112.971 130.663 111.851 131.003 110.872 131.613L46.3652 169.002C41.5519 171.799 37.6365 179.358 37.6365 185.856V206.363C37.6365 209.645 38.6547 212.115 40.4134 213.149L40.5985 213.252L46.5873 216.785C46.459 216.245 46.512 215.678 46.7381 215.172C46.9643 214.666 47.3507 214.25 47.8369 213.988L112.344 176.599C117.148 173.803 121.063 166.243 121.063 159.746V139.238C121.061 138.525 121.216 137.821 121.517 137.176C121.818 136.532 122.257 135.962 122.804 135.509L123.1 135.211L122.979 135.118C122.702 134.941 116.5 131.333 116.084 131.119C115.486 130.778 114.808 130.604 114.121 130.615V130.625Z" fill="#1B1B1B"/>
<path d="M52.7235 172.348L117.231 134.959C122.247 132.051 126.311 135.146 126.311 141.867V162.374C126.311 169.105 122.247 176.916 117.231 179.834L110.464 183.768V200.686L99.2456 190.199L52.7235 217.232C47.7158 220.15 43.6523 217.055 43.6523 210.325V189.78C43.6523 183.078 47.7158 175.257 52.7235 172.348Z" fill="white"/>
<path d="M49.1237 219.041C45.4211 219.041 42.959 215.62 42.959 210.334V189.78C42.959 182.835 47.1891 174.735 52.3819 171.715L116.889 134.325C118.081 133.59 119.444 133.182 120.841 133.142C124.544 133.142 127.006 136.553 127.006 141.839V162.346C127.006 169.282 122.776 177.392 117.583 180.412L111.159 184.14V200.686C111.159 200.822 111.12 200.956 111.046 201.069C110.972 201.183 110.867 201.273 110.743 201.327C110.619 201.382 110.482 201.399 110.349 201.376C110.216 201.353 110.092 201.292 109.993 201.199L99.1446 191.057L53.0761 217.848C51.8866 218.59 50.5227 219.002 49.1237 219.041ZM120.841 134.568C119.687 134.608 118.564 134.952 117.583 135.565L53.0761 173.001C48.2628 175.798 44.3474 183.357 44.3474 189.855V210.362C44.3474 214.799 46.1987 217.671 49.1237 217.671C50.279 217.631 51.4032 217.283 52.3819 216.664L98.8947 189.631C99.0233 189.554 99.1734 189.521 99.3222 189.538C99.471 189.555 99.6102 189.62 99.7185 189.724L109.771 199.102V183.814C109.769 183.691 109.801 183.569 109.863 183.462C109.925 183.355 110.015 183.268 110.123 183.208L116.889 179.275C121.702 176.478 125.618 168.918 125.618 162.421V141.913C125.618 137.43 123.739 134.568 120.841 134.568Z" fill="#1B1B1B"/>
<path d="M77.1416 170.12L113.426 149.249V151.459L77.1416 172.33V170.12Z" fill="#1B1B1B"/>
<path d="M98.6631 162.197L113.427 153.836V156.045L98.6631 164.406V162.197Z" fill="#1B1B1B"/>
<path d="M96.4973 163.456V165.665L67.3955 182.602V180.393L96.4973 163.456Z" fill="#1B1B1B"/>
<path d="M113.426 169.235L55.7041 202.588V193.853L113.426 160.5V169.235Z" fill="#7DFF68"/>
<path d="M55.7041 203.287C55.6125 203.288 55.5217 203.271 55.4369 203.236C55.3521 203.202 55.2751 203.15 55.2104 203.085C55.1457 203.02 55.0946 202.942 55.0601 202.857C55.0257 202.772 55.0086 202.68 55.0098 202.588V193.854C55.0111 193.73 55.0443 193.61 55.106 193.504C55.1676 193.397 55.2557 193.309 55.3616 193.248L113.084 159.895C113.189 159.834 113.308 159.803 113.43 159.804C113.551 159.804 113.67 159.837 113.775 159.898C113.88 159.959 113.967 160.047 114.027 160.153C114.088 160.259 114.12 160.379 114.12 160.501V169.272C114.122 169.396 114.09 169.518 114.028 169.624C113.966 169.731 113.877 169.819 113.769 169.878L56.0465 203.231C55.9397 203.281 55.8211 203.301 55.7041 203.287ZM56.3983 194.264V201.385L112.723 168.834V161.712L56.3983 194.264Z" fill="#1B1B1B"/>
<path d="M43.6532 211.928C43.5326 211.931 43.4139 211.898 43.3108 211.835L36.8314 208.107C36.686 208.008 36.5829 207.858 36.5428 207.686C36.5027 207.514 36.5286 207.334 36.6153 207.18C36.702 207.027 36.843 206.912 37.0101 206.859C37.1772 206.806 37.3581 206.819 37.5163 206.895L43.9957 210.623C44.1518 210.713 44.2665 210.862 44.3149 211.036C44.3634 211.21 44.3419 211.397 44.2549 211.556C44.1962 211.666 44.1096 211.758 44.0039 211.824C43.8983 211.889 43.7773 211.925 43.6532 211.928Z" fill="#1B1B1B"/>
<path d="M44.227 185.017C44.1073 185.012 43.9903 184.98 43.8845 184.923L37.4051 181.195C37.2491 181.105 37.1344 180.956 37.0859 180.782C37.0374 180.608 37.059 180.421 37.146 180.263C37.237 180.107 37.3841 179.993 37.5567 179.945C37.7292 179.896 37.9137 179.916 38.0716 180.002L44.551 183.73C44.7035 183.823 44.8152 183.972 44.8633 184.145C44.9114 184.318 44.8924 184.503 44.8102 184.662C44.75 184.766 44.6652 184.852 44.5633 184.914C44.4615 184.976 44.3458 185.011 44.227 185.017Z" fill="#1B1B1B"/>
<path d="M50.5953 174.408C50.4747 174.411 50.356 174.378 50.2528 174.315L43.6439 170.512C43.4985 170.414 43.3954 170.263 43.3553 170.092C43.3152 169.92 43.3411 169.739 43.4278 169.586C43.5145 169.433 43.6555 169.318 43.8226 169.265C43.9897 169.212 44.1706 169.225 44.3288 169.3L50.9378 173.103C51.0939 173.193 51.2085 173.342 51.257 173.516C51.3055 173.69 51.284 173.877 51.197 174.036C51.1398 174.147 51.0536 174.241 50.9476 174.306C50.8416 174.372 50.7198 174.407 50.5953 174.408Z" fill="#1B1B1B"/>
<path d="M114.149 137.411C114.028 137.413 113.91 137.381 113.807 137.318L107.17 133.514C107.01 133.422 106.894 133.269 106.846 133.09C106.798 132.911 106.823 132.72 106.915 132.559C107.007 132.398 107.159 132.281 107.337 132.233C107.515 132.185 107.704 132.21 107.864 132.303L114.473 136.106C114.629 136.196 114.744 136.344 114.792 136.518C114.841 136.693 114.819 136.879 114.732 137.038C114.675 137.145 114.591 137.236 114.489 137.301C114.387 137.367 114.27 137.404 114.149 137.411Z" fill="#1B1B1B"/>
<path d="M188.264 55.5946C188.109 55.5934 187.959 55.5406 187.837 55.4445C187.714 55.3485 187.627 55.2144 187.588 55.0633C185.828 48.158 182.364 41.8124 177.517 36.6157C177.452 36.5514 177.4 36.4746 177.364 36.3897C177.329 36.3049 177.311 36.2137 177.311 36.1216C177.311 36.0295 177.329 35.9384 177.364 35.8535C177.4 35.7687 177.452 35.6918 177.517 35.6276C177.648 35.4966 177.824 35.4231 178.008 35.4231C178.192 35.4231 178.368 35.4966 178.499 35.6276C183.507 41.0073 187.091 47.569 188.921 54.709C188.963 54.8882 188.933 55.0768 188.838 55.2339C188.743 55.3909 188.59 55.5038 188.412 55.548C188.365 55.5708 188.315 55.5865 188.264 55.5946Z" fill="#1B1B1B"/>
<path d="M184.579 62.3154C184.579 52.0615 177.36 39.4866 168.464 34.3503C164.142 31.8428 160.217 31.5538 157.357 33.0453L152.127 35.9723L153.228 38.0138C152.595 39.8087 152.282 41.7021 152.303 43.6068C152.303 53.8606 159.523 66.4355 168.427 71.5718C169.648 72.2965 170.95 72.8723 172.306 73.287L173.916 76.0835L179.655 72.8582C182.71 71.1989 184.579 67.5541 184.579 62.3154Z" fill="#7DFF68"/>
<path d="M173.954 76.7547C173.833 76.7555 173.715 76.724 173.611 76.6634C173.507 76.6027 173.421 76.5152 173.361 76.4098L171.889 73.8743C170.573 73.4492 169.307 72.8803 168.113 72.1778C159.032 66.9017 151.646 54.0657 151.646 43.5695C151.622 41.6973 151.9 39.8335 152.47 38.0511L151.544 36.2893C151.458 36.1297 151.438 35.9422 151.488 35.7676C151.538 35.5931 151.655 35.4456 151.813 35.3571L157.015 32.4022C160.273 30.6963 164.466 31.181 168.835 33.7165C177.915 39.0019 185.302 51.8285 185.302 62.3247C185.302 67.6661 183.451 71.6464 180.044 73.4548L174.324 76.6801C174.209 76.7364 174.081 76.7621 173.954 76.7547ZM153.062 36.2241L153.84 37.6596C153.881 37.7486 153.902 37.8457 153.902 37.9439C153.902 38.0422 153.881 38.1392 153.84 38.2282C153.255 39.9464 152.97 41.7535 152.997 43.5695C152.997 53.6183 160.069 65.9416 168.733 70.9659C169.899 71.6599 171.142 72.2137 172.436 72.6159C172.521 72.6389 172.601 72.6787 172.671 72.7332C172.741 72.7876 172.799 72.8554 172.843 72.9328L174.111 75.1141L179.248 72.2244C182.182 70.6397 183.784 67.1254 183.784 62.3154C183.784 52.2667 176.712 39.9434 168.048 34.919C164.114 32.6259 160.365 32.1225 157.579 33.6233L153.062 36.2241Z" fill="#1B1B1B"/>
<path d="M174.215 75.9186C180.473 72.2343 180.412 60.4024 174.078 49.4911C167.744 38.5799 157.537 32.7213 151.279 36.4055C145.02 40.0897 145.082 51.9217 151.416 62.833C157.749 73.7442 167.957 79.6028 174.215 75.9186Z" fill="white"/>
<path d="M169.974 77.7241C167.289 77.6315 164.675 76.8312 162.393 75.403C153.312 70.1176 145.926 57.291 145.926 46.7948C145.926 39.3933 149.684 34.6113 155.506 34.6113C158.189 34.6941 160.803 35.4849 163.087 36.9045C172.167 42.1805 179.554 55.0165 179.554 65.5127C179.554 72.9421 175.796 77.7241 169.974 77.7241ZM155.506 35.9723C150.452 35.9723 147.314 40.1018 147.314 46.7575C147.314 56.8062 154.386 69.1295 163.05 74.1539C165.12 75.4601 167.495 76.1962 169.937 76.2885C174.991 76.2885 178.128 72.159 178.128 65.5034C178.128 55.4546 171.057 43.1313 162.393 38.107C160.322 36.8007 157.948 36.0646 155.506 35.9723Z" fill="#1B1B1B"/>
<path d="M164.151 32.0533L158.549 35.2754L159.237 36.4896L164.84 33.2675L164.151 32.0533Z" fill="#1B1B1B"/>
<path d="M182.431 51.87L176.828 55.092L177.517 56.3062L183.119 53.0842L182.431 51.87Z" fill="#1B1B1B"/>
<path d="M184.05 58.8566L178.447 62.0786L179.136 63.2928L184.738 60.0708L184.05 58.8566Z" fill="#1B1B1B"/>
<path d="M184.401 62.3502L178.799 65.5723L179.487 66.7865L185.09 63.5644L184.401 62.3502Z" fill="#1B1B1B"/>
<path d="M167.335 60.6095C166.408 59.8077 165.611 58.864 164.975 57.813C164.586 57.1512 164.605 56.4427 164.975 56.219C165.502 55.9006 165.921 55.4296 166.178 54.8674C166.585 54.9792 167.104 54.8674 167.104 54.2615C167.104 53.6922 166.893 53.1433 166.511 52.7234C166.541 51.36 166.202 50.0141 165.533 48.8289C164.863 47.6437 163.886 46.6637 162.707 45.9931C159.865 44.3432 159.004 45.9186 158.921 48.2863C158.579 48.2117 158.329 48.5473 158.329 49.1252C158.424 49.7819 158.753 50.3815 159.254 50.8124C159.549 51.786 159.949 52.7239 160.448 53.6089C160.828 54.2708 160.846 54.9979 160.448 55.2029C159.705 55.5464 158.856 55.5799 158.088 55.2962C156.903 54.9326 156.015 55.6597 156.015 57.1605V59.724C156.029 59.9952 156.107 60.2591 156.242 60.4941C156.377 60.7291 156.566 60.9284 156.792 61.0756L168.603 67.9457C169.038 68.1974 169.381 67.9457 169.381 67.4982V64.8695C169.339 64.058 169.136 63.2631 168.785 62.5315C168.434 61.7999 167.941 61.1464 167.335 60.6095Z" fill="#7DFF68"/>
<path d="M168.955 68.6914C168.71 68.6843 168.471 68.6136 168.261 68.4863L156.44 61.6162C156.11 61.4061 155.835 61.118 155.64 60.7769C155.445 60.4358 155.335 60.052 155.32 59.6587V57.0952C155.32 55.5198 156.246 54.4665 157.505 54.4665C157.772 54.4663 158.037 54.5072 158.292 54.5877C158.857 54.795 159.476 54.795 160.041 54.5877C160.032 54.3499 159.962 54.1186 159.837 53.9165C159.345 53.0564 158.942 52.1474 158.634 51.2039C158.064 50.6572 157.706 49.9233 157.625 49.1345C157.602 48.8692 157.647 48.6024 157.758 48.3604C157.868 48.1185 158.039 47.9097 158.255 47.7549C158.504 45.1821 159.708 44.6228 160.717 44.6228C161.548 44.6728 162.351 44.9394 163.049 45.3965C164.285 46.1026 165.315 47.1221 166.037 48.3535C166.76 49.585 167.15 50.9855 167.168 52.4157C167.566 52.9541 167.777 53.6091 167.77 54.2801C167.783 54.6197 167.661 54.9506 167.432 55.2004C167.203 55.4501 166.885 55.5985 166.548 55.6131C166.254 56.1006 165.848 56.5098 165.363 56.8062C165.351 57.0413 165.416 57.2739 165.549 57.4681C166.137 58.469 166.881 59.369 167.752 60.1341C168.439 60.7247 169.002 61.448 169.407 62.2613C169.813 63.0746 170.052 63.9614 170.112 64.8695V67.4329C170.121 67.7382 170.026 68.0374 169.843 68.2812C169.738 68.415 169.602 68.5217 169.448 68.593C169.293 68.6642 169.125 68.6979 168.955 68.6914ZM157.505 55.8647C156.783 55.8647 156.709 56.7223 156.709 57.0952V59.6587C156.723 59.8063 156.768 59.9492 156.842 60.0778C156.915 60.2063 157.015 60.3177 157.135 60.4044L168.686 67.1253V64.8695C168.638 64.1555 168.45 63.4583 168.132 62.8182C167.814 62.1782 167.373 61.608 166.835 61.1408C165.844 60.2814 165 59.2643 164.336 58.1299C164.006 57.6104 163.887 56.983 164.003 56.3774C164.085 56.0432 164.294 55.7551 164.586 55.5758C164.994 55.332 165.317 54.9674 165.511 54.5317C165.582 54.3828 165.702 54.2638 165.851 54.1955C166 54.1273 166.168 54.1143 166.326 54.1589C166.308 53.8155 166.178 53.4877 165.956 53.2267C165.888 53.1652 165.834 53.0905 165.796 53.0072C165.757 52.9239 165.736 52.8337 165.734 52.742C165.766 51.5049 165.463 50.2824 164.858 49.2052C164.253 48.1281 163.369 47.2368 162.3 46.627C161.811 46.2955 161.248 46.0935 160.661 46.0397C160.411 46.0397 159.652 46.0397 159.55 48.3421C159.544 48.4445 159.517 48.5446 159.471 48.636C159.425 48.7274 159.361 48.8083 159.282 48.8735C159.2 48.9415 159.106 48.9923 159.004 49.0226C158.999 49.0722 158.999 49.1222 159.004 49.1718C159.105 49.6233 159.344 50.0312 159.689 50.337C159.787 50.4198 159.858 50.5301 159.893 50.6539C160.178 51.5598 160.56 52.4319 161.031 53.2547C161.37 53.7917 161.486 54.4408 161.355 55.0631C161.311 55.2231 161.234 55.3725 161.131 55.5022C161.027 55.6319 160.899 55.7394 160.754 55.8181C159.854 56.2457 158.823 56.2992 157.884 55.9673C157.763 55.9167 157.635 55.8822 157.505 55.8647Z" fill="#1B1B1B"/>
<path d="M19.0215 180.048C19.0215 169.794 26.2321 157.219 35.1367 152.083C39.4593 149.566 43.3748 149.287 46.2442 150.769L51.4462 153.724L50.3447 155.756C50.9766 157.551 51.2899 159.444 51.2704 161.349C51.2704 171.603 44.0505 184.168 35.1459 189.314C33.922 190.036 32.6169 190.609 31.2583 191.02L29.6477 193.816L23.9181 190.591C20.8912 188.932 19.0215 185.287 19.0215 180.048Z" fill="#7DFF68"/>
<path d="M29.6383 194.487C29.5221 194.487 29.4077 194.458 29.3051 194.404L23.5662 191.169C20.1877 189.305 18.3271 185.389 18.3271 180.048C18.3271 169.552 25.7322 156.744 34.7941 151.44C37.0719 150.01 39.6833 149.21 42.3657 149.119C43.8352 149.101 45.2868 149.444 46.5958 150.116L51.8164 153.071C51.9705 153.163 52.0841 153.311 52.134 153.484C52.1839 153.657 52.1663 153.843 52.0848 154.003L51.1592 155.765C51.7295 157.547 52.0077 159.411 51.983 161.284C51.983 171.78 44.578 184.588 35.5161 189.892C34.3205 190.591 33.0545 191.159 31.7395 191.588L30.2677 194.124C30.2063 194.237 30.115 194.331 30.004 194.395C29.8929 194.459 29.7663 194.491 29.6383 194.487ZM42.375 150.517C39.936 150.608 37.5639 151.344 35.4976 152.652C26.7967 157.704 19.7619 169.999 19.7619 180.048C19.7619 184.849 21.3632 188.363 24.2789 189.948L29.4347 192.847L30.7028 190.666C30.7892 190.51 30.9316 190.393 31.1008 190.339C32.395 189.942 33.6379 189.391 34.8033 188.699C43.495 183.637 50.539 171.351 50.539 161.302C50.5672 159.486 50.2822 157.679 49.6967 155.961C49.6558 155.87 49.6346 155.772 49.6346 155.672C49.6346 155.572 49.6558 155.474 49.6967 155.383L50.4742 153.957L45.8461 151.347C44.7707 150.797 43.5809 150.513 42.375 150.517Z" fill="#1B1B1B"/>
<path d="M52.1905 180.567C58.5243 169.655 58.5857 157.824 52.3277 154.139C46.0696 150.455 35.8618 156.314 29.528 167.225C23.1942 178.136 23.1328 189.968 29.3908 193.652C35.6489 197.337 45.8567 191.478 52.1905 180.567Z" fill="white"/>
<path d="M33.6286 195.457C27.8157 195.457 24.0576 190.665 24.0576 183.264C24.0576 172.777 31.4626 159.96 40.5245 154.665C42.8033 153.229 45.4186 152.425 48.1054 152.335C53.9276 152.335 57.6857 157.117 57.6857 164.518C57.6857 175.014 50.2807 187.822 41.2188 193.126C38.9368 194.563 36.3184 195.367 33.6286 195.457ZM48.0962 153.733C45.6547 153.825 43.28 154.561 41.2095 155.868C32.5086 160.929 25.4738 173.215 25.4738 183.264C25.4738 189.92 28.6117 194.049 33.6564 194.059C36.0993 193.967 38.475 193.227 40.5431 191.915C49.2347 186.862 56.2787 174.567 56.2787 164.518C56.2602 157.872 53.1501 153.733 48.0962 153.733Z" fill="#1B1B1B"/>
<path d="M39.4583 149.751L38.7695 150.965L44.3714 154.188L45.0601 152.974L39.4583 149.751Z" fill="#1B1B1B"/>
<path d="M21.1722 169.56L20.4834 170.774L26.0852 173.997L26.774 172.783L21.1722 169.56Z" fill="#1B1B1B"/>
<path d="M19.5559 176.551L18.8672 177.765L24.469 180.988L25.1578 179.774L19.5559 176.551Z" fill="#1B1B1B"/>
<path d="M19.2063 180.039L18.5176 181.253L24.1194 184.476L24.8082 183.262L19.2063 180.039Z" fill="#1B1B1B"/>
<path d="M36.294 178.342C37.2205 177.542 38.0142 176.598 38.6451 175.546C39.0339 174.893 39.0246 174.176 38.6451 173.961C38.1181 173.643 37.6988 173.172 37.4418 172.609C37.0345 172.721 36.5162 172.609 36.5162 172.004C36.5144 171.432 36.7297 170.882 37.1178 170.465C37.0923 169.11 37.4306 167.773 38.0969 166.595C38.7632 165.417 39.7329 164.442 40.9037 163.773C43.7453 162.113 44.6062 163.689 44.6895 166.066C45.0227 165.991 45.2819 166.327 45.2819 166.905C45.1859 167.559 44.8569 168.155 44.3563 168.583C44.061 169.543 43.6573 170.465 43.1529 171.332C42.7734 171.994 42.7642 172.721 43.1529 172.926C43.893 173.269 44.7373 173.306 45.504 173.029C46.6981 172.665 47.5867 173.392 47.5867 174.893V177.457C47.5704 177.727 47.4917 177.991 47.3567 178.225C47.2217 178.46 47.0342 178.66 46.8092 178.808L34.9704 185.613C34.5353 185.865 34.1836 185.66 34.1836 185.166V182.602C34.2341 181.786 34.447 180.988 34.8095 180.257C35.1721 179.525 35.6769 178.874 36.294 178.342Z" fill="#7DFF68"/>
<path d="M34.6467 186.415C34.4894 186.413 34.3342 186.378 34.1908 186.313C34.0473 186.248 33.9186 186.154 33.8128 186.037C33.7069 185.92 33.626 185.782 33.5752 185.632C33.5244 185.482 33.5047 185.324 33.5174 185.166V182.602C33.567 181.688 33.7982 180.793 34.1973 179.97C34.5963 179.147 35.1552 178.413 35.8408 177.811C36.7166 177.049 37.4638 176.148 38.053 175.145C38.1859 174.948 38.2509 174.712 38.2381 174.474C37.7544 174.181 37.3479 173.775 37.0533 173.29C36.7693 173.268 36.4984 173.161 36.2758 172.982C36.1302 172.855 36.0141 172.698 35.9357 172.52C35.8574 172.343 35.8186 172.151 35.8222 171.957C35.8275 171.301 36.0417 170.664 36.4332 170.139C36.447 168.711 36.8319 167.312 37.5497 166.08C38.2675 164.849 39.2931 163.828 40.5244 163.12C41.2219 162.661 42.0255 162.391 42.857 162.337C43.8567 162.337 45.0693 162.896 45.3192 165.469C45.5337 165.627 45.7043 165.837 45.8146 166.08C45.9248 166.324 45.971 166.591 45.9486 166.858C45.8681 167.644 45.5101 168.375 44.9397 168.918C44.6291 169.865 44.2228 170.777 43.7271 171.64C43.6041 171.839 43.5369 172.068 43.5327 172.302C44.097 172.513 44.7179 172.513 45.2822 172.302C45.5348 172.227 45.7963 172.186 46.0597 172.181C47.3741 172.181 48.2534 173.243 48.2534 174.819V177.382C48.2376 177.776 48.1265 178.161 47.9297 178.502C47.7329 178.843 47.4564 179.131 47.1242 179.34L35.3131 186.21C35.1116 186.333 34.8824 186.404 34.6467 186.415ZM37.3403 171.864C37.4869 171.857 37.6324 171.891 37.7613 171.962C37.8902 172.032 37.9975 172.137 38.0715 172.265C38.2685 172.699 38.5912 173.062 38.9972 173.309C39.2882 173.489 39.4976 173.776 39.5803 174.11C39.6965 174.716 39.5772 175.343 39.2471 175.863C38.5751 176.991 37.7318 178.007 36.7479 178.874C36.21 179.341 35.7695 179.911 35.4517 180.551C35.134 181.191 34.9453 181.888 34.8966 182.602V184.849L46.4485 178.137C46.5688 178.051 46.6698 177.939 46.7447 177.811C46.8197 177.682 46.867 177.539 46.8835 177.391V174.865C46.8835 174.492 46.8095 173.625 46.0782 173.625C45.9491 173.627 45.8209 173.649 45.6987 173.691C44.7567 174.022 43.7232 173.969 42.82 173.542C42.531 173.379 42.3179 173.107 42.2276 172.787C42.0969 172.165 42.2097 171.517 42.5423 170.978C43.018 170.157 43.4 169.285 43.6808 168.377C43.7171 168.249 43.7914 168.135 43.8937 168.051C44.2378 167.749 44.4777 167.344 44.5787 166.895C44.584 166.849 44.584 166.802 44.5787 166.755C44.4541 166.741 44.3357 166.692 44.2362 166.616C44.1594 166.551 44.098 166.469 44.0564 166.377C44.0148 166.285 43.994 166.185 43.9955 166.084C43.8937 163.772 43.1347 163.772 42.8848 163.772C42.2969 163.827 41.7327 164.032 41.2464 164.369C40.1772 164.979 39.2928 165.87 38.6879 166.947C38.083 168.024 37.7803 169.247 37.8123 170.484C37.8011 170.668 37.7218 170.841 37.5902 170.969C37.3685 171.23 37.2384 171.558 37.2199 171.901L37.3403 171.864Z" fill="#1B1B1B"/>
<path d="M202.75 221.408C202.567 221.406 202.392 221.332 202.262 221.201C202.132 221.07 202.058 220.894 202.056 220.709C201.938 216.226 200.353 211.907 197.548 208.423C197.433 208.278 197.379 208.093 197.398 207.908C197.417 207.723 197.508 207.554 197.65 207.435C197.792 207.319 197.973 207.263 198.155 207.281C198.337 207.298 198.505 207.387 198.622 207.528C201.64 211.259 203.334 215.898 203.435 220.709C203.433 220.892 203.36 221.067 203.233 221.198C203.105 221.328 202.932 221.404 202.75 221.408Z" fill="#1B1B1B"/>
<path d="M194.086 205.114C193.961 205.115 193.839 205.08 193.734 205.012L188.319 201.796C188.235 201.752 188.16 201.692 188.1 201.618C188.039 201.545 187.995 201.46 187.968 201.368C187.942 201.277 187.934 201.181 187.946 201.086C187.958 200.991 187.988 200.9 188.037 200.818C188.085 200.736 188.149 200.664 188.225 200.608C188.302 200.552 188.389 200.512 188.481 200.491C188.574 200.47 188.669 200.468 188.763 200.486C188.856 200.503 188.944 200.54 189.023 200.593L194.447 203.809C194.596 203.905 194.704 204.055 194.749 204.228C194.793 204.4 194.771 204.584 194.688 204.741C194.63 204.852 194.543 204.945 194.437 205.01C194.332 205.076 194.21 205.112 194.086 205.114Z" fill="#1B1B1B"/>
<path d="M191.735 208.423L166.345 193.332C162.818 191.281 159.958 193.462 159.958 198.198V205.422C159.958 210.157 162.818 215.676 166.345 217.708L175.157 223.124L186.959 241.292V229.994L191.735 232.79C195.261 234.841 198.122 232.669 198.122 227.934V220.7C198.122 215.974 195.261 210.474 191.735 208.423Z" fill="#7DFF68"/>
<path d="M186.958 241.981C186.844 241.981 186.732 241.952 186.632 241.896C186.531 241.841 186.446 241.761 186.385 241.664L174.657 223.627L165.974 218.295C162.272 216.142 159.264 210.362 159.264 205.412V198.169C159.264 194.32 161.05 191.84 163.809 191.84C164.826 191.868 165.819 192.163 166.687 192.698L192.096 207.789C195.798 209.943 198.816 215.722 198.816 220.672V227.906C198.884 229.507 198.464 231.091 197.612 232.445C197.245 232.998 196.748 233.45 196.165 233.762C195.582 234.075 194.931 234.237 194.271 234.235C193.252 234.208 192.259 233.909 191.392 233.368L187.69 231.178V241.264C187.692 241.414 187.645 241.561 187.556 241.682C187.468 241.803 187.342 241.892 187.199 241.935C187.122 241.963 187.041 241.979 186.958 241.981ZM163.818 193.257C161.902 193.257 160.661 195.187 160.661 198.188V205.412C160.661 209.915 163.364 215.154 166.696 217.092L175.527 222.518C175.611 222.575 175.683 222.647 175.74 222.732L186.274 238.942V229.975C186.275 229.852 186.308 229.731 186.37 229.625C186.431 229.519 186.519 229.431 186.625 229.369C186.731 229.308 186.851 229.275 186.972 229.275C187.094 229.275 187.214 229.308 187.319 229.369L192.096 232.166C193.882 233.21 195.521 233.023 196.492 231.644C197.169 230.524 197.492 229.224 197.418 227.915V220.681C197.418 216.179 194.715 210.94 191.383 209.001L165.974 193.919C165.321 193.518 164.574 193.296 163.809 193.276L163.818 193.257Z" fill="#1B1B1B"/>
<path d="M173.463 205.785C173.339 205.783 173.218 205.748 173.111 205.683L166.799 201.954C166.714 201.911 166.64 201.85 166.579 201.777C166.519 201.703 166.474 201.618 166.448 201.527C166.421 201.435 166.414 201.339 166.425 201.244C166.437 201.15 166.468 201.059 166.516 200.976C166.564 200.894 166.628 200.823 166.705 200.766C166.781 200.71 166.868 200.67 166.961 200.649C167.053 200.628 167.149 200.626 167.242 200.644C167.335 200.662 167.424 200.698 167.502 200.752L173.815 204.48C173.948 204.557 174.052 204.676 174.11 204.819C174.169 204.962 174.179 205.12 174.139 205.269C174.098 205.418 174.01 205.55 173.888 205.643C173.766 205.736 173.617 205.786 173.463 205.785Z" fill="#1B1B1B"/>
<path d="M190.93 216.16C190.806 216.158 190.684 216.123 190.578 216.058L176.444 207.668C176.294 207.572 176.186 207.422 176.142 207.25C176.097 207.077 176.119 206.893 176.203 206.736C176.248 206.659 176.307 206.591 176.378 206.537C176.449 206.483 176.53 206.444 176.616 206.422C176.702 206.399 176.791 206.394 176.879 206.406C176.967 206.419 177.052 206.448 177.129 206.494L191.263 214.883C191.416 214.976 191.527 215.125 191.573 215.299C191.62 215.472 191.598 215.657 191.513 215.815C191.452 215.917 191.366 216.002 191.264 216.062C191.163 216.122 191.048 216.156 190.93 216.16Z" fill="#1B1B1B"/>
<path d="M181.757 215.368C181.634 215.368 181.512 215.336 181.405 215.275L166.799 206.559C166.714 206.516 166.64 206.455 166.579 206.382C166.519 206.308 166.474 206.223 166.448 206.132C166.421 206.04 166.414 205.944 166.425 205.849C166.437 205.755 166.468 205.663 166.516 205.581C166.564 205.499 166.628 205.428 166.705 205.371C166.781 205.315 166.868 205.275 166.961 205.254C167.053 205.233 167.149 205.231 167.242 205.249C167.335 205.267 167.424 205.303 167.502 205.356L182.146 214.072C182.275 214.152 182.374 214.271 182.43 214.413C182.485 214.555 182.493 214.711 182.452 214.858C182.411 215.004 182.324 215.134 182.203 215.226C182.083 215.318 181.936 215.368 181.785 215.368H181.757Z" fill="#1B1B1B"/>
<path d="M190.93 220.821C190.805 220.819 190.684 220.783 190.578 220.719L183.997 216.813C183.85 216.713 183.747 216.561 183.708 216.387C183.669 216.214 183.697 216.032 183.787 215.878C183.876 215.725 184.021 215.612 184.191 215.562C184.36 215.512 184.543 215.529 184.7 215.61L191.244 219.497C191.397 219.591 191.508 219.739 191.555 219.913C191.601 220.087 191.58 220.272 191.494 220.43C191.44 220.537 191.36 220.63 191.262 220.698C191.163 220.767 191.049 220.809 190.93 220.821Z" fill="#1B1B1B"/>
<path d="M190.93 225.482C190.806 225.48 190.684 225.444 190.578 225.38L166.799 211.22C166.714 211.177 166.64 211.116 166.579 211.043C166.519 210.969 166.474 210.884 166.448 210.793C166.421 210.701 166.414 210.605 166.425 210.51C166.437 210.416 166.468 210.324 166.516 210.242C166.564 210.16 166.628 210.089 166.705 210.032C166.781 209.976 166.868 209.936 166.961 209.915C167.053 209.894 167.149 209.892 167.242 209.91C167.335 209.927 167.424 209.964 167.502 210.017L191.282 224.14C191.434 224.233 191.545 224.382 191.592 224.555C191.639 224.729 191.617 224.914 191.532 225.072C191.477 225.188 191.392 225.288 191.286 225.36C191.181 225.432 191.057 225.474 190.93 225.482Z" fill="#1B1B1B"/>
<path d="M81.6311 87.6145C81.5635 87.6233 81.4951 87.6233 81.4275 87.6145C81.3398 87.5878 81.2582 87.544 81.1873 87.4855C81.1165 87.4269 81.0579 87.3549 81.0149 87.2734C80.9719 87.192 80.9453 87.1027 80.9367 87.0109C80.9281 86.919 80.9376 86.8264 80.9647 86.7382C82.6678 81.2198 86.1204 76.4844 90.221 74.126C90.3776 74.0547 90.5549 74.0445 90.7185 74.0973C90.8822 74.15 91.0206 74.2621 91.107 74.4117C91.1934 74.5613 91.2216 74.7379 91.1862 74.9073C91.1507 75.0766 91.0542 75.2267 90.9152 75.3285C87.2127 77.5098 83.8804 82.0401 82.3068 87.1577C82.2551 87.295 82.1623 87.4126 82.0412 87.4945C81.9202 87.5763 81.7769 87.6182 81.6311 87.6145Z" fill="#1B1B1B"/>
<path d="M92.8499 78.7402L117.351 64.6831C121.554 62.2409 124.96 64.8323 124.96 70.4626V76.27C124.96 81.863 121.554 88.4534 117.351 90.8957L113.704 93.0024V107.153L104.3 98.3717L92.8499 104.953C88.6475 107.395 85.2412 104.804 85.2412 99.164V93.3659C85.2412 87.7263 88.6568 81.1825 92.8499 78.7402Z" fill="#7DFF68"/>
<path d="M113.695 107.852C113.52 107.851 113.352 107.784 113.223 107.665L104.189 99.2757L93.1922 105.605C92.1808 106.236 91.0216 106.587 89.8322 106.621C86.6203 106.621 84.5469 103.713 84.5469 99.1639V93.3658C84.5469 87.5211 88.1198 80.679 92.498 78.1342L116.999 64.0678C118.017 63.4432 119.178 63.0962 120.369 63.061C123.571 63.061 125.645 65.9694 125.645 70.4624V76.2699C125.645 82.1145 122.081 88.9473 117.694 91.5015L114.389 93.3658V107.115C114.388 107.251 114.349 107.385 114.275 107.499C114.201 107.613 114.096 107.703 113.973 107.758C113.887 107.808 113.793 107.84 113.695 107.852ZM104.291 97.6724C104.378 97.6699 104.464 97.6852 104.545 97.7172C104.627 97.7492 104.7 97.7974 104.763 97.8589L113.001 105.559V93.0023C113.001 92.879 113.034 92.758 113.096 92.6516C113.157 92.5452 113.246 92.4572 113.352 92.3963L116.999 90.2897C120.998 87.9592 124.256 81.6764 124.256 76.3071V70.4624C124.256 66.8177 122.729 64.4593 120.369 64.4593C119.42 64.4945 118.498 64.7806 117.694 65.2889L93.1922 79.346C89.1935 81.6671 85.9353 87.9592 85.9353 93.3285V99.1266C85.9353 102.781 87.4626 105.139 89.8322 105.139C90.7779 105.104 91.6976 104.818 92.498 104.309L103.948 97.7283C104.055 97.6782 104.173 97.6589 104.291 97.6724Z" fill="#1B1B1B"/>
<path d="M108.095 79.1971C107.942 79.1983 107.792 79.1483 107.67 79.0549C107.548 78.9616 107.46 78.8301 107.42 78.6811C107.38 78.532 107.39 78.3738 107.448 78.231C107.507 78.0883 107.61 77.9691 107.743 77.892L116.518 72.6812C116.597 72.6279 116.685 72.5913 116.779 72.5737C116.872 72.5562 116.967 72.558 117.06 72.579C117.152 72.6001 117.239 72.64 117.316 72.6962C117.392 72.7524 117.457 72.8238 117.505 72.906C117.553 72.9882 117.584 73.0794 117.595 73.1741C117.607 73.2687 117.599 73.3648 117.573 73.4564C117.546 73.5479 117.502 73.6331 117.441 73.7066C117.381 73.7801 117.306 73.8404 117.222 73.8837L108.447 79.0945C108.341 79.1594 108.219 79.1947 108.095 79.1971Z" fill="#1B1B1B"/>
<path d="M93.1089 88.099C92.9585 88.0968 92.8128 88.0455 92.6938 87.9526C92.5748 87.8598 92.4891 87.7306 92.4494 87.5844C92.4097 87.4382 92.4183 87.2829 92.4738 87.1421C92.5293 87.0012 92.6288 86.8823 92.7572 86.8033L104.068 80.0824C104.225 79.9964 104.409 79.9746 104.581 80.0215C104.754 80.0684 104.901 80.1803 104.994 80.3341C105.082 80.4915 105.105 80.6773 105.058 80.8516C105.011 81.0258 104.899 81.1747 104.744 81.2663L93.4329 87.9872C93.3359 88.0511 93.2245 88.0896 93.1089 88.099Z" fill="#1B1B1B"/>
<path d="M93.1089 92.7599C92.9585 92.7577 92.8128 92.7063 92.6938 92.6135C92.5748 92.5206 92.4891 92.3914 92.4494 92.2452C92.4097 92.099 92.4183 91.9438 92.4738 91.8029C92.5293 91.662 92.6288 91.5432 92.7572 91.4642L116.537 77.3418C116.615 77.2885 116.704 77.252 116.797 77.2344C116.89 77.2168 116.986 77.2186 117.078 77.2397C117.17 77.2607 117.257 77.3006 117.334 77.3568C117.41 77.4131 117.475 77.4845 117.523 77.5667C117.571 77.6488 117.602 77.7401 117.614 77.8347C117.625 77.9294 117.618 78.0254 117.591 78.117C117.565 78.2086 117.52 78.2938 117.46 78.3672C117.399 78.4407 117.324 78.501 117.24 78.5443L93.4607 92.6667C93.3537 92.7287 93.2323 92.7608 93.1089 92.7599Z" fill="#1B1B1B"/>
<path d="M102.366 91.9025C102.212 91.9037 102.063 91.8537 101.941 91.7604C101.818 91.667 101.73 91.5356 101.69 91.3865C101.65 91.2375 101.66 91.0792 101.719 90.9365C101.777 90.7937 101.881 90.6745 102.014 90.5975L116.537 81.9749C116.616 81.9216 116.704 81.885 116.797 81.8674C116.89 81.8499 116.986 81.8517 117.078 81.8727C117.171 81.8938 117.258 81.9336 117.334 81.9899C117.411 82.0461 117.475 82.1175 117.523 82.1997C117.571 82.2819 117.602 82.3731 117.614 82.4678C117.626 82.5624 117.618 82.6585 117.592 82.7501C117.565 82.8417 117.52 82.9268 117.46 83.0003C117.4 83.0738 117.325 83.1341 117.241 83.1774L102.717 91.8093C102.61 91.8713 102.489 91.9034 102.366 91.9025Z" fill="#1B1B1B"/>
<path d="M93.1089 97.4208C92.9585 97.4186 92.8128 97.3672 92.6938 97.2743C92.5748 97.1815 92.4891 97.0523 92.4494 96.9061C92.4097 96.7599 92.4183 96.6046 92.4738 96.4638C92.5293 96.3229 92.6288 96.204 92.7572 96.125L98.8756 92.4896C98.954 92.4425 99.0409 92.4113 99.1312 92.398C99.2215 92.3847 99.3136 92.3894 99.4022 92.4119C99.4907 92.4344 99.5739 92.4743 99.6472 92.5292C99.7204 92.5841 99.7822 92.653 99.829 92.732C99.8758 92.8109 99.9067 92.8984 99.9199 92.9894C99.9332 93.0803 99.9285 93.1731 99.9061 93.2622C99.8838 93.3514 99.8442 93.4352 99.7897 93.509C99.7352 93.5827 99.6667 93.645 99.5883 93.6921L93.4607 97.3275C93.3537 97.3895 93.2323 97.4217 93.1089 97.4208Z" fill="#1B1B1B"/>
<path d="M59.2223 156.222L58.8798 155.588C58.2601 154.435 57.4671 153.384 56.5287 152.475C56.4339 152.344 56.3873 152.184 56.3967 152.022C56.4061 151.86 56.471 151.707 56.5803 151.588C56.6897 151.469 56.8366 151.392 56.996 151.37C57.1554 151.348 57.3174 151.383 57.4543 151.468C58.3219 152.297 59.0781 153.238 59.7036 154.264L78.0403 143.638C78.1982 143.553 78.3828 143.532 78.5553 143.581C78.7278 143.629 78.8749 143.743 78.966 143.899C79.0537 144.056 79.0767 144.242 79.0299 144.416C78.9832 144.59 78.8705 144.739 78.716 144.831L59.2223 156.222Z" fill="#1B1B1B"/>
<path d="M81.8442 142.957C81.6908 142.958 81.5414 142.908 81.4192 142.815C81.297 142.722 81.2089 142.59 81.1688 142.441C81.1286 142.292 81.1386 142.134 81.1971 141.991C81.2557 141.848 81.3595 141.729 81.4925 141.652L88.6568 137.579C88.8131 137.49 88.9976 137.467 89.1706 137.514C89.3437 137.561 89.4915 137.675 89.5824 137.83C89.667 137.989 89.6873 138.175 89.639 138.349C89.5907 138.522 89.4776 138.671 89.3233 138.762L82.1774 142.864C82.0761 142.923 81.9614 142.955 81.8442 142.957Z" fill="#1B1B1B"/>
<path d="M316.806 36.9046C316.667 36.9041 316.532 36.8623 316.416 36.7843C316.301 36.7064 316.211 36.5958 316.158 36.4665C314.946 33.1719 312.713 30.3578 309.79 28.4405L301.968 23.7797C301.814 23.6881 301.701 23.5392 301.655 23.365C301.608 23.1907 301.631 23.0049 301.719 22.8475C301.811 22.6937 301.959 22.5818 302.131 22.5349C302.304 22.488 302.487 22.5099 302.644 22.5958L310.466 27.2567C313.678 29.3126 316.131 32.3751 317.445 35.9724C317.484 36.0589 317.505 36.1525 317.506 36.2474C317.507 36.3423 317.489 36.4364 317.452 36.5239C317.416 36.6114 317.362 36.6904 317.294 36.7559C317.226 36.8214 317.145 36.872 317.056 36.9046C316.973 36.9179 316.889 36.9179 316.806 36.9046Z" fill="#1B1B1B"/>
<path d="M307.79 31.8707L285.019 18.3543C281.863 16.4899 279.299 18.4661 279.299 22.7075V29.2327C279.299 33.4834 281.863 38.4052 285.019 40.2416L292.915 45.0982L303.504 61.3831V51.2039L307.79 53.7207C310.946 55.5851 313.51 53.6089 313.51 49.3675V42.8423C313.51 38.6383 310.946 33.7071 307.79 31.8707Z" fill="#7DFF68"/>
<path d="M303.505 62.0729C303.389 62.0741 303.275 62.0456 303.173 61.9902C303.071 61.9348 302.984 61.8542 302.922 61.756L292.425 45.5736L284.659 40.7916C281.271 38.8247 278.605 33.7257 278.605 29.1861V22.6609C278.605 19.1653 280.225 16.9094 282.743 16.9094C283.67 16.9353 284.574 17.2087 285.363 17.7018L308.142 31.3114C311.484 33.2503 314.205 38.4611 314.205 42.9169V49.4421C314.266 50.8924 313.884 52.3268 313.113 53.5529C312.774 54.0546 312.319 54.4654 311.786 54.7497C311.254 55.034 310.661 55.1831 310.058 55.1842C309.132 55.1607 308.228 54.8906 307.439 54.4012L304.199 52.5369V61.4484C304.201 61.6 304.153 61.748 304.062 61.8693C303.972 61.9906 303.844 62.0786 303.699 62.1195C303.633 62.1134 303.567 62.0977 303.505 62.0729ZM282.743 18.3543C281.077 18.3543 279.966 20.0695 279.966 22.7075V29.2327C279.966 33.2503 282.373 37.9205 285.335 39.6357L293.249 44.5016C293.338 44.5557 293.414 44.6289 293.471 44.716L302.783 59.0434V51.2039C302.783 51.0817 302.815 50.9617 302.875 50.8555C302.935 50.7494 303.021 50.6606 303.125 50.598C303.233 50.5384 303.354 50.5072 303.477 50.5072C303.6 50.5072 303.721 50.5384 303.829 50.598L308.105 53.1148C308.684 53.481 309.348 53.6868 310.031 53.7114C310.411 53.7142 310.787 53.6199 311.122 53.4374C311.457 53.2549 311.741 52.99 311.947 52.6674C312.553 51.6788 312.847 50.528 312.789 49.3675V42.8423C312.789 38.834 310.373 34.1638 307.411 32.4393L284.641 18.9136C284.066 18.5667 283.413 18.3742 282.743 18.3543Z" fill="#1B1B1B"/>
<path d="M289.999 35.4037C289.524 35.3934 289.061 35.255 288.657 35.0029C287.889 34.5077 287.25 33.8348 286.793 33.0402C286.335 32.2457 286.073 31.3525 286.028 30.4353C286.028 29.0836 286.787 28.1794 287.88 28.1794C288.354 28.1911 288.817 28.3295 289.222 28.5803C290 29.0739 290.649 29.7494 291.113 30.5495C291.577 31.3495 291.843 32.2504 291.888 33.1759C291.888 34.4995 291.129 35.4037 289.999 35.4037ZM287.917 29.3913C287.296 29.3913 287.232 30.1277 287.232 30.4353C287.276 31.1392 287.482 31.8232 287.834 32.4331C288.186 33.043 288.673 33.5622 289.259 33.9496C289.481 34.093 289.736 34.1765 289.999 34.1919C290.619 34.1919 290.684 33.4555 290.684 33.1386C290.638 32.4351 290.431 31.752 290.079 31.1424C289.728 30.5328 289.241 30.0133 288.657 29.6243C288.433 29.4874 288.179 29.4074 287.917 29.3913Z" fill="#1B1B1B"/>
<path d="M297.322 39.7009C296.847 39.6875 296.384 39.5493 295.979 39.3001C295.211 38.8049 294.572 38.1319 294.115 37.3374C293.658 36.5428 293.396 35.6497 293.351 34.7325C293.351 33.3808 294.11 32.4673 295.202 32.4673C295.679 32.4817 296.144 32.6197 296.553 32.8681C297.32 33.3638 297.958 34.0371 298.414 34.8317C298.869 35.6263 299.13 36.5192 299.173 37.4357C299.201 38.7687 298.451 39.7009 297.322 39.7009ZM295.23 33.6791C294.619 33.6791 294.554 34.4155 294.554 34.7325C294.598 35.4364 294.804 36.1203 295.156 36.7302C295.508 37.3402 295.996 37.8593 296.581 38.2467C296.803 38.3902 297.058 38.4737 297.322 38.4891C297.932 38.4891 297.997 37.7527 297.997 37.4357C297.954 36.7347 297.751 36.0532 297.405 35.4438C297.058 34.8344 296.577 34.3135 295.998 33.9215C295.767 33.7746 295.502 33.691 295.23 33.6791Z" fill="#1B1B1B"/>
<path d="M304.643 43.9889C304.165 43.9784 303.699 43.8401 303.291 43.5881C302.526 43.0933 301.889 42.4215 301.433 41.6287C300.977 40.8358 300.716 39.9448 300.672 39.0298C300.672 37.6689 301.431 36.7646 302.523 36.7646C302.998 36.7736 303.462 36.9122 303.865 37.1655C304.633 37.6607 305.273 38.3336 305.73 39.1282C306.187 39.9227 306.449 40.8159 306.494 41.7331C306.522 43.0847 305.763 43.9889 304.643 43.9889ZM302.551 37.9765C301.94 37.9765 301.875 38.7129 301.875 39.0298C301.92 39.7324 302.126 40.4151 302.476 41.0246C302.826 41.6341 303.311 42.1541 303.893 42.5441C304.121 42.6814 304.378 42.7614 304.643 42.7771C305.254 42.7771 305.319 42.05 305.319 41.7331C305.274 41.0292 305.068 40.3452 304.716 39.7353C304.365 39.1254 303.877 38.6062 303.291 38.2188C303.069 38.0754 302.814 37.9919 302.551 37.9765Z" fill="#1B1B1B"/>
</g>
<defs>
<clipPath id="clip0_84_34166">
<rect width="317" height="242" fill="white" transform="translate(0.5)"/>
</clipPath>
</defs>
</svg>
