<svg width="165" height="52" viewBox="0 0 165 52" fill="none" xmlns="http://www.w3.org/2000/svg">
<path d="M5.33602 33.66C4.93017 33.8444 4.57351 34.0904 4.26604 34.3979V40.5226H2.64263V32.221H4.11846L4.2107 33.0881C5.1085 32.3871 6.17848 32.0365 7.42064 32.0365C8.37993 32.0365 9.08095 32.2825 9.5237 32.7745C9.96645 33.2541 10.1878 34.0105 10.1878 35.0436V40.5226H8.6013V35.228C8.6013 34.5516 8.45372 34.0781 8.15855 33.8075C7.87569 33.5247 7.37144 33.3832 6.64582 33.3832C6.19078 33.3832 5.75418 33.4755 5.33602 33.66ZM19.4815 39.6186C18.8174 40.3443 17.7843 40.7071 16.3823 40.7071C14.9802 40.7071 13.9472 40.3443 13.283 39.6186C12.6189 38.893 12.2869 37.8107 12.2869 36.3718C12.2869 34.9329 12.6189 33.8506 13.283 33.125C13.9472 32.3994 14.9802 32.0365 16.3823 32.0365C17.772 32.0365 18.799 32.3994 19.4631 33.125C20.1395 33.8506 20.4777 34.9329 20.4777 36.3718C20.4777 37.8107 20.1457 38.893 19.4815 39.6186ZM14.5006 38.6593C14.8819 39.139 15.5091 39.3788 16.3823 39.3788C17.2678 39.3788 17.9012 39.139 18.2824 38.6593C18.676 38.1674 18.8728 37.4049 18.8728 36.3718C18.8728 35.3387 18.676 34.5824 18.2824 34.1027C17.9012 33.6108 17.2678 33.3648 16.3823 33.3648C15.5091 33.3648 14.8819 33.6046 14.5006 34.0843C14.1193 34.5639 13.9287 35.3264 13.9287 36.3718C13.9287 37.4049 14.1193 38.1674 14.5006 38.6593ZM29.479 32.221L26.3244 40.5226H24.535L21.3804 32.221H23.0591L25.4205 38.8254L27.8002 32.221H29.479ZM33.6405 28.9188V30.4131H31.851V28.9188H33.6405ZM33.6405 32.221V40.5226H32.017V33.5493H30.781L30.8733 32.221H33.6405ZM38.9177 33.66C38.5119 33.8444 38.1552 34.0904 37.8477 34.3979V40.5226H36.2243V32.221H37.7001L37.7924 33.0881C38.6902 32.3871 39.7602 32.0365 41.0023 32.0365C41.9616 32.0365 42.6626 32.2825 43.1054 32.7745C43.5481 33.2541 43.7695 34.0105 43.7695 35.0436V40.5226H42.183V35.228C42.183 34.5516 42.0354 34.0781 41.7402 33.8075C41.4574 33.5247 40.9531 33.3832 40.2275 33.3832C39.7725 33.3832 39.3359 33.4755 38.9177 33.66ZM52.8603 40.209C52.1224 40.541 51.243 40.7071 50.2222 40.7071C48.7587 40.7071 47.6641 40.3443 46.9385 39.6186C46.2252 38.893 45.8685 37.7984 45.8685 36.3349C45.8685 34.9575 46.1883 33.8998 46.8278 33.1619C47.4674 32.4116 48.4451 32.0365 49.7611 32.0365C50.9048 32.0365 51.7903 32.3563 52.4176 32.9958C53.0448 33.6231 53.3584 34.4717 53.3584 35.5416V36.9806H47.3813C47.4428 37.8784 47.7195 38.5364 48.2114 38.9545C48.7157 39.3727 49.5151 39.5817 50.6097 39.5817C51.3476 39.5817 52.0978 39.4342 52.8603 39.139V40.209ZM47.9347 33.8998C47.5657 34.3794 47.3813 35.062 47.3813 35.9475H51.9195V35.3018C51.9195 34.6254 51.7473 34.1027 51.4029 33.7338C51.0709 33.3525 50.5359 33.1619 49.7979 33.1619C48.9247 33.1619 48.3037 33.4078 47.9347 33.8998ZM58.589 33.826C58.0232 34.0351 57.5682 34.2503 57.2238 34.4717V40.5226H55.6004V32.221H57.1316L57.2238 33.1803C57.6297 32.922 58.097 32.6884 58.6258 32.4793C59.1547 32.2579 59.6651 32.1103 60.157 32.0365V33.3832C59.6774 33.4693 59.1547 33.6169 58.589 33.826ZM72.0878 38.3088C72.0878 39.9077 70.9932 40.7071 68.8041 40.7071C68.2752 40.7071 67.7648 40.6702 67.2729 40.5964C66.7932 40.5226 66.3874 40.418 66.0553 40.2828V39.0836C66.4243 39.2312 66.8301 39.3481 67.2729 39.4342C67.7156 39.5079 68.1276 39.5448 68.5089 39.5448C69.1853 39.5448 69.6834 39.4526 70.0032 39.2681C70.3229 39.0713 70.4828 38.7516 70.4828 38.3088C70.4828 38.026 70.4152 37.8046 70.2799 37.6447C70.1569 37.4848 69.9847 37.3557 69.7633 37.2573C69.542 37.1466 69.1976 37.0175 68.7303 36.8699L68.2322 36.7039C67.6541 36.4948 67.2114 36.3103 66.9039 36.1504C66.5965 35.9905 66.3443 35.7692 66.1476 35.4863C65.9631 35.1911 65.8708 34.8099 65.8708 34.3425C65.8708 33.5677 66.1291 32.9897 66.6456 32.6084C67.1745 32.2272 67.9923 32.0365 69.0992 32.0365C69.542 32.0365 69.9847 32.0673 70.4275 32.1288C70.8702 32.178 71.2392 32.2518 71.5343 32.3502V33.5493C70.8825 33.3156 70.1999 33.1988 69.4866 33.1988C68.8102 33.1988 68.3121 33.291 67.9923 33.4755C67.6726 33.6477 67.5127 33.9367 67.5127 34.3425C67.5127 34.6254 67.5803 34.8468 67.7156 35.0067C67.8509 35.1542 68.0292 35.2772 68.2506 35.3756C68.4843 35.4617 68.9024 35.6031 69.5051 35.7999C70.1446 35.9967 70.6427 36.1935 70.9994 36.3903C71.356 36.5747 71.6266 36.8207 71.8111 37.1282C71.9955 37.4233 72.0878 37.8169 72.0878 38.3088ZM78.628 40.4303C78.0992 40.6148 77.5888 40.7071 77.0968 40.7071C76.3097 40.7071 75.7009 40.4857 75.2705 40.0429C74.84 39.5879 74.6248 38.9422 74.6248 38.1059V33.5493H73.4257V32.221H74.6248V30.1364L76.2482 29.7306V32.221H78.4251L78.3697 33.5493H76.2482V38.0321C76.2482 38.9545 76.7217 39.4157 77.6687 39.4157C77.9885 39.4157 78.3082 39.3542 78.628 39.2312V40.4303ZM85.0376 40.4488C84.5703 40.621 84.0107 40.7071 83.3589 40.7071C82.3996 40.7071 81.6617 40.4303 81.1451 39.8769C80.6409 39.3112 80.3888 38.5118 80.3888 37.4787V32.221H81.9937V37.3311C81.9937 37.9952 82.1598 38.4995 82.4918 38.8438C82.8239 39.1759 83.3466 39.3419 84.0599 39.3419C84.9331 39.3419 85.6895 39.0037 86.329 38.3273V32.221H87.934V40.5226H86.4766L86.3843 39.6555C85.9539 39.9999 85.505 40.2643 85.0376 40.4488ZM95.3623 40.4488C94.9318 40.621 94.4214 40.7071 93.8311 40.7071C92.7242 40.7071 91.8387 40.3689 91.1746 39.6924C90.5228 39.016 90.1969 37.9583 90.1969 36.5194C90.1969 35.1296 90.5166 34.0351 91.1562 33.2357C91.808 32.4362 92.7488 32.0365 93.9787 32.0365C94.4952 32.0365 94.9441 32.0919 95.3254 32.2026C95.7189 32.3133 96.1002 32.4977 96.4692 32.756V28.7159H98.0741V40.5226H96.6905L96.5983 39.674C96.217 40.0183 95.805 40.2766 95.3623 40.4488ZM91.8387 36.5194C91.8387 38.4257 92.6504 39.3788 94.2739 39.3788C95.1471 39.3788 95.8788 39.0713 96.4692 38.4564V34.1212C96.1863 33.8752 95.8788 33.6907 95.5468 33.5677C95.227 33.4324 94.8519 33.3648 94.4214 33.3648C93.5851 33.3648 92.9456 33.6292 92.5029 34.1581C92.0601 34.6746 91.8387 35.4617 91.8387 36.5194ZM103.232 28.9188V30.4131H101.442V28.9188H103.232ZM103.232 32.221V40.5226H101.608V33.5493H100.372L100.464 32.221H103.232ZM112.678 39.6186C112.014 40.3443 110.981 40.7071 109.579 40.7071C108.177 40.7071 107.144 40.3443 106.48 39.6186C105.815 38.893 105.483 37.8107 105.483 36.3718C105.483 34.9329 105.815 33.8506 106.48 33.125C107.144 32.3994 108.177 32.0365 109.579 32.0365C110.969 32.0365 111.996 32.3994 112.66 33.125C113.336 33.8506 113.674 34.9329 113.674 36.3718C113.674 37.8107 113.342 38.893 112.678 39.6186ZM107.697 38.6593C108.078 39.139 108.706 39.3788 109.579 39.3788C110.464 39.3788 111.098 39.139 111.479 38.6593C111.873 38.1674 112.069 37.4049 112.069 36.3718C112.069 35.3387 111.873 34.5824 111.479 34.1027C111.098 33.6108 110.464 33.3648 109.579 33.3648C108.706 33.3648 108.078 33.6046 107.697 34.0843C107.316 34.5639 107.125 35.3264 107.125 36.3718C107.125 37.4049 107.316 38.1674 107.697 38.6593Z" fill="white"/>
<path d="M3.10736 15.8869V7.1437C3.10736 6.82442 3.30584 6.5388 3.60507 6.42746L5.31511 5.79116C5.81441 5.60538 6.34583 5.97465 6.34583 6.5074V13.1219H7.62583C8.04789 13.1219 8.39004 13.464 8.39004 13.8861V15.6714C8.39004 16.0935 8.04789 16.4356 7.62583 16.4356H6.34583V16.9844C6.34583 17.2354 6.30638 17.5259 6.22748 17.8558C6.14858 18.193 6.00871 18.5946 5.80788 19.0608C5.62139 19.5271 5.31655 19.9897 4.89336 20.4488C4.57041 20.8046 4.19316 21.1248 3.7616 21.4096C3.51268 21.5739 3.18912 21.5528 2.94724 21.3783L1.94128 20.6527C1.43373 20.2866 1.56002 19.4556 2.01441 19.0253C2.74304 18.3353 3.10736 17.2892 3.10736 15.8869Z" fill="white"/>
<path d="M11.5444 5.78051C12.0428 5.59927 12.5698 5.96837 12.5698 6.49871V12.3365C12.5698 12.566 12.6451 12.7561 12.7957 12.9067C12.9535 13.0501 13.1472 13.1219 13.3767 13.1219H14.9444C15.3634 13.1219 15.7042 13.4591 15.7086 13.878L15.7274 15.6634C15.7319 16.0886 15.3885 16.4356 14.9632 16.4356H13.3767C12.9105 16.4356 12.4729 16.3675 12.0641 16.2312C11.8333 16.1488 11.6084 16.045 11.3894 15.92C11.0956 15.7522 10.7304 15.7529 10.436 15.9195C9.82777 16.2636 9.17263 16.4356 8.47057 16.4356H6.34583V13.1219H8.47057C8.67858 13.1219 8.86148 13.043 9.01928 12.8852C9.17708 12.7274 9.25598 12.5445 9.25598 12.3365V7.14793C9.25598 6.82657 9.45702 6.53955 9.75903 6.42972L11.5444 5.78051Z" fill="white"/>
<path d="M21.4284 5.78051C21.9268 5.59927 22.4538 5.96837 22.4538 6.49871V12.5732C22.4538 15.1481 21.1125 16.4356 18.4299 16.4356H14.7085C14.2865 16.4356 13.9443 16.0935 13.9443 15.6714V13.8861C13.9443 13.464 14.2865 13.1219 14.7085 13.1219H18.2362C18.394 13.1219 18.5303 13.1111 18.6451 13.0896C18.7598 13.0681 18.8531 13.0286 18.9248 12.9712C19.0037 12.9139 19.0575 12.8314 19.0862 12.7238C19.1221 12.6162 19.14 12.4799 19.14 12.3149V7.14793C19.14 6.82657 19.341 6.53955 19.643 6.42972L21.4284 5.78051Z" fill="white"/>
<path d="M30.4289 17.324C30.6916 16.9056 30.3292 16.4356 29.8353 16.4356H28.6736C27.3682 16.4356 26.2707 15.8511 25.3813 14.6819C24.9438 14.0866 24.6138 13.4769 24.3915 12.8529C24.1691 12.2289 24.058 11.5761 24.058 10.8947C24.058 10.1918 24.1261 9.54986 24.2624 8.96888C24.4058 8.38072 24.6461 7.79973 24.9832 7.22591C25.3275 6.65927 25.8368 6.21457 26.511 5.8918C27.1924 5.56902 28.0173 5.40764 28.9856 5.40764H33.375C33.797 5.40764 34.1392 5.74979 34.1392 6.17185V13.1219H35.3869C35.809 13.1219 36.1511 13.464 36.1511 13.8861V15.6714C36.1511 16.0935 35.809 16.4356 35.3869 16.4356H34.1084C34.1084 16.7369 34.0746 17.0812 33.9455 17.4685C33.8236 17.8558 33.6192 18.2934 33.3322 18.7811C33.1888 19.0322 33.0059 19.2868 32.7835 19.545C32.5612 19.8032 32.303 20.0543 32.0089 20.2981C31.7148 20.542 31.3884 20.7715 31.0298 20.9867C30.7683 21.1436 30.4933 21.2891 30.2051 21.4232C29.9999 21.5186 29.7624 21.5078 29.5612 21.4042L28.0757 20.6391C27.4532 20.3185 27.548 19.3676 28.1866 19.0804C29.245 18.6044 29.9924 18.019 30.4289 17.324ZM30.8254 9.48563C30.8254 9.06357 30.4832 8.72142 30.0612 8.72142H28.9856C27.9097 8.72142 27.3717 9.44586 27.3717 10.8947C27.3717 11.1745 27.4112 11.447 27.4901 11.7124C27.569 11.9778 27.6802 12.2181 27.8236 12.4333C27.9671 12.6413 28.1356 12.8099 28.3293 12.939C28.5301 13.0609 28.7489 13.1219 28.9856 13.1219H30.0612C30.4832 13.1219 30.8254 12.7797 30.8254 12.3576V9.48563Z" fill="white"/>
<path d="M39.8289 5.78051C40.3273 5.59927 40.8543 5.96837 40.8543 6.49871V12.5732C40.8543 15.1481 39.513 16.4356 36.8304 16.4356H34.1084L34.1392 13.1219H36.6368C36.7946 13.1219 36.9309 13.1111 37.0456 13.0896C37.1604 13.0681 37.2536 13.0286 37.3254 12.9712C37.4043 12.9139 37.4581 12.8314 37.4867 12.7238C37.5226 12.6162 37.5405 12.4799 37.5405 12.3149V7.14793C37.5405 6.82657 37.7416 6.53955 38.0436 6.42972L39.8289 5.78051Z" fill="white"/>
<path d="M37.1664 2.13282C37.1664 2.00451 37.1664 1.94036 37.1727 1.8827C37.2143 1.5004 37.4578 1.16982 37.8106 1.0168C37.8638 0.993726 37.9251 0.974711 38.0476 0.936683L39.0475 0.626389C39.4448 0.503079 39.6435 0.441425 39.8043 0.441031C40.275 0.439879 40.6911 0.746453 40.8295 1.19631C40.8769 1.35006 40.8769 1.55808 40.8769 1.9741C40.8769 2.29139 40.8769 2.45003 40.8435 2.58053C40.7466 2.95923 40.4509 3.25494 40.0722 3.35184C39.9417 3.38523 39.783 3.38523 39.4657 3.38523H38.4188C38.2493 3.38523 38.1646 3.38523 38.0934 3.37564C37.616 3.31128 37.2404 2.93572 37.176 2.45824C37.1664 2.3871 37.1664 2.30234 37.1664 2.13282Z" fill="white"/>
<path d="M8.90744 2.13282C8.90744 2.00451 8.90744 1.94036 8.91371 1.8827C8.95528 1.5004 9.19882 1.16982 9.55163 1.0168C9.60483 0.993726 9.6661 0.974711 9.78864 0.936683L10.7885 0.626389C11.1858 0.503079 11.3845 0.441425 11.5453 0.441031C12.016 0.439879 12.4321 0.746453 12.5706 1.19631C12.6179 1.35006 12.6179 1.55808 12.6179 1.9741C12.6179 2.29139 12.6179 2.45003 12.5845 2.58053C12.4876 2.95923 12.1919 3.25494 11.8132 3.35184C11.6827 3.38523 11.524 3.38523 11.2067 3.38523H10.1599C9.99033 3.38523 9.90556 3.38523 9.83443 3.37564C9.35695 3.31128 8.98139 2.93572 8.91703 2.45824C8.90744 2.3871 8.90744 2.30234 8.90744 2.13282Z" fill="white"/>
<path d="M14.5368 20.6672C14.5368 20.1795 14.8839 19.7608 15.3632 19.6704L20.5543 18.6918C21.0278 18.6025 21.2645 18.5579 21.4561 18.5914C21.8291 18.6567 22.1398 18.9143 22.273 19.2688C22.3415 19.4508 22.3415 19.6917 22.3415 20.1736C22.3415 20.5812 22.3415 20.785 22.2867 20.9496C22.1802 21.2693 21.9294 21.5201 21.6097 21.6266C21.4451 21.6814 21.2413 21.6814 20.8336 21.6814H15.5511C14.991 21.6814 14.5368 21.2273 14.5368 20.6672Z" fill="white"/>
<path d="M55.4793 20.6672C55.4793 20.1795 55.8264 19.7608 56.3057 19.6704L61.4967 18.6918C61.9702 18.6025 62.207 18.5579 62.3986 18.5914C62.7715 18.6567 63.0822 18.9143 63.2155 19.2688C63.284 19.4508 63.284 19.6917 63.284 20.1736C63.284 20.5812 63.284 20.785 63.2291 20.9496C63.1227 21.2693 62.8718 21.5201 62.5521 21.6266C62.3876 21.6814 62.1837 21.6814 61.7761 21.6814H56.4936C55.9334 21.6814 55.4793 21.2273 55.4793 20.6672Z" fill="white"/>
<path d="M82.092 2.49898C82.092 2.01127 82.4391 1.59261 82.9184 1.50226L88.1094 0.523616C88.5829 0.434351 88.8196 0.389719 89.0112 0.423258C89.3842 0.488556 89.6949 0.746149 89.8282 1.10059C89.8966 1.28264 89.8966 1.52355 89.8966 2.00538C89.8966 2.41302 89.8966 2.61684 89.8418 2.78144C89.7353 3.10112 89.4845 3.35196 89.1648 3.45843C89.0002 3.51326 88.7964 3.51326 88.3888 3.51326H83.1063C82.5461 3.51326 82.092 3.05915 82.092 2.49898Z" fill="white"/>
<path d="M50.9174 16.9401C51.1802 16.5218 50.8178 16.0518 50.3238 16.0518H49.1621C47.8567 16.0518 46.7592 15.4672 45.8698 14.298C45.4323 13.7027 45.1024 13.093 44.88 12.469C44.6577 11.845 44.5465 11.1923 44.5465 10.5109C44.5465 9.80795 44.6146 9.16599 44.7509 8.58501C44.8944 7.99685 45.1346 7.41586 45.4718 6.84204C45.816 6.2754 46.3253 5.8307 46.9995 5.50792C47.6809 5.18515 48.5058 5.02377 49.4741 5.02377H53.8635C54.2855 5.02377 54.6277 5.36592 54.6277 5.78798V12.738H55.8754C56.2975 12.738 56.6396 13.0801 56.6396 13.5022V15.2876C56.6396 15.7096 56.2975 16.0518 55.8754 16.0518H54.5969C54.5969 16.353 54.5631 16.6973 54.434 17.0846C54.3121 17.472 54.1077 17.9095 53.8208 18.3972C53.6773 18.6483 53.4944 18.9029 53.272 19.1611C53.0497 19.4193 52.7915 19.6704 52.4974 19.9143C52.2033 20.1581 51.877 20.3877 51.5183 20.6028C51.2568 20.7598 50.9819 20.9053 50.6936 21.0393C50.4884 21.1347 50.2509 21.124 50.0497 21.0203L48.5642 20.2552C47.9417 19.9346 48.0365 18.9837 48.6751 18.6965C49.7335 18.2206 50.4809 17.6351 50.9174 16.9401ZM51.3139 9.10176C51.3139 8.6797 50.9718 8.33755 50.5497 8.33755H49.4741C48.3982 8.33755 47.8603 9.06199 47.8603 10.5109C47.8603 10.7906 47.8997 11.0632 47.9786 11.3286C48.0575 11.5939 48.1687 11.8342 48.3121 12.0494C48.4556 12.2574 48.6241 12.426 48.8178 12.5551C49.0186 12.677 49.2374 12.738 49.4741 12.738H50.5497C50.9718 12.738 51.3139 12.3958 51.3139 11.9738V9.10176Z" fill="white"/>
<path d="M60.3175 5.39663C60.8159 5.21539 61.3428 5.5845 61.3428 6.11484V12.1893C61.3428 14.7643 60.0015 16.0518 57.319 16.0518H54.5969L54.6277 12.738H57.1253C57.2831 12.738 57.4194 12.7272 57.5341 12.7057C57.6489 12.6842 57.7421 12.6447 57.8139 12.5874C57.8928 12.53 57.9466 12.4475 57.9753 12.3399C58.0111 12.2323 58.029 12.096 58.029 11.9311V6.76406C58.029 6.4427 58.2301 6.15567 58.5321 6.04585L60.3175 5.39663Z" fill="white"/>
<path d="M63.4052 5.78798C63.4052 5.36592 63.7474 5.02377 64.1694 5.02377H66.9449C68.2145 5.02377 69.2581 5.13853 70.0758 5.36806C70.9007 5.59041 71.5139 5.91677 71.9156 6.34713C72.0662 6.50493 72.1953 6.65555 72.3029 6.79901C72.4177 6.93529 72.5145 7.07874 72.5934 7.22937C72.6795 7.37999 72.7512 7.54497 72.8086 7.72428C72.866 7.9036 72.9162 8.10802 72.9592 8.33755C73.0023 8.55273 73.0345 8.74998 73.0561 8.92929C73.0776 9.10144 73.0919 9.27717 73.0991 9.45649C73.1134 9.6358 73.1206 9.82588 73.1206 10.0267C73.1278 10.2204 73.1314 10.4463 73.1314 10.7045V15.2876C73.1314 15.7096 72.7892 16.0518 72.3671 16.0518H64.1694C63.7474 16.0518 63.4052 15.7096 63.4052 15.2876V13.5022C63.4052 13.0801 63.7474 12.738 64.1694 12.738H68.9996C69.4216 12.738 69.7638 12.3958 69.7638 11.9738V10.6292C69.7638 10.3997 69.7602 10.2024 69.753 10.0375C69.7459 9.8725 69.7279 9.72905 69.6992 9.60711C69.6777 9.47801 69.6419 9.36324 69.5917 9.26283C69.5414 9.15523 69.4733 9.04406 69.3872 8.92929C69.2294 8.69977 68.964 8.54556 68.5911 8.46666C68.2253 8.38058 67.7339 8.33755 67.1171 8.33755H64.1694C63.7474 8.33755 63.4052 7.9954 63.4052 7.57333V5.78798Z" fill="white"/>
<path d="M80.4946 16.9401C80.7573 16.5218 80.3949 16.0518 79.9009 16.0518H78.7393C77.4338 16.0518 76.3364 15.4672 75.447 14.298C75.0095 13.7027 74.6795 13.093 74.4572 12.469C74.2348 11.845 74.1236 11.1923 74.1236 10.5109C74.1236 9.80795 74.1918 9.16599 74.3281 8.58501C74.4715 7.99685 74.7118 7.41586 75.0489 6.84204C75.3932 6.2754 75.9025 5.8307 76.5767 5.50792C77.2581 5.18515 78.083 5.02377 79.0513 5.02377H83.4406C83.8627 5.02377 84.2048 5.36592 84.2048 5.78798V12.738H85.4526C85.8746 12.738 86.2168 13.0801 86.2168 13.5022V15.2876C86.2168 15.7096 85.8746 16.0518 85.4526 16.0518H84.1741C84.1741 16.353 84.1403 16.6973 84.0112 17.0846C83.8892 17.472 83.6848 17.9095 83.3979 18.3972C83.2545 18.6483 83.0716 18.9029 82.8492 19.1611C82.6269 19.4193 82.3686 19.6704 82.0746 19.9143C81.7805 20.1581 81.4541 20.3877 81.0955 20.6028C80.8339 20.7598 80.559 20.9053 80.2708 21.0393C80.0656 21.1347 79.828 21.124 79.6268 21.0203L78.1413 20.2552C77.5189 19.9346 77.6136 18.9837 78.2522 18.6965C79.3106 18.2206 80.0581 17.6351 80.4946 16.9401ZM80.8911 9.10176C80.8911 8.6797 80.5489 8.33755 80.1268 8.33755H79.0513C77.9754 8.33755 77.4374 9.06199 77.4374 10.5109C77.4374 10.7906 77.4769 11.0632 77.5558 11.3286C77.6347 11.5939 77.7458 11.8342 77.8893 12.0494C78.0328 12.2574 78.2013 12.426 78.395 12.5551C78.5958 12.677 78.8146 12.738 79.0513 12.738H80.1268C80.5489 12.738 80.8911 12.3958 80.8911 11.9738V9.10176Z" fill="white"/>
<path d="M88.8295 5.39663C89.3279 5.21539 89.8549 5.5845 89.8549 6.11484V11.9526C89.8549 12.1821 89.9302 12.3722 90.0808 12.5228C90.2386 12.6663 90.4323 12.738 90.6618 12.738H91.5975C92.0196 12.738 92.3617 13.0801 92.3617 13.5022V15.2876C92.3617 15.7096 92.0196 16.0518 91.5975 16.0518H90.6618C90.1955 16.0518 89.758 15.9836 89.3492 15.8474C89.1184 15.7649 88.8935 15.6612 88.6745 15.5361C88.3807 15.3683 88.0155 15.369 87.7211 15.5356C87.1129 15.8797 86.4577 16.0518 85.7557 16.0518H84.1741L84.2048 12.738H85.7557C85.9637 12.738 86.1466 12.6591 86.3044 12.5013C86.4622 12.3435 86.5411 12.1606 86.5411 11.9526V6.76406C86.5411 6.4427 86.7421 6.15567 87.0441 6.04585L88.8295 5.39663Z" fill="white"/>
<path d="M106.346 5.39663C106.844 5.21539 107.371 5.5845 107.371 6.11484V11.9526C107.371 13.1289 106.952 14.108 106.112 14.8898C105.28 15.6788 104.28 16.0733 103.111 16.0733C102.36 16.0733 101.664 15.8969 101.023 15.5441C100.731 15.3834 100.372 15.3866 100.081 15.5492C99.8503 15.678 99.6086 15.7846 99.3557 15.8689C98.9325 16.0051 98.4627 16.0733 97.9463 16.0733C97.1954 16.0733 96.5018 15.897 95.8655 15.5443C95.5753 15.3834 95.2181 15.384 94.9284 15.5459C94.6997 15.6736 94.4648 15.7777 94.2237 15.8581C93.8148 15.9872 93.3917 16.0518 92.9541 16.0518H92.4165C91.9944 16.0518 91.6523 15.7096 91.6523 15.2876V13.5022C91.6523 13.0801 91.9944 12.738 92.4165 12.738H92.9541C93.0545 12.738 93.1514 12.8097 93.2446 12.9532C93.3379 13.0966 93.3163 13.1935 93.1801 13.2437C93.0509 13.2939 93.0474 13.2939 93.1693 13.2437C93.272 13.198 93.4359 13.2136 93.661 13.2905C93.7847 13.3327 93.8892 13.4162 93.9695 13.5193L94.1087 13.6983C94.1842 13.7955 94.2821 13.8729 94.394 13.9241L96.3579 14.8227C96.7739 15.0131 97.2628 14.7978 97.4032 14.3624L97.4776 14.1317C97.5368 13.9482 97.5184 13.7508 97.4567 13.5681C97.2698 13.0147 97.4401 12.738 97.9678 12.738C98.5847 12.738 98.9397 13.0357 99.033 13.631C99.1165 14.0933 99.6017 14.364 100.039 14.1923L101.763 13.5152C101.821 13.4925 101.884 13.4871 101.945 13.4997C102.184 13.549 102.366 13.308 102.443 13.0768C102.518 12.8509 102.748 12.738 103.132 12.738C103.749 12.738 104.057 12.4762 104.057 11.9526V6.76406C104.057 6.4427 104.258 6.15567 104.56 6.04585L106.346 5.39663ZM91.6738 12.7272H103.253C103.308 12.7272 103.373 12.7246 103.408 12.7684C103.425 12.7901 103.433 12.8194 103.433 12.8563V15.9765C103.433 16.0554 103.401 16.0948 103.337 16.0948L91.6879 16.0517C91.6305 16.0517 91.5877 16.0554 91.5877 15.9765V12.8563C91.5949 12.7703 91.6236 12.7272 91.6738 12.7272Z" fill="white"/>
<path d="M108.607 2.88005C108.607 2.55869 108.808 2.27167 109.11 2.16184L110.895 1.51262C111.394 1.33139 111.921 1.70049 111.921 2.23083V14.6665C111.921 14.9879 111.719 15.2749 111.417 15.3847L109.632 16.034C109.134 16.2152 108.607 15.8461 108.607 15.3157V2.88005Z" fill="white"/>
<rect x="121.258" y="3.96622" width="39.773" height="38.4022" rx="3.71852" stroke="#7DFF68" stroke-width="1.35285"/>
<rect x="124.547" y="0.676145" width="39.7736" height="38.4027" rx="3.7188" fill="#7DFF68" stroke="#1B1B1B" stroke-width="1.35229"/>
<path d="M154.928 30.4648C155.833 30.4648 156.566 29.7313 156.566 28.8264L156.566 23.0938C156.566 20.4501 156.327 18.2769 155.847 16.5741C155.382 14.8564 154.7 13.5794 153.801 12.743C153.471 12.4293 153.156 12.1605 152.856 11.9364C152.571 11.6974 152.271 11.4958 151.957 11.3315C151.642 11.1523 151.297 11.0029 150.922 10.8834C150.547 10.7639 150.12 10.6594 149.641 10.5697C149.191 10.4801 148.779 10.4129 148.404 10.3681C148.044 10.3233 147.677 10.2934 147.302 10.2785C146.927 10.2486 146.53 10.2337 146.11 10.2337C145.705 10.2187 145.233 10.2113 144.693 10.2113L135.156 10.2113C134.251 10.2113 133.518 10.9448 133.518 11.8497L133.518 28.8264C133.518 29.7313 134.251 30.4648 135.156 30.4648L138.805 30.4648C139.71 30.4648 140.444 29.7313 140.444 28.8264L140.444 18.8622C140.444 17.9574 141.177 17.2238 142.082 17.2238L144.851 17.2238C145.331 17.2238 145.743 17.2313 146.088 17.2462C146.432 17.2612 146.732 17.2985 146.987 17.3583C147.257 17.4031 147.497 17.4778 147.707 17.5823C147.932 17.6869 148.164 17.8288 148.404 18.008C148.883 18.3366 149.206 18.8892 149.371 19.6659C149.551 20.4277 149.641 21.4508 149.641 22.7353L149.641 28.8265C149.641 29.7313 150.374 30.4648 151.279 30.4648L154.928 30.4648Z" fill="#1B1B1B"/>
</svg>
