<svg width="211" height="60" viewBox="0 0 211 60" fill="none" xmlns="http://www.w3.org/2000/svg">
<path fill-rule="evenodd" clip-rule="evenodd" d="M9 2C4.58172 2 1 5.58172 1 10V35C1 39.4183 4.58172 43 9 43H176L194.5 59L187.5 43H202C206.418 43 210 39.4183 210 35V10C210 5.58172 206.418 2 202 2H9Z" fill="white"/>
<path d="M176 43L176.327 42.6218L176.186 42.5H176V43ZM194.5 59L194.173 59.3782L194.958 58.7996L194.5 59ZM187.5 43V42.5H186.735L187.042 43.2004L187.5 43ZM1.5 10C1.5 5.85786 4.85786 2.5 9 2.5V1.5C4.30558 1.5 0.5 5.30558 0.5 10H1.5ZM1.5 35V10H0.5V35H1.5ZM9 42.5C4.85786 42.5 1.5 39.1421 1.5 35H0.5C0.5 39.6944 4.30558 43.5 9 43.5V42.5ZM176 42.5H9V43.5H176V42.5ZM194.827 58.6218L176.327 42.6218L175.673 43.3782L194.173 59.3782L194.827 58.6218ZM187.042 43.2004L194.042 59.2004L194.958 58.7996L187.958 42.7996L187.042 43.2004ZM202 42.5H187.5V43.5H202V42.5ZM209.5 35C209.5 39.1421 206.142 42.5 202 42.5V43.5C206.694 43.5 210.5 39.6944 210.5 35H209.5ZM209.5 10V35H210.5V10H209.5ZM202 2.5C206.142 2.5 209.5 5.85786 209.5 10H210.5C210.5 5.30558 206.694 1.5 202 1.5V2.5ZM9 2.5H202V1.5H9V2.5Z" fill="#1B1B1B"/>
<path d="M43.688 28.8C42.148 29.8 39.998 30.3 37.238 30.3C34.378 30.3 32.228 29.51 30.788 27.93C29.348 26.33 28.628 24.1 28.628 21.24C28.628 18.1 29.338 15.67 30.758 13.95C32.178 12.23 34.378 11.37 37.358 11.37C39.458 11.37 41.198 11.61 42.578 12.09V14.55C41.078 14.03 39.418 13.77 37.598 13.77C35.398 13.77 33.798 14.41 32.798 15.69C31.798 16.97 31.298 18.82 31.298 21.24C31.298 25.66 33.308 27.87 37.328 27.87C38.048 27.87 38.768 27.81 39.488 27.69C40.228 27.55 40.878 27.37 41.438 27.15V21.87H36.848V19.98H43.688V28.8ZM58.5722 29.49C57.3722 30.03 55.9422 30.3 54.2822 30.3C51.9022 30.3 50.1222 29.71 48.9422 28.53C47.7822 27.35 47.2022 25.57 47.2022 23.19C47.2022 20.95 47.7222 19.23 48.7622 18.03C49.8022 16.81 51.3922 16.2 53.5322 16.2C55.3922 16.2 56.8322 16.72 57.8522 17.76C58.8722 18.78 59.3822 20.16 59.3822 21.9V24.24H49.6622C49.7622 25.7 50.2122 26.77 51.0122 27.45C51.8322 28.13 53.1322 28.47 54.9122 28.47C56.1122 28.47 57.3322 28.23 58.5722 27.75V29.49ZM50.5622 19.23C49.9622 20.01 49.6622 21.12 49.6622 22.56H57.0422V21.51C57.0422 20.41 56.7622 19.56 56.2022 18.96C55.6622 18.34 54.7922 18.03 53.5922 18.03C52.1722 18.03 51.1622 18.43 50.5622 19.23ZM70.7381 29.85C69.8781 30.15 69.0481 30.3 68.2481 30.3C66.9681 30.3 65.9781 29.94 65.2781 29.22C64.5781 28.48 64.2281 27.43 64.2281 26.07V18.66H62.2781V16.5H64.2281V13.11L66.8681 12.45V16.5H70.4081L70.3181 18.66H66.8681V25.95C66.8681 27.45 67.6381 28.2 69.1781 28.2C69.6981 28.2 70.2181 28.1 70.7381 27.9V29.85ZM85.3399 11.13V13.56H82.4299V11.13H85.3399ZM85.3399 16.5V30H82.6999V18.66H80.6899L80.8399 16.5H85.3399ZM94.2218 18.84C93.5618 19.14 92.9818 19.54 92.4818 20.04V30H89.8418V16.5H92.2418L92.3918 17.91C93.8518 16.77 95.5918 16.2 97.6118 16.2C99.1718 16.2 100.312 16.6 101.032 17.4C101.752 18.18 102.112 19.41 102.112 21.09V30H99.5318V21.39C99.5318 20.29 99.2918 19.52 98.8118 19.08C98.3518 18.62 97.5318 18.39 96.3518 18.39C95.6118 18.39 94.9018 18.54 94.2218 18.84ZM121.07 29.85C120.21 30.15 119.38 30.3 118.58 30.3C117.3 30.3 116.31 29.94 115.61 29.22C114.91 28.48 114.56 27.43 114.56 26.07V18.66H112.61V16.5H114.56V13.11L117.2 12.45V16.5H120.74L120.65 18.66H117.2V25.95C117.2 27.45 117.97 28.2 119.51 28.2C120.03 28.2 120.55 28.1 121.07 27.9V29.85ZM135.514 28.53C134.434 29.71 132.754 30.3 130.474 30.3C128.194 30.3 126.514 29.71 125.434 28.53C124.354 27.35 123.814 25.59 123.814 23.25C123.814 20.91 124.354 19.15 125.434 17.97C126.514 16.79 128.194 16.2 130.474 16.2C132.734 16.2 134.404 16.79 135.484 17.97C136.584 19.15 137.134 20.91 137.134 23.25C137.134 25.59 136.594 27.35 135.514 28.53ZM127.414 26.97C128.034 27.75 129.054 28.14 130.474 28.14C131.914 28.14 132.944 27.75 133.564 26.97C134.204 26.17 134.524 24.93 134.524 23.25C134.524 21.57 134.204 20.34 133.564 19.56C132.944 18.76 131.914 18.36 130.474 18.36C129.054 18.36 128.034 18.75 127.414 19.53C126.794 20.31 126.484 21.55 126.484 23.25C126.484 24.93 126.794 26.17 127.414 26.97ZM148.522 29.88C147.762 30.16 146.852 30.3 145.792 30.3C144.232 30.3 143.032 29.85 142.192 28.95C141.372 28.03 140.962 26.73 140.962 25.05V16.5H143.572V24.81C143.572 25.89 143.842 26.71 144.382 27.27C144.922 27.81 145.772 28.08 146.932 28.08C148.352 28.08 149.582 27.53 150.622 26.43V16.5H153.232V30H150.862L150.712 28.59C150.012 29.15 149.282 29.58 148.522 29.88ZM168.192 29.49C166.952 30.03 165.572 30.3 164.052 30.3C161.792 30.3 160.082 29.7 158.922 28.5C157.782 27.28 157.212 25.53 157.212 23.25C157.212 20.91 157.832 19.15 159.072 17.97C160.312 16.79 162.032 16.2 164.232 16.2C165.092 16.2 165.822 16.26 166.422 16.38C167.022 16.5 167.602 16.7 168.162 16.98V19.11C167.142 18.61 166.002 18.36 164.742 18.36C161.502 18.36 159.882 19.99 159.882 23.25C159.882 24.93 160.252 26.17 160.992 26.97C161.752 27.75 162.972 28.14 164.652 28.14C165.832 28.14 167.012 27.87 168.192 27.33V29.49ZM175.96 18.84C175.3 19.14 174.72 19.54 174.22 20.04V30H171.58V10.8H174.22V17.82C175.56 16.74 177.18 16.2 179.08 16.2C180.74 16.2 181.95 16.6 182.71 17.4C183.47 18.2 183.85 19.47 183.85 21.21V30H181.27V21.42C181.27 20.3 181.04 19.52 180.58 19.08C180.12 18.62 179.29 18.39 178.09 18.39C177.35 18.39 176.64 18.54 175.96 18.84Z" fill="#1B1B1B"/>
</svg>
