<svg width="152" height="50" viewBox="0 0 152 50" fill="none" xmlns="http://www.w3.org/2000/svg">
<path d="M53.2917 20.1596V10.2148C53.2917 9.91379 53.4789 9.64449 53.761 9.53952L55.9674 8.71853C56.4382 8.54336 56.9392 8.89152 56.9392 9.39381V17.0454H58.5211C58.919 17.0454 59.2416 17.368 59.2416 17.7659V20.0571C59.2416 20.4551 58.919 20.7776 58.5211 20.7776H56.9392V21.3957C56.9392 21.6784 56.8948 22.0056 56.8059 22.3772C56.717 22.7569 56.5595 23.2093 56.3333 23.7344C56.1233 24.2595 55.7799 24.7805 55.3033 25.2976C54.9209 25.7188 54.4709 26.0959 53.9534 26.4288C53.7169 26.5809 53.4122 26.5615 53.1842 26.397L51.7541 25.3655C51.2756 25.0203 51.3922 24.2452 51.8524 23.8759C52.8119 23.1061 53.2917 21.8674 53.2917 20.1596Z" fill="black"/>
<path d="M62.9824 8.70848C63.4523 8.5376 63.9492 8.8856 63.9492 9.38562V16.1608C63.9492 16.4193 64.034 16.6334 64.2036 16.803C64.3814 16.9646 64.5995 17.0454 64.858 17.0454H66.7625C67.1575 17.0454 67.4788 17.3634 67.483 17.7583L67.5071 20.0495C67.5113 20.4504 67.1875 20.7776 66.7866 20.7776H64.858C64.3329 20.7776 63.8401 20.7009 63.3796 20.5474C63.0878 20.4432 62.8044 20.3087 62.5294 20.144C62.2558 19.9801 61.9105 19.9807 61.6364 20.1438C60.926 20.5663 60.1579 20.7776 59.3323 20.7776H56.9392V17.0454H59.3323C59.5666 17.0454 59.7726 16.9565 59.9503 16.7788C60.128 16.6011 60.2169 16.3951 60.2169 16.1608V10.2188C60.2169 9.91581 60.4064 9.6452 60.6912 9.54166L62.9824 8.70848Z" fill="black"/>
<path d="M74.1147 8.70848C74.5847 8.5376 75.0815 8.8856 75.0815 9.38562V16.4274C75.0815 19.3276 73.5708 20.7776 70.5494 20.7776H66.2178C65.8199 20.7776 65.4973 20.4551 65.4973 20.0571V17.7659C65.4973 17.368 65.8199 17.0454 66.2179 17.0454H70.3313C70.509 17.0454 70.6625 17.0333 70.7918 17.009C70.921 16.9848 71.0261 16.9404 71.1068 16.8757C71.1957 16.8111 71.2563 16.7182 71.2886 16.597C71.329 16.4758 71.3492 16.3223 71.3492 16.1365V10.2188C71.3492 9.91581 71.5387 9.6452 71.8235 9.54166L74.1147 8.70848Z" fill="black"/>
<path d="M84.1545 21.6253C84.3818 21.2188 84.0387 20.7776 83.5729 20.7776H82.0868C80.6165 20.7776 79.3805 20.1192 78.3788 18.8024C77.886 18.1319 77.5144 17.4453 77.2639 16.7424C77.0135 16.0396 76.8883 15.3045 76.8883 14.537C76.8883 13.7453 76.965 13.0223 77.1185 12.3679C77.2801 11.7055 77.5507 11.0511 77.9304 10.4048C78.3182 9.76663 78.8918 9.26577 79.6511 8.90223C80.4186 8.5387 81.3476 8.35693 82.4383 8.35693H87.5222C87.9201 8.35693 88.2427 8.67952 88.2427 9.07745V17.0454H89.7882C90.1861 17.0454 90.5087 17.368 90.5087 17.7659V20.0571C90.5087 20.4551 90.1861 20.7776 89.7882 20.7776H88.208C88.208 21.1169 88.17 21.5047 88.0246 21.941C87.8872 22.3772 87.657 22.87 87.3339 23.4193C87.1723 23.7021 86.9663 23.9889 86.7158 24.2797C86.4654 24.5705 86.1746 24.8533 85.8434 25.1279C85.5121 25.4026 85.1446 25.6611 84.7406 25.9035C84.4281 26.091 84.0986 26.264 83.7523 26.4225C83.5583 26.5113 83.3344 26.5014 83.1448 26.4037L81.0888 25.3448C80.5019 25.0425 80.5912 24.1502 81.2023 23.9005C82.6543 23.3069 83.6384 22.5485 84.1545 21.6253ZM84.5104 12.8097C84.5104 12.4118 84.1878 12.0892 83.7899 12.0892H82.4383C81.2265 12.0892 80.6206 12.9051 80.6206 14.537C80.6206 14.8521 80.665 15.159 80.7539 15.4579C80.8427 15.7569 80.968 16.0275 81.1295 16.2698C81.2911 16.5041 81.4809 16.694 81.6991 16.8394C81.9253 16.9767 82.1717 17.0454 82.4383 17.0454H83.7899C84.1878 17.0454 84.5104 16.7228 84.5104 16.3249V12.8097Z" fill="black"/>
<path d="M94.8392 8.70848C95.3091 8.5376 95.8059 8.8856 95.8059 9.38562V16.4274C95.8059 19.3276 94.2952 20.7776 91.2739 20.7776H88.208L88.2427 17.0454H91.0557C91.2335 17.0454 91.387 17.0333 91.5162 17.009C91.6455 16.9848 91.7505 16.9404 91.8313 16.8757C91.9201 16.8111 91.9807 16.7182 92.0131 16.597C92.0534 16.4758 92.0736 16.3223 92.0736 16.1365V10.2188C92.0736 9.91581 92.2632 9.6452 92.5479 9.54166L94.8392 8.70848Z" fill="black"/>
<path d="M15.0465 10.3092C15.0465 10.1031 15.1754 9.9191 15.3691 9.84873L18.0507 8.87449C18.3702 8.75841 18.7079 8.99503 18.7079 9.33496V16.5458C18.7079 19.3884 17.218 20.8097 14.2381 20.8097H4.66862C1.70464 20.8097 0.222656 19.3884 0.222656 16.5458V10.3092C0.222656 10.1031 0.3516 9.9191 0.545278 9.84873L3.22683 8.87449C3.54632 8.75841 3.88404 8.99503 3.88404 9.33496V16.237C3.88404 16.6092 3.96725 16.8546 4.13368 16.9734C4.3001 17.0922 4.54974 17.1516 4.8826 17.1516H14.0598C14.3927 17.1516 14.6384 17.0922 14.7969 16.9734C14.9633 16.8546 15.0465 16.6092 15.0465 16.237V10.3092Z" fill="black"/>
<path d="M27.3635 12.7838C27.3635 12.5132 27.1441 12.2938 26.8735 12.2938H25.3307C24.1419 12.2938 23.5475 13.0936 23.5475 14.693C23.5475 15.0018 23.5911 15.3027 23.6783 15.5957C23.7655 15.8886 23.8883 16.1539 24.0468 16.3914C24.2053 16.621 24.3916 16.8071 24.6055 16.9496C24.8274 17.0842 25.0691 17.1516 25.3307 17.1516H26.8735C27.1441 17.1516 27.3635 16.9322 27.3635 16.6616V12.7838ZM25.8775 20.8097H24.9027C23.5396 20.8097 22.3548 20.1644 21.3483 18.8737C20.3735 17.5752 19.8862 16.1816 19.8862 14.693C19.8862 13.917 19.9614 13.2084 20.112 12.567C20.2705 11.9177 20.536 11.2764 20.9085 10.6429C21.2889 10.0174 21.8516 9.52649 22.5965 9.17018C23.3494 8.81387 24.2608 8.63572 25.3307 8.63572H30.5349C30.8055 8.63572 31.0248 8.85506 31.0248 9.12563V20.8097C31.0248 21.1422 30.9535 21.5223 30.8109 21.9499C30.6761 22.3775 30.4503 22.8604 30.1333 23.3989C29.9748 23.676 29.7727 23.9571 29.527 24.2421C29.2813 24.5272 28.996 24.8043 28.6711 25.0735C28.3462 25.3428 27.9856 25.5961 27.5893 25.8337C27.255 26.0341 26.901 26.2176 26.5272 26.3841C26.3948 26.4432 26.2429 26.4367 26.114 26.3704L23.4953 25.0228C23.0974 24.818 23.1573 24.22 23.579 24.0704C24.7965 23.6388 25.6934 23.1259 26.2698 22.5318C26.8431 21.9413 27.1404 21.6965 27.2545 21.2948C27.3284 21.0346 27.0917 20.8097 26.8211 20.8097H25.8775Z" fill="black"/>
<path d="M33.8637 20.204V10.3065C33.8637 10.1018 33.991 9.91862 34.1828 9.84728L36.7812 8.88131C37.1013 8.76232 37.4418 8.99905 37.4418 9.34052V16.6616C37.4418 16.9322 37.6612 17.1516 37.9317 17.1516H39.2105C39.4811 17.1516 39.7005 17.3709 39.7005 17.6415V20.3198C39.7005 20.5903 39.4811 20.8097 39.2105 20.8097H37.9317C37.6612 20.8097 37.4418 21.029 37.4418 21.2996V21.4154C37.4418 21.6925 37.3982 22.0132 37.3111 22.3775C37.2239 22.7496 37.0693 23.193 36.8474 23.7077C36.6414 24.2223 36.3046 24.7331 35.837 25.2398C35.4332 25.6843 34.9526 26.0786 34.3951 26.4226C34.2325 26.523 34.0259 26.5104 33.8709 26.3987L32.0092 25.057C31.6836 24.8223 31.7611 24.3022 32.1029 24.0918C33.2767 23.3691 33.8637 22.0731 33.8637 20.204Z" fill="black"/>
<path d="M39.0549 20.8097C38.7844 20.8097 38.565 20.5903 38.565 20.3198V17.6415C38.565 17.3709 38.7844 17.1516 39.0549 17.1516H43.7123C43.9976 17.1516 44.2552 17.108 44.485 17.0209C44.7228 16.9338 44.9249 16.8111 45.0913 16.6527C45.2577 16.4944 45.3845 16.3083 45.4717 16.0945C45.5589 15.8728 45.6025 15.6313 45.6025 15.37C45.6025 14.7999 45.2221 14.2417 44.4613 13.6953C43.7489 13.1784 42.6783 12.7395 41.2495 12.3785C41.0947 12.3394 40.967 12.2292 40.9082 12.0808L39.9126 9.56569C39.8168 9.32384 39.9268 9.04933 40.163 8.94044L49.6625 4.56158C49.9871 4.41195 50.3575 4.64907 50.3575 5.0065V7.71646C50.3575 7.90758 50.2464 8.08126 50.0728 8.16132L46.4443 9.83521C46.0756 10.0053 46.0597 10.5298 46.4017 10.7487C48.3098 11.9696 49.2639 13.4586 49.2639 15.2156C49.2639 16.7754 48.7567 18.1017 47.7422 19.1944C46.7516 20.2713 45.4083 20.8097 43.7123 20.8097H39.0549Z" fill="black"/>
<path d="M40.4175 6.67757C40.2107 6.78655 40.1374 7.04653 40.2569 7.24742L40.6215 7.86056C40.7331 8.04821 40.9726 8.11488 41.165 8.01161C41.3673 7.90298 41.5668 7.79559 41.7635 7.68942C42.0779 7.5172 42.4023 7.34552 42.737 7.17439C43.0716 7.00325 43.4269 6.82647 43.8028 6.64404C44.1791 6.45488 44.5934 6.25088 45.0459 6.03203C45.4983 5.81319 46.0026 5.57687 46.5586 5.32306C47.0172 5.11373 47.5207 4.88385 48.0691 4.63341C48.2679 4.5426 48.36 4.31122 48.2779 4.10862L48.0085 3.44417C47.9217 3.23017 47.6748 3.13063 47.4641 3.22506C46.5951 3.6145 45.8235 3.96799 45.1495 4.28554C44.3778 4.64258 43.6888 4.97367 43.0825 5.2788C42.483 5.5843 41.9389 5.86913 41.4501 6.13329L40.4175 6.67757Z" fill="black"/>
<rect x="91.918" y="2.98584" width="3.87851" height="3.87849" rx="1.22479" fill="black"/>
<rect x="59.8301" y="2.98584" width="3.87851" height="3.87849" rx="1.22479" fill="black"/>
<rect x="3.73438" y="22.0923" width="3.87851" height="3.87849" rx="1.22479" fill="black"/>
<rect x="65.7891" y="22.0923" width="8.00198" height="3.87849" rx="1.22479" fill="black"/>
<rect x="8.50977" y="22.0803" width="8.32859" height="3.87849" rx="1.22479" fill="black"/>
<path d="M8.67489 43.5785C8.67489 43.6705 8.6588 43.7486 8.62662 43.813C8.59904 43.8773 8.55997 43.9302 8.5094 43.9716C8.46343 44.013 8.41056 44.0428 8.3508 44.0612C8.29104 44.0796 8.23128 44.0888 8.17151 44.0888H7.79226C7.67273 44.0888 7.567 44.0773 7.47506 44.0543C7.38772 44.0267 7.30267 43.9808 7.21992 43.9164C7.14177 43.8475 7.06133 43.7555 6.97858 43.6406C6.90043 43.5257 6.81308 43.3786 6.71655 43.1993L3.90315 38.1241C3.75604 37.8621 3.60664 37.5886 3.45494 37.3035C3.30783 37.0139 3.16992 36.7335 3.0412 36.4623H3.02741C3.0366 36.7933 3.0435 37.1312 3.0481 37.4759C3.05269 37.8207 3.05499 38.1632 3.05499 38.5034V43.8888C3.05499 43.921 3.0458 43.9532 3.02741 43.9854C3.00902 44.013 2.97684 44.0359 2.93087 44.0543C2.8895 44.0681 2.83204 44.0796 2.75848 44.0888C2.68953 44.1026 2.59988 44.1095 2.48955 44.1095C2.37923 44.1095 2.28728 44.1026 2.21373 44.0888C2.14478 44.0796 2.08961 44.0681 2.04824 44.0543C2.00686 44.0359 1.97698 44.013 1.95859 43.9854C1.94021 43.9532 1.93101 43.921 1.93101 43.8888V35.6555C1.93101 35.4716 1.98158 35.3406 2.08272 35.2625C2.18385 35.1843 2.29418 35.1452 2.4137 35.1452H2.97914C3.11246 35.1452 3.22278 35.1567 3.31013 35.1797C3.40207 35.2027 3.48252 35.2418 3.55147 35.2969C3.62503 35.3475 3.69398 35.4211 3.75834 35.5176C3.8273 35.6095 3.90085 35.7268 3.979 35.8693L6.14421 39.786C6.27753 40.025 6.40625 40.2595 6.53037 40.4893C6.65449 40.7146 6.77401 40.9375 6.88894 41.1582C7.00386 41.3788 7.11649 41.5972 7.22682 41.8133C7.34175 42.0247 7.45437 42.2385 7.5647 42.4545H7.5716C7.5624 42.0914 7.55551 41.7144 7.55091 41.3237C7.55091 40.9283 7.55091 40.5491 7.55091 40.1859V35.3452C7.55091 35.313 7.56011 35.2831 7.57849 35.2556C7.59688 35.228 7.62676 35.205 7.66814 35.1866C7.71411 35.1636 7.77157 35.1475 7.84053 35.1383C7.91408 35.1291 8.00832 35.1245 8.12325 35.1245C8.22438 35.1245 8.31172 35.1291 8.38528 35.1383C8.45883 35.1475 8.51629 35.1636 8.55767 35.1866C8.59904 35.205 8.62892 35.228 8.64731 35.2556C8.6657 35.2831 8.67489 35.313 8.67489 35.3452V43.5785ZM17.5349 40.7238C17.5349 41.2294 17.4682 41.696 17.3349 42.1236C17.2016 42.5465 17.0016 42.912 16.735 43.22C16.473 43.528 16.142 43.7693 15.742 43.944C15.3467 44.1141 14.887 44.1991 14.3629 44.1991C13.8526 44.1991 13.4067 44.1233 13.0252 43.9716C12.6482 43.8199 12.3333 43.5992 12.0805 43.3096C11.8276 43.02 11.6392 42.6683 11.515 42.2546C11.3909 41.8408 11.3289 41.3719 11.3289 40.8479C11.3289 40.3422 11.3932 39.8779 11.5219 39.455C11.6553 39.0274 11.8529 38.6597 12.115 38.3517C12.3816 38.0437 12.7126 37.8046 13.1079 37.6345C13.5033 37.4644 13.9653 37.3794 14.4939 37.3794C15.0042 37.3794 15.4478 37.4553 15.8248 37.607C16.2063 37.7587 16.5235 37.9793 16.7764 38.2689C17.0292 38.5585 17.2177 38.9102 17.3418 39.324C17.4705 39.7377 17.5349 40.2043 17.5349 40.7238ZM16.3351 40.7996C16.3351 40.464 16.3029 40.1468 16.2385 39.848C16.1788 39.5492 16.0776 39.2872 15.9351 39.0619C15.7926 38.8367 15.5995 38.6597 15.3559 38.531C15.1122 38.3976 14.8088 38.331 14.4457 38.331C14.1101 38.331 13.8205 38.3908 13.5768 38.5103C13.3378 38.6298 13.1401 38.7999 12.9838 39.0205C12.8275 39.2366 12.7103 39.494 12.6321 39.7929C12.5586 40.0917 12.5218 40.4181 12.5218 40.772C12.5218 41.1122 12.5517 41.4317 12.6114 41.7305C12.6758 42.0293 12.7792 42.2914 12.9217 42.5166C13.0688 42.7373 13.2642 42.9143 13.5079 43.0476C13.7515 43.1763 14.0549 43.2406 14.4181 43.2406C14.7491 43.2406 15.0364 43.1809 15.28 43.0614C15.5237 42.9418 15.7236 42.774 15.8799 42.558C16.0362 42.3419 16.1512 42.0845 16.2247 41.7857C16.2983 41.4869 16.3351 41.1582 16.3351 40.7996ZM25.0778 37.6759C25.0778 37.6943 25.0755 37.715 25.0709 37.738C25.0709 37.7564 25.0686 37.777 25.064 37.8C25.0594 37.823 25.0525 37.8483 25.0434 37.8759C25.0388 37.9035 25.0319 37.9333 25.0227 37.9655L22.9057 43.8612C22.8873 43.9118 22.862 43.9532 22.8299 43.9854C22.8023 44.0175 22.7586 44.0428 22.6989 44.0612C22.6391 44.0796 22.5632 44.0911 22.4713 44.0957C22.3794 44.1049 22.2644 44.1095 22.1265 44.1095C21.9886 44.1095 21.8737 44.1049 21.7817 44.0957C21.6898 44.0865 21.6139 44.0727 21.5542 44.0543C21.499 44.0359 21.4553 44.0107 21.4232 43.9785C21.391 43.9463 21.3657 43.9072 21.3473 43.8612L19.2373 37.9655C19.2189 37.9104 19.2028 37.8621 19.189 37.8207C19.1798 37.7793 19.1729 37.7495 19.1683 37.7311C19.1683 37.7081 19.1683 37.6897 19.1683 37.6759C19.1683 37.6391 19.1775 37.607 19.1959 37.5794C19.2143 37.5518 19.2442 37.5311 19.2855 37.5173C19.3315 37.4989 19.389 37.4874 19.4579 37.4828C19.5315 37.4782 19.6211 37.4759 19.7269 37.4759C19.8602 37.4759 19.9659 37.4805 20.0441 37.4897C20.1268 37.4943 20.1889 37.5058 20.2302 37.5242C20.2762 37.5426 20.3084 37.5656 20.3268 37.5932C20.3498 37.6207 20.3704 37.6552 20.3888 37.6966L22.1403 42.8131L22.1679 42.8959L22.1886 42.8131L23.9194 37.6966C23.9286 37.6552 23.9447 37.6207 23.9676 37.5932C23.9906 37.5656 24.0228 37.5426 24.0642 37.5242C24.1101 37.5058 24.1699 37.4943 24.2435 37.4897C24.3216 37.4805 24.4227 37.4759 24.5469 37.4759C24.6526 37.4759 24.7399 37.4782 24.8089 37.4828C24.8779 37.4874 24.9307 37.4989 24.9675 37.5173C25.0089 37.5357 25.0365 37.5587 25.0502 37.5863C25.0686 37.6093 25.0778 37.6391 25.0778 37.6759ZM28.3593 43.8957C28.3593 43.9325 28.3501 43.9647 28.3317 43.9923C28.3133 44.0152 28.2834 44.0359 28.2421 44.0543C28.2007 44.0727 28.1432 44.0865 28.0697 44.0957C27.9961 44.1049 27.9019 44.1095 27.787 44.1095C27.6766 44.1095 27.5847 44.1049 27.5111 44.0957C27.4376 44.0865 27.3778 44.0727 27.3319 44.0543C27.2905 44.0359 27.2606 44.0152 27.2422 43.9923C27.2284 43.9647 27.2215 43.9325 27.2215 43.8957V37.6897C27.2215 37.6575 27.2284 37.6276 27.2422 37.6001C27.2606 37.5725 27.2905 37.5495 27.3319 37.5311C27.3778 37.5127 27.4376 37.4989 27.5111 37.4897C27.5847 37.4805 27.6766 37.4759 27.787 37.4759C27.9019 37.4759 27.9961 37.4805 28.0697 37.4897C28.1432 37.4989 28.2007 37.5127 28.2421 37.5311C28.2834 37.5495 28.3133 37.5725 28.3317 37.6001C28.3501 37.6276 28.3593 37.6575 28.3593 37.6897V43.8957ZM28.4903 35.5934C28.4903 35.8601 28.4397 36.0417 28.3386 36.1382C28.2375 36.2347 28.0513 36.283 27.7801 36.283C27.5134 36.283 27.3296 36.237 27.2284 36.1451C27.1319 36.0486 27.0836 35.8693 27.0836 35.6072C27.0836 35.3406 27.1342 35.159 27.2353 35.0625C27.3365 34.9659 27.5226 34.9177 27.7939 34.9177C28.0605 34.9177 28.2421 34.9659 28.3386 35.0625C28.4397 35.1544 28.4903 35.3314 28.4903 35.5934ZM36.6539 43.8957C36.6539 43.9325 36.6447 43.9647 36.6263 43.9923C36.6079 44.0152 36.578 44.0359 36.5366 44.0543C36.4953 44.0727 36.4378 44.0865 36.3642 44.0957C36.2907 44.1049 36.1987 44.1095 36.0884 44.1095C35.9735 44.1095 35.8793 44.1049 35.8057 44.0957C35.7321 44.0865 35.6747 44.0727 35.6333 44.0543C35.5919 44.0359 35.5621 44.0152 35.5437 43.9923C35.5253 43.9647 35.5161 43.9325 35.5161 43.8957V40.2618C35.5161 39.9078 35.4885 39.6228 35.4333 39.4067C35.3782 39.1906 35.2977 39.0045 35.192 38.8482C35.0863 38.6919 34.9484 38.5723 34.7783 38.4896C34.6128 38.4068 34.4197 38.3655 34.199 38.3655C33.914 38.3655 33.629 38.4666 33.344 38.6689C33.059 38.8711 32.7602 39.1677 32.4476 39.5584V43.8957C32.4476 43.9325 32.4384 43.9647 32.42 43.9923C32.4016 44.0152 32.3717 44.0359 32.3303 44.0543C32.289 44.0727 32.2315 44.0865 32.1579 44.0957C32.0844 44.1049 31.9901 44.1095 31.8752 44.1095C31.7649 44.1095 31.6729 44.1049 31.5994 44.0957C31.5258 44.0865 31.4661 44.0727 31.4201 44.0543C31.3787 44.0359 31.3489 44.0152 31.3305 43.9923C31.3167 43.9647 31.3098 43.9325 31.3098 43.8957V37.6897C31.3098 37.6529 31.3167 37.623 31.3305 37.6001C31.3443 37.5725 31.3718 37.5495 31.4132 37.5311C31.4546 37.5081 31.5075 37.4943 31.5718 37.4897C31.6362 37.4805 31.7212 37.4759 31.8269 37.4759C31.9281 37.4759 32.0108 37.4805 32.0752 37.4897C32.1441 37.4943 32.197 37.5081 32.2338 37.5311C32.2706 37.5495 32.2958 37.5725 32.3096 37.6001C32.328 37.623 32.3372 37.6529 32.3372 37.6897V38.5103C32.6866 38.1195 33.0337 37.8345 33.3785 37.6552C33.7278 37.4713 34.0795 37.3794 34.4335 37.3794C34.8472 37.3794 35.1943 37.4507 35.4747 37.5932C35.7597 37.7311 35.9896 37.9173 36.1643 38.1517C36.339 38.3862 36.4631 38.662 36.5366 38.9792C36.6148 39.2918 36.6539 39.6687 36.6539 40.1101V43.8957ZM44.8726 40.5238C44.8726 40.7031 44.8266 40.8318 44.7347 40.9099C44.6473 40.9835 44.5462 41.0203 44.4312 41.0203H40.3629C40.3629 41.365 40.3973 41.6753 40.4663 41.9512C40.5352 42.227 40.6502 42.4637 40.8111 42.6614C40.972 42.8591 41.1811 43.0108 41.4386 43.1165C41.696 43.2223 42.0109 43.2751 42.3833 43.2751C42.6775 43.2751 42.9395 43.2521 43.1694 43.2062C43.3992 43.1556 43.5969 43.1004 43.7624 43.0407C43.9325 42.9809 44.0704 42.928 44.1761 42.8821C44.2864 42.8315 44.3692 42.8062 44.4244 42.8062C44.4565 42.8062 44.4841 42.8154 44.5071 42.8338C44.5347 42.8476 44.5554 42.8706 44.5692 42.9028C44.5829 42.9349 44.5921 42.9809 44.5967 43.0407C44.6059 43.0958 44.6105 43.1648 44.6105 43.2475C44.6105 43.3073 44.6082 43.3602 44.6036 43.4061C44.599 43.4475 44.5921 43.4866 44.5829 43.5234C44.5784 43.5555 44.5669 43.5854 44.5485 43.613C44.5347 43.6406 44.514 43.6682 44.4864 43.6958C44.4634 43.7187 44.3899 43.7601 44.2658 43.8199C44.1416 43.875 43.9807 43.9302 43.7831 43.9854C43.5854 44.0405 43.3555 44.0888 43.0935 44.1302C42.8361 44.1761 42.5602 44.1991 42.266 44.1991C41.7558 44.1991 41.3075 44.1279 40.9214 43.9854C40.5398 43.8429 40.218 43.6314 39.956 43.351C39.694 43.0706 39.4963 42.7189 39.363 42.296C39.2297 41.873 39.163 41.3811 39.163 40.8203C39.163 40.287 39.232 39.8089 39.3699 39.386C39.5078 38.9585 39.7055 38.5976 39.9629 38.3034C40.2249 38.0046 40.5398 37.777 40.9076 37.6207C41.2754 37.4598 41.6868 37.3794 42.1419 37.3794C42.6292 37.3794 43.0429 37.4575 43.3831 37.6138C43.7279 37.7701 44.0106 37.9816 44.2313 38.2482C44.4519 38.5103 44.6128 38.8206 44.714 39.1791C44.8197 39.5331 44.8726 39.9124 44.8726 40.3169V40.5238ZM43.7279 40.1859C43.7417 39.5883 43.6084 39.1194 43.328 38.7792C43.0521 38.439 42.6407 38.2689 42.0936 38.2689C41.8132 38.2689 41.5673 38.3218 41.3558 38.4275C41.1444 38.5333 40.9674 38.6735 40.8249 38.8482C40.6823 39.0228 40.572 39.2274 40.4939 39.4619C40.4157 39.6917 40.372 39.9331 40.3629 40.1859H43.7279ZM51.0847 38.0965C51.0847 38.1977 51.0824 38.2827 51.0778 38.3517C51.0732 38.4206 51.064 38.4758 51.0502 38.5172C51.0364 38.5539 51.018 38.5838 50.995 38.6068C50.9766 38.6252 50.949 38.6344 50.9123 38.6344C50.8755 38.6344 50.8295 38.6252 50.7744 38.6068C50.7238 38.5838 50.664 38.5631 50.5951 38.5448C50.5307 38.5218 50.4572 38.5011 50.3744 38.4827C50.2917 38.4643 50.202 38.4551 50.1055 38.4551C49.9906 38.4551 49.8779 38.4781 49.7676 38.5241C49.6573 38.57 49.54 38.6459 49.4159 38.7516C49.2964 38.8574 49.17 38.9976 49.0367 39.1723C48.9034 39.3469 48.7562 39.5607 48.5954 39.8135V43.8957C48.5954 43.9325 48.5862 43.9647 48.5678 43.9923C48.5494 44.0152 48.5195 44.0359 48.4781 44.0543C48.4368 44.0727 48.3793 44.0865 48.3057 44.0957C48.2322 44.1049 48.1379 44.1095 48.023 44.1095C47.9127 44.1095 47.8207 44.1049 47.7472 44.0957C47.6736 44.0865 47.6139 44.0727 47.5679 44.0543C47.5265 44.0359 47.4967 44.0152 47.4783 43.9923C47.4645 43.9647 47.4576 43.9325 47.4576 43.8957V37.6897C47.4576 37.6529 47.4645 37.623 47.4783 37.6001C47.4921 37.5725 47.5196 37.5495 47.561 37.5311C47.6024 37.5081 47.6553 37.4943 47.7196 37.4897C47.784 37.4805 47.869 37.4759 47.9748 37.4759C48.0759 37.4759 48.1586 37.4805 48.223 37.4897C48.2919 37.4943 48.3448 37.5081 48.3816 37.5311C48.4184 37.5495 48.4436 37.5725 48.4574 37.6001C48.4758 37.623 48.485 37.6529 48.485 37.6897V38.593C48.6551 38.3448 48.8137 38.1425 48.9608 37.9862C49.1125 37.8299 49.255 37.7081 49.3883 37.6207C49.5217 37.5288 49.6527 37.4667 49.7814 37.4346C49.9147 37.3978 50.048 37.3794 50.1813 37.3794C50.2411 37.3794 50.3078 37.384 50.3813 37.3932C50.4595 37.3978 50.5399 37.4093 50.6227 37.4277C50.7054 37.4461 50.779 37.4667 50.8433 37.4897C50.9123 37.5127 50.9605 37.5357 50.9881 37.5587C51.0157 37.5817 51.0341 37.6047 51.0433 37.6276C51.0525 37.646 51.0594 37.6713 51.064 37.7035C51.0732 37.7357 51.0778 37.7839 51.0778 37.8483C51.0824 37.9081 51.0847 37.9908 51.0847 38.0965ZM64.1088 36.3589C64.1088 36.4462 64.1042 36.5243 64.095 36.5933C64.0858 36.6577 64.072 36.7128 64.0536 36.7588C64.0352 36.8002 64.0122 36.8301 63.9846 36.8484C63.9571 36.8668 63.9272 36.876 63.895 36.876C63.8398 36.876 63.7479 36.8324 63.6192 36.745C63.4905 36.6577 63.3181 36.5611 63.102 36.4554C62.8859 36.3497 62.6262 36.2531 62.3228 36.1658C62.024 36.0784 61.6677 36.0348 61.254 36.0348C60.7621 36.0348 60.3208 36.1244 59.93 36.3037C59.5393 36.483 59.2083 36.7312 58.9371 37.0484C58.6658 37.3656 58.4567 37.7426 58.3096 38.1793C58.1671 38.616 58.0958 39.0895 58.0958 39.5998C58.0958 40.1698 58.174 40.6755 58.3303 41.1168C58.4912 41.5581 58.7118 41.9305 58.9922 42.2339C59.2727 42.5373 59.6059 42.7671 59.9921 42.9234C60.3828 43.0797 60.8104 43.1579 61.2747 43.1579C61.5505 43.1579 61.8286 43.1257 62.109 43.0614C62.3941 42.9924 62.6584 42.8913 62.902 42.758V40.1583H60.8334C60.7552 40.1583 60.6954 40.1192 60.6541 40.0411C60.6173 39.9629 60.5989 39.8411 60.5989 39.6756C60.5989 39.5883 60.6035 39.5147 60.6127 39.455C60.6219 39.3906 60.6357 39.34 60.6541 39.3033C60.6771 39.2619 60.7023 39.232 60.7299 39.2136C60.7575 39.1952 60.792 39.186 60.8334 39.186H63.6674C63.718 39.186 63.7686 39.1952 63.8191 39.2136C63.8697 39.232 63.9157 39.2596 63.9571 39.2964C63.9984 39.3331 64.0306 39.3837 64.0536 39.4481C64.0766 39.5124 64.0881 39.586 64.0881 39.6687V43.0683C64.0881 43.1878 64.0674 43.2912 64.026 43.3786C63.9846 43.4659 63.8973 43.5441 63.764 43.613C63.6307 43.6774 63.4583 43.7486 63.2468 43.8268C63.0353 43.9049 62.817 43.9716 62.5917 44.0267C62.3665 44.0819 62.1389 44.1233 61.9091 44.1509C61.6792 44.1784 61.4517 44.1922 61.2264 44.1922C60.5368 44.1922 59.9208 44.0865 59.3784 43.875C58.8359 43.659 58.3762 43.3533 57.9993 42.9579C57.6269 42.5626 57.3419 42.0891 57.1442 41.5374C56.9465 40.9858 56.8477 40.3698 56.8477 39.6894C56.8477 38.9815 56.9534 38.3402 57.1649 37.7656C57.381 37.1909 57.6821 36.7013 58.0682 36.2968C58.459 35.8923 58.9256 35.5797 59.468 35.359C60.0151 35.1337 60.6196 35.0211 61.2816 35.0211C61.6218 35.0211 61.9412 35.051 62.2401 35.1108C62.5389 35.1705 62.8032 35.2418 63.033 35.3245C63.2675 35.4027 63.4629 35.49 63.6192 35.5865C63.7801 35.6785 63.8904 35.7543 63.9502 35.8141C64.0099 35.8739 64.0513 35.9428 64.0743 36.021C64.0973 36.0991 64.1088 36.2117 64.1088 36.3589ZM70.6587 38.0965C70.6587 38.1977 70.6564 38.2827 70.6518 38.3517C70.6472 38.4206 70.638 38.4758 70.6243 38.5172C70.6105 38.5539 70.5921 38.5838 70.5691 38.6068C70.5507 38.6252 70.5231 38.6344 70.4863 38.6344C70.4496 38.6344 70.4036 38.6252 70.3484 38.6068C70.2979 38.5838 70.2381 38.5631 70.1691 38.5448C70.1048 38.5218 70.0312 38.5011 69.9485 38.4827C69.8657 38.4643 69.7761 38.4551 69.6796 38.4551C69.5646 38.4551 69.452 38.4781 69.3417 38.5241C69.2313 38.57 69.1141 38.6459 68.99 38.7516C68.8705 38.8574 68.7441 38.9976 68.6107 39.1723C68.4774 39.3469 68.3303 39.5607 68.1694 39.8135V43.8957C68.1694 43.9325 68.1602 43.9647 68.1418 43.9923C68.1235 44.0152 68.0936 44.0359 68.0522 44.0543C68.0108 44.0727 67.9534 44.0865 67.8798 44.0957C67.8063 44.1049 67.712 44.1095 67.5971 44.1095C67.4868 44.1095 67.3948 44.1049 67.3213 44.0957C67.2477 44.0865 67.188 44.0727 67.142 44.0543C67.1006 44.0359 67.0707 44.0152 67.0523 43.9923C67.0386 43.9647 67.0317 43.9325 67.0317 43.8957V37.6897C67.0317 37.6529 67.0386 37.623 67.0523 37.6001C67.0661 37.5725 67.0937 37.5495 67.1351 37.5311C67.1765 37.5081 67.2293 37.4943 67.2937 37.4897C67.358 37.4805 67.4431 37.4759 67.5488 37.4759C67.65 37.4759 67.7327 37.4805 67.7971 37.4897C67.866 37.4943 67.9189 37.5081 67.9557 37.5311C67.9924 37.5495 68.0177 37.5725 68.0315 37.6001C68.0499 37.623 68.0591 37.6529 68.0591 37.6897V38.593C68.2292 38.3448 68.3878 38.1425 68.5349 37.9862C68.6866 37.8299 68.8291 37.7081 68.9624 37.6207C69.0957 37.5288 69.2267 37.4667 69.3555 37.4346C69.4888 37.3978 69.6221 37.3794 69.7554 37.3794C69.8152 37.3794 69.8818 37.384 69.9554 37.3932C70.0335 37.3978 70.114 37.4093 70.1967 37.4277C70.2795 37.4461 70.353 37.4667 70.4174 37.4897C70.4863 37.5127 70.5346 37.5357 70.5622 37.5587C70.5898 37.5817 70.6082 37.6047 70.6174 37.6276C70.6266 37.646 70.6334 37.6713 70.638 37.7035C70.6472 37.7357 70.6518 37.7839 70.6518 37.8483C70.6564 37.9081 70.6587 37.9908 70.6587 38.0965ZM78.3396 40.7238C78.3396 41.2294 78.2729 41.696 78.1396 42.1236C78.0063 42.5465 77.8063 42.912 77.5397 43.22C77.2777 43.528 76.9467 43.7693 76.5467 43.944C76.1514 44.1141 75.6917 44.1991 75.1676 44.1991C74.6573 44.1991 74.2114 44.1233 73.8299 43.9716C73.4529 43.8199 73.138 43.5992 72.8852 43.3096C72.6323 43.02 72.4439 42.6683 72.3197 42.2546C72.1956 41.8408 72.1336 41.3719 72.1336 40.8479C72.1336 40.3422 72.1979 39.8779 72.3266 39.455C72.4599 39.0274 72.6576 38.6597 72.9197 38.3517C73.1863 38.0437 73.5173 37.8046 73.9126 37.6345C74.308 37.4644 74.77 37.3794 75.2986 37.3794C75.8089 37.3794 76.2525 37.4553 76.6295 37.607C77.011 37.7587 77.3282 37.9793 77.5811 38.2689C77.8339 38.5585 78.0224 38.9102 78.1465 39.324C78.2752 39.7377 78.3396 40.2043 78.3396 40.7238ZM77.1398 40.7996C77.1398 40.464 77.1076 40.1468 77.0432 39.848C76.9835 39.5492 76.8823 39.2872 76.7398 39.0619C76.5973 38.8367 76.4042 38.6597 76.1606 38.531C75.9169 38.3976 75.6135 38.331 75.2504 38.331C74.9148 38.331 74.6252 38.3908 74.3815 38.5103C74.1425 38.6298 73.9448 38.7999 73.7885 39.0205C73.6322 39.2366 73.515 39.494 73.4368 39.7929C73.3633 40.0917 73.3265 40.4181 73.3265 40.772C73.3265 41.1122 73.3564 41.4317 73.4161 41.7305C73.4805 42.0293 73.5839 42.2914 73.7264 42.5166C73.8735 42.7373 74.0689 42.9143 74.3126 43.0476C74.5562 43.1763 74.8596 43.2406 75.2228 43.2406C75.5538 43.2406 75.8411 43.1809 76.0847 43.0614C76.3284 42.9418 76.5283 42.774 76.6846 42.558C76.8409 42.3419 76.9559 42.0845 77.0294 41.7857C77.103 41.4869 77.1398 41.1582 77.1398 40.7996ZM86.179 43.8957C86.179 43.9325 86.1698 43.9647 86.1515 43.9923C86.1377 44.0152 86.1101 44.0359 86.0687 44.0543C86.0273 44.0727 85.9722 44.0865 85.9032 44.0957C85.8389 44.1049 85.7584 44.1095 85.6619 44.1095C85.5561 44.1095 85.4688 44.1049 85.3998 44.0957C85.3355 44.0865 85.2826 44.0727 85.2412 44.0543C85.2045 44.0359 85.1792 44.0152 85.1654 43.9923C85.1516 43.9647 85.1447 43.9325 85.1447 43.8957V43.0752C84.7907 43.4659 84.4413 43.7509 84.0966 43.9302C83.7518 44.1095 83.4024 44.1991 83.0484 44.1991C82.6347 44.1991 82.2853 44.1302 82.0003 43.9923C81.7199 43.8544 81.4923 43.6682 81.3177 43.4337C81.143 43.1947 81.0165 42.9189 80.9384 42.6063C80.8648 42.2891 80.8281 41.9052 80.8281 41.4547V37.6897C80.8281 37.6529 80.835 37.623 80.8488 37.6001C80.8671 37.5725 80.8993 37.5495 80.9453 37.5311C80.9913 37.5081 81.051 37.4943 81.1246 37.4897C81.1981 37.4805 81.2901 37.4759 81.4004 37.4759C81.5107 37.4759 81.6027 37.4805 81.6762 37.4897C81.7498 37.4943 81.8072 37.5081 81.8486 37.5311C81.8946 37.5495 81.9268 37.5725 81.9451 37.6001C81.9635 37.623 81.9727 37.6529 81.9727 37.6897V41.303C81.9727 41.6662 81.998 41.9581 82.0486 42.1787C82.1037 42.3948 82.1842 42.581 82.2899 42.7373C82.4003 42.889 82.5382 43.0085 82.7037 43.0958C82.8692 43.1786 83.0622 43.22 83.2829 43.22C83.5679 43.22 83.8506 43.1188 84.131 42.9166C84.4161 42.7143 84.7172 42.4178 85.0344 42.027V37.6897C85.0344 37.6529 85.0413 37.623 85.0551 37.6001C85.0734 37.5725 85.1056 37.5495 85.1516 37.5311C85.1976 37.5081 85.255 37.4943 85.324 37.4897C85.3975 37.4805 85.4918 37.4759 85.6067 37.4759C85.717 37.4759 85.809 37.4805 85.8825 37.4897C85.9561 37.4943 86.0135 37.5081 86.0549 37.5311C86.0963 37.5495 86.1262 37.5725 86.1446 37.6001C86.1675 37.623 86.179 37.6529 86.179 37.6897V43.8957ZM94.8391 40.6962C94.8391 41.2386 94.7793 41.7259 94.6598 42.158C94.5448 42.5902 94.3725 42.9579 94.1426 43.2613C93.9174 43.5601 93.6369 43.7923 93.3013 43.9578C92.9658 44.1187 92.5819 44.1991 92.1498 44.1991C91.9659 44.1991 91.7958 44.1807 91.6395 44.144C91.4832 44.1072 91.3292 44.0497 91.1775 43.9716C91.0304 43.8934 90.8833 43.7946 90.7362 43.6751C90.5891 43.5555 90.4328 43.4153 90.2673 43.2544V46.3574C90.2673 46.3942 90.2581 46.4264 90.2397 46.454C90.2213 46.4816 90.1914 46.5046 90.1501 46.5229C90.1087 46.5413 90.0512 46.5551 89.9777 46.5643C89.9041 46.5735 89.8099 46.5781 89.695 46.5781C89.5846 46.5781 89.4927 46.5735 89.4191 46.5643C89.3456 46.5551 89.2858 46.5413 89.2398 46.5229C89.1985 46.5046 89.1686 46.4816 89.1502 46.454C89.1364 46.4264 89.1295 46.3942 89.1295 46.3574V37.6897C89.1295 37.6483 89.1364 37.6161 89.1502 37.5932C89.164 37.5656 89.1916 37.5426 89.233 37.5242C89.2743 37.5058 89.3272 37.4943 89.3915 37.4897C89.4559 37.4805 89.5341 37.4759 89.626 37.4759C89.7225 37.4759 89.8007 37.4805 89.8604 37.4897C89.9248 37.4943 89.9777 37.5058 90.019 37.5242C90.0604 37.5426 90.088 37.5656 90.1018 37.5932C90.1202 37.6161 90.1294 37.6483 90.1294 37.6897V38.5241C90.3179 38.331 90.4994 38.1632 90.6741 38.0207C90.8488 37.8782 91.0235 37.761 91.1982 37.669C91.3775 37.5725 91.5591 37.5012 91.7429 37.4553C91.9314 37.4047 92.1291 37.3794 92.336 37.3794C92.7865 37.3794 93.1703 37.4667 93.4875 37.6414C93.8047 37.8161 94.0622 38.0552 94.2598 38.3586C94.4621 38.662 94.6092 39.016 94.7011 39.4205C94.7931 39.8204 94.8391 40.2457 94.8391 40.6962ZM93.6392 40.8272C93.6392 40.51 93.6139 40.2043 93.5634 39.9101C93.5174 39.6113 93.4347 39.3469 93.3151 39.1171C93.2002 38.8872 93.0439 38.7034 92.8462 38.5654C92.6486 38.4275 92.4026 38.3586 92.1084 38.3586C91.9613 38.3586 91.8165 38.3816 91.674 38.4275C91.5315 38.4689 91.3867 38.5379 91.2396 38.6344C91.0925 38.7263 90.9385 38.8505 90.7776 39.0068C90.6167 39.1585 90.4466 39.3469 90.2673 39.5722V42.0408C90.5799 42.4224 90.8764 42.7143 91.1568 42.9166C91.4372 43.1188 91.7315 43.22 92.0395 43.22C92.3245 43.22 92.5681 43.151 92.7704 43.0131C92.9773 42.8752 93.1427 42.6913 93.2669 42.4614C93.3956 42.2316 93.4898 41.9742 93.5496 41.6891C93.6093 41.4041 93.6392 41.1168 93.6392 40.8272Z" fill="black"/>
<rect x="105.014" y="4.41309" width="43.5065" height="42.0561" rx="3.89197" fill="black"/>
<rect x="105.014" y="4.41309" width="43.5065" height="42.0561" rx="3.89197" stroke="black"/>
<rect x="109.093" y="1.53114" width="42.309" height="40.8585" rx="3.29321" fill="#7DFF68" stroke="black" stroke-width="1.19753"/>
<path d="M140.18 31.6746C140.855 31.6746 141.402 31.1275 141.402 30.4526L141.402 24.9587C141.402 22.5499 141.184 20.5698 140.746 19.0184C140.322 17.4534 139.7 16.2899 138.879 15.5278C138.578 15.242 138.291 14.9971 138.018 14.7929C137.758 14.5752 137.484 14.3915 137.197 14.2418C136.91 14.0785 136.596 13.9424 136.254 13.8335C135.912 13.7246 135.522 13.6294 135.084 13.5477C134.674 13.4661 134.298 13.4048 133.956 13.364C133.628 13.3232 133.293 13.296 132.951 13.2824C132.609 13.2551 132.247 13.2415 131.864 13.2415C131.495 13.2279 131.064 13.2211 130.572 13.2211L121.599 13.2211C120.924 13.2211 120.377 13.7682 120.377 14.4431L120.377 30.4526C120.377 31.1275 120.924 31.6746 121.599 31.6746L125.473 31.6746C126.148 31.6746 126.695 31.1275 126.695 30.4526L126.695 20.8324C126.695 20.1575 127.242 19.6104 127.917 19.6104L130.715 19.6104C131.153 19.6104 131.529 19.6172 131.843 19.6308C132.158 19.6444 132.431 19.6785 132.664 19.7329C132.91 19.7737 133.129 19.8418 133.32 19.937C133.525 20.0323 133.737 20.1616 133.956 20.3249C134.394 20.6243 134.688 21.1278 134.838 21.8354C135.002 22.5295 135.084 23.4617 135.084 24.632L135.084 30.4526C135.084 31.1275 135.631 31.6746 136.306 31.6746L140.18 31.6746Z" fill="black"/>
</svg>
