<svg width="52" height="40" viewBox="0 0 52 40" fill="none" xmlns="http://www.w3.org/2000/svg">
<path d="M6.99992 2.5962C4.84608 2.90389 4.30762 4.77569 4.30762 5.67312V9.13466C6.4871 9.13466 11.5384 9.05774 14.3076 8.75005C17.0768 8.44235 36.4871 8.62184 45.8461 8.75005C47.8974 9.26287 51.9999 9.90389 51.9999 8.36543C51.9999 6.44235 51.2307 2.98081 50.0768 2.5962C48.923 2.21159 33.5384 2.21158 31.2307 2.5962C28.923 2.98081 9.69223 2.21158 6.99992 2.5962Z" fill="white"/>
<g clip-path="url(#clip0_427_3958)">
<path d="M50.9434 18.6959C50.8664 16.0776 50.9126 13.4592 50.9434 10.8409C50.9793 9.17188 50.9844 7.51308 50.8972 5.84407C50.8253 4.51193 51.0614 2.8123 50.697 1.5312C50.3325 0.250096 49.3315 0.178638 48.1303 0.11739C45.0143 -0.0306261 41.8727 0.117394 38.7567 0.0816658C31.7958 0.0510418 24.8401 0.010208 17.8843 0C14.2191 0 10.5744 0.0867676 6.91942 0.326655C5.60014 0.413423 3.40305 0.163328 2.33017 1.07694C1.61149 1.68432 1.52422 2.65408 1.37535 3.50134C1.09062 5.43182 0.936274 7.3791 0.913346 9.3301C0.738811 13.5511 0.815821 17.7721 0.554018 21.988C0.343549 25.4026 0.477018 28.8069 0.554018 32.2215C0.610486 34.1355 -0.00552306 37.2234 1.6269 38.6627C3.25931 40.1021 6.87322 39.5049 8.86498 39.5662C12.5405 39.6784 16.2108 39.7805 19.8864 39.8367C26.7754 39.9439 33.649 39.6989 40.5328 39.9643C43.248 40.0897 45.9689 39.9409 48.6539 39.5202C50.1939 39.2548 50.6816 38.3361 50.8356 36.8815C51.5286 30.8741 51.1282 24.7135 50.9434 18.6959ZM4.98926 1.98545C5.63607 1.92421 6.28802 1.90379 6.93996 1.86295C9.61959 1.68431 12.2941 1.56182 14.9788 1.54141C20.7488 1.49547 26.5136 1.5414 32.2784 1.59244L39.7166 1.62307C42.3295 1.62307 45.1683 1.31172 47.7555 1.64859C48.9721 1.80681 49.0235 1.90889 49.2442 3.13895C49.3788 4.33867 49.4388 5.54551 49.4239 6.75258C49.4239 6.92101 49.4239 7.08944 49.4239 7.26298C33.8081 6.70154 18.1889 6.6505 2.5663 7.10986C2.6279 6.23197 2.7049 5.35919 2.80757 4.48641C3.0129 2.8225 3.32604 2.13347 4.98926 1.98545ZM49.5676 30.0574C49.5009 32.1501 49.5676 34.2733 49.3828 36.3659C49.2596 37.8971 48.6333 37.8155 47.2268 38.0452C45.781 38.2942 44.3197 38.4443 42.8532 38.4943C37.458 38.6117 32.0012 38.3667 26.5957 38.3769C20.2046 38.3769 13.8136 38.2034 7.42248 38.0094C5.42559 37.9533 2.32503 38.2238 2.20183 35.6616C2.12996 34.2172 2.1505 32.7625 2.10944 31.3181C2.0119 28.2098 1.92463 25.1117 2.10944 22.0084C2.3969 17.4455 2.24803 12.8212 2.49956 8.26847C18.1461 7.80911 33.7961 7.86015 49.4496 8.42159C49.4496 10.5857 49.3674 12.7498 49.3571 14.9088C49.3366 19.9464 49.7268 24.9534 49.5676 30.0574Z" fill="#1B1B1B"/>
<path d="M6.35447 6.17072C7.29388 6.06354 8.2795 5.52251 8.12036 4.43026C8.07853 3.97928 7.8702 3.5597 7.53557 3.25243C7.20094 2.94517 6.76373 2.77201 6.30828 2.76636C5.34833 2.76636 4.64506 3.68508 4.49619 4.55276C4.30112 5.6348 5.3278 6.28811 6.35447 6.17072ZM5.6666 4.63952C5.7436 4.3588 5.96434 3.92497 6.30828 3.93518C6.44519 3.92803 6.58045 3.96766 6.69157 4.04751C6.8027 4.12736 6.88301 4.24261 6.91915 4.37411C7.07315 4.84878 6.79594 4.95597 6.36474 5.03763C6.17425 5.08244 5.9743 5.06453 5.79494 4.9866C5.57933 4.87431 5.5896 4.83858 5.6512 4.61911L5.6666 4.63952Z" fill="#1B1B1B"/>
<path d="M11.18 6.11963C11.4214 6.13764 11.6639 6.10738 11.8933 6.03066C12.1227 5.95394 12.3343 5.83229 12.5157 5.67292C12.697 5.51354 12.8444 5.31966 12.9492 5.10272C13.0539 4.88577 13.1139 4.65016 13.1256 4.40979C13.1512 4.17325 13.1248 3.934 13.0483 3.70858C12.9718 3.48316 12.847 3.27694 12.6825 3.10417C12.518 2.93139 12.3178 2.7962 12.0956 2.7079C11.8734 2.61961 11.6346 2.58032 11.3956 2.59277C10.9218 2.55598 10.4519 2.70108 10.0824 2.99822C9.71285 3.29536 9.47189 3.72196 9.409 4.19032C9.39474 4.67753 9.5715 5.15117 9.90198 5.51118C10.2325 5.87119 10.6907 6.08937 11.18 6.11963ZM10.564 4.20563C10.641 3.85856 11.0774 3.72075 11.3956 3.74117C11.7139 3.76158 12.0322 3.94022 11.9808 4.32302C11.9804 4.42007 11.9584 4.51582 11.9164 4.60343C11.8744 4.69103 11.8135 4.76833 11.738 4.82978C11.6624 4.89123 11.5741 4.93532 11.4795 4.95889C11.3848 4.98246 11.286 4.98493 11.1903 4.96612C11.0989 4.95719 11.0102 4.93041 10.9292 4.88733C10.8483 4.84425 10.7766 4.78571 10.7185 4.71507C10.6603 4.64442 10.6167 4.56306 10.5902 4.47565C10.5637 4.38823 10.5548 4.29648 10.564 4.20563Z" fill="#1B1B1B"/>
<path d="M16.3803 6.03289C16.8506 6.0016 17.2926 5.79797 17.6207 5.46139C17.9488 5.12481 18.1397 4.6792 18.1564 4.21077C18.1326 3.73054 17.9235 3.27792 17.5726 2.94709C17.2217 2.61625 16.756 2.43269 16.2725 2.43458C15.7757 2.46823 15.3089 2.68337 14.9621 3.0386C14.6152 3.39384 14.4128 3.86405 14.3936 4.35878C14.3218 5.44594 15.369 6.09925 16.3803 6.03289ZM16.2725 3.58298C16.4379 3.57963 16.5984 3.63843 16.7221 3.74765C16.8459 3.85687 16.9236 4.00847 16.9398 4.17217C16.956 4.33586 16.9095 4.49961 16.8096 4.63071C16.7097 4.76182 16.5637 4.85062 16.4008 4.87939C16.0723 4.94064 15.5692 4.80283 15.5435 4.44045C15.5377 4.23341 15.6088 4.03151 15.7433 3.87332C15.8778 3.71514 16.0662 3.61177 16.2725 3.58298Z" fill="#1B1B1B"/>
<path d="M19.424 13.4337C17.8172 12.1373 15.574 13.2346 14.1418 14.2197C11.4467 16.0776 9.23936 18.4101 6.6932 20.4466C2.82262 23.8101 7.50427 27.4799 10.189 29.4755C12.0063 30.8281 14.1828 32.6859 16.4004 33.3393C17.8686 33.7731 20.1324 33.2015 20.2351 31.3691C20.3378 29.5368 17.5247 27.7453 16.3029 26.6734C15.5507 26.02 14.7642 25.4067 13.9467 24.836C13.5925 24.591 13.2229 24.3562 12.8635 24.1163C12.073 23.6059 11.7599 23.6978 12.2424 22.9373C13.4641 21.0131 23.1149 16.4195 19.424 13.4337ZM10.9744 24.2184C11.8266 25.275 13.7003 26.0252 14.7783 26.9031C15.6202 27.5922 16.4004 28.3424 17.1858 29.0927C17.499 29.399 18.4692 30.0115 18.6027 30.4504C19.2495 32.5992 17.5092 32.4461 16.4415 32.099L16.7495 31.8744C16.8771 31.7933 16.9692 31.6672 17.0072 31.5215C17.0453 31.3757 17.0266 31.221 16.9548 31.0884C16.8768 30.9576 16.7499 30.8628 16.6018 30.8245C16.4538 30.7863 16.2965 30.8078 16.1643 30.8842L15.4867 31.3946C15.4085 31.4551 15.3423 31.5295 15.2916 31.6141C15.0504 31.4967 14.8142 31.364 14.573 31.2262C14.657 31.1637 14.7444 31.1058 14.8347 31.0527C14.9622 30.9729 15.0534 30.8471 15.0892 30.7017C15.125 30.5563 15.1025 30.4027 15.0265 30.2735C14.9505 30.1443 14.827 30.0495 14.682 30.0092C14.537 29.9688 14.3819 29.9861 14.2495 30.0574C14.0015 30.2081 13.7663 30.3788 13.5463 30.5678C13.2639 30.3738 12.9765 30.1748 12.6993 29.9706L13.1818 29.7154C13.8389 29.3683 13.2537 28.3782 12.5966 28.7253L11.6829 29.205L11.1336 28.7865L11.421 28.6079C11.5531 28.5314 11.6492 28.4059 11.6882 28.2589C11.7272 28.112 11.7059 27.9557 11.6289 27.8244C11.552 27.6931 11.4258 27.5975 11.278 27.5588C11.1302 27.52 10.973 27.5412 10.841 27.6177C10.6103 27.7473 10.3921 27.8977 10.189 28.0668C9.92723 27.8678 9.63975 27.6534 9.34715 27.4237C9.49358 27.3047 9.65388 27.2036 9.82457 27.1226C9.95612 27.045 10.0515 26.9188 10.0899 26.7716C10.1284 26.6244 10.1068 26.468 10.0299 26.3366C9.95 26.2078 9.82317 26.1147 9.67587 26.0766C9.52857 26.0386 9.37219 26.0586 9.23935 26.1324C8.9472 26.2744 8.67883 26.4603 8.44368 26.6837C8.22808 26.4948 8.02274 26.3009 7.82253 26.1018L8.37695 25.7343C8.99296 25.326 8.41801 24.3307 7.79173 24.7441L7.06794 25.2188C6.80667 24.8697 6.60544 24.4799 6.47246 24.0653H7.02173C7.1655 24.0518 7.29904 23.9855 7.39623 23.8793C7.49343 23.7731 7.5473 23.6347 7.5473 23.4911C7.5473 23.3475 7.49343 23.2091 7.39623 23.1029C7.29904 22.9967 7.1655 22.9304 7.02173 22.9169H6.41085C6.4996 22.5276 6.67502 22.1631 6.92419 21.8502C7.13068 22.0829 7.36126 22.2933 7.61208 22.478C7.7443 22.5544 7.90155 22.5759 8.04961 22.5377C8.19767 22.4994 8.32454 22.4046 8.40261 22.2738C8.47643 22.1411 8.49575 21.9852 8.45652 21.8387C8.41728 21.6921 8.32254 21.5664 8.19214 21.4878C8.28454 21.5541 8.09974 21.401 8.08434 21.3857C8.06894 21.3704 7.94061 21.2428 7.86875 21.1713L7.75067 21.0488L8.32561 20.564C8.55188 20.777 8.76287 21.0055 8.95702 21.2479C9.06526 21.3555 9.21205 21.416 9.36512 21.416C9.51819 21.416 9.665 21.3555 9.77323 21.2479C9.88147 21.1403 9.94227 20.9943 9.94227 20.8421C9.94227 20.6899 9.88147 20.544 9.77323 20.4364C9.59346 20.2135 9.39972 20.0021 9.19316 19.8035L10.0145 19.0634C10.2352 19.2573 10.456 19.4462 10.6664 19.6503C10.776 19.7586 10.9244 19.8192 11.0789 19.8187C11.2334 19.8183 11.3814 19.7568 11.4904 19.6478C11.5993 19.5388 11.6602 19.3913 11.6597 19.2377C11.6592 19.084 11.5974 18.9369 11.4878 18.8286C11.2927 18.6398 11.0874 18.4611 10.882 18.2825C11.1952 18.0018 11.5186 17.7261 11.842 17.4607C12.0473 17.6955 12.2681 17.9201 12.4837 18.1549C12.997 18.7061 13.7927 17.8895 13.2999 17.3433C13.1202 17.1443 12.9046 16.9656 12.7301 16.7564C12.8789 16.6441 13.0227 16.5318 13.1715 16.4297C13.3204 16.3276 13.5873 16.1184 13.7927 15.9551L14.1109 16.3889C14.1917 16.5167 14.3185 16.609 14.4655 16.647C14.6124 16.6849 14.7684 16.6656 14.9015 16.5931C15.0339 16.5163 15.1304 16.3905 15.1698 16.2432C15.2092 16.0959 15.1884 15.9391 15.112 15.807L14.7013 15.2558C14.9612 15.062 15.232 14.8831 15.5124 14.7199L15.5637 14.7811L16.077 15.2915C16.5904 15.8019 17.4271 14.9955 16.8932 14.48L16.6006 14.1942C17.3142 13.9186 17.9302 13.9237 18.4076 14.8015C19.0031 15.9142 18.3768 16.1745 17.6119 16.9503C15.7023 18.8797 13.2639 20.2169 11.3338 22.0901C10.6254 22.7842 10.3276 23.4222 10.9744 24.2184Z" fill="#1B1B1B"/>
<path d="M41.4258 16.8635C39.6086 15.511 37.432 13.6531 35.2144 12.9998C33.7462 12.5711 31.4824 13.1376 31.3797 14.97C31.2771 16.8023 34.0902 18.5989 35.3119 19.6656C36.0618 20.3218 36.8485 20.9353 37.6681 21.5031C38.0223 21.7532 38.3919 21.9829 38.7513 22.2278C39.5418 22.7382 39.855 22.6413 39.3724 23.4069C38.1507 25.3311 28.4999 29.9247 32.1857 32.9105C33.7924 34.2069 36.0357 33.1096 37.4679 32.1194C40.163 30.2615 42.3703 27.929 44.9165 25.8976C48.7922 22.5341 44.1105 18.8592 41.4258 16.8635ZM44.1054 25.0861C42.1496 26.6479 40.471 28.4547 38.4279 29.9093C37.5908 30.6101 36.7 31.245 35.7637 31.808C34.737 32.3184 33.8284 32.7268 33.197 31.5528C33.0875 31.3983 33.0157 31.2205 32.9872 31.0336C32.9587 30.8467 32.9743 30.6558 33.0327 30.4759C33.3099 30.6954 33.5871 30.9251 33.8746 31.1292C34.0068 31.2057 34.164 31.2271 34.3121 31.1889C34.4602 31.1507 34.587 31.0558 34.6651 30.9251C34.7381 30.7927 34.7575 30.6376 34.7193 30.4915C34.6812 30.3454 34.5883 30.2193 34.4598 30.139C34.2236 29.9706 34.0029 29.792 33.777 29.6286L33.9926 29.4194C34.162 29.2458 34.3366 29.0876 34.506 28.909C34.736 29.1615 34.9793 29.4017 35.2349 29.6286C35.3432 29.7362 35.4899 29.7967 35.643 29.7967C35.7961 29.7967 35.9429 29.7362 36.0511 29.6286C36.1594 29.521 36.2202 29.3751 36.2202 29.2229C36.2202 29.0707 36.1594 28.9247 36.0511 28.8171C35.814 28.6076 35.5878 28.3862 35.3735 28.1536C35.6507 27.9239 35.9331 27.6993 36.2205 27.485C36.4516 27.7931 36.7001 28.0879 36.9649 28.3679C37.4782 28.8783 38.2995 28.0872 37.7811 27.5564C37.5516 27.3149 37.3357 27.061 37.1343 26.7959L37.8375 26.2855C38.051 26.4944 38.2516 26.716 38.4382 26.949C38.4904 27.0082 38.5543 27.0561 38.6259 27.0898C38.6974 27.1235 38.7752 27.1423 38.8543 27.145C38.9335 27.1477 39.0124 27.1342 39.0861 27.1054C39.1598 27.0766 39.2268 27.0332 39.283 26.9777C39.3392 26.9221 39.3833 26.8558 39.4127 26.7827C39.4421 26.7096 39.4561 26.6312 39.4539 26.5525C39.4517 26.4738 39.4333 26.3964 39.3999 26.325C39.3665 26.2536 39.3187 26.1898 39.2595 26.1375C39.0952 25.9436 38.9361 25.7547 38.7462 25.5761C39.049 25.3362 39.3468 25.0657 39.6342 24.8309C39.7828 24.9379 39.9204 25.0593 40.0449 25.1933C40.5582 25.7292 41.3744 24.9176 40.8611 24.3766C40.7419 24.2531 40.6151 24.1372 40.4812 24.0296C40.6729 23.8283 40.8214 23.5904 40.9176 23.3303L41.6363 23.3711C41.7883 23.3698 41.9338 23.3091 42.0413 23.2022C42.1488 23.0953 42.2099 22.9507 42.2112 22.7995C42.2086 22.6482 42.1473 22.5038 42.0402 22.3963C41.9331 22.2888 41.7884 22.2267 41.6363 22.2227L40.6096 22.1615C40.455 21.9757 40.2831 21.8048 40.0962 21.6511L40.6506 21.3908C40.7822 21.3132 40.8776 21.187 40.916 21.0398C40.9545 20.8926 40.9329 20.7362 40.856 20.6048C40.7761 20.476 40.6493 20.3829 40.502 20.3448C40.3547 20.3068 40.1983 20.3268 40.0654 20.4006L39.0388 20.911L38.4843 20.5742L38.9566 20.3496C39.0882 20.272 39.1836 20.1458 39.222 19.9986C39.2605 19.8514 39.2389 19.695 39.162 19.5636C39.0829 19.4339 38.9564 19.3397 38.8091 19.3007C38.6617 19.2617 38.5049 19.2809 38.3714 19.3543L37.4217 19.8136C37.3971 19.8313 37.3747 19.8519 37.355 19.8749C37.1702 19.7524 36.9957 19.6248 36.8417 19.4972C36.7698 19.4411 36.7082 19.3798 36.6363 19.3186C36.8571 19.2012 37.0778 19.0889 37.3037 18.9817C37.4352 18.9041 37.5306 18.7779 37.5691 18.6307C37.6075 18.4835 37.5859 18.3272 37.509 18.1957C37.4291 18.0669 37.3023 17.9738 37.155 17.9357C37.0077 17.8977 36.8513 17.9177 36.7185 17.9915C36.3797 18.1497 36.0511 18.3335 35.7277 18.5019C35.507 18.3029 35.2862 18.0936 35.0655 17.8843C35.1924 17.8073 35.3244 17.7391 35.4608 17.6802C35.6057 17.6363 35.728 17.5387 35.8025 17.4076C35.8771 17.2765 35.8981 17.1219 35.8612 16.9758C35.841 16.9034 35.8067 16.8357 35.7601 16.7764C35.7136 16.7172 35.6558 16.6677 35.59 16.6307C35.5242 16.5938 35.4517 16.57 35.3767 16.5609C35.3017 16.5518 35.2256 16.5575 35.1528 16.5777C34.8208 16.7111 34.5056 16.8824 34.2134 17.0881C34.0491 16.9605 33.854 16.8125 33.659 16.6492C33.8011 16.526 33.9559 16.4182 34.121 16.3276C34.778 15.9806 34.198 14.9853 33.5409 15.3375C33.3371 15.4453 33.146 15.5754 32.9711 15.7254C32.4578 13.6838 34.3571 13.9645 35.3633 14.3371C37.4166 15.1129 39.4289 16.7972 41.164 18.1089C43.1506 19.5942 47.206 22.4014 44.1054 25.0861Z" fill="#1B1B1B"/>
<path d="M27.2885 12.7855C25.5996 12.7395 25.1017 14.235 24.6345 15.6386C23.6008 18.7696 22.7828 21.967 22.1859 25.2086C21.8676 26.898 19.7424 34.161 23.6233 33.7067C25.1633 33.5281 26.1078 31.9305 26.5801 30.6443C27.6068 27.9494 28.1201 24.9585 28.7361 22.1462C29.0287 20.7732 29.2905 19.3951 29.5523 18.0171C29.732 17.083 30.2299 15.8734 30.1067 14.9036C29.9065 13.3724 28.731 12.8263 27.2885 12.7855ZM27.2885 23.4732C27.0061 24.7237 26.6981 25.9742 26.3645 27.2144C25.9487 28.7916 25.6201 31.9561 23.6387 31.8999C22.5504 31.8693 22.4939 31.7672 22.535 31.0731C22.6749 31.0962 22.8124 31.132 22.9456 31.1803C23.0184 31.2004 23.0945 31.2061 23.1696 31.197C23.2446 31.1879 23.3171 31.1642 23.3829 31.1272C23.4487 31.0903 23.5065 31.0408 23.553 30.9815C23.5995 30.9223 23.6339 30.8546 23.6541 30.7821C23.6924 30.6354 23.6722 30.4795 23.5975 30.3473C23.5229 30.215 23.3996 30.1166 23.2536 30.0727C23.0447 30.0052 22.8299 29.9573 22.612 29.9298C22.612 29.7256 22.6582 29.5164 22.689 29.3122C22.9446 29.3615 23.2038 29.3905 23.4641 29.399C23.6079 29.3855 23.7414 29.3191 23.8386 29.2129C23.9358 29.1068 23.9897 28.9683 23.9897 28.8248C23.9897 28.6812 23.9358 28.5428 23.8386 28.4366C23.7414 28.3304 23.6079 28.264 23.4641 28.2506C23.2638 28.245 23.0645 28.2211 22.8686 28.1791L22.9302 27.832C22.9302 27.7708 22.9302 27.7095 22.961 27.6534C23.2133 27.6827 23.4636 27.727 23.7105 27.7861C23.8524 27.8097 23.998 27.78 24.1192 27.7029C24.2403 27.6257 24.3282 27.5066 24.366 27.3686C24.4037 27.2306 24.3885 27.0835 24.3234 26.956C24.2582 26.8285 24.1477 26.7296 24.0134 26.6785C23.7295 26.6093 23.4414 26.5582 23.151 26.5254C23.2074 26.1885 23.2588 25.8517 23.3255 25.5046C23.6556 25.5465 23.9795 25.627 24.2906 25.7445C24.4333 25.7707 24.5807 25.7428 24.7037 25.6662C24.8267 25.5897 24.9164 25.4701 24.955 25.331C24.9937 25.192 24.9785 25.0436 24.9126 24.9151C24.8466 24.7866 24.7346 24.6873 24.5986 24.6369C24.2662 24.5179 23.922 24.4341 23.5719 24.3868C23.6232 24.1418 23.6694 23.8764 23.7259 23.6416L24.5113 23.8203C25.2351 23.9887 25.538 22.8811 24.8193 22.7127L23.9518 22.5188C23.998 22.2738 24.0545 22.0084 24.1161 21.6868L24.6602 21.8297C24.8029 21.8559 24.9503 21.828 25.0733 21.7515C25.1963 21.6749 25.2859 21.5553 25.3246 21.4163C25.3633 21.2772 25.3481 21.1288 25.2822 21.0003C25.2162 20.8718 25.1042 20.7726 24.9682 20.7222L24.347 20.5588L24.4395 20.125L25.4199 20.3343C25.5675 20.3707 25.7235 20.3491 25.8555 20.274C25.9875 20.1989 26.0852 20.076 26.1283 19.931C26.1679 19.7849 26.1481 19.6291 26.0732 19.4974C25.9983 19.3656 25.8743 19.2684 25.7279 19.2267L24.7013 19.0072L24.8347 18.3182C25.0606 18.3641 25.2865 18.3998 25.5072 18.456C25.6499 18.4822 25.7973 18.4543 25.9203 18.3777C26.0433 18.3012 26.133 18.1816 26.1716 18.0425C26.2103 17.9035 26.1951 17.7551 26.1292 17.6266C26.0632 17.4981 25.9512 17.3988 25.8152 17.3484C25.5945 17.2923 25.3737 17.2565 25.153 17.2106L25.2916 16.7819C25.5023 16.8111 25.709 16.8642 25.9076 16.9401C25.983 16.968 26.0634 16.9801 26.1437 16.9755C26.224 16.9709 26.3024 16.9497 26.3741 16.9134C26.4457 16.877 26.5089 16.8262 26.5598 16.7643C26.6106 16.7023 26.6479 16.6305 26.6694 16.5534C26.6908 16.4763 26.6959 16.3957 26.6843 16.3165C26.6727 16.2374 26.6446 16.1615 26.602 16.0937C26.5593 16.0259 26.5029 15.9677 26.4364 15.9227C26.3699 15.8778 26.2947 15.8471 26.2156 15.8325C26.0492 15.7709 25.8773 15.7247 25.7023 15.6947C25.7741 15.5263 25.8511 15.3681 25.9281 15.215C26.1049 15.2993 26.2936 15.3561 26.4877 15.3834C26.6345 15.4188 26.7894 15.3973 26.9209 15.3234C27.0525 15.2495 27.1508 15.1286 27.1961 14.9853C27.2358 14.8385 27.2161 14.682 27.1413 14.5494C27.0665 14.4168 26.9424 14.3186 26.7957 14.2758C26.7315 14.2641 26.6681 14.2488 26.6057 14.2299C26.6922 14.1341 26.7973 14.0567 26.9146 14.0023C27.0319 13.9479 27.1591 13.9177 27.2885 13.9134C30.04 14.0104 27.5657 22.1564 27.2628 23.4732H27.2885Z" fill="#1B1B1B"/>
</g>
<defs>
<clipPath id="clip0_427_3958">
<rect width="50.7692" height="40" fill="white" transform="translate(0.461426)"/>
</clipPath>
</defs>
</svg>
