<svg width="40" height="40" viewBox="0 0 40 40" fill="none" xmlns="http://www.w3.org/2000/svg">
<path d="M23.6064 6.55737C25.1909 8.62481 26.7266 10.6404 27.9691 12.9446C28.3913 13.7275 28.7195 14.5532 29.062 15.3756C29.3505 16.0681 29.5213 17.3038 30.1638 17.7049" stroke="#7DFF68" stroke-width="10" stroke-linecap="round"/>
<g clip-path="url(#clip0_427_11409)">
<path d="M36.9381 2.10783C34.7047 0.0176888 32.5901 -0.583281 29.7223 0.605407C27.1848 1.65711 25.2025 3.95937 23.2025 5.7888C20.1892 8.54178 17.2862 11.4185 14.436 14.335C11.6841 17.1542 8.98073 20.0221 6.32581 22.9386C5.14519 24.2422 3.81039 25.5281 2.80158 26.9731C2.75941 27.0179 2.72382 27.0685 2.69586 27.1233C2.65681 27.1785 2.62706 27.2397 2.60776 27.3045C1.90291 28.7274 1.61216 30.464 1.26414 31.9797C0.677722 34.4044 0.261146 36.8674 0.0174484 39.3504C-0.0266044 39.8233 0.45797 40.0486 0.850041 39.9912C4.71788 39.3858 8.53286 38.5285 12.3831 37.8436C13.9514 37.5696 14.6298 36.4826 15.7267 35.3469C17.5681 33.4379 19.4007 31.5231 21.2245 29.6023C24.6254 26.0451 28.0262 22.4834 31.4844 18.9969C34.3302 16.107 38.361 12.9739 39.7179 8.99692C40.7091 6.03183 38.9866 4.02122 36.9381 2.10783ZM32.85 15.8507C31.273 14.525 30.0659 13.0137 28.6474 11.5024C27.1496 9.91164 25.5637 8.40921 23.9425 6.95538L24.8236 6.13788C27.8016 9.08382 30.7384 12.0636 33.6342 15.0773L32.85 15.8507ZM29.3038 19.2886C26.5064 16.1202 23.2421 13.3982 20.0527 10.6142L20.8368 9.85419C24.2069 12.3332 27.0659 15.5988 30.0042 18.5595L29.665 18.8997L29.3038 19.2886ZM12.2421 31.9885C10.9822 32.0636 9.7267 32.0681 8.46678 32.1034C8.42273 31.1401 8.42713 29.6067 8.07912 28.7141C10.3478 26.5047 12.2994 24.0477 14.4668 21.7234C16.9073 19.103 19.4932 16.6107 22.0174 14.0654C23.339 15.2187 24.6254 16.3853 25.8721 17.6005C21.4447 22.5232 16.947 27.3663 12.2421 32.0018V31.9885ZM23.2113 7.61822L23.9117 8.26338C23.4449 8.80528 22.9478 9.32019 22.4227 9.80559C22.1452 9.58022 21.8588 9.36369 21.5769 9.16042C22.1202 8.65371 22.665 8.14407 23.2113 7.63148V7.61822ZM26.4404 13.4733C26.9541 13.063 27.4411 12.6202 27.8985 12.1476L27.947 12.1962C28.2245 12.4923 28.4888 12.7839 28.7531 13.08C28.336 13.5706 27.8792 14.0258 27.3875 14.441C27.0747 14.1229 26.7575 13.8047 26.4404 13.4865V13.4733ZM25.7355 12.7795C25.4624 12.51 25.1892 12.2448 24.9117 11.9841C25.3522 11.4892 25.8324 11.0075 26.3082 10.5303C26.6121 10.8263 26.9073 11.1268 27.1892 11.4141C26.7331 11.9029 26.2476 12.3633 25.7355 12.7928V12.7795ZM24.1804 11.3345C23.8545 11.0429 23.5241 10.7512 23.1893 10.4507C23.6989 9.97485 24.1827 9.47184 24.6386 8.94389C24.9602 9.23996 25.2773 9.54045 25.5989 9.82768C25.1144 10.3285 24.6415 10.8308 24.1804 11.3345ZM28.0791 15.1657C28.5537 14.7594 28.9956 14.3161 29.4007 13.8401C29.6914 14.1671 29.9866 14.4896 30.2818 14.8034C29.8412 15.2453 29.4007 15.6872 29.013 16.1556L28.0791 15.1657ZM11.6474 19.1428C14.0879 16.5562 16.5769 14.0212 19.1144 11.5378L21.2641 13.4158C18.7575 15.939 16.1849 18.418 13.7752 21.0252C11.6166 23.3496 9.65621 25.7888 7.39189 28.0159C7.0091 27.9364 6.62235 27.8774 6.2333 27.8392C5.50643 27.7066 4.77956 27.5961 4.03066 27.4989C6.16722 24.494 9.12758 21.8162 11.6474 19.1516V19.1428ZM6.60775 37.7022C5.3269 36.1122 3.87955 34.6648 2.29058 33.3849C2.36987 33.0314 2.44476 32.6823 2.52406 32.3288C2.75914 31.0039 3.09642 29.6994 3.53286 28.4269C4.58572 28.5197 6.2333 28.5418 7.154 29.0146C6.79718 28.8953 7.15401 29.673 7.21568 30.1856C7.31701 30.9987 7.40952 31.8118 7.50643 32.6248C7.5087 32.7554 7.5614 32.88 7.65344 32.9723C7.74549 33.0646 7.86968 33.1175 7.99983 33.1198C8.93375 33.0844 9.8941 33.1463 10.8236 33.0579C11.8368 32.9651 11.8016 32.7618 11.9117 33.7605C12.0174 34.6664 12.0835 35.5811 12.1496 36.4958C12.0351 36.5356 11.9205 36.5709 11.8016 36.6019C10.0967 37.0349 8.35665 37.4061 6.60775 37.7066V37.7022ZM20.8412 28.0778C19.27 29.7216 17.6988 31.364 16.1276 33.0049C15.1672 34.0036 14.2597 35.2408 13.11 36.0053C13.0351 34.9536 12.9426 33.9019 12.7884 32.859C17.5505 28.1706 22.0967 23.2744 26.5725 18.312C27.1922 18.9395 27.7957 19.5846 28.3831 20.2475C25.8544 22.8487 23.3405 25.4603 20.8412 28.0822V28.0778ZM30.7267 17.8745C30.3919 17.5387 30.0615 17.1984 29.7267 16.8582C30.132 16.3898 30.5549 15.9346 30.9954 15.5016C31.3522 15.8551 31.7311 16.2042 32.132 16.5356C31.6562 16.9907 31.1848 17.437 30.7267 17.8789V17.8745ZM38.0835 9.4344C37.1485 11.1661 35.9607 12.7479 34.5593 14.1273C31.6694 11.1283 28.7414 8.1647 25.7752 5.23643L25.969 5.05526C27.969 3.24792 30.4624 0.543542 33.458 1.37872C34.85 1.76758 35.991 2.98278 36.9293 4.03006C38.4932 5.72251 39.2157 7.16307 38.0835 9.43881V9.4344Z" fill="#1B1B1B"/>
<path d="M29.9471 4.02564C29.8282 3.39815 28.8722 3.66329 28.9912 4.29078C29.1596 5.18885 29.3877 6.07461 29.674 6.94213C29.8766 7.54752 30.8326 7.2868 30.63 6.67699C30.3426 5.80978 30.1144 4.92395 29.9471 4.02564Z" fill="#1B1B1B"/>
<path d="M31.6255 3.68095C31.4272 3.07556 30.4669 3.33628 30.6695 3.94609C30.9206 4.69288 31.1673 5.44409 31.4184 6.19089C31.6167 6.79628 32.577 6.53556 32.3744 5.93017L31.6255 3.68095Z" fill="#1B1B1B"/>
</g>
<defs>
<clipPath id="clip0_427_11409">
<rect width="40" height="40" fill="white"/>
</clipPath>
</defs>
</svg>
