<svg width="45" height="40" viewBox="0 0 45 40" fill="none" xmlns="http://www.w3.org/2000/svg">
<path d="M28.9352 7.40738C27.6019 7.40738 17.2686 6.41973 12.2686 5.9259C12.713 8.88887 13.6686 15.1111 13.9352 16.2963C14.2686 17.7778 16.9352 25.9259 17.6019 26.2963C18.2686 26.6666 25.6019 26.2963 27.2686 26.2963C28.9352 26.2963 39.2686 26.2963 39.9352 25.9259C40.6019 25.5555 42.9352 17.037 44.6019 12.9629C46.2686 8.88887 42.2686 8.14813 40.6019 8.14813C38.9352 8.14813 30.6019 7.40738 28.9352 7.40738Z" fill="#7DFF68"/>
<g clip-path="url(#clip0_427_3302)">
<path d="M17.4769 34.0263C15.8228 33.8 14.3331 34.8973 14.2353 36.8656C14.1374 38.8338 15.5471 39.936 17.1301 39.9902C18.6464 40.0443 20.2428 38.9618 20.1628 37.1116C20.1472 36.318 19.8623 35.5599 19.3646 34.9882C18.867 34.4165 18.193 34.0731 17.4769 34.0263ZM17.3969 38.5189C16.6143 38.5681 15.8361 38.327 15.6182 37.4019C15.5584 37.1411 15.56 36.8677 15.6228 36.6078C15.6856 36.3479 15.8076 36.1101 15.977 35.9172C16.1465 35.7242 16.3578 35.5825 16.5908 35.5056C16.8238 35.4288 17.0707 35.4192 17.308 35.4779H17.3302C17.3805 35.483 17.4311 35.483 17.4814 35.4779C17.8142 35.5061 18.1281 35.6597 18.3709 35.9132C18.6137 36.1666 18.7706 36.5045 18.8154 36.8705C18.971 37.8743 18.2062 38.4697 17.388 38.5189H17.3969Z" fill="#1B1B1B"/>
<path d="M36.7981 33.9181C36.4257 33.8749 36.0493 33.9222 35.6952 34.0569C35.3411 34.1915 35.0178 34.4101 34.748 34.6974C34.4782 34.9847 34.2684 35.3338 34.1332 35.7202C33.9981 36.1066 33.9409 36.521 33.9656 36.9345C33.9763 37.4218 34.0857 37.9003 34.2858 38.3346C34.4859 38.769 34.7716 39.1481 35.1217 39.444C35.7176 39.9361 36.4557 39.8967 37.1717 39.9361C38.7147 40.064 39.6351 38.1252 39.3639 36.6097C39.0615 34.9514 38.4345 33.9673 36.7981 33.9181ZM37.1717 38.4795C36.2556 38.4353 35.4863 38.3073 35.3218 37.1067C35.2706 36.8776 35.2725 36.6379 35.3273 36.4098C35.382 36.1818 35.4879 35.9727 35.6351 35.802C35.7823 35.6312 35.9661 35.5043 36.1694 35.4331C36.3727 35.3618 36.5889 35.3485 36.7981 35.3943C37.603 35.3943 37.7853 35.6994 37.9676 36.5113C38.1321 37.2346 38.0966 38.5238 37.1717 38.4795Z" fill="#1B1B1B"/>
<path d="M42.1743 9.56084C38.1723 8.65052 33.7967 8.90147 29.7235 8.57671C23.5515 8.04036 17.4016 7.62702 11.2162 7.37607C11.0529 6.53141 10.8131 5.70714 10.5003 4.91574C9.88667 3.43955 8.57489 3.13448 7.29423 2.68178C7.33361 2.41799 7.29024 2.14724 7.17133 1.9145C7.05242 1.68176 6.86512 1.50105 6.64056 1.4024C5.88337 0.987357 5.09476 0.646525 4.2838 0.383824C3.2655 0.0196961 0.899841 -0.516649 0.930968 1.46637C0.957649 2.99178 2.76302 3.57241 3.81244 3.97099C4.70179 4.30067 5.94687 4.64512 6.70282 4.0202C7.51657 4.32528 8.25917 4.48765 8.86393 5.19622C9.59319 6.05242 9.62876 7.25798 9.86888 8.39957C10.3714 10.8058 10.945 13.1923 11.532 15.5739C12.5191 19.5645 13.5863 23.5355 14.4045 27.5754C13.8522 27.7674 13.3712 28.153 13.0343 28.6741C12.6974 29.1951 12.5228 29.8233 12.5369 30.4638C12.5858 32.6486 14.4712 33.1308 16.0943 33.1751C23.6537 33.3768 31.2132 33.239 38.7504 33.2587C38.9273 33.2587 39.0969 33.181 39.222 33.0425C39.3471 32.9041 39.4174 32.7164 39.4174 32.5206C39.4174 32.3249 39.3471 32.1371 39.222 31.9987C39.0969 31.8603 38.9273 31.7825 38.7504 31.7825C34.3036 31.7825 29.8169 31.7825 25.3524 31.7825C22.9808 31.7825 20.6092 31.7645 18.2376 31.7284C17.3083 31.7284 14.8537 32.1368 14.1555 31.192C13.4574 30.2473 14.2578 28.9531 15.2183 28.8596C21.6572 28.9236 28.1138 28.8351 34.5393 28.9138C36.1135 28.9138 38.8126 29.2533 39.9332 27.6984C40.409 27.0341 40.5513 26.0352 40.7736 25.2381C41.2539 23.5601 41.7564 21.8871 42.2411 20.2091C42.9837 17.6602 44.0197 14.9047 44.2643 12.218C44.4022 10.5253 43.624 9.89053 42.1743 9.56084ZM3.97697 2.82446C3.58121 2.67192 2.27388 2.2832 2.06933 1.78621C1.91369 1.40732 2.29167 1.117 2.514 1.05795C2.66367 1.04657 2.814 1.06321 2.95867 1.10716C3.3904 1.20077 3.8143 1.33409 4.22599 1.50573C4.67066 1.68288 5.1598 1.8797 5.61337 2.09129C6.06694 2.30288 6.32484 2.34717 6.19589 2.94257C5.98689 3.67575 4.40386 2.99177 3.97697 2.82446ZM42.9036 11.5045C43.2682 12.3115 42.4367 14.3831 42.2277 15.1901C42.1699 15.4066 42.1076 15.6231 42.0498 15.8445C40.1822 15.7363 38.319 15.6116 36.4603 15.4706C36.7938 13.8123 37.1584 12.1639 37.5675 10.5499C39.4352 10.5499 42.4812 10.5745 42.9036 11.5045ZM40.7381 20.4945L40.4268 21.5476C38.737 21.4688 37.0473 21.4032 35.3575 21.3507C35.6421 19.7515 35.9311 18.1523 36.2469 16.5629C38.0834 16.7007 39.9199 16.8287 41.7608 16.932C41.4228 18.1228 41.0805 19.3087 40.7381 20.4945ZM29.8125 27.472C29.8969 25.7449 29.9948 24.0276 30.1015 22.2955L34.1525 22.4136C33.856 24.0965 33.5596 25.7711 33.2631 27.4376C32.1129 27.4573 30.9627 27.4687 29.8125 27.472ZM30.1726 21.1933C30.2794 19.4907 30.3965 17.7898 30.5239 16.0906C32.0936 16.2283 33.6366 16.3612 35.233 16.4891C34.9217 18.0933 34.6327 19.7023 34.3437 21.3114L30.1726 21.1933ZM15.7341 27.3539C15.365 25.489 14.9426 23.6388 14.4935 21.7985C15.7741 21.8576 17.0503 21.9068 18.331 21.956C18.6778 23.7766 19.0558 25.5973 19.496 27.3982L15.7341 27.3539ZM12.6614 14.4766C14.1288 14.5947 15.5918 14.7226 17.0548 14.8505C17.4061 16.8483 17.7485 18.8461 18.1176 20.839C16.8191 20.7898 15.5207 20.7406 14.2178 20.6815C13.7064 18.6099 13.1728 16.5433 12.6614 14.4766ZM20.5321 27.4031C20.0875 25.612 19.7095 23.8012 19.3582 21.9904C20.7678 22.0396 22.1819 22.0839 23.5915 22.1233C23.7027 23.8996 23.8138 25.676 23.9161 27.4523L20.5321 27.413V27.4031ZM19.167 20.8734C18.7979 18.9052 18.4555 16.9369 18.1087 14.944C19.8029 15.1015 21.4926 15.254 23.1824 15.4361C23.3069 17.2994 23.4284 19.1643 23.547 21.0309C22.0663 20.9718 20.6033 20.9276 19.167 20.8734ZM17.913 13.8221C17.6329 12.2475 17.3394 10.6778 17.0237 9.11306C18.9446 9.22131 20.8642 9.3427 22.7822 9.4772C22.8978 11.0863 23.0001 12.6904 23.1112 14.2994L17.913 13.8221ZM24.1918 15.5099L29.5501 16.002C29.4211 17.7193 29.3055 19.4464 29.1943 21.1638L24.5475 21.0407C24.4171 19.1971 24.2911 17.3535 24.1696 15.5099H24.1918ZM36.5537 10.5204C36.1594 12.1278 35.7992 13.7532 35.4731 15.3967C33.8545 15.2688 32.2389 15.1327 30.6262 14.9883C30.7507 13.3678 30.8841 11.7456 31.0264 10.1218C32.8229 10.2629 34.6223 10.3941 36.4247 10.5154L36.5537 10.5204ZM30.0348 10.0283C29.8925 11.6488 29.7591 13.2677 29.6346 14.885C27.7936 14.721 25.9527 14.5569 24.1117 14.3929C24.005 12.779 23.8983 11.165 23.7827 9.55101C25.6029 9.68222 27.4246 9.82656 29.2477 9.98403L30.0348 10.0283ZM11.5231 8.82767C13.0053 8.88672 14.4875 8.9556 15.9698 9.03433C16.2944 10.5893 16.5879 12.1491 16.8591 13.7139L12.3902 13.3301C12.3101 12.9905 12.2257 12.6559 12.1456 12.3164C11.8833 11.2535 11.7054 10.048 11.5008 8.84243L11.5231 8.82767ZM24.9388 27.4474C24.8366 25.676 24.7254 23.9046 24.6187 22.1331L29.1232 22.2561C29.0165 23.9882 28.9187 25.7006 28.8342 27.4573C27.5209 27.4737 26.215 27.4753 24.9166 27.4622L24.9388 27.4474ZM39.404 25.1249C38.7637 27.3736 37.6253 27.3195 35.5665 27.3736C35.1441 27.3736 34.7172 27.3736 34.2947 27.4031C34.6016 25.7547 34.8951 24.0965 35.1841 22.4333C36.8294 22.4874 38.4791 22.5514 40.1244 22.6252C39.8621 23.4715 39.6219 24.3031 39.3818 25.1396L39.404 25.1249Z" fill="#1B1B1B"/>
<path d="M12.9415 35.8224C13.1949 35.1778 12.3323 34.6119 12.0788 35.2663C11.7986 35.943 11.6974 36.6937 11.7872 37.4314C11.8769 38.1691 12.1538 38.8635 12.5857 39.4341C12.9904 39.9852 13.6929 39.1979 13.2927 38.6517C13.0084 38.2594 12.8256 37.789 12.7637 37.2908C12.7018 36.7925 12.7633 36.285 12.9415 35.8224Z" fill="#1B1B1B"/>
<path d="M11.0646 36.6392C11.0634 36.4926 11.0099 36.3524 10.9158 36.2492C10.8217 36.146 10.6946 36.0881 10.5621 36.0881C10.4311 36.0918 10.3063 36.1511 10.2137 36.2536C10.121 36.3562 10.0674 36.4942 10.0641 36.6392C10.0106 37.1992 10.1081 37.7642 10.3442 38.263C10.4174 38.3754 10.5258 38.4534 10.6483 38.4819C10.7708 38.5105 10.8985 38.4874 11.0064 38.4172C11.1143 38.3471 11.1946 38.2349 11.2317 38.1026C11.2688 37.9703 11.2599 37.8275 11.2069 37.702C11.0642 37.3716 11.0146 37.0012 11.0646 36.6392Z" fill="#1B1B1B"/>
</g>
<defs>
<clipPath id="clip0_427_3302">
<rect width="43.3333" height="40" fill="white" transform="translate(0.935059)"/>
</clipPath>
</defs>
</svg>
