<svg width="78" height="60" viewBox="0 0 78 60" fill="none" xmlns="http://www.w3.org/2000/svg">
<path d="M9.8075 3.89412C6.57674 4.35565 5.76904 7.16335 5.76904 8.5095V13.7018C9.03827 13.7018 16.6152 13.5864 20.769 13.1249C24.9229 12.6633 54.0383 12.9326 68.0767 13.1249C71.1537 13.8941 77.3075 14.8557 77.3075 12.548C77.3075 9.66335 76.1537 4.47103 74.4229 3.89412C72.6921 3.3172 49.6152 3.31719 46.1537 3.89412C42.6921 4.47104 13.846 3.31719 9.8075 3.89412Z" fill="#7DFF68"/>
<g clip-path="url(#clip0_1686_18297)">
<path d="M75.7224 28.0439C75.6069 24.1164 75.6762 20.1889 75.7224 16.2613C75.7763 13.7578 75.784 11.2696 75.6531 8.76611C75.5453 6.76789 75.8995 4.21845 75.3528 2.2968C74.8061 0.375144 73.3046 0.267956 71.5028 0.176085C66.8288 -0.0459392 62.1164 0.176091 57.4424 0.122499C47.0011 0.0765627 36.5675 0.015312 26.1339 0C20.636 0 15.169 0.130151 9.6865 0.489983C7.70758 0.620135 4.41194 0.244992 2.80262 1.61541C1.72461 2.52648 1.5937 3.98112 1.3704 5.25201C0.943301 8.14773 0.711784 11.0687 0.677392 13.9951C0.41559 20.3267 0.531105 26.6582 0.138401 32.982C-0.177303 38.1039 0.0228993 43.2104 0.138401 48.3323C0.223102 51.2033 -0.700912 55.8351 1.74772 57.9941C4.19634 60.1531 9.61721 59.2574 12.6048 59.3492C18.1181 59.5177 23.6236 59.6708 29.1369 59.755C39.4704 59.9158 49.7808 59.5483 60.1066 59.9464C64.1794 60.1346 68.2608 59.9114 72.2882 59.2803C74.5982 58.8822 75.3297 57.5041 75.5607 55.3222C76.6002 46.3111 75.9996 37.0703 75.7224 28.0439ZM6.79126 2.97818C7.76147 2.88631 8.7394 2.85568 9.71731 2.79443C13.7368 2.52647 17.7485 2.34274 21.7756 2.31211C30.4305 2.24321 39.0777 2.31211 47.7249 2.38867L58.8823 2.4346C62.8017 2.4346 67.0598 1.96759 70.9407 2.47288C72.7656 2.71022 72.8426 2.86334 73.1737 4.70843C73.3756 6.50801 73.4656 8.31827 73.4432 10.1289C73.4432 10.3815 73.4432 10.6342 73.4432 10.8945C50.0195 10.0523 26.5907 9.97575 3.15682 10.6648C3.24922 9.34796 3.36472 8.03878 3.51873 6.72961C3.82673 4.23376 4.29643 3.2002 6.79126 2.97818ZM73.6588 45.0861C73.5587 48.2251 73.6588 51.41 73.3816 54.5489C73.1968 56.8457 72.2574 56.7232 70.1476 57.0677C67.9788 57.4413 65.7869 57.6665 63.5871 57.7415C55.4943 57.9176 47.3091 57.5501 39.2009 57.5654C29.6143 57.5654 20.0277 57.3051 10.4411 57.0141C7.44576 56.9299 2.79492 57.3357 2.61012 53.4924C2.50232 51.3258 2.53313 49.1438 2.47153 46.9772C2.32522 42.3147 2.19432 37.6675 2.47153 33.0126C2.90273 26.1682 2.67941 19.2318 3.05672 12.4027C26.5266 11.7137 50.0016 11.7902 73.4817 12.6324C73.4817 15.8785 73.3585 19.1247 73.3431 22.3632C73.3123 29.9196 73.8975 37.4301 73.6588 45.0861Z" fill="#1B1B1B"/>
<path d="M8.83957 9.2562C10.2487 9.09543 11.7271 8.28389 11.4884 6.64551C11.4257 5.96905 11.1132 5.33967 10.6112 4.87877C10.1093 4.41788 9.45346 4.15814 8.77027 4.14966C7.33036 4.14966 6.27545 5.52774 6.05215 6.82925C5.75954 8.45232 7.29956 9.43229 8.83957 9.2562ZM7.80776 6.95941C7.92327 6.53833 8.25437 5.88757 8.77027 5.90289C8.97565 5.89216 9.17853 5.95161 9.34522 6.07139C9.51191 6.19116 9.63238 6.36404 9.68659 6.56129C9.91759 7.2733 9.50177 7.43408 8.85496 7.55657C8.56924 7.62378 8.26931 7.59692 8.00027 7.48002C7.67686 7.31159 7.69226 7.25799 7.78466 6.92879L7.80776 6.95941Z" fill="#1B1B1B"/>
<path d="M16.0776 9.17957C16.4397 9.20658 16.8035 9.1612 17.1476 9.04611C17.4917 8.93103 17.8091 8.74856 18.0811 8.50949C18.3532 8.27043 18.5743 7.97962 18.7314 7.6542C18.8885 7.32878 18.9785 6.97536 18.996 6.61481C19.0344 6.26 18.9948 5.90113 18.8801 5.563C18.7653 5.22487 18.5781 4.91553 18.3314 4.65637C18.0846 4.39721 17.7843 4.19442 17.451 4.06197C17.1177 3.92953 16.7595 3.87061 16.4011 3.88928C15.6904 3.8341 14.9854 4.05174 14.4311 4.49745C13.8769 4.94316 13.5155 5.58307 13.4211 6.28561C13.3997 7.01642 13.6649 7.72688 14.1606 8.26689C14.6563 8.80691 15.3437 9.13418 16.0776 9.17957ZM15.1536 6.30857C15.2691 5.78797 15.9236 5.58125 16.4011 5.61187C16.8785 5.6425 17.3559 5.91046 17.2789 6.48466C17.2782 6.63022 17.2452 6.77385 17.1823 6.90526C17.1193 7.03667 17.0279 7.15261 16.9145 7.24479C16.8012 7.33697 16.6688 7.4031 16.5268 7.43846C16.3848 7.47381 16.2367 7.47752 16.0931 7.44931C15.956 7.4359 15.8229 7.39574 15.7014 7.33112C15.58 7.2665 15.4726 7.17869 15.3853 7.07272C15.298 6.96676 15.2327 6.84472 15.1929 6.71359C15.1532 6.58246 15.1398 6.44484 15.1536 6.30857Z" fill="#1B1B1B"/>
<path d="M23.8778 9.04934C24.5833 9.00241 25.2463 8.69696 25.7384 8.19208C26.2306 7.68721 26.5169 7.0188 26.542 6.31616C26.5063 5.59581 26.1927 4.91688 25.6663 4.42063C25.14 3.92438 24.4414 3.64903 23.7161 3.65188C22.9709 3.70235 22.2708 4.02506 21.7505 4.55791C21.2302 5.09075 20.9265 5.79608 20.8978 6.53818C20.79 8.1689 22.3608 9.14887 23.8778 9.04934ZM23.7161 5.37448C23.9642 5.36944 24.205 5.45764 24.3906 5.62147C24.5762 5.7853 24.6927 6.0127 24.717 6.25825C24.7413 6.5038 24.6716 6.74942 24.5217 6.94607C24.3719 7.14272 24.1529 7.27593 23.9086 7.31909C23.4158 7.41096 22.6611 7.20425 22.6226 6.66068C22.6139 6.35012 22.7206 6.04726 22.9223 5.80998C23.1241 5.57271 23.4066 5.41766 23.7161 5.37448Z" fill="#1B1B1B"/>
<mask id="path-6-inside-1_1686_18297" fill="white">
<path d="M33 52C35.7614 52 38.0779 49.7014 37.1743 47.092C36.4384 44.9668 35.227 43.0138 33.6066 41.3934C30.7936 38.5804 26.9782 37 23 37C19.0218 37 15.2064 38.5804 12.3934 41.3934C10.773 43.0138 9.56159 44.9668 8.82568 47.092C7.92208 49.7014 10.2386 52 13 52L23 52H33Z"/>
</mask>
<path d="M33 52C35.7614 52 38.0779 49.7014 37.1743 47.092C36.4384 44.9668 35.227 43.0138 33.6066 41.3934C30.7936 38.5804 26.9782 37 23 37C19.0218 37 15.2064 38.5804 12.3934 41.3934C10.773 43.0138 9.56159 44.9668 8.82568 47.092C7.92208 49.7014 10.2386 52 13 52L23 52H33Z" stroke="#1B1B1B" stroke-width="4" mask="url(#path-6-inside-1_1686_18297)"/>
<circle cx="23" cy="27" r="7" stroke="#1B1B1B" stroke-width="2"/>
<line x1="40" y1="22.5" x2="69" y2="22.5" stroke="#1B1B1B"/>
<line x1="40" y1="27.5" x2="69" y2="27.5" stroke="#1B1B1B"/>
<line x1="40" y1="32.5" x2="69" y2="32.5" stroke="#1B1B1B"/>
<line x1="51" y1="37.5" x2="69" y2="37.5" stroke="#1B1B1B"/>
<line x1="51" y1="42.5" x2="69" y2="42.5" stroke="#1B1B1B"/>
</g>
<defs>
<clipPath id="clip0_1686_18297">
<rect width="76.1538" height="60" fill="white"/>
</clipPath>
</defs>
</svg>
