<svg width="78" height="60" viewBox="0 0 78 60" fill="none" xmlns="http://www.w3.org/2000/svg">
<path d="M9.8075 3.89412C6.57674 4.35565 5.76904 7.16335 5.76904 8.5095V13.7018C9.03827 13.7018 16.6152 13.5864 20.769 13.1249C24.9229 12.6633 54.0383 12.9326 68.0767 13.1249C71.1537 13.8941 77.3075 14.8557 77.3075 12.548C77.3075 9.66335 76.1537 4.47103 74.4229 3.89412C72.6921 3.3172 49.6152 3.31719 46.1537 3.89412C42.6921 4.47104 13.846 3.31719 9.8075 3.89412Z" fill="white"/>
<g clip-path="url(#clip0_1686_18292)">
<path d="M75.7224 28.0439C75.6069 24.1164 75.6762 20.1889 75.7224 16.2613C75.7763 13.7578 75.784 11.2696 75.6531 8.76611C75.5453 6.76789 75.8995 4.21845 75.3528 2.2968C74.8061 0.375144 73.3046 0.267956 71.5028 0.176085C66.8288 -0.0459392 62.1164 0.176091 57.4424 0.122499C47.0011 0.0765627 36.5675 0.015312 26.1339 0C20.636 0 15.169 0.130151 9.6865 0.489983C7.70758 0.620135 4.41194 0.244992 2.80262 1.61541C1.72461 2.52648 1.5937 3.98112 1.3704 5.25201C0.943301 8.14773 0.711784 11.0687 0.677392 13.9951C0.41559 20.3267 0.531105 26.6582 0.138401 32.982C-0.177303 38.1039 0.0228993 43.2104 0.138401 48.3323C0.223102 51.2033 -0.700912 55.8351 1.74772 57.9941C4.19634 60.1531 9.61721 59.2574 12.6048 59.3492C18.1181 59.5177 23.6236 59.6708 29.1369 59.755C39.4704 59.9158 49.7808 59.5483 60.1066 59.9464C64.1794 60.1346 68.2608 59.9114 72.2882 59.2803C74.5982 58.8822 75.3297 57.5041 75.5607 55.3222C76.6002 46.3111 75.9996 37.0703 75.7224 28.0439ZM6.79126 2.97818C7.76147 2.88631 8.7394 2.85568 9.71731 2.79443C13.7368 2.52647 17.7485 2.34274 21.7756 2.31211C30.4305 2.24321 39.0777 2.31211 47.7249 2.38867L58.8823 2.4346C62.8017 2.4346 67.0598 1.96759 70.9407 2.47288C72.7656 2.71022 72.8426 2.86334 73.1737 4.70843C73.3756 6.50801 73.4656 8.31827 73.4432 10.1289C73.4432 10.3815 73.4432 10.6342 73.4432 10.8945C50.0195 10.0523 26.5907 9.97575 3.15682 10.6648C3.24922 9.34796 3.36472 8.03878 3.51873 6.72961C3.82673 4.23376 4.29643 3.2002 6.79126 2.97818ZM73.6588 45.0861C73.5587 48.2251 73.6588 51.41 73.3816 54.5489C73.1968 56.8457 72.2574 56.7232 70.1476 57.0677C67.9788 57.4413 65.7869 57.6665 63.5871 57.7415C55.4943 57.9176 47.3091 57.5501 39.2009 57.5654C29.6143 57.5654 20.0277 57.3051 10.4411 57.0141C7.44576 56.9299 2.79492 57.3357 2.61012 53.4924C2.50232 51.3258 2.53313 49.1438 2.47153 46.9772C2.32522 42.3147 2.19432 37.6675 2.47153 33.0126C2.90273 26.1682 2.67941 19.2318 3.05672 12.4027C26.5266 11.7137 50.0016 11.7902 73.4817 12.6324C73.4817 15.8785 73.3585 19.1247 73.3431 22.3632C73.3123 29.9196 73.8975 37.4301 73.6588 45.0861Z" fill="#1B1B1B"/>
<path d="M8.83957 9.2562C10.2487 9.09543 11.7271 8.28389 11.4884 6.64551C11.4257 5.96905 11.1132 5.33967 10.6112 4.87877C10.1093 4.41788 9.45346 4.15814 8.77027 4.14966C7.33036 4.14966 6.27545 5.52774 6.05215 6.82925C5.75954 8.45232 7.29956 9.43229 8.83957 9.2562ZM7.80776 6.95941C7.92327 6.53833 8.25437 5.88757 8.77027 5.90289C8.97565 5.89216 9.17853 5.95161 9.34522 6.07139C9.51191 6.19116 9.63238 6.36404 9.68659 6.56129C9.91759 7.2733 9.50177 7.43408 8.85496 7.55657C8.56924 7.62378 8.26931 7.59692 8.00027 7.48002C7.67686 7.31159 7.69226 7.25799 7.78466 6.92879L7.80776 6.95941Z" fill="#1B1B1B"/>
<path d="M16.0776 9.17957C16.4397 9.20658 16.8035 9.1612 17.1476 9.04611C17.4917 8.93103 17.8091 8.74856 18.0811 8.50949C18.3532 8.27043 18.5743 7.97962 18.7314 7.6542C18.8885 7.32878 18.9785 6.97536 18.996 6.61481C19.0344 6.26 18.9948 5.90113 18.8801 5.563C18.7653 5.22487 18.5781 4.91553 18.3314 4.65637C18.0846 4.39721 17.7843 4.19442 17.451 4.06197C17.1177 3.92953 16.7595 3.87061 16.4011 3.88928C15.6904 3.8341 14.9854 4.05174 14.4311 4.49745C13.8769 4.94316 13.5155 5.58307 13.4211 6.28561C13.3997 7.01642 13.6649 7.72688 14.1606 8.26689C14.6563 8.80691 15.3437 9.13418 16.0776 9.17957ZM15.1536 6.30857C15.2691 5.78797 15.9236 5.58125 16.4011 5.61187C16.8785 5.6425 17.3559 5.91046 17.2789 6.48466C17.2782 6.63022 17.2452 6.77385 17.1823 6.90526C17.1193 7.03667 17.0279 7.15261 16.9145 7.24479C16.8012 7.33697 16.6688 7.4031 16.5268 7.43846C16.3848 7.47381 16.2367 7.47752 16.0931 7.44931C15.956 7.4359 15.8229 7.39574 15.7014 7.33112C15.58 7.2665 15.4726 7.17869 15.3853 7.07272C15.298 6.96676 15.2327 6.84472 15.1929 6.71359C15.1532 6.58246 15.1398 6.44484 15.1536 6.30857Z" fill="#1B1B1B"/>
<path d="M23.8778 9.04934C24.5833 9.00241 25.2463 8.69696 25.7384 8.19208C26.2306 7.68721 26.5169 7.0188 26.542 6.31616C26.5063 5.59581 26.1927 4.91688 25.6663 4.42063C25.14 3.92438 24.4414 3.64903 23.7161 3.65188C22.9709 3.70235 22.2708 4.02506 21.7505 4.55791C21.2302 5.09075 20.9265 5.79608 20.8978 6.53818C20.79 8.1689 22.3608 9.14887 23.8778 9.04934ZM23.7161 5.37448C23.9642 5.36944 24.205 5.45764 24.3906 5.62147C24.5762 5.7853 24.6927 6.0127 24.717 6.25825C24.7413 6.5038 24.6716 6.74942 24.5217 6.94607C24.3719 7.14272 24.1529 7.27593 23.9086 7.31909C23.4158 7.41096 22.6611 7.20425 22.6226 6.66068C22.6139 6.35012 22.7206 6.04726 22.9223 5.80998C23.1241 5.57271 23.4066 5.41766 23.7161 5.37448Z" fill="#1B1B1B"/>
<line x1="45" y1="24.5" x2="70" y2="24.5" stroke="#1B1B1B"/>
<line x1="45" y1="29.5" x2="70" y2="29.5" stroke="#1B1B1B"/>
<line x1="45" y1="34.5" x2="70" y2="34.5" stroke="#1B1B1B"/>
<line x1="54.4829" y1="39.5" x2="70.0002" y2="39.5" stroke="#1B1B1B"/>
<line x1="54.4829" y1="44.5" x2="70.0002" y2="44.5" stroke="#1B1B1B"/>
<g clip-path="url(#clip1_1686_18292)">
<path d="M40.9964 26.5271C40.9945 26.306 40.9063 26.0945 40.7507 25.9381C40.5952 25.7818 40.3848 25.6931 40.1648 25.6912C38.5493 25.6912 37.0737 26.061 35.4509 26.061H34.2366C34.1993 26.0167 34.1528 25.981 34.1003 25.9565C34.0479 25.9321 33.9908 25.9194 33.933 25.9194C33.8752 25.9194 33.8181 25.9321 33.7656 25.9565C33.7132 25.981 33.6667 26.0167 33.6294 26.061C31.8667 26.061 30.1041 26.0943 28.3414 26.1942C25.8796 26.3348 23.4619 26.6085 20.9817 26.6159C19.0056 26.6159 16.9964 26.4457 15.0277 26.6566C14.9515 25.7875 14.8287 24.9231 14.6597 24.0674C14.4794 23.15 14.5567 22.3141 13.99 21.5373C14.0246 21.3822 13.9994 21.2196 13.9195 21.0823C13.8397 20.945 13.711 20.8433 13.5595 20.7976C13.2011 20.7538 12.8377 20.7789 12.4886 20.8715L12.2826 20.8974C12.3598 20.1577 12.2495 19.5658 11.2743 19.1701C10.6818 18.9296 9.91641 19.048 9.29819 19.085C8.47391 19.1331 7.64963 19.1072 6.82534 19.159C6.76164 19.0798 6.67076 19.0276 6.57062 19.0125C6.47048 18.9975 6.36835 19.0207 6.28439 19.0776L6.02682 19.2699C5.88757 19.2763 5.75361 19.3254 5.64305 19.4108C5.53249 19.4961 5.45066 19.6135 5.40861 19.7471C5.08478 20.6237 4.5144 22.4584 5.82075 22.8208C6.42793 22.9873 7.29269 22.7469 7.91459 22.7395C9.11054 22.7395 10.2586 22.8874 11.4472 22.9466C11.621 22.9437 11.787 22.8731 11.9099 22.7495C12.0328 22.626 12.1031 22.4592 12.1059 22.2845C12.1059 22.2845 12.1059 22.2475 12.1059 22.229C12.4201 22.2569 12.7365 22.2458 13.048 22.1957C13.0849 22.3719 13.0961 22.5526 13.0811 22.7321C13.0406 23.0402 13.0406 23.3523 13.0811 23.6605C13.1952 24.5038 13.3092 25.3361 13.3792 26.1794H13.3534C13.3534 26.5493 13.3975 26.9192 13.438 27.2891C13.438 27.352 13.438 27.4148 13.438 27.4814C13.4395 27.568 13.4532 27.6539 13.4785 27.7366C13.5668 28.4764 13.6699 29.2162 13.7177 29.9855C13.7954 31.5843 14.0421 33.1702 14.4537 34.7164C14.6524 35.3859 15.0609 36.0628 15.0572 36.7767C15.0326 37.2814 15.0486 37.7873 15.105 38.2895C15.2044 38.9035 15.1933 40.1205 15.6533 40.5828C16.2458 41.1746 17.2614 40.986 17.99 40.9009C19.5429 40.7234 21.1069 41.0858 22.6524 41.1894C24.3672 41.3078 26.174 40.875 27.9146 40.8602H29.1142C29.2459 40.8936 29.3837 40.8936 29.5153 40.8602H32.9523C34.4373 40.8992 35.9232 40.8436 37.4012 40.6938C36.6027 40.7973 37.0958 43.7047 35.9293 43.8082C34.7628 43.9118 33.4859 43.5789 32.312 43.4716C30.5501 43.368 28.7825 43.4274 27.0314 43.6492C23.4251 43.9932 19.8962 44.4259 16.2678 44.4259C15.1639 44.4259 15.1639 46.1311 16.2678 46.1274C21.4196 46.1274 26.5162 45.0177 31.668 45.1287C33.3755 45.1694 35.1234 45.776 36.8198 45.3617C38.1519 45.0399 38.3948 42.9427 38.7039 41.8774C38.9321 41.097 39.208 39.8356 38.5825 39.266C38.6744 38.4555 38.842 37.6555 39.0829 36.8765C39.2521 36.8159 39.3933 36.6952 39.4801 36.5371C39.5669 36.3791 39.5931 36.1946 39.554 36.0184C39.554 35.9444 39.5282 35.8667 39.5172 35.7928C39.5061 35.7391 39.4888 35.687 39.4656 35.6374C39.7585 34.7685 39.9897 33.8797 40.1575 32.9779C40.4997 30.8289 40.9781 28.6946 40.9964 26.5271ZM7.28901 21.3487C7.12527 21.3283 6.95964 21.3283 6.7959 21.3487L6.61191 21.3709H6.41688C6.44382 21.0129 6.50043 20.6578 6.58614 20.3093C6.62582 20.2754 6.65835 20.2339 6.68182 20.1872C7.71748 20.2692 8.7572 20.2865 9.79499 20.239C10.2329 20.239 11.1786 20.08 11.0609 20.7643C11.0314 20.9233 10.9983 21.0824 10.9652 21.2377C10.9105 21.3296 10.8801 21.434 10.8769 21.541C9.69931 21.4855 8.50704 21.3598 7.28901 21.3524V21.3487ZM15.6055 31.6833C15.5797 31.4725 15.5503 31.2654 15.5172 31.0693C15.3479 30.0299 15.2007 28.9203 15.0866 27.8402C16.0066 27.9697 16.9265 28.0584 17.8649 28.1139C17.9127 29.2014 18.0047 30.2778 18.1188 31.3504C17.2695 31.3446 16.4236 31.4579 15.6055 31.687V31.6833ZM16.3709 35.1048C16.0295 34.2954 15.8124 33.4386 15.7269 32.5637C16.5618 32.4613 17.4038 32.4304 18.2439 32.4712C18.358 33.4107 18.4905 34.3502 18.6119 35.286C17.9017 35.3082 17.1988 35.36 16.4997 35.4488C16.4647 35.3324 16.4217 35.2187 16.3709 35.1085V35.1048ZM17.0185 39.3067C16.9523 38.9109 16.8677 38.5151 16.7904 38.1194C16.7128 37.5693 16.6771 37.0141 16.6837 36.4586C17.3865 36.5288 18.093 36.5473 18.8033 36.5584C18.9247 37.424 19.0461 38.2858 19.1712 39.1476C18.4758 39.2216 17.5926 39.3918 17.0185 39.3104V39.3067ZM18.7186 28.1583C20.0765 28.2101 21.4417 28.1953 22.8033 28.1583C22.7481 29.0349 22.9836 29.9005 23.0167 30.7919C23.0167 30.9694 23.0167 31.1433 23.0167 31.3208L20.0986 31.3615H19.1896C19.0572 30.2852 18.8989 29.2199 18.7186 28.162V28.1583ZM19.5981 34.2762C19.5135 33.6918 19.4362 33.1037 19.3589 32.5156C19.6055 32.5156 19.8594 32.5156 20.0949 32.5378L23.0388 32.5785C23.0388 33.3182 23.0682 34.058 23.1381 34.7978C23.1381 34.9753 23.1639 35.1677 23.1676 35.3933C22.0268 35.3341 20.8787 35.2749 19.738 35.2675C19.7048 34.9457 19.6349 34.6128 19.5981 34.2799V34.2762ZM20.4592 39.2142C20.3267 38.3339 20.1611 37.4573 19.9955 36.5769H20.2274C21.2209 36.6028 22.2108 36.6546 23.2044 36.7101C23.1771 37.6038 23.3016 38.4957 23.5724 39.3474C22.5331 39.4253 21.4884 39.3819 20.4592 39.2179V39.2142ZM23.5503 28.1176C24.9413 28.051 26.3249 27.9549 27.6938 27.8439H27.8299C27.8299 27.8772 27.8299 27.9105 27.8299 27.9475C27.8282 27.9659 27.8282 27.9845 27.8299 28.003C27.8079 29.1126 27.8299 30.1853 27.8888 31.2802H26.7849L24.1023 31.306C23.9735 30.2334 23.7637 29.2125 23.5503 28.1176ZM24.231 33.0556C24.231 32.9003 24.231 32.7449 24.231 32.5933C25.0884 32.5933 25.9459 32.6117 26.8069 32.6154H27.9919C28.0544 33.5808 28.1354 34.5426 28.22 35.5043C27.5908 35.5043 26.9652 35.5043 26.3396 35.5043C25.714 35.5043 25.0958 35.4821 24.4666 35.4562C24.3453 34.6608 24.2667 33.8595 24.231 33.0556ZM25.048 39.2031L24.9376 38.9146C24.9187 38.8411 24.876 38.776 24.8161 38.7297C24.7089 38.0884 24.6413 37.4411 24.6138 36.7915C25.1841 36.8174 25.7508 36.8396 26.3212 36.8543C26.9872 36.8543 27.6496 36.8543 28.3157 36.8543C28.3782 37.5941 28.4371 38.3339 28.4886 39.0552C27.3405 39.0811 26.1924 39.107 25.048 39.2031ZM32.3046 39.0182C32.3029 39.0292 32.3029 39.0404 32.3046 39.0515C31.8741 39.0515 31.4472 39.0737 31.0241 39.0737H29.9569C29.9385 38.3339 29.8833 37.5941 29.8134 36.8543C30.6634 36.8543 31.5098 36.8322 32.3598 36.8174C32.2956 37.5491 32.2772 38.2841 32.3046 39.0182ZM32.5181 35.434L29.6772 35.4858C29.6147 34.9346 29.5484 34.3761 29.4859 33.8324C29.438 33.4329 29.4012 33.0297 29.3681 32.6265L32.9449 32.645C32.7941 33.5439 32.6395 34.4834 32.5144 35.434H32.5181ZM33.1252 31.2506H29.2651C29.2039 30.0777 29.0587 28.9108 28.8309 27.7588C30.3506 27.6812 31.8741 27.6812 33.3976 27.6849C33.2872 28.8796 33.2504 30.0669 33.1252 31.2506ZM36.9302 38.9294C35.8741 38.9109 34.8033 38.9553 33.7324 38.9997C33.8539 38.2599 33.9311 37.5386 33.9937 36.8026C35.1345 36.8026 36.2715 36.8026 37.4123 36.8285C37.1962 37.5148 37.035 38.2173 36.9302 38.9294ZM38.4389 33.1185C38.2933 33.9096 38.0928 34.6895 37.8391 35.4525C36.5917 35.4118 35.3442 35.4007 34.0967 35.4118C34.1593 34.5389 34.2218 33.6622 34.3359 32.793C34.3359 32.7486 34.3359 32.7042 34.3359 32.6635C35.7527 32.6894 37.2467 32.6931 38.5383 32.2271C38.5538 32.2198 38.5686 32.2112 38.5825 32.2012C38.5383 32.5082 38.4868 32.8152 38.4353 33.1185H38.4389ZM38.7701 31.2284H38.6266C38.6015 31.2124 38.5742 31.1999 38.5457 31.1914C37.3534 30.8437 35.8631 31.0471 34.4978 31.1692C34.5825 30.0142 34.5825 28.8546 34.4978 27.6996H34.8143C36.3525 27.6996 37.8134 27.4592 39.3 27.3815C39.1999 28.6733 39.023 29.9579 38.7701 31.2284Z" fill="#1B1B1B"/>
<path d="M20.3893 48.173C19.9293 47.3333 19.1749 46.7378 18.1997 46.9227C17.7728 47.005 17.3776 47.2062 17.059 47.5035C16.8182 47.5532 16.5902 47.6524 16.3895 47.795C16.1887 47.9376 16.0195 48.1205 15.8925 48.332C15.6252 48.7074 15.4596 49.1461 15.4118 49.6052C15.3641 50.0643 15.4359 50.528 15.6202 50.9508C16.2936 52.4304 18.2881 52.7189 19.668 52.1825C20.0149 52.0616 20.3275 51.8582 20.5794 51.5896C20.8312 51.3211 21.0147 50.9953 21.1142 50.6401C21.3313 49.7746 20.783 48.8868 20.3893 48.173ZM19.0093 50.8916C18.6801 51.0046 18.3275 51.0299 17.9856 50.9651C17.6438 50.9003 17.3246 50.7475 17.059 50.5217C16.7499 50.2184 16.8382 49.7524 16.9523 49.3899C17.1694 48.7167 17.9017 48.7056 18.4684 48.4948C18.5645 48.4655 18.6467 48.4021 18.6995 48.3163C18.7524 48.2305 18.7722 48.1282 18.7554 48.0287C19.1675 48.3283 19.4031 48.9571 19.5723 49.3973C19.8594 50.1186 19.9293 50.6031 19.0093 50.8916Z" fill="#1B1B1B"/>
<path d="M37.7655 48.5428C37.3644 47.7402 36.6247 47.4665 35.771 47.4997C35.1635 47.4951 34.5573 47.5596 33.9642 47.6921C32.0286 47.8622 31.9955 50.5957 32.7756 51.9532C33.5889 53.3662 35.4214 53.1664 36.6064 52.4118C37.2456 52.0292 37.7192 51.4198 37.9337 50.7037C38.1482 49.9876 38.0882 49.2167 37.7655 48.5428ZM36.0139 51.0877C35.4987 51.4797 34.6376 51.8274 34.1004 51.3133C33.4233 50.6475 33.7324 49.4306 34.2328 48.6871C35.0277 48.5206 36.3635 48.5465 36.5696 49.057C36.7248 49.4078 36.7542 49.8019 36.6529 50.1722C36.5516 50.5424 36.3258 50.8659 36.0139 51.0877Z" fill="#1B1B1B"/>
<path d="M35.4287 49.9447C35.3926 49.8126 35.3101 49.6981 35.1964 49.6225C35.0828 49.5469 34.9457 49.5153 34.8106 49.5336C34.6755 49.5519 34.5516 49.6189 34.4619 49.722C34.3722 49.8251 34.3228 49.9575 34.3228 50.0945C34.3228 50.2315 34.3722 50.3638 34.4619 50.467C34.5516 50.5701 34.6755 50.6371 34.8106 50.6554C34.9457 50.6736 35.0828 50.6421 35.1964 50.5665C35.3101 50.4909 35.3926 50.3764 35.4287 50.2443C35.4495 50.1971 35.4602 50.1461 35.4602 50.0945C35.4602 50.0429 35.4495 49.9919 35.4287 49.9447Z" fill="#1B1B1B"/>
<path d="M18.0084 49.0605C17.8775 49.0821 17.7585 49.1497 17.6726 49.2514C17.5867 49.353 17.5396 49.482 17.5396 49.6154C17.5396 49.7487 17.5867 49.8777 17.6726 49.9794C17.7585 50.081 17.8775 50.1486 18.0084 50.1702C18.1394 50.1486 18.2584 50.081 18.3443 49.9794C18.4302 49.8777 18.4773 49.7487 18.4773 49.6154C18.4773 49.482 18.4302 49.353 18.3443 49.2514C18.2584 49.1497 18.1394 49.0821 18.0084 49.0605Z" fill="#1B1B1B"/>
</g>
</g>
<defs>
<clipPath id="clip0_1686_18292">
<rect width="76.1538" height="60" fill="white"/>
</clipPath>
<clipPath id="clip1_1686_18292">
<rect width="36" height="34" fill="white" transform="translate(5 19)"/>
</clipPath>
</defs>
</svg>
