<svg width="78" height="60" viewBox="0 0 78 60" fill="none" xmlns="http://www.w3.org/2000/svg">
<path d="M9.8075 3.89412C6.57674 4.35565 5.76904 7.16335 5.76904 8.5095V13.7018C9.03827 13.7018 16.6152 13.5864 20.769 13.1249C24.9229 12.6633 54.0383 12.9326 68.0767 13.1249C71.1537 13.8941 77.3075 14.8557 77.3075 12.548C77.3075 9.66335 76.1537 4.47103 74.4229 3.89412C72.6921 3.3172 49.6152 3.31719 46.1537 3.89412C42.6921 4.47104 13.846 3.31719 9.8075 3.89412Z" fill="white"/>
<g clip-path="url(#clip0_1686_18291)">
<path d="M75.7224 28.0439C75.6069 24.1164 75.6762 20.1889 75.7224 16.2613C75.7763 13.7578 75.784 11.2696 75.6531 8.76611C75.5453 6.76789 75.8995 4.21845 75.3528 2.2968C74.8061 0.375144 73.3046 0.267956 71.5028 0.176085C66.8288 -0.0459392 62.1164 0.176091 57.4424 0.122499C47.0011 0.0765627 36.5675 0.015312 26.1339 0C20.636 0 15.169 0.130151 9.6865 0.489983C7.70758 0.620135 4.41194 0.244992 2.80262 1.61541C1.72461 2.52648 1.5937 3.98112 1.3704 5.25201C0.943301 8.14773 0.711784 11.0687 0.677392 13.9951C0.41559 20.3267 0.531105 26.6582 0.138401 32.982C-0.177303 38.1039 0.0228993 43.2104 0.138401 48.3323C0.223102 51.2033 -0.700912 55.8351 1.74772 57.9941C4.19634 60.1531 9.61721 59.2574 12.6048 59.3492C18.1181 59.5177 23.6236 59.6708 29.1369 59.755C39.4704 59.9158 49.7808 59.5483 60.1066 59.9464C64.1794 60.1346 68.2608 59.9114 72.2882 59.2803C74.5982 58.8822 75.3297 57.5041 75.5607 55.3222C76.6002 46.3111 75.9996 37.0703 75.7224 28.0439ZM6.79126 2.97818C7.76147 2.88631 8.7394 2.85568 9.71731 2.79443C13.7368 2.52647 17.7485 2.34274 21.7756 2.31211C30.4305 2.24321 39.0777 2.31211 47.7249 2.38867L58.8823 2.4346C62.8017 2.4346 67.0598 1.96759 70.9407 2.47288C72.7656 2.71022 72.8426 2.86334 73.1737 4.70843C73.3756 6.50801 73.4656 8.31827 73.4432 10.1289C73.4432 10.3815 73.4432 10.6342 73.4432 10.8945C50.0195 10.0523 26.5907 9.97575 3.15682 10.6648C3.24922 9.34796 3.36472 8.03878 3.51873 6.72961C3.82673 4.23376 4.29643 3.2002 6.79126 2.97818ZM73.6588 45.0861C73.5587 48.2251 73.6588 51.41 73.3816 54.5489C73.1968 56.8457 72.2574 56.7232 70.1476 57.0677C67.9788 57.4413 65.7869 57.6665 63.5871 57.7415C55.4943 57.9176 47.3091 57.5501 39.2009 57.5654C29.6143 57.5654 20.0277 57.3051 10.4411 57.0141C7.44576 56.9299 2.79492 57.3357 2.61012 53.4924C2.50232 51.3258 2.53313 49.1438 2.47153 46.9772C2.32522 42.3147 2.19432 37.6675 2.47153 33.0126C2.90273 26.1682 2.67941 19.2318 3.05672 12.4027C26.5266 11.7137 50.0016 11.7902 73.4817 12.6324C73.4817 15.8785 73.3585 19.1247 73.3431 22.3632C73.3123 29.9196 73.8975 37.4301 73.6588 45.0861Z" fill="#1B1B1B"/>
<path d="M8.83957 9.2562C10.2487 9.09543 11.7271 8.28389 11.4884 6.64551C11.4257 5.96905 11.1132 5.33967 10.6112 4.87877C10.1093 4.41788 9.45346 4.15814 8.77027 4.14966C7.33036 4.14966 6.27545 5.52774 6.05215 6.82925C5.75954 8.45232 7.29956 9.43229 8.83957 9.2562ZM7.80776 6.95941C7.92327 6.53833 8.25437 5.88757 8.77027 5.90289C8.97565 5.89216 9.17853 5.95161 9.34522 6.07139C9.51191 6.19116 9.63238 6.36404 9.68659 6.56129C9.91759 7.2733 9.50177 7.43408 8.85496 7.55657C8.56924 7.62378 8.26931 7.59692 8.00027 7.48002C7.67686 7.31159 7.69226 7.25799 7.78466 6.92879L7.80776 6.95941Z" fill="#1B1B1B"/>
<path d="M16.0776 9.17957C16.4397 9.20658 16.8035 9.1612 17.1476 9.04611C17.4917 8.93103 17.8091 8.74856 18.0811 8.50949C18.3532 8.27043 18.5743 7.97962 18.7314 7.6542C18.8885 7.32878 18.9785 6.97536 18.996 6.61481C19.0344 6.26 18.9948 5.90113 18.8801 5.563C18.7653 5.22487 18.5781 4.91553 18.3314 4.65637C18.0846 4.39721 17.7843 4.19442 17.451 4.06197C17.1177 3.92953 16.7595 3.87061 16.4011 3.88928C15.6904 3.8341 14.9854 4.05174 14.4311 4.49745C13.8769 4.94316 13.5155 5.58307 13.4211 6.28561C13.3997 7.01642 13.6649 7.72688 14.1606 8.26689C14.6563 8.80691 15.3437 9.13418 16.0776 9.17957ZM15.1536 6.30857C15.2691 5.78797 15.9236 5.58125 16.4011 5.61187C16.8785 5.6425 17.3559 5.91046 17.2789 6.48466C17.2782 6.63022 17.2452 6.77385 17.1823 6.90526C17.1193 7.03667 17.0279 7.15261 16.9145 7.24479C16.8012 7.33697 16.6688 7.4031 16.5268 7.43846C16.3848 7.47381 16.2367 7.47752 16.0931 7.44931C15.956 7.4359 15.8229 7.39574 15.7014 7.33112C15.58 7.2665 15.4726 7.17869 15.3853 7.07272C15.298 6.96676 15.2327 6.84472 15.1929 6.71359C15.1532 6.58246 15.1398 6.44484 15.1536 6.30857Z" fill="#1B1B1B"/>
<path d="M23.8778 9.04934C24.5833 9.00241 25.2463 8.69696 25.7384 8.19208C26.2306 7.68721 26.5169 7.0188 26.542 6.31616C26.5063 5.59581 26.1927 4.91688 25.6663 4.42063C25.14 3.92438 24.4414 3.64903 23.7161 3.65188C22.9709 3.70235 22.2708 4.02506 21.7505 4.55791C21.2302 5.09075 20.9265 5.79608 20.8978 6.53818C20.79 8.1689 22.3608 9.14887 23.8778 9.04934ZM23.7161 5.37448C23.9642 5.36944 24.205 5.45764 24.3906 5.62147C24.5762 5.7853 24.6927 6.0127 24.717 6.25825C24.7413 6.5038 24.6716 6.74942 24.5217 6.94607C24.3719 7.14272 24.1529 7.27593 23.9086 7.31909C23.4158 7.41096 22.6611 7.20425 22.6226 6.66068C22.6139 6.35012 22.7206 6.04726 22.9223 5.80998C23.1241 5.57271 23.4066 5.41766 23.7161 5.37448Z" fill="#1B1B1B"/>
<line x1="46" y1="23.5" x2="70" y2="23.5" stroke="#1B1B1B"/>
<line x1="46" y1="28.5" x2="70" y2="28.5" stroke="#1B1B1B"/>
<line x1="46" y1="33.5" x2="70" y2="33.5" stroke="#1B1B1B"/>
<line x1="55.1035" y1="38.5" x2="70.0001" y2="38.5" stroke="#1B1B1B"/>
<line x1="55.1035" y1="43.5" x2="70.0001" y2="43.5" stroke="#1B1B1B"/>
<path fill-rule="evenodd" clip-rule="evenodd" d="M40.5459 34.7337C40.3397 34.4001 40.0501 34.1272 39.7098 33.9457C39.3695 33.7642 38.992 33.6813 38.6197 33.7063C38.2475 33.7313 37.8954 33.8632 37.6029 34.0872C37.3104 34.3112 37.0893 34.6184 36.9643 34.9742C36.8394 35.3301 36.8156 35.7203 36.8956 36.1012C36.9757 36.4821 37.1564 36.8384 37.4174 37.13C37.6784 37.4216 38.0094 37.637 38.3731 37.7519C38.7368 37.8668 39.1188 37.8767 39.476 37.7804C40.085 38.7176 40.6275 39.6964 41.0989 40.7087C41.9377 42.5083 42.9036 45.17 42.7357 47.6378C42.591 49.7716 41.6512 51.3467 39.8626 52.4531C38.1539 53.5101 36.5779 53.6374 35.0384 52.8469C32.9428 51.7702 30.9019 48.9617 29.1364 44.7246C28.3066 42.7224 27.6239 40.6662 27.0941 38.5743L27.1156 38.561C28.3438 37.1791 29.0833 35.6647 29.2388 33.892C29.4063 31.9867 28.9283 29.6935 28.2994 27.445C28.1987 27.2717 27.9962 27.1946 27.8756 27.0111C27.6864 26.7223 27.5927 26.2335 27.4483 25.819C27.3203 25.4495 25.4804 21.5406 25.1448 20.9258C25.0999 20.8435 25.0506 20.7637 24.997 20.6869C23.8364 19.0269 22.1707 18.542 20.5015 18.5144C19.3959 16.1308 16.5896 17.1562 16.5613 19.0778C16.5599 19.1803 16.5804 19.2378 16.5971 19.386C16.8463 21.5878 19.9705 22.0684 20.6052 19.9334C21.1278 19.9004 21.6574 19.9644 22.1686 20.1223C22.748 20.3031 23.4038 20.6336 23.8634 21.2751C24.4533 22.0978 26.5397 26.9781 26.5742 27.2443C26.6205 27.5904 26.4629 27.7356 26.4837 27.9332C26.4931 28.02 26.597 28.2196 26.6376 28.3445C27.427 30.9306 27.5755 33.3955 26.5216 35.5076C26.2074 36.1372 25.7478 36.9056 25.0967 37.2125C23.565 37.934 21.9213 37.6325 20.5423 37.117C19.4359 36.7033 18.4177 36.0893 17.3662 35.1565C17.2058 35.0142 17.0332 34.827 16.8484 34.6533C16.6979 34.5124 16.5065 34.2892 16.3586 34.1964C16.1558 34.0692 15.9771 34.1776 15.7304 34.0153C15.5482 33.8962 15.2721 33.5353 15.0053 33.2608C14.3965 32.635 12.4396 30.1403 11.9908 29.557C10.7784 27.9805 11.3104 26.5751 11.7889 25.3887C12.289 25.3342 12.6948 25.4238 13.181 25.1332C13.6539 24.8503 13.9849 24.32 14.0941 23.853C14.217 23.3261 14.0716 22.3752 13.4716 21.7611C12.7656 21.0391 11.2397 20.8346 10.4043 21.8975C10.0386 22.3625 9.89721 23.2237 10.1085 23.8415C10.2174 24.1597 10.335 24.2824 10.601 24.6377C10.2927 25.3703 9.96531 26.1843 9.91794 27.0414C9.86897 27.9284 10.08 29.017 10.8952 30.1244C11.7241 31.2506 13.9083 33.9228 14.9203 34.9614C15.022 35.1453 15.0258 35.3855 15.1482 35.5802C15.3802 35.9486 15.9457 36.2884 16.3808 36.6538C16.8343 37.035 17.2468 37.3801 17.6222 37.6587C20.0761 39.4803 22.8557 40.4407 25.5205 39.4846L25.6156 39.4295C26.1505 41.4308 26.8176 43.3994 27.6119 45.3212C29.575 50.032 31.8469 53.0767 34.365 54.3691C36.4359 55.4328 38.5948 55.2865 40.7812 53.934C44.0389 51.9188 45.1412 48.42 43.9712 43.8145C43.3884 41.5236 42.3745 39.4741 41.628 38.1577C41.3299 37.6327 41.0154 37.1242 40.7197 36.6892C40.8492 36.3829 40.9011 36.0441 40.8708 35.7029C40.8405 35.3617 40.7289 35.0287 40.5459 34.7337ZM19.1616 20.0602C18.993 20.1645 18.7952 20.2132 18.5933 20.2002C18.3913 20.1871 18.1944 20.1129 18.0272 19.9868C17.86 19.8608 17.7302 19.6887 17.6541 19.4922C17.578 19.2957 17.5591 19.0836 17.5998 18.8829C17.6405 18.6821 17.7389 18.5017 17.8826 18.3643C18.0262 18.227 18.2088 18.139 18.4071 18.1113C18.6054 18.0837 18.8105 18.1177 18.9966 18.2091C19.1826 18.3005 19.3412 18.4452 19.4523 18.6248C19.5262 18.744 19.5773 18.8758 19.6027 19.0125C19.6281 19.1492 19.6273 19.2882 19.6003 19.4216C19.5733 19.5549 19.5207 19.68 19.4455 19.7897C19.3702 19.8993 19.2738 19.9914 19.1618 20.0606L19.1616 20.0602ZM11.5412 22.2629C11.7098 22.1586 11.9076 22.1099 12.1096 22.123C12.3115 22.1361 12.5085 22.2103 12.6757 22.3364C12.8429 22.4624 12.9727 22.6346 13.0487 22.8311C13.1248 23.0277 13.1437 23.2397 13.1029 23.4405C13.0622 23.6412 12.9638 23.8217 12.82 23.959C12.6763 24.0963 12.4937 24.1843 12.2954 24.2119C12.0971 24.2394 11.8919 24.2053 11.7059 24.1139C11.5198 24.0224 11.3613 23.8777 11.2502 23.698C11.1765 23.5788 11.1255 23.447 11.1002 23.3104C11.0749 23.1737 11.0758 23.0348 11.1028 22.9015C11.1298 22.7683 11.1824 22.6433 11.2577 22.5337C11.3329 22.4241 11.4292 22.3321 11.5412 22.2629ZM39.456 36.7315C39.2782 36.8415 39.0696 36.8928 38.8567 36.8791C38.6437 36.8653 38.436 36.787 38.2597 36.6541C38.0834 36.5212 37.9465 36.3397 37.8662 36.1324C37.786 35.9252 37.7661 35.7016 37.809 35.4899C37.8519 35.2782 37.9556 35.0879 38.1072 34.943C38.2587 34.7982 38.4512 34.7053 38.6603 34.6762C38.8694 34.6471 39.0858 34.683 39.282 34.7793C39.4782 34.8757 39.6454 35.0283 39.7626 35.2177C39.8405 35.3434 39.8945 35.4824 39.9212 35.6266C39.948 35.7708 39.9472 35.9174 39.9188 36.0581C39.8903 36.1987 39.8349 36.3307 39.7555 36.4464C39.6762 36.562 39.5746 36.6592 39.4565 36.7323L39.456 36.7315Z" fill="#1B1B1B"/>
</g>
<defs>
<clipPath id="clip0_1686_18291">
<rect width="76.1538" height="60" fill="white"/>
</clipPath>
</defs>
</svg>
