<svg width="78" height="60" viewBox="0 0 78 60" fill="none" xmlns="http://www.w3.org/2000/svg">
<path d="M9.8075 3.89412C6.57674 4.35565 5.76904 7.16335 5.76904 8.5095V13.7018C9.03827 13.7018 16.6152 13.5864 20.769 13.1249C24.9229 12.6633 54.0383 12.9326 68.0767 13.1249C71.1537 13.8941 77.3075 14.8557 77.3075 12.548C77.3075 9.66335 76.1537 4.47103 74.4229 3.89412C72.6921 3.3172 49.6152 3.31719 46.1537 3.89412C42.6921 4.47104 13.846 3.31719 9.8075 3.89412Z" fill="#7DFF68"/>
<g clip-path="url(#clip0_1686_18288)">
<path d="M75.7224 28.0439C75.6069 24.1164 75.6762 20.1889 75.7224 16.2613C75.7763 13.7578 75.784 11.2696 75.6531 8.76611C75.5453 6.76789 75.8995 4.21845 75.3528 2.2968C74.8061 0.375144 73.3046 0.267956 71.5028 0.176085C66.8288 -0.0459392 62.1164 0.176091 57.4424 0.122499C47.0011 0.0765627 36.5675 0.015312 26.1339 0C20.636 0 15.169 0.130151 9.6865 0.489983C7.70758 0.620135 4.41194 0.244992 2.80262 1.61541C1.72461 2.52648 1.5937 3.98112 1.3704 5.25201C0.943301 8.14773 0.711784 11.0687 0.677392 13.9951C0.41559 20.3267 0.531105 26.6582 0.138401 32.982C-0.177303 38.1039 0.0228993 43.2104 0.138401 48.3323C0.223102 51.2033 -0.700912 55.8351 1.74772 57.9941C4.19634 60.1531 9.61721 59.2574 12.6048 59.3492C18.1181 59.5177 23.6236 59.6708 29.1369 59.755C39.4704 59.9158 49.7808 59.5483 60.1066 59.9464C64.1794 60.1346 68.2608 59.9114 72.2882 59.2803C74.5982 58.8822 75.3297 57.5041 75.5607 55.3222C76.6002 46.3111 75.9996 37.0703 75.7224 28.0439ZM6.79126 2.97818C7.76147 2.88631 8.7394 2.85568 9.71731 2.79443C13.7368 2.52647 17.7485 2.34274 21.7756 2.31211C30.4305 2.24321 39.0777 2.31211 47.7249 2.38867L58.8823 2.4346C62.8017 2.4346 67.0598 1.96759 70.9407 2.47288C72.7656 2.71022 72.8426 2.86334 73.1737 4.70843C73.3756 6.50801 73.4656 8.31827 73.4432 10.1289C73.4432 10.3815 73.4432 10.6342 73.4432 10.8945C50.0195 10.0523 26.5907 9.97575 3.15682 10.6648C3.24922 9.34796 3.36472 8.03878 3.51873 6.72961C3.82673 4.23376 4.29643 3.2002 6.79126 2.97818ZM73.6588 45.0861C73.5587 48.2251 73.6588 51.41 73.3816 54.5489C73.1968 56.8457 72.2574 56.7232 70.1476 57.0677C67.9788 57.4413 65.7869 57.6665 63.5871 57.7415C55.4943 57.9176 47.3091 57.5501 39.2009 57.5654C29.6143 57.5654 20.0277 57.3051 10.4411 57.0141C7.44576 56.9299 2.79492 57.3357 2.61012 53.4924C2.50232 51.3258 2.53313 49.1438 2.47153 46.9772C2.32522 42.3147 2.19432 37.6675 2.47153 33.0126C2.90273 26.1682 2.67941 19.2318 3.05672 12.4027C26.5266 11.7137 50.0016 11.7902 73.4817 12.6324C73.4817 15.8785 73.3585 19.1247 73.3431 22.3632C73.3123 29.9196 73.8975 37.4301 73.6588 45.0861Z" fill="#1B1B1B"/>
<path d="M8.83957 9.2562C10.2487 9.09543 11.7271 8.28389 11.4884 6.64551C11.4257 5.96905 11.1132 5.33967 10.6112 4.87877C10.1093 4.41788 9.45346 4.15814 8.77027 4.14966C7.33036 4.14966 6.27545 5.52774 6.05215 6.82925C5.75954 8.45232 7.29956 9.43229 8.83957 9.2562ZM7.80776 6.95941C7.92327 6.53833 8.25437 5.88757 8.77027 5.90289C8.97565 5.89216 9.17853 5.95161 9.34522 6.07139C9.51191 6.19116 9.63238 6.36404 9.68659 6.56129C9.91759 7.2733 9.50177 7.43408 8.85496 7.55657C8.56924 7.62378 8.26931 7.59692 8.00027 7.48002C7.67686 7.31159 7.69226 7.25799 7.78466 6.92879L7.80776 6.95941Z" fill="#1B1B1B"/>
<path d="M16.0776 9.17957C16.4397 9.20658 16.8035 9.1612 17.1476 9.04611C17.4917 8.93103 17.8091 8.74856 18.0811 8.50949C18.3532 8.27043 18.5743 7.97962 18.7314 7.6542C18.8885 7.32878 18.9785 6.97536 18.996 6.61481C19.0344 6.26 18.9948 5.90113 18.8801 5.563C18.7653 5.22487 18.5781 4.91553 18.3314 4.65637C18.0846 4.39721 17.7843 4.19442 17.451 4.06197C17.1177 3.92953 16.7595 3.87061 16.4011 3.88928C15.6904 3.8341 14.9854 4.05174 14.4311 4.49745C13.8769 4.94316 13.5155 5.58307 13.4211 6.28561C13.3997 7.01642 13.6649 7.72688 14.1606 8.26689C14.6563 8.80691 15.3437 9.13418 16.0776 9.17957ZM15.1536 6.30857C15.2691 5.78797 15.9236 5.58125 16.4011 5.61187C16.8785 5.6425 17.3559 5.91046 17.2789 6.48466C17.2782 6.63022 17.2452 6.77385 17.1823 6.90526C17.1193 7.03667 17.0279 7.15261 16.9145 7.24479C16.8012 7.33697 16.6688 7.4031 16.5268 7.43846C16.3848 7.47381 16.2367 7.47752 16.0931 7.44931C15.956 7.4359 15.8229 7.39574 15.7014 7.33112C15.58 7.2665 15.4726 7.17869 15.3853 7.07272C15.298 6.96676 15.2327 6.84472 15.1929 6.71359C15.1532 6.58246 15.1398 6.44484 15.1536 6.30857Z" fill="#1B1B1B"/>
<path d="M23.8778 9.04934C24.5833 9.00241 25.2463 8.69696 25.7384 8.19208C26.2306 7.68721 26.5169 7.0188 26.542 6.31616C26.5063 5.59581 26.1927 4.91688 25.6663 4.42063C25.14 3.92438 24.4414 3.64903 23.7161 3.65188C22.9709 3.70235 22.2708 4.02506 21.7505 4.55791C21.2302 5.09075 20.9265 5.79608 20.8978 6.53818C20.79 8.1689 22.3608 9.14887 23.8778 9.04934ZM23.7161 5.37448C23.9642 5.36944 24.205 5.45764 24.3906 5.62147C24.5762 5.7853 24.6927 6.0127 24.717 6.25825C24.7413 6.5038 24.6716 6.74942 24.5217 6.94607C24.3719 7.14272 24.1529 7.27593 23.9086 7.31909C23.4158 7.41096 22.6611 7.20425 22.6226 6.66068C22.6139 6.35012 22.7206 6.04726 22.9223 5.80998C23.1241 5.57271 23.4066 5.41766 23.7161 5.37448Z" fill="#1B1B1B"/>
<line x1="46" y1="23.5" x2="70" y2="23.5" stroke="#1B1B1B"/>
<line x1="46" y1="28.5" x2="70" y2="28.5" stroke="#1B1B1B"/>
<line x1="46" y1="33.5" x2="70" y2="33.5" stroke="#1B1B1B"/>
<line x1="55.1035" y1="38.5" x2="70.0001" y2="38.5" stroke="#1B1B1B"/>
<line x1="55.1035" y1="43.5" x2="70.0001" y2="43.5" stroke="#1B1B1B"/>
<g clip-path="url(#clip1_1686_18288)">
<path d="M38.2157 41.7005C37.9647 41.4029 37.7052 41.0949 37.4811 40.7908C36.591 39.5872 35.6598 38.3013 34.7591 37.0566C33.6069 35.4644 32.4168 33.8192 31.2889 32.3158V25.4075C31.9527 25.1759 32.4337 24.8896 32.7864 24.5189C33.3507 23.9236 33.5489 23.1437 33.3754 22.195C33.2352 21.4309 32.2971 20.2673 30.8971 20.0698C30.4763 20.0172 30.0526 19.9938 29.6289 20C29.1917 20 24.5719 20.0146 24.2012 20.0146C23.3327 20.0146 22.7474 20.0877 22.3028 20.2522C21.1195 20.6911 20.4361 21.8492 20.6012 23.1351C20.6727 23.7008 20.9143 24.2295 21.2923 24.6476C21.6704 25.0657 22.1661 25.3523 22.7105 25.4676C22.7352 27.0538 22.653 29.0535 22.625 29.7462C22.6171 30.1013 22.6287 30.4565 22.6598 30.8102C22.6968 31.3417 22.7321 31.8433 22.6351 32.2931C22.5554 32.6621 22.152 33.1238 21.7961 33.5308C21.6231 33.7288 21.4597 33.9155 21.3215 34.1017C21.1222 34.3723 20.9418 34.6272 20.7673 34.8767C20.7599 34.4979 20.7436 34.1277 20.7272 33.7597C20.6808 32.7168 20.6376 31.7324 20.8042 30.8914C20.8796 30.5126 21.0383 30.2127 21.2071 29.8956C21.4228 29.4881 21.6463 29.067 21.6664 28.5064C21.669 28.4296 21.653 28.3534 21.6199 28.2846C21.5868 28.2157 21.5375 28.1564 21.4765 28.1118C21.0457 27.798 20.521 27.7579 20.1124 27.7579C19.9415 27.7579 19.768 27.7655 19.6009 27.7731C19.4337 27.7806 14.4659 27.7871 14.4659 27.7871C14.3182 27.7871 13.6812 27.7585 13.5167 27.7585C13.117 27.7585 12.6044 27.799 12.1821 28.1151C12.1221 28.1599 12.0738 28.2192 12.0415 28.2877C12.0092 28.3563 11.9939 28.4319 11.997 28.508C12.0207 29.113 12.2865 29.5958 12.5206 30.0233C12.7057 30.3594 12.8808 30.6765 12.9324 31.0288C13.0585 31.8818 13.0179 32.9517 12.9746 34.0839C12.9514 34.6976 12.9277 35.3324 12.9277 35.978V46.0078C12.9277 46.3699 12.9214 46.7401 12.9156 47.0983C12.8844 48.9698 12.8554 50.7378 13.6538 51.719C14.3066 52.5216 15.4467 53.0005 16.7075 53.0005C17.7046 53.0005 18.6454 52.7083 19.3573 52.1779C20.0691 51.6476 20.5052 50.9164 20.6228 50.0543H32.3113C32.7506 50.0543 33.2209 50.0716 33.676 50.0879C34.1411 50.1052 34.6252 50.1225 35.0829 50.1225C36.1834 50.1225 36.9348 50.018 37.5186 49.7837C38.4224 49.42 39.1912 48.6012 39.6278 47.5372C39.873 46.939 39.9996 46.2966 40.0003 45.6475C40.0009 44.9985 39.8755 44.3558 39.6315 43.757C39.3289 43.0232 38.763 42.351 38.2157 41.7005ZM15.047 50.5652C14.5856 50.004 14.6641 49.1283 14.7548 48.1147C14.8076 47.5443 14.8603 46.9143 14.8181 46.2811C15.0174 46.2811 15.2305 46.2974 15.4556 46.3131C15.7024 46.3298 15.9582 46.3472 16.2013 46.3472C16.6938 46.3472 17.3012 46.2838 17.6324 45.7941C17.685 45.7165 17.7131 45.6242 17.7131 45.5297C17.7131 45.4352 17.685 45.3429 17.6324 45.2653C17.3012 44.7783 16.6933 44.7128 16.2013 44.7128C15.9582 44.7128 15.7024 44.7301 15.4551 44.7469C15.2078 44.7636 14.9805 44.7788 14.7696 44.7788H14.7659V42.4517C14.9768 42.4517 15.2152 42.4706 15.4662 42.4901C15.7298 42.5112 16.0014 42.5323 16.2572 42.5323C16.5525 42.5323 17.4515 42.5323 17.692 41.7709C17.7196 41.6833 17.7213 41.5894 17.6967 41.5009C17.6721 41.4124 17.6223 41.3334 17.5538 41.2741C17.1705 40.9407 16.6084 40.8952 16.1612 40.8952C15.9255 40.8952 15.6787 40.9088 15.4403 40.9218C15.202 40.9347 14.9789 40.9472 14.7675 40.9472V38.665H15.0338C15.3275 38.665 15.6391 38.665 15.9476 38.665H15.9571C16.0473 38.665 16.1485 38.671 16.2556 38.678C16.3742 38.6856 16.4971 38.6937 16.6194 38.6937C17.3724 38.6937 17.6213 38.3149 17.702 37.9961C17.722 37.9138 17.7197 37.8274 17.6954 37.7463C17.671 37.6653 17.6255 37.5926 17.5639 37.5361C17.1884 37.1941 16.6331 37.1502 16.1928 37.1502C15.9529 37.1502 15.7008 37.1648 15.4577 37.1789C15.2147 37.193 14.9832 37.207 14.7691 37.2065V34.7327H14.7733C14.9842 34.7327 15.2157 34.7479 15.4588 34.7647C15.7019 34.7814 15.9619 34.7988 16.205 34.7988C16.6969 34.7988 17.3049 34.736 17.6361 34.2462C17.6895 34.1673 17.7178 34.0733 17.7169 33.9773C17.7161 33.8812 17.6862 33.7878 17.6313 33.7099C17.2923 33.2282 16.6795 33.1687 16.1844 33.1687C15.9445 33.1687 15.6924 33.1849 15.4488 33.2006C15.2141 33.2158 14.9916 33.2304 14.7844 33.2309C14.8213 31.7394 14.691 30.5791 14.3825 29.6705H19.314C19.1142 30.1575 18.9644 30.6338 18.9101 31.234C18.7472 33.028 18.7988 35.0639 18.8531 37.2189C18.88 38.2981 18.9059 39.414 18.9059 40.5121V45.13C18.9059 45.6902 18.9322 46.2606 18.9586 46.8126C19.0071 47.8722 19.0535 48.8729 18.9138 49.6652C18.745 50.6252 17.5776 51.2189 16.5936 51.2189C15.9424 51.2206 15.3945 50.9868 15.047 50.5652ZM35.3075 48.2678C34.8514 48.2678 20.7388 48.171 20.7388 48.171V40.596C20.7388 40.2821 20.7188 39.9465 20.6998 39.6218C20.6645 39.0189 20.6281 38.396 20.7235 38.0075C20.8074 37.7412 21.581 36.7519 21.8409 36.5739C21.9397 36.5537 22.0403 36.5448 22.141 36.5473C22.3587 36.5473 22.6155 36.5728 22.8892 36.6015C23.1866 36.6312 23.4941 36.6615 23.782 36.6615C24.1316 36.6615 24.6331 36.622 24.9563 36.2827C25.0892 36.1436 25.2458 35.8936 25.2379 35.492C25.2364 35.3854 25.1991 35.2826 25.1324 35.2009C24.816 34.822 24.304 34.7679 23.8927 34.7679C23.6865 34.7679 23.4709 34.782 23.2631 34.7955L23.0353 34.8096C23.1376 34.6764 23.2578 34.5428 23.3854 34.4004C23.8553 33.8777 24.4258 33.2434 24.4749 32.1886C24.6858 32.1886 24.9099 32.2038 25.1488 32.22C25.3877 32.2362 25.645 32.253 25.887 32.253C26.2303 32.253 27.2754 32.253 27.4816 31.2994C27.5037 31.1958 27.4906 31.0876 27.4447 30.9926C27.1099 30.302 26.2509 30.302 25.9276 30.302C25.6819 30.302 25.423 30.3199 25.1725 30.3367C24.922 30.3534 24.6837 30.3697 24.4664 30.3697V27.0122C24.6832 27.0122 24.9226 27.0289 25.1741 27.0468C25.4256 27.0646 25.6877 27.0841 25.935 27.0841C26.2514 27.0841 27.2143 27.0841 27.4716 26.2437C27.5008 26.1475 27.4988 26.0441 27.4658 25.9493C27.1816 25.131 26.2403 25.131 25.8839 25.131C25.6439 25.131 25.3919 25.1472 25.1456 25.1635C24.8994 25.1797 24.671 25.1921 24.4601 25.1938C24.4601 25.1721 24.4601 25.1494 24.4601 25.1272C24.4754 24.7522 24.4912 24.3636 24.3283 24.0535C24.2944 23.9894 24.2464 23.9344 24.188 23.8929C24.1297 23.8513 24.0627 23.8244 23.9924 23.8143C22.9351 23.6649 22.5454 23.3748 22.4046 23.1573C22.2944 22.9873 22.2765 22.7665 22.3519 22.4819C22.3946 22.3195 22.8792 21.9515 23.4535 21.8665C23.6802 21.833 28.8732 21.84 29.1907 21.84C30.0428 21.84 31.0695 21.8941 31.4523 22.2941C31.5304 22.3758 31.6327 22.5198 31.6258 22.8299C31.6153 23.3169 31.4149 23.4252 30.6239 23.6498C30.3435 23.7217 30.0687 23.8151 29.8018 23.929C29.7294 23.9618 29.6666 24.0136 29.6198 24.0791C29.573 24.1447 29.5437 24.2217 29.535 24.3024C29.3768 25.7837 29.4158 32.3807 29.5461 32.9073C29.631 33.2499 29.9331 33.626 30.2843 34.0617C30.4024 34.2089 30.5248 34.3615 30.6355 34.5087C32.1837 36.5771 37.1431 43.33 37.2939 43.5092C37.5291 43.7868 37.7511 44.0504 37.8851 44.3134C38.2631 45.0564 38.2853 46.0387 37.9431 46.8764C37.6852 47.508 37.2533 47.9588 36.7577 48.1141C36.4207 48.217 35.9466 48.2678 35.3075 48.2678Z" fill="#231F20"/>
</g>
</g>
<defs>
<clipPath id="clip0_1686_18288">
<rect width="76.1538" height="60" fill="white"/>
</clipPath>
<clipPath id="clip1_1686_18288">
<rect width="28" height="33" fill="white" transform="translate(12 20)"/>
</clipPath>
</defs>
</svg>
